<svg xmlns="http://www.w3.org/2000/svg" viewBox="0 0 24 24"><path fill="currentColor" d="M12 1a11 11 0 1011 11A11 11 0 0012 1zM3.33 13.78a.07.07 0 01-.07.07.08.08 0 01-.07-.07l-.13-1 .13-1a.08.08 0 01.07-.07.07.07 0 01.07.07l.16 1zm.67.6a.07.07 0 01-.07.07.08.08 0 01-.08-.07l-.17-1.59.17-1.61a.08.08 0 01.08-.07.06.06 0 01.07.07l.2 1.61zm.73.26a.1.1 0 01-.19 0l-.16-1.85.16-1.91a.1.1 0 01.19 0l.19 1.91zm.72.06a.11.11 0 01-.1.11.12.12 0 01-.11-.11l-.16-1.9.16-2a.11.11 0 01.11-.1.1.1 0 01.1.1l.18 2zm.74 0a.14.14 0 01-.12.12.12.12 0 01-.07-.1l-.2-1.92L6 11a.12.12 0 01.12-.12.13.13 0 01.12.12l.17 1.83zm.74 0a.15.15 0 01-.14.13.13.13 0 01-.13-.13l-.15-1.9.15-3a.13.13 0 01.13-.13.15.15 0 01.14.13l.16 3zm.74 0a.15.15 0 01-.3 0l-.13-1.9.13-3.66a.15.15 0 01.3 0l.15 3.66zm.75 0a.16.16 0 01-.16.16.17.17 0 01-.17-.16L8 12.8l.12-4a.17.17 0 01.17-.17.16.16 0 01.16.17l.14 4zm.76 0a.18.18 0 01-.18.19.18.18 0 01-.18-.18L8.7 12.8l.12-4.1a.18.18 0 01.36 0l.13 4.1zm.77 0a.2.2 0 01-.2.19.19.19 0 01-.2-.19l-.1-1.86.1-4a.2.2 0 01.2-.2.21.21 0 01.2.2l.11 4zm.76 0a.21.21 0 11-.42 0l-.1-1.85.1-3.85a.21.21 0 01.42 0l.11 3.85zm.78 0a.23.23 0 11-.46 0L11 12.8V8.22a.23.23 0 01.46 0l.1 4.58zm.77 0a.25.25 0 01-.49 0l-.1-1.81.1-5a.25.25 0 01.49 0l.11 5zm6.59.26h-6.14a.26.26 0 01-.24-.26v-7c0-.13 0-.19.21-.26a4.12 4.12 0 011.42-.26 3.91 3.91 0 013.9 3.43 2.22 2.22 0 11.86 4.26z"/></svg>