<svg xmlns="http://www.w3.org/2000/svg" viewBox="0 0 24 24"><path fill="currentColor" d="M22.93 7.46a8 8 0 00-.51-2.67 5.26 5.26 0 00-1.27-1.94 5.26 5.26 0 00-1.94-1.27 8 8 0 00-2.67-.51C15.36 1 15 1 12 1s-3.36 0-4.54.07a8 8 0 00-2.67.51 5.26 5.26 0 00-1.94 1.27 5.26 5.26 0 00-1.27 1.94 8 8 0 00-.51 2.67C1 8.64 1 9 1 12s0 3.36.07 4.54a8 8 0 00.51 2.67 5.26 5.26 0 001.27 1.94 5.26 5.26 0 001.94 1.27 8 8 0 002.67.51C8.64 23 9 23 12 23s3.36 0 4.54-.07a8 8 0 002.67-.51 5.67 5.67 0 003.21-3.21 8 8 0 00.51-2.67C23 15.36 23 15 23 12s0-3.36-.07-4.54zm-2 9a6.22 6.22 0 01-.37 2 3.74 3.74 0 01-2.09 2.09 6.22 6.22 0 01-2 .37C15.29 21 14.94 21 12 21H7.56a6.22 6.22 0 01-2-.37 3.34 3.34 0 01-1.26-.83 3.34 3.34 0 01-.83-1.26 6.22 6.22 0 01-.37-2C3 15.28 3 14.94 3 12s0-3.29.07-4.45a6.2 6.2 0 01.37-2 3.34 3.34 0 01.83-1.26 3.34 3.34 0 011.26-.83 6 6 0 012.05-.37C8.71 3 9.06 3 12 3s3.29 0 4.44.07a6 6 0 012 .37 3.34 3.34 0 011.26.83 3.34 3.34 0 01.83 1.26 6.2 6.2 0 01.37 2c.1 1.18.1 1.53.1 4.47v4.44z"/><path fill="currentColor" d="M12 6.35A5.65 5.65 0 1017.65 12 5.65 5.65 0 0012 6.35zm0 9.32A3.67 3.67 0 1115.67 12 3.67 3.67 0 0112 15.67z"/><circle cx="17.87" cy="6.13" r="1.32" fill="currentColor"/></svg>