<svg xmlns="http://www.w3.org/2000/svg" viewBox="0 0 24 24"><path fill="currentColor" d="M12.07 8.87a1.13 1.13 0 00-1 1.7l1 1.54s.63-.91 1-1.54a1.14 1.14 0 00-1-1.7z"/><path fill="currentColor" d="M21.53 6.17l-9.06-5.06a1 1 0 00-.94 0L2.47 6.17a1 1 0 00-.47.77v10.12a1 1 0 00.47.77l9.06 5.06a1 1 0 00.94 0l9.06-5.06a1 1 0 00.47-.77V6.94a1 1 0 00-.47-.77zm-11 11.19a1 1 0 01-.72.4 1 1 0 01-.73-.41L5 11.53a2.54 2.54 0 01-.16-2.66 2.94 2.94 0 013.8-1.38l-.81 1.44a1.34 1.34 0 00-.35 0 1.12 1.12 0 00-1 1.69c.4.63 1 1.54 1 1.54l2.32 3.11.89-1.21 1.05 1.5zm4.55 0a1 1 0 01-.71.4 1 1 0 01-.71-.38L12.07 15 11 13.56c-.64-.93-1.42-2-1.42-2a2.56 2.56 0 01-.16-2.67 3 3 0 015.28 0 2.57 2.57 0 01-.18 2.7l-1.39 2 1.21 1.79L16.73 12h2.05z"/></svg>