<svg xmlns="http://www.w3.org/2000/svg" viewBox="0 0 24 24"><path fill="currentColor" d="M19.79 4.2A10.93 10.93 0 002.55 17.35L1 23l5.81-1.52A11 11 0 0012 22.81a10.94 10.94 0 0011-10.9 10.81 10.81 0 00-3.21-7.71zM12.05 21a9.17 9.17 0 01-4.63-1.26l-.33-.2-3.45.9.92-3.34-.22-.35A9.09 9.09 0 0118.49 5.5a9 9 0 012.66 6.41 9.09 9.09 0 01-9.1 9.09zm5-6.79c-.27-.13-1.62-.79-1.87-.88s-.43-.14-.62.13a13.32 13.32 0 01-.86 1.07c-.16.18-.32.21-.6.07a7.61 7.61 0 01-2.2-1.35 8.3 8.3 0 01-1.52-1.89.39.39 0 01.12-.55c.12-.13.27-.32.41-.48a1.64 1.64 0 00.27-.46.46.46 0 000-.47c-.07-.14-.61-1.48-.84-2s-.45-.46-.62-.46h-.55a1 1 0 00-.73.34 3 3 0 00-1 2.27A5.26 5.26 0 007.6 12.3a12.15 12.15 0 004.67 4.11 15.66 15.66 0 001.56.57 3.77 3.77 0 001.73.11 2.82 2.82 0 001.84-1.29 2.25 2.25 0 00.16-1.3c-.06-.11-.25-.18-.56-.32z"/></svg>