<svg xmlns="http://www.w3.org/2000/svg" viewBox="0 0 48 48"><path fill="none" stroke="#003CB4" stroke-miterlimit="10" stroke-width="1.5" d="M28.73 38l11.89-6c3.68-1.72 5.49.31 5.94 1.25 1 2.17.38 4.17-2.72 5.75l-15.35 8H1V33.25L9.42 31h16.1c3 0 4.7 1.59 4.7 4-.12 2.33-2.12 4.12-4.45 4H15.12"/><path fill="#00BEC8" stroke="#00BEC8" stroke-miterlimit="10" stroke-width="1.5" d="M35.83 11.61c-3.77 3.68-9.5 2-9.5 2-.94-3.7.21-7.62 3-10.23 3.77-3.68 9.24-2 9.24-2 1.12 3.66.06 7.63-2.74 10.23z"/><path fill="none" stroke="#003CB4" stroke-miterlimit="10" stroke-width="1.5" d="M24.01 21v10M20.2 12.35c4.2 3.31 3.8 9.57 3.8 9.57-3.9 1.21-8.15.47-11.4-2C8.38 16.61 9 10.84 9 10.84c3.74-1.54 8.01-.96 11.2 1.51z"/></svg>