<svg xmlns="http://www.w3.org/2000/svg" viewBox="0 0 48 48"><path fill="none" stroke="currentColor" stroke-miterlimit="10" stroke-width="1.5" d="M22.5 47H1V16h21.5a4.51 4.51 0 014.5 4.5v22a4.51 4.51 0 01-4.5 4.5z"/><path fill="currentColor" stroke="currentColor" stroke-miterlimit="10" stroke-width="1.5" d="M1 16h2v31H1z"/><g stroke="#00bec8" stroke-miterlimit="10"><circle cx="15" cy="32" r="2" fill="#00bec8" stroke-width="1.5"/><path fill="none" stroke-width="1.5" d="M20.2 35a6 6 0 110-6"/><path fill="none" stroke-width="2" d="M17 32h5"/></g><path fill="none" stroke="currentColor" stroke-miterlimit="10" stroke-width="1.5" d="M21 16V6h21.5a4.51 4.51 0 014.5 4.5v22a4.51 4.51 0 01-4.5 4.5H27"/><path fill="currentColor" stroke="currentColor" stroke-miterlimit="10" stroke-width="1.35" d="M21 6h2v10h-2z"/><path fill="none" stroke="currentColor" stroke-miterlimit="10" stroke-width="1.5" d="M17 6H5a4 4 0 00-4 4v3"/><path fill="none" stroke="currentColor" stroke-miterlimit="10" stroke-width="1.5" d="M12 1l5 5-4.99 5"/></svg>