<svg xmlns="http://www.w3.org/2000/svg" viewBox="0 0 48 48"><path fill="none" stroke="currentColor" stroke-miterlimit="10" stroke-width="1.49" d="M9 46.25h29a5.76 5.76 0 100-11.5H28a6 6 0 010-12h11"/><path fill="none" stroke="currentColor" stroke-miterlimit="10" stroke-width="1.5" d="M39 22.5s-8-7.73-8-13a8 8 0 0116 0c0 5.67-8 13-8 13z"/><path fill="#00bec8" stroke="#00bec8" stroke-miterlimit="10" stroke-width="1.5" d="M39 6.5a3 3 0 103 3 3 3 0 00-3-3zM9 30.5a3 3 0 103 3 3 3 0 00-3-3z"/><path fill="none" stroke="currentColor" stroke-miterlimit="10" stroke-width="1.5" d="M9 46s-8-7.73-8-13a8 8 0 0116 0c0 5.67-8 13-8 13z"/></svg>