<svg xmlns="http://www.w3.org/2000/svg" viewBox="0 0 48 48"><path fill="none" stroke="currentColor" stroke-miterlimit="10" stroke-width="1.5" d="M2 10V2h8M2 38v8h8M46 10V2h-8M46 38v8h-8"/><path fill="#00bec8" stroke="#00bec8" stroke-miterlimit="10" stroke-width="1.5" d="M24 9c-5.52 0-10 3.86-10 8.75v12.5C14 35.14 18.48 39 24 39s10-3.86 10-8.75v-12.5C34 12.86 29.52 9 24 9zm-6.5 12v10.75h-3V21c0-1.75.24-4.33 1.5-6l.25-.5 2.5 1.87-.5.63c-.56.74-.75 2.09-.75 4zm8 15.75h-3v-7.5h3zm0-9h-3V19h3zm4 7h-3V20a2.5 2.5 0 00-5 0v14.75h-3V20a5.5 5.5 0 0111 0zm4-5h-3V19c0-3.14-3.1-6-6.5-6a4.57 4.57 0 00-3 1l-.75.5-1.75-2 .5-.5a6.62 6.62 0 015-2c5.06 0 9.5 4.21 9.5 9z"/></svg>