<svg xmlns="http://www.w3.org/2000/svg" viewBox="0 0 48 48"><path fill="currentColor" stroke="currentColor" stroke-miterlimit="10" stroke-width="1.5" d="M21.5 22.75a1 1 0 11-1 1 1 1 0 011-1"/><path fill="#00bec8" stroke="#00bec8" stroke-miterlimit="10" stroke-width="1.5" d="M11.75 12.5a4 4 0 11-4 4 4 4 0 014-4M25.75 8.76a4 4 0 11-4 4 4 4 0 014-4M33.5 20a4 4 0 11-4 4 4 4 0 014-4M25.75 31.25a4 4 0 11-4 4 4 4 0 014-4M12 27a4 4 0 11-4 4 4 4 0 014-4"/><circle cx="21.5" cy="23.75" r="20.75" fill="none" stroke="currentColor" stroke-miterlimit="10" stroke-width="1.5"/><path fill="none" stroke="currentColor" stroke-miterlimit="10" stroke-width="1.5" d="M48 44.5H22"/></svg>