<svg xmlns="http://www.w3.org/2000/svg" viewBox="0 0 48 48"><path fill="#00bec8" stroke="#00bec8" stroke-miterlimit="10" stroke-width="1.5" d="M44 19.25H4V46c0 .55.45 1.25 1 1.25h6c.55 0 1-.7 1-1.25v-2h24v2c0 .55.45 1.25 1 1.25h6c.55 0 1-.7 1-1.25zM13.5 35a1.55 1.55 0 01-.5 1.25 3.76 3.76 0 01-1.5.25L5.75 35a1.48 1.48 0 01-1-1.5v-1.25a1.5 1.5 0 011.5-1.5H12a1.5 1.5 0 011.5 1.5zm18 4.75h-15v-3h15zm0-4h-15v-3h15zm0-4.25h-15v-3h15zm11.75 2a1.48 1.48 0 01-1 1.5l-5.75 1.5a3.76 3.76 0 01-1.5-.25 1.55 1.55 0 01-.5-1.25v-2.75a1.5 1.5 0 011.5-1.5h5.75a1.5 1.5 0 011.5 1.5z"/><path fill="none" stroke="currentColor" stroke-miterlimit="10" stroke-width="1.5" d="M4 .75h40v18H4z"/><path fill="currentColor" stroke="currentColor" stroke-miterlimit="10" stroke-width="1.5" d="M3.25 18.75h-1.5a1 1 0 01-1-1v-6.5a1 1 0 011-1h1.5zM44.75 18.75h1.5a1 1 0 001-1v-6.5a1 1 0 00-1-1h-1.5z"/></svg>