<svg xmlns="http://www.w3.org/2000/svg" viewBox="0 0 48 48"><path fill="#00bec8" stroke="#00bec8" stroke-miterlimit="10" stroke-width="1.5" d="M43 28.25v3.25c2 1.31 4 4 4 6.5 0 4-4.83 9-9 9-3.28 0-8-5-8-9 0-2.52 2-5.19 4-6.5v-3.25z"/><path fill="none" stroke="currentColor" stroke-miterlimit="10" stroke-width="1.5" d="M47.25 38.75a9.14 9.14 0 00-3.75-7.5V5.5c0-2.5-2.6-4.75-5-4.75a5 5 0 00-5 4.75v25.75a9.14 9.14 0 00-3.75 7.5 8.69 8.69 0 008.75 8.5c4.5 0 8.75-3.94 8.75-8.5zM11.5 2.5v23M22.5 20.25L.5 7.5M22.5 7.5L.5 20.25"/></svg>