<svg xmlns="http://www.w3.org/2000/svg" viewBox="0 0 48 48"><path fill="none" stroke="currentColor" stroke-miterlimit="10" stroke-width="1.5" d="M13 15h0A11 11 0 0124 4h0a11 11 0 0111 11h0v16a11 11 0 01-11 11h0a11 11 0 01-11-11zM34 11l5-2M14 11L9 9M35 30h5M35 23h5M8 23h5M8 30h5M29 41l3 4M19 41l-3 4M29 5l3-4M19 5l-3-4"/><circle cx="22" cy="15" r="4" fill="#00bec8" stroke="#00bec8" stroke-miterlimit="10" stroke-width="1.5"/><circle cx="29" cy="24" r="3" fill="#00bec8" stroke="#00bec8" stroke-miterlimit="10" stroke-width="1.5"/><circle cx="21" cy="32" r="2" fill="#00bec8" stroke="#00bec8" stroke-miterlimit="10" stroke-width="1.5"/></svg>