<svg xmlns="http://www.w3.org/2000/svg" viewBox="0 0 48 48"><path fill="none" stroke="#003CB4" stroke-miterlimit="10" stroke-width="1.5" d="M.75 29v19M11.25 29c.08 2.68-2.24 5-5.43 5-2.68 0-5.13-2.28-5.07-4.97V21.5c-.08-2.68 2.36-5 5.25-5 2.75 0 5.31 2.28 5.25 4.97V29zM43.65 31.05h0M21.74 25.75L18 6.75A5.166 5.166 0 0122.25 1h0a5.078 5.078 0 016 3.75l4.25 21"/><path fill="none" stroke="#003CB4" stroke-miterlimit="10" stroke-width="1.5" d="M17.5 34h-1.75c-2.68 0-4.56-2.28-4.5-4.97V21.5a4.86 4.86 0 014.72-5h.78c1.32.03 2.57.57 3.5 1.5M42.75 27.75l4.25-21A5.166 5.166 0 0042.75 1h0a5.078 5.078 0 00-6 3.75l-4 21"/><path fill="none" stroke="#003CB4" stroke-miterlimit="10" stroke-width="1.5" d="M30.25 36.25H22c-2.71 0-5-1.79-5-4.5v-1a5.067 5.067 0 015-5h16.75c2.75.04 4.96 2.25 5 5V48"/><path fill="#00BEC8" stroke="#00BEC8" stroke-miterlimit="10" stroke-width="1.5" d="M.75 42.25h43v5h-43z"/></svg>