<svg xmlns="http://www.w3.org/2000/svg" viewBox="0 0 48 48"><path fill="#00bec8" stroke="#00bec8" stroke-miterlimit="10" stroke-width="1.5" d="M.75 19.75h11.5v27.5H.75z"/><path fill="none" stroke="currentColor" stroke-miterlimit="10" stroke-width="1.5" d="M12.5 19.25L21.25 3a3.87 3.87 0 013.5-2.25 3.81 3.81 0 014 4c-.11 2.46-6 14.5-6 14.5h21.5c1.62 0 3.14 1.86 3 3.75s-1.54 3.49-3.5 3.25c-.53-.07-1.5-.25-1.5-.25 1.57.37 3.44 1.48 3.25 3.75a3.59 3.59 0 01-3.25 3.5A6.69 6.69 0 0140.5 33s4.17.9 3.25 4.25c-.52 1.9-1.58 3-3 3A10.11 10.11 0 0139 40h0a4 4 0 013 3.72 3.48 3.48 0 01-3.5 3.53h-26z"/></svg>