<svg xmlns="http://www.w3.org/2000/svg" viewBox="0 0 48 48"><path fill="none" stroke="currentColor" stroke-miterlimit="10" stroke-width="1.5" d="M31 47H7V13h24a5 5 0 015 5v24a5 5 0 01-5 5z"/><path fill="currentColor" stroke="currentColor" stroke-miterlimit="10" stroke-width="1.5" d="M7 13h2v34H7z"/><g stroke="currentColor" stroke-miterlimit="10"><circle cx="22" cy="30" r="2" fill="currentColor" stroke-width="1.5"/><path fill="none" stroke-width="1.5" d="M27 33a5.69 5.69 0 01-5 3 6 6 0 010-12 5.69 5.69 0 015 3"/><path fill="none" stroke-width="2" d="M24 30h5"/></g><path fill="#00bec8" stroke="#00bec8" stroke-miterlimit="10" stroke-width="1.5" d="M38.5 4a7 7 0 107 7 7 7 0 00-7-7zM37 16l-4.5-4.5 2-2L37 12l5.25-5.25 2 2z"/><path fill="none" stroke="currentColor" stroke-miterlimit="10" stroke-width="1.5" d="M22 0v9M26 5l-4 4-4-4"/></svg>