<svg xmlns="http://www.w3.org/2000/svg" id="identifikation-pikto" x="0" y="0" version="1.1" viewBox="0 0 48 48" xml:space="preserve"><style>.st0,.st1{fill:none;stroke:currentColor;stroke-width:1.5;stroke-miterlimit:10}.st1{fill:#00bec8;stroke:#00bec8}</style><path d="M27 9h16c2.2 0 4 1.8 4 4v26c0 2.2-1.8 4-4 4H5c-2.2 0-4-1.8-4-4V13c0-2.2 1.8-4 4-4h16" class="st0"/><path d="M22 38s0-7-8-7-8 7-8 7h16z" class="st1"/><path d="M27 18h15M27 22h15M27 26h15M21 4h6v10h-6z" class="st0"/><circle cx="14" cy="22" r="6" class="st1"/></svg>