<svg xmlns="http://www.w3.org/2000/svg" viewBox="0 0 48 48"><path fill="#00bec8" stroke="#00bec8" stroke-miterlimit="10" stroke-width="1.5" d="M18.75 18a6 6 0 01-.5-6.75c-3.59 5.64-16 33.5-16 33.5S16 31.82 24 23.69A67.69 67.69 0 0118.75 18zM24 12.25A1.75 1.75 0 1025.75 14 1.76 1.76 0 0024 12.25z"/><path fill="none" stroke="currentColor" stroke-miterlimit="10" stroke-width="1.5" d="M24 7.5V0M29.25 10.25a6.25 6.25 0 00-9-1.5c-2.77 2.11-3.63 6.5-1.5 9.25 3.51 4.53 27 26.75 27 26.75S32.5 15 29.25 10.25z"/></svg>