<svg xmlns="http://www.w3.org/2000/svg" viewBox="0 0 48 48"><path fill="#00BEC8" stroke="#00BEC8" stroke-miterlimit="10" stroke-width="1.42" d="M14 37.2c0 2.65-2.14 4.8-4.77 4.8-2.61 0-4.73-2.13-4.73-4.75s2.12-4.75 4.73-4.75c2.6-.01 4.73 2.08 4.77 4.7M38 37.2c0 2.65-2.14 4.8-4.77 4.8-2.61 0-4.73-2.13-4.73-4.75s2.12-4.75 4.73-4.75c2.6-.01 4.73 2.08 4.77 4.7"/><circle cx="12" cy="33" r="11" fill="none" stroke="currentColor" stroke-miterlimit="10" stroke-width="1.5"/><circle cx="36" cy="33" r="11" fill="none" stroke="currentColor" stroke-miterlimit="10" stroke-width="1.5"/><path fill="none" stroke="currentColor" stroke-miterlimit="10" stroke-width="1.5" d="M26 17c2.37-3.13 6.07-4.97 10-4.99A13.2 13.2 0 0146 16M2 9c2.37-3.13 6.07-4.97 10-4.99A13.2 13.2 0 0122 8"/></svg>