<svg xmlns="http://www.w3.org/2000/svg" viewBox="0 0 48 48"><path fill="#00bec8" stroke="#00bec8" stroke-miterlimit="10" stroke-width="1.5" d="M24 1.75V8.5a4.52 4.52 0 014.5 4.5 4.31 4.31 0 01-4.5 4.25V24h6.75a4.5 4.5 0 009 0h6.5V1.75z"/><path fill="none" stroke="currentColor" stroke-miterlimit="10" stroke-width="1.5" d="M24 46.25H1.75V24M46.25 24h-6.5a4.5 4.5 0 01-9 0H24v6.75a4.5 4.5 0 000 9v6.5h22.25zM1.75 24H8.5a4.52 4.52 0 014.5-4.5 4.31 4.31 0 014.25 4.5H24v-6.75A4.31 4.31 0 0028.5 13 4.52 4.52 0 0024 8.5V1.75H1.75z"/></svg>