<svg xmlns="http://www.w3.org/2000/svg" viewBox="0 0 48 48"><path fill="none" stroke="currentColor" stroke-miterlimit="10" stroke-width="1.5" d="M25 35H1V1h24a5 5 0 015 5v24a5 5 0 01-5 5z"/><path fill="currentColor" stroke="currentColor" stroke-miterlimit="10" stroke-width="1.5" d="M1 1h2v34H1z"/><circle cx="16" cy="18" r="2" fill="#00bec8" stroke="#00bec8" stroke-miterlimit="10" stroke-width="1.5"/><path fill="none" stroke="#00bec8" stroke-miterlimit="10" stroke-width="1.5" d="M21.25 21A6.1 6.1 0 0116 24a6 6 0 010-12 6.1 6.1 0 015.25 3"/><path fill="none" stroke="#00bec8" stroke-miterlimit="10" stroke-width="2" d="M18 18h5"/><path fill="none" stroke="currentColor" stroke-miterlimit="10" stroke-width="1.5" d="M26 42h12a4 4 0 004-4v-3"/><path fill="none" stroke="currentColor" stroke-miterlimit="10" stroke-width="1.5" d="M31 47l-5-5 5-5"/></svg>