<svg xmlns="http://www.w3.org/2000/svg" viewBox="0 0 48 48"><path fill="none" stroke="currentColor" stroke-miterlimit="10" stroke-width="1.5" d="M47 22v25H1V22L24 1l23 21z"/><g fill="#00bec8"><circle cx="23.71" cy="21.92" r="2.13"/><path d="M6 9v16l18 10.5L42 25V9zm25.39 14a2.92 2.92 0 01-2.67 2.58 2.57 2.57 0 01-1.89-.76 2.38 2.38 0 01-.4-.5 3.62 3.62 0 11-.43-5.17v-.59h1.5v4.31a1.18 1.18 0 00.36.85 1.1 1.1 0 00.81.33 1.43 1.43 0 001.21-1.3 5.49 5.49 0 00.06-.83 6 6 0 10-1.7 4.17l1.07 1A7.39 7.39 0 0124 29.38a7.46 7.46 0 117.46-7.46 9.1 9.1 0 01-.07 1.08z"/></g><path fill="none" stroke="currentColor" stroke-miterlimit="10" stroke-width="1.5" d="M1 22l23 13.5L47 22"/></svg>