<svg xmlns="http://www.w3.org/2000/svg" viewBox="0 0 48 48"><path fill="#00bec8" stroke="#00bec8" stroke-miterlimit="10" stroke-width="1.5" d="M36.25 15h-2v5h2c3.46 0 6.75 2.61 6.75 6.25v5.25c0 3.64-3.54 6.2-7 6.5h-2v4.75h2A11 11 0 0047 31.5v-5.25c0-6.41-4.65-11.4-10.75-11.25z"/><path fill="none" stroke="currentColor" stroke-miterlimit="10" stroke-width="1.5" d="M34 11v30c0 2.91-2.23 5.75-5.25 5.75H6.5A5.82 5.82 0 011 41V11M10 22v20"/><path fill="none" stroke="currentColor" stroke-miterlimit="10" stroke-width="1.5" d="M6.25 16.75C3.17 16.75 1 14 1 11s2-5 5.25-5a5.32 5.32 0 015.5-5.25A5.54 5.54 0 0117.5 6 5.32 5.32 0 0123 .75 5.32 5.32 0 0128.5 6c3.08 0 5.5 2.05 5.5 5a5.75 5.75 0 01-5.5 5.75zM18 22v20M26 22v20"/></svg>