<svg xmlns="http://www.w3.org/2000/svg" viewBox="0 0 48 48"><path fill="#00BEC8" stroke="#00BEC8" stroke-miterlimit="10" stroke-width="1.5" d="M1 42h38.75v5.25H1z"/><path fill="none" stroke="#003CB4" stroke-miterlimit="10" stroke-width="1.5" d="M26.25.75s4.5 2.6 0 5.5h0s-4.5 2.6 0 5.5M11.75.75s4.5 2.6 0 5.5h0s-4.5 2.6 0 5.5M19 .75s4.5 2.6 0 5.5h0s-4.5 2.6 0 5.5M37 15.5h3c3.77-.1 6.9 2.88 7 6.66v.34c.1 3.77-2.88 6.9-6.66 7H36"/><path fill="none" stroke="#003CB4" stroke-miterlimit="10" stroke-width="1.5" d="M37 15.5H1v10c0 6.91 5.93 12.92 12.5 15h11c6.56-2.08 12.18-7.87 12.5-15v-10z"/></svg>