<svg xmlns="http://www.w3.org/2000/svg" viewBox="0 0 48 48"><path fill="#00bec8" stroke="#00bec8" stroke-miterlimit="10" stroke-width="1.5" d="M35.75 2.5c1 1.73 5.56 9.63 7.75 13.5 1.62-1.38 3.43-4.37 3.5-6.5a7.26 7.26 0 00-7-7.75 16.63 16.63 0 00-4.25.75zM8 1.75A7.26 7.26 0 001 9.5c.07 2.13 1.88 5.12 3.5 6.5 2.19-3.87 6.73-11.77 7.75-13.5A16.63 16.63 0 008 1.75z"/><path fill="none" stroke="currentColor" stroke-miterlimit="10" stroke-width="1.5" d="M24 15.5c-4 0-9 6.06-9 11v1.25a6 6 0 006 6h6a6 6 0 006-6V26.5c0-4.94-5-11-9-11z"/><path fill="none" stroke="currentColor" stroke-miterlimit="10" stroke-width="1.5" d="M12.5 2.5s-5.95 9.89-8.25 14a15.4 15.4 0 00-2 8C2.25 37 13.74 46.25 24 46.25a21.19 21.19 0 0015.53-7 22.43 22.43 0 006.22-14.7 16.07 16.07 0 00-2.14-8c-2.29-4.09-8.11-14-8.11-14zM28 29.5h-8"/><path fill="currentColor" stroke="currentColor" stroke-miterlimit="10" stroke-width="1.54" d="M24 21.25a1.25 1.25 0 101.25 1.25A1.25 1.25 0 0024 21.25z"/></svg>