<svg xmlns="http://www.w3.org/2000/svg" viewBox="0 0 48 48"><path fill="none" stroke="#003CB4" stroke-miterlimit="10" stroke-width="1.5" d="M8.58 13c-2.97.24-5.32 2.57-5.56 5.5L6.31 20c-.94 1.88-1.54 3.91-1.77 6H1v8l7.08 4c1.14 1.53 2.5 2.88 4.04 4l1.01 5h4.04l1.26-2.75c1.32.4 2.67.65 4.04.75 1.54-.03 3.08-.29 4.55-.75L28.3 47h4.04l1.01-5.75c4.15-3.39 6.56-8.43 6.57-13.75.04-9.63-7.83-17.47-17.57-17.5-3.99-.01-7.86 1.31-10.99 3.75-.86-.43-1.81-.69-2.78-.75z"/><path fill="none" stroke="#003CB4" stroke-miterlimit="10" stroke-width="1.5" d="M43.46 24c1.95 0 3.54 1.57 3.54 3.5S45.42 31 43.46 31c-1.95 0-3.54-1.57-3.54-3.5"/><path fill="#00BEC8" stroke="#00BEC8" stroke-miterlimit="10" stroke-width="1.5" d="M25.65 14a7.1 7.1 0 003.5-6c0-3.87-3.14-7-7-7-3.87 0-7 3.14-7 7 0 2.45 1.29 4.73 3.39 6h7.11z"/><path fill="none" stroke="#003CB4" stroke-miterlimit="10" stroke-width="1.5" d="M15.15 15h14.16"/></svg>