<svg xmlns="http://www.w3.org/2000/svg" viewBox="0 0 48 48"><path fill="none" stroke="currentColor" stroke-miterlimit="10" stroke-width="1.5" d="M9.5 28.75H.75v-28h46.5v28H35"/><path fill="#00bec8" stroke="#00bec8" stroke-width="1.5" d="M28.75 21.25A8.88 8.88 0 0020 28c0 .48 5.71 5.94 4.25 10.25a8.39 8.39 0 004.5 1.25A9.33 9.33 0 0038 30.25a9.12 9.12 0 00-9.25-9z"/><path fill="none" stroke="currentColor" stroke-miterlimit="10" stroke-width="1.5" d="M16 20.25H7.25v.25l2.83 3.5M9.25 6a2.25 2.25 0 000 4.5h4.25a2.25 2.25 0 000-4.5z"/><circle cx="14.5" cy="36.75" r="9.5" fill="none" stroke="currentColor" stroke-width="1.5"/><path fill="none" stroke="currentColor" stroke-miterlimit="10" stroke-width="1.5" d="M9.25 13a2.25 2.25 0 000 4.5h4.25a2.25 2.25 0 000-4.5z"/></svg>