<svg xmlns="http://www.w3.org/2000/svg" viewBox="0 0 48 48"><path fill="none" stroke="currentColor" stroke-miterlimit="10" stroke-width="1.5" d="M2.79 2h24.84M33.59 21V10l1.98-2M9.75 6h9.93l1.99 12H8.75z"/><path fill="none" stroke="currentColor" stroke-miterlimit="10" stroke-width="1.5" d="M1.5 31c2.62-5.95 9.53-8.64 15.44-6.01C21.25 26.91 24 31.25 23.9 36v1h8.44c1.5-3.99 5.93-6.01 9.9-4.5a7.68 7.68 0 014.01 3.5h.25V26c0-3-18.87-6-18.87-6L23.65 2H5.77L3.78 27.5"/><path fill="#00BEC8" stroke="#00BEC8" stroke-miterlimit="10" stroke-width="1.5" d="M39.55 33.5c-3.57 0-6.46 2.91-6.46 6.5s2.89 6.5 6.46 6.5 6.46-2.91 6.46-6.5-2.9-6.5-6.46-6.5zm0 10c-1.92 0-3.48-1.57-3.48-3.5s1.56-3.5 3.48-3.5 3.48 1.57 3.48 3.5-1.56 3.5-3.48 3.5z"/><g fill="#00BEC8" stroke="#00BEC8" stroke-miterlimit="10" stroke-width="1.5"><ellipse cx="12.23" cy="36" rx="4.47" ry="4.5"/><path d="M12.23 25.5C6.47 25.5 1.8 30.2 1.8 36s4.67 10.5 10.43 10.5S22.66 41.8 22.66 36h0c0-5.8-4.67-10.5-10.43-10.5zm0 18c-4.11 0-7.45-3.36-7.45-7.5s3.34-7.5 7.45-7.5 7.45 3.36 7.45 7.5-3.34 7.5-7.45 7.5h0z"/></g></svg>