<svg xmlns="http://www.w3.org/2000/svg" viewBox="0 0 48 48"><path fill="none" stroke="#003CB4" stroke-miterlimit="10" stroke-width="1.5" d="M24 4.5c11.74 0 21.25 9.51 21.25 21.25 0 .65.06 1.37 0 2M41.5 38c-6.49 9.61-19.55 12.14-29.16 5.65-.64-.43-1.26-.9-1.84-1.4M4.75 34.5A22.483 22.483 0 013 25.75 20.993 20.993 0 0115.25 6.5"/><path fill="#00BEC8" stroke="#00BEC8" stroke-miterlimit="10" stroke-width="1.5" d="M27.25 5A4.34 4.34 0 0123 9.25 4.125 4.125 0 0119 5a3.91 3.91 0 013.82-4H23a4.125 4.125 0 014.25 4zM9.25 35c.01 2.3-1.82 4.19-4.12 4.25A4.241 4.241 0 011 35a3.91 3.91 0 013.82-4H5a4.125 4.125 0 014.25 4z"/><path fill="none" stroke="#003CB4" stroke-miterlimit="10" stroke-width="1.5" d="M33 38.5s0-8-9-8-9 8-9 8h18z"/><path fill="#003CB4" stroke="#003CB4" stroke-miterlimit="10" stroke-width="1.5" d="M24 13.5a6.647 6.647 0 00-6.5 6c1.42.63 2.95.97 4.5 1 2.15-.09 4.23-.78 6-2 .48 1.02 1.4 1.76 2.5 2 .13-3.72-2.78-6.85-6.5-7z"/><circle cx="24" cy="20.5" r="7" fill="none" stroke="#003CB4" stroke-miterlimit="3" stroke-width="1.5"/><path fill="#00BEC8" stroke="#00BEC8" stroke-miterlimit="10" stroke-width="1.5" d="M47 35a4.34 4.34 0 01-4.25 4.25 4.125 4.125 0 01-4-4.25 3.91 3.91 0 013.82-4h.18A4.125 4.125 0 0147 35z"/></svg>