<svg xmlns="http://www.w3.org/2000/svg" viewBox="0 0 48 48"><path fill="#00bec8" stroke="#00bec8" stroke-miterlimit="10" stroke-width="1.5" d="M24 42s3-2 3-5a7.66 7.66 0 00-2-4.77h-2A7.72 7.72 0 0021 37c0 3 3 5 3 5z"/><path fill="none" stroke="currentColor" stroke-miterlimit="10" stroke-width="1.5" d="M41.5 47.25S41.67 31.5 24 31.5C6.5 31.5 6.5 47.25 6.5 47.25z"/><circle cx="24" cy="14.25" r="13.5" fill="none" stroke="currentColor" stroke-miterlimit="3" stroke-width="1.5"/><path fill="currentColor" stroke="currentColor" stroke-miterlimit="3" stroke-width="1.5" d="M24 .75c-6.07 0-12.19 4.76-13.25 11 5-.61 9-3.24 10.75-7.75 1.74 6.36 6.73 10 16 10A13.28 13.28 0 0024 .75z"/><g fill="currentColor" stroke="currentColor" stroke-miterlimit="10" stroke-width="1.5"><path d="M37.5 15.25A13.52 13.52 0 0131 26h6.5V14.5M10.5 14.75V26h6.42a14.38 14.38 0 01-6.42-12"/></g></svg>