<svg xmlns="http://www.w3.org/2000/svg" viewBox="0 0 48 48"><path fill="none" stroke="currentColor" stroke-miterlimit="10" stroke-width="1.5" d="M29.25 29.75H19A11.19 11.19 0 017.75 18.5V.75H40V19a10.72 10.72 0 01-10.75 10.75z"/><path fill="none" stroke="currentColor" stroke-miterlimit="10" stroke-width="1.5" d="M40 4.25h7.24V15c0 3-3.41 5.5-7.5 5.5M7.75 4.25h-7V15c0 3 3.16 5.5 7.25 5.5M24 29.75v17.5M8 47.25h31.75"/><path fill="#00bec8" stroke="#00bec8" stroke-miterlimit="10" stroke-width="1.5" d="M24 7a7.25 7.25 0 107.25 7.25A7.26 7.26 0 0024 7zm4.25 11.76h-8v-3h2.5V12.5h-2.5v-3h5.5v6.25h2.5z"/></svg>