<svg xmlns="http://www.w3.org/2000/svg" viewBox="0 0 48 48"><circle cx="24" cy="24" r="23.25" fill="none" stroke="currentColor" stroke-miterlimit="10" stroke-width="1.5"/><path fill="none" stroke="#00BEC8" stroke-miterlimit="10" stroke-width="1.5" d="M24 43.78c-1.39-.01-2.81-.36-3.76-1.38-.96-1.04-1.12-2.27-1.24-3.9v-7.75h10.25v7.79c0 1.41-.47 2.82-1.44 3.85-.97 1.03-2.4 1.4-3.81 1.39z"/><path fill="#00BEC8" stroke="#00BEC8" stroke-miterlimit="10" stroke-width="1.5" d="M40.25 28.75c-.79-.73-3.74-.49-7.75-.25-2.54.15-5.33.25-8.5.25s-5.95-.1-8.5-.25c-1.85-.11-3.72-.25-5-.25-1.49 0-2.32.11-2.75.5-.15.13-.24.31-.25.5 0 1.43 4.93 6.4 11.5 8.5v-7h10.25v7c6.53-2.12 11.25-7.08 11.25-8.5a.713.713 0 00-.25-.5z"/><path fill="none" stroke="currentColor" stroke-miterlimit="10" stroke-width="1.5" d="M9.5 19.5c0-3.18 2.57-5.75 5.75-5.75S21 16.32 21 19.5M27 19.5c0-3.18 2.57-5.75 5.75-5.75s5.75 2.57 5.75 5.75"/></svg>