<svg xmlns="http://www.w3.org/2000/svg" viewBox="0 0 48 48"><path fill="#00BEC8" stroke="#00BEC8" stroke-miterlimit="10" stroke-width="1.5" d="M43.99 20H4.01l-3 4v15a1.8 1.8 0 001.57 2c.14.02 5.42 0 5.42 0 .96 0 1.88-.59 2-1.57.02-.14.02-.28 0-.43v-1h27.98v1a1.8 1.8 0 001.57 2c.14.02 5.42 0 5.42 0 .99 0 1.88-.59 2-1.57.02-.14.02-.28 0-.43V24l-2.98-4zM11.51 30.99c.07.46-.12.92-.5 1.2-.31.16-.65.23-1 .2-.1 0-6.2-1.5-6.2-1.5-.65-.2-1.07-.83-1-1.5V28c.02-.82.68-1.48 1.5-1.5h5.7c.82.02 1.48.68 1.5 1.5v2.99zm19.99.8h-15v-4.5h15v4.5zm13.76-2.22c0 .68-.43 1.23-1.07 1.42 0 0-6.1 1.5-6.2 1.5-.34-.02-.68-.09-1-.2-.35-.3-.53-.74-.5-1.2v-3c.02-.82.68-1.48 1.5-1.5h5.8c.82.02 1.48.68 1.5 1.5l-.03 1.48z"/><path fill="none" stroke="#003CB4" stroke-miterlimit="10" stroke-width="1.5" d="M43.39 19l-7.4-12A36.926 36.926 0 0012 7L4.6 19h38.79z"/></svg>