<svg xmlns="http://www.w3.org/2000/svg" viewBox="0 0 48 48"><path fill="none" stroke="currentColor" stroke-miterlimit="10" stroke-width="1.5" d="M41 47h-8V35c0-2.21 1-4 4-4s4 1.79 4 4z"/><path fill="none" stroke="currentColor" stroke-miterlimit="10" stroke-width="1.5" d="M47 47V12L37 1.25 27 12v7L1 27v20h46z"/><path fill="#00bec8" stroke="#00bec8" stroke-miterlimit="10" stroke-width="1.5" d="M9 31a2.31 2.31 0 012 2v7H7v-7a2.31 2.31 0 012-2z"/><path fill="none" stroke="currentColor" stroke-miterlimit="10" stroke-width="1.5" d="M27 19v28"/><path fill="#00bec8" stroke="#00bec8" stroke-miterlimit="10" stroke-width="1.5" d="M19 31a2.31 2.31 0 012 2v7h-4v-7a2 2 0 012-2z"/><circle cx="37" cy="17" r="3" fill="none" stroke="currentColor" stroke-miterlimit="10" stroke-width="1.5"/></svg>