<svg xmlns="http://www.w3.org/2000/svg" viewBox="0 0 48 48"><path fill="none" stroke="currentColor" stroke-miterlimit="10" stroke-width="1.5" d="M35 28h12s0-8-10-8a11.87 11.87 0 00-6 1.37"/><path fill="#00bec8" stroke="#00bec8" stroke-miterlimit="10" stroke-width="1.5" d="M44.5 7A7.81 7.81 0 0037 1a8.1 8.1 0 00-7.75 6A17.24 17.24 0 0044.5 7z"/><path fill="none" stroke="currentColor" stroke-miterlimit="10" stroke-width="1.5" d="M19 28c-1.42-1.61-3.85-3-8-3-10 0-10 8-10 8h20"/><path fill="#00bec8" stroke="#00bec8" stroke-miterlimit="10" stroke-width="1.5" d="M18.5 12A7.81 7.81 0 0011 6a8.1 8.1 0 00-7.75 6 17.24 17.24 0 0015.25 0z"/><path fill="none" stroke="currentColor" stroke-miterlimit="10" stroke-width="1.5" d="M37 47s0-8-10-8-10 8-10 8z"/><path fill="#00bec8" stroke="#00bec8" stroke-miterlimit="10" stroke-width="1.5" d="M34.5 26a7.81 7.81 0 00-7.5-6 8.1 8.1 0 00-7.75 6 17.24 17.24 0 0015.25 0z"/><circle cx="11" cy="14" r="8" fill="none" stroke="#00bec8" stroke-miterlimit="10" stroke-width="1.5"/><circle cx="26.99" cy="28" r="8" fill="none" stroke="#00bec8" stroke-miterlimit="10" stroke-width="1.5"/><circle cx="37" cy="9" r="8" fill="none" stroke="#00bec8" stroke-miterlimit="10" stroke-width="1.5"/></svg>