<svg xmlns="http://www.w3.org/2000/svg" viewBox="0 0 48 48"><path fill="none" stroke="currentColor" stroke-miterlimit="10" stroke-width="1.5" d="M21 33.5c2.16-2.31 5.44-4 11-4 14.89 0 15.25 13.25 15.25 13.25H30"/><path fill="none" stroke="currentColor" stroke-miterlimit="3" stroke-width="1.5" d="M20.5 13.46A11.5 11.5 0 1132 25a11.29 11.29 0 01-5.75-1.75"/><path fill="currentColor" stroke="currentColor" stroke-miterlimit="3" stroke-width="1.5" d="M32 2c-5.15 0-10.35 4-11.25 9.25 4.23-.51 7.48-2.67 9-6.5 1.48 5.4 5.88 8.5 13.75 8.5A11.32 11.32 0 0032 2z"/><path fill="currentColor" stroke="currentColor" stroke-miterlimit="10" stroke-width="1.5" d="M43.5 14.25A11.69 11.69 0 0138 23.5h5.5v-9.8"/><path fill="none" stroke="#00bec8" stroke-miterlimit="10" stroke-width="1.5" d="M.75 46.5S.61 33.25 15.5 33.25s15 13.25 15 13.25z"/><path fill="none" stroke="#00bec8" stroke-miterlimit="3" stroke-width="1.5" d="M27 17.26A11.5 11.5 0 1115.5 5.8 11.52 11.52 0 0127 17.26z"/><path fill="#00bec8" stroke="#00bec8" stroke-miterlimit="3" stroke-width="1.5" d="M15.5 5.8C10.35 5.8 5.15 9.71 4.25 15c4.23-.51 7.48-2.67 9-6.5C14.73 13.9 19.13 17 27 17A11.27 11.27 0 0015.5 5.8z"/><g fill="#00bec8" stroke="#00bec8" stroke-miterlimit="10" stroke-width="1.5"><path d="M27 18a11.69 11.69 0 01-5.5 9.25H27V17.5M4 17.5v9.75h5.49A12.34 12.34 0 014 17"/></g></svg>