<svg xmlns="http://www.w3.org/2000/svg" viewBox="0 0 48 48"><path fill="none" stroke="currentColor" stroke-miterlimit="10" stroke-width="1.5" d="M22 15.25A6.88 6.88 0 0115.25 22a6.66 6.66 0 01-6.5-6.75 6.45 6.45 0 016.5-6.5 6.66 6.66 0 016.75 6.5z"/><path fill="none" stroke="currentColor" stroke-miterlimit="10" stroke-width="1.5" d="M27.25 17L30 19.5l-1.25 3-3.75-.25-2.75 2.5.5 3.75L19.5 30 17 27h-3l-2.5 3-3.25-1.5.5-3.75L6 22.25l-3.75.25-1.25-3L3.75 17v-3L1 11.5l1.25-3L6 8.75l2.75-2.5-.5-3.75L11.5 1 14 4h3l2.5-3 3.25 1.5-.5 3.75L25 8.75l3.75-.25 1.25 3-2.75 2.5z"/><path fill="#00bec8" stroke="#00bec8" stroke-miterlimit="10" stroke-width="1.5" d="M44.5 34l-1-2.75 1.5-2.5L43.25 27l-2.5 1.25L38 27l-.75-2.75H35l-1 2.5L31.75 28l-3-1.5L27 28.25l1.25 2.5L27 33.5l-2.75.75v2.25l2.75 1 1 2.74-1.5 2.26 1.75 2 2.5-1.25 2.75 1.25.75 2.75h2.5l.75-2.75 2.75-1 2.5 1.5 1.75-1.75-1.25-2.5L44.5 38l2.75-.5V35zm-8.75 6.75a5 5 0 115-5 5 5 0 01-5 5z"/></svg>