<svg xmlns="http://www.w3.org/2000/svg" viewBox="0 0 48 48"><path fill="none" stroke="currentColor" stroke-miterlimit="10" stroke-width="1.5" d="M14 46l10-10.25L34 46M1.75 2.01h44.5v33.24H1.75z"/><path fill="#00bec8" stroke="#00bec8" stroke-miterlimit="10" stroke-width="1.5" d="M29.75 21.75L32.5 24a9.46 9.46 0 001.5-5.25 10.06 10.06 0 00-8.5-10v3.5a6.62 6.62 0 015 6.5 6.27 6.27 0 01-.75 3zM22.5 8.75A9.81 9.81 0 0014 18.5a10.15 10.15 0 0010 10.25 9.86 9.86 0 006.5-2.5L27.75 24A6.19 6.19 0 0124 25.25a6.65 6.65 0 01-6.5-6.75 6.34 6.34 0 015-6.25z"/></svg>