<svg xmlns="http://www.w3.org/2000/svg" viewBox="0 0 48 48"><g fill="#00BEC8" stroke="#00BEC8" stroke-miterlimit="10" stroke-width="1.5"><path d="M27.09 23.91c.38-2.5 1.8-4.72 3.91-6.11.05-.51 0-.98 0-1.47.18-8.28-6.38-15.14-14.66-15.32S1.21 7.4 1.03 15.68 7.41 30.82 15.69 31c4.33.09 8.49-1.69 11.41-4.89-.05-.73-.05-1.47-.01-2.2zm-1.46-6.11h-15.4a6.24 6.24 0 006.11 4.89 6.506 6.506 0 005.86-3.91L24.89 20s-2.44 5.62-8.55 5.62c-5.13 0-9.28-4.16-9.28-9.29s4.16-9.29 9.28-9.29 9.28 4.16 9.28 9.29v1.47z"/><path d="M16.34 9.98a6.249 6.249 0 00-6.11 4.89h12.22a6.23 6.23 0 00-6.11-4.89z"/></g><path fill="none" stroke="currentColor" stroke-miterlimit="10" stroke-width="1.5" d="M47 47s0-10-11-10-11 10-11 10h22z"/><circle cx="36" cy="25" r="9" fill="none" stroke="currentColor" stroke-miterlimit="10" stroke-width="1.5"/><path fill="currentColor" stroke="currentColor" stroke-miterlimit="10" stroke-width="1.5" d="M44.5 22.5a8.812 8.812 0 00-17 0 18.978 18.978 0 0017 0z"/></svg>