<svg xmlns="http://www.w3.org/2000/svg" viewBox="0 0 48 48"><path fill="none" stroke="currentColor" stroke-width="1.5" d="M42 47.25H6V.75h24.5V12H42v35.25z"/><path fill="#00bec8" d="M31.25 0l11.5 11.25h-11.5V0z"/><path fill="none" stroke="currentColor" stroke-linecap="round" stroke-miterlimit="10" stroke-width="1.5" d="M10 39.5c-.1 3.2 6.59-1.94 9.49-6.14S24.66 25.78 23 25s-4.81-.45-9 4c-3.28 3.49-3.74 8.13-2.25 8.75 4.14 1.72 4.84.31 7.25-1.75 1.37-1.17 2.2-2.4 3-2s-2.22 3.58-1 4c2.8 1 3.51-2.26 5-2 3.21.56 3.7 1.9 6 1.5a48.18 48.18 0 015.5-.5"/></svg>