<svg xmlns="http://www.w3.org/2000/svg" viewBox="0 0 48 48"><path fill="#00BEC8" stroke="#00BEC8" stroke-miterlimit="10" stroke-width="1.5" d="M18 17c3.31 0 6 2.69 6 6s-3 6-7 5l2-4s-4-2.34-4-4c0-1.66 1.34-3 3-3"/><path fill="none" stroke="currentColor" stroke-miterlimit="10" stroke-width="1.5" d="M8 22v-5c.12-8.79 7.22-15.88 16-16 8.78.12 15.88 7.22 16 16 0 10.53-5.73 16.71-12 22 .13 4.28-3.23 7.87-7.51 8H20c-4.28.13-7.87-3.23-8-7.51-.01-.16-.01-.33 0-.49"/><path fill="none" stroke="currentColor" stroke-miterlimit="10" stroke-width="1.5" d="M14 18c0-5.52 4.48-10 10-10s10.13 4.48 10 10c-.05 2.15-.8 4.22-2 6"/><path fill="none" stroke="currentColor" stroke-miterlimit="10" stroke-width="1.5" d="M22 31c0 1.66-1.34 3-3 3s-3-1.34-3-3c0-3 4-6 1-8a5.455 5.455 0 01-3-5c0-2.76 2.24-5 5-5 2.4-.01 4.48 1.66 5 4"/></svg>