<svg xmlns="http://www.w3.org/2000/svg" viewBox="0 0 48 48"><path fill="#00bec8" stroke="#00bec8" stroke-miterlimit="10" stroke-width="1.5" d="M8 39.5A1.5 1.5 0 109.5 41 1.5 1.5 0 008 39.5zm26 0a1.5 1.5 0 101.5 1.5 1.5 1.5 0 00-1.5-1.5zm-13 0a1.5 1.5 0 101.5 1.5 1.5 1.5 0 00-1.5-1.5zM35 35H7a6 6 0 000 12h28a6 6 0 000-12zM8 45.5a4.5 4.5 0 114.5-4.5A4.49 4.49 0 018 45.5zm13 0a4.5 4.5 0 114.5-4.5 4.49 4.49 0 01-4.5 4.5zm13 0a4.5 4.5 0 114.5-4.5 4.49 4.49 0 01-4.5 4.5z"/><path fill="none" stroke="currentColor" stroke-miterlimit="10" stroke-width="1.5" d="M7 22.5v11.25h24V23.5l-6-16H13v15H7zM44 26L39 9l-9 11"/><path fill="none" stroke="currentColor" stroke-miterlimit="10" stroke-width="1.5" d="M27 12L39 1h4l4 26a6 6 0 01-12 1l11-3M17 11v11h9l-4-11h-5z"/></svg>