<svg xmlns="http://www.w3.org/2000/svg" viewBox="0 0 48 48"><path fill="none" stroke="currentColor" stroke-miterlimit="10" stroke-width="1.5" d="M21 33.5c2.16-2.31 5.44-4 11-4 14.89 0 15.25 13.25 15.25 13.25H30"/><path fill="none" stroke="currentColor" stroke-miterlimit="3" stroke-width="1.5" d="M20.5 13.46A11.5 11.5 0 1132 25a10.78 10.78 0 01-6.75-2.25"/><path fill="currentColor" stroke="currentColor" stroke-miterlimit="3" stroke-width="1.5" d="M32 2c-5.15 0-10.35 4-11.25 9.25 4.23-.51 7.48-2.67 9-6.5 1.48 5.4 5.88 8.5 13.75 8.5A11.32 11.32 0 0032 2z"/><path fill="currentColor" stroke="currentColor" stroke-miterlimit="10" stroke-width="1.5" d="M43.5 14.25A11.69 11.69 0 0138 23.5h5.5v-9.8"/><path fill="none" stroke="#00bec8" stroke-miterlimit="10" stroke-width="1.5" d="M.75 46.25S.69 33 15.5 33a21.73 21.73 0 014 .25c10.88 2.11 10.75 13 10.75 13z"/><path fill="none" stroke="#00bec8" stroke-miterlimit="3" stroke-width="1.5" d="M26.75 17A11.46 11.46 0 0115.5 28.5 11.46 11.46 0 014.25 17 11 11 0 0115.5 6a11 11 0 0111.25 11z"/><path fill="#00bec8" stroke="#00bec8" stroke-miterlimit="10" stroke-width="1.5" d="M15 6c-5.68 0-9.8 4-10.5 9.5A20.35 20.35 0 0012 17a20.8 20.8 0 0010.5-2.5 4.86 4.86 0 004 2.5C26.48 10.83 21.15 6 15 6z"/></svg>