<svg xmlns="http://www.w3.org/2000/svg" viewBox="0 0 48 48"><path fill="none" stroke="currentColor" stroke-miterlimit="10" stroke-width="1.5" d="M16.75 34h-16s-.47-9.75 11-9.75c2.02-.04 4.01.48 5.75 1.5M31 21c1.82-.74 3.78-1.08 5.75-1 10.11 0 10.5 9.75 10.5 9.75H34"/><path fill="currentColor" stroke="currentColor" stroke-miterlimit="10" stroke-width="1.5" d="M19.75 13.5A4.37 4.37 0 0116.5 11s-2.08 2.42-7.5 2.5c-3.6.05-5.25-1.25-5.25-1.25s1.07-7.19 8-6.75c7.83.5 8 8 8 8z"/><circle cx="11.75" cy="13.5" r="8.25" fill="none" stroke="currentColor" stroke-miterlimit="10" stroke-width="1.5"/><path fill="#00BEC8" stroke="#00BEC8" stroke-miterlimit="10" stroke-width="1.5" d="M17.75 25.5C21.35 26.44 24 21 24 21s3 6.9 9.5 6.25V26s-2.29-7-7.75-7S18 24.25 18 24.25l-.25 1.25z"/><circle cx="25.75" cy="26.75" r="8.25" fill="none" stroke="#00BEC8" stroke-miterlimit="10" stroke-width="1.5"/><path fill="#00BEC8" stroke="#00BEC8" stroke-miterlimit="10" stroke-width="1.5" d="M17.5 29.25V34h3.26l-2.01-2.25zM34 29.25V34h-3.26l2.01-2.25z"/><path fill="currentColor" stroke="currentColor" stroke-miterlimit="10" stroke-width="1.5" d="M28.5 7.75c3.6.94 6.25-4.5 6.25-4.5s3 6.9 9.5 6.25V8.25s-2.29-7-7.75-7-7.75 5.25-7.75 5.25l-.25 1.25z"/><circle cx="36.5" cy="9" r="8.25" fill="none" stroke="currentColor" stroke-miterlimit="10" stroke-width="1.5"/><path fill="currentColor" stroke="currentColor" stroke-miterlimit="10" stroke-width="1.5" d="M28.25 11.5v4.75h3.26L29.5 14zM44.75 11.5v4.75h-3.26L43.5 14z"/><path fill="none" stroke="#00BEC8" stroke-miterlimit="10" stroke-width="1.5" d="M15 47.25s-.47-9.75 11-9.75c10.11 0 10.5 9.75 10.5 9.75H15z"/></svg>