<svg xmlns="http://www.w3.org/2000/svg" viewBox="0 0 48 48"><path fill="none" stroke="currentColor" stroke-miterlimit="10" stroke-width="1.5" d="M12 16V4.25A3.06 3.06 0 0114.75 1h29.5A3.06 3.06 0 0147 4.25v19.5A3.06 3.06 0 0144.25 27h-23.5"/><circle cx="39.5" cy="19.5" r="3.5" fill="none" stroke="currentColor" stroke-miterlimit="10" stroke-width="1.5"/><circle cx="33.5" cy="19.5" r="3.5" fill="#00bec8" stroke="#00bec8" stroke-miterlimit="10" stroke-width="1.5"/><path fill="none" stroke="currentColor" stroke-miterlimit="10" stroke-width="1.5" d="M23 47s0-10-11-10S1 47 1 47z"/><circle cx="12" cy="25" r="9" fill="none" stroke="currentColor" stroke-miterlimit="10" stroke-width="1.5"/><path fill="currentColor" stroke="currentColor" stroke-miterlimit="10" stroke-width="1.5" d="M20.5 22.5A8.64 8.64 0 0012 16a8.86 8.86 0 00-8.5 6.75c5.78 2.67 11.22 2.42 17-.25zM12 8h35v4H12z"/></svg>