<svg xmlns="http://www.w3.org/2000/svg" viewBox="0 0 48 48"><path fill="none" stroke="currentColor" stroke-miterlimit="10" stroke-width="1.5" d="M21.75 9.25a11.09 11.09 0 0110.5-7.5 11.25 11.25 0 010 22.5 13 13 0 01-6.5-1.75"/><path fill="currentColor" stroke="currentColor" stroke-miterlimit="10" stroke-width="1.5" d="M32.5 1.75a11.34 11.34 0 00-11.25 9.75A21.68 21.68 0 0029 13a21.17 21.17 0 0010.5-3c.82 1.51 2 2.81 3.75 3-.02-6.17-4.6-11.25-10.75-11.25z"/><path fill="none" stroke="currentColor" stroke-miterlimit="10" stroke-width="1.5" d="M29.5 42.25h17.75S47.31 29 32.5 29c-4.06 0-6.86.8-9 2.25a14.52 14.52 0 00-2.75 2.25"/><path fill="none" stroke="#00bec8" stroke-miterlimit="10" stroke-width="1.5" d="M.75 46.25S.69 33 15.5 33a21.73 21.73 0 014 .25c10.88 2.11 10.75 13 10.75 13z"/><path fill="none" stroke="#00bec8" stroke-miterlimit="3" stroke-width="1.5" d="M26.75 17A11.46 11.46 0 0115.5 28.5 11.46 11.46 0 014.25 17 11 11 0 0115.5 6a11 11 0 0111.25 11z"/><path fill="#00bec8" stroke="#00bec8" stroke-miterlimit="10" stroke-width="1.5" d="M15 6c-5.68 0-9.8 4-10.5 9.5A20.35 20.35 0 0012 17a20.8 20.8 0 0010.5-2.5 4.86 4.86 0 004 2.5C26.48 10.83 21.15 6 15 6z"/></svg>