<svg xmlns="http://www.w3.org/2000/svg" viewBox="0 0 48 48"><g fill="#00bec8" stroke="#00bec8" stroke-miterlimit="10" stroke-width="1.5"><path d="M15 21.5l4 1.5.5.75L23.25 20 8 4.5a3.54 3.54 0 00-5 5zM28 24.5L24.5 28l17 17.25a2.42 2.42 0 003.5 0 2.74 2.74 0 000-3.75z"/></g><g fill="none" stroke="currentColor" stroke-miterlimit="10" stroke-width="1.5"><path d="M46 10.25L35.25 21a4.49 4.49 0 01-4.75 1l-23 23A3.19 3.19 0 013 45a3.2 3.2 0 01-.25-4.5L26 17.25a4.64 4.64 0 011-4.75L37.5 2zM40.5 4.75l-9 9M43.25 7.5l-8.75 9"/></g></svg>