<svg xmlns="http://www.w3.org/2000/svg" viewBox="0 0 48 48"><path fill="none" stroke="currentColor" stroke-miterlimit="10" stroke-width="1.5" d="M34.5 32.75a5.73 5.73 0 016-5.75 5.73 5.73 0 016 5.75V38h-12z"/><path fill="currentColor" stroke="currentColor" stroke-miterlimit="10" stroke-width="1.8" d="M37.5 39h1v4h-1z"/><path fill="none" stroke="currentColor" stroke-miterlimit="10" stroke-width="1.5" d="M12.5 34.5V39c0 4.31 2.86 8 7 8s7-3.69 7-8V23c0-4.31 2.86-8 7-8s7 3.69 7 8v4"/><path fill="#00bec8" stroke="#00bec8" stroke-miterlimit="10" stroke-width="1.5" d="M12.5 1c-4.76 3-11 9.44-11 17s6.24 14 11 17c4.76-3 11-9.44 11-17s-6.24-14-11-17z"/><path fill="currentColor" stroke="currentColor" stroke-miterlimit="10" stroke-width="1.8" d="M42.5 39h1v4h-1z"/></svg>