<svg xmlns="http://www.w3.org/2000/svg" viewBox="0 0 48 48"><path fill="none" stroke="currentColor" stroke-miterlimit="10" stroke-width="1.5" d="M2 10V2h8M2 38v8h8M46 10V2h-8M46 38v8h-8"/><circle cx="24" cy="24" r="18" fill="none" stroke="#00bec8" stroke-miterlimit="10" stroke-width="1.5"/><path fill="#00bec8" d="M24 6a18 18 0 1018 18A18 18 0 0024 6zm-8 23.52a5.33 5.33 0 00-3.31-.36l3.21 4-1.18.94-3.42-4.28a4.21 4.21 0 00-1.1 1.26l-1.34-.66c0-.05 2.3-4.45 7.7-2.3zM18.74 39l-1.06-1.06c2.48-2.48 1.39-5.9-.16-9.79a9 9 0 011.35-9c1.88-2.14 4.8-2.84 8.21-2l-.37 1.46a8 8 0 00-4.08-.11l4.8 4.93-1.08 1-5.2-5.33a5 5 0 00-1.15 1 5.53 5.53 0 00-.73 1.1l5.25 5.09-1 1.08-4.81-4.67a7.79 7.79 0 00.24 4.82c1.24 3.26 3.17 8.09-.21 11.48zm10.54-10.2a6.58 6.58 0 01-5.14 2.27 10.48 10.48 0 01-3.27-.57l.47-1.43c2.9 1 5.25.53 6.81-1.25a8.15 8.15 0 001-8.31c-1.48-3-3.08-7.28.14-10.5l1.07 1.06c-2 1.95-1.92 4.66.14 8.77a9.63 9.63 0 01-1.22 9.96zm7.34-8.8a4.78 4.78 0 01-2.27.54 7.89 7.89 0 01-2.91-.63l.56-1.43a4.61 4.61 0 003.91.16l-4.72-4.72 1.06-1.06L37 17.64a4.66 4.66 0 00.71-1.51l1.47.31A5.57 5.57 0 0136.62 20z"/></svg>