<svg xmlns="http://www.w3.org/2000/svg" viewBox="0 0 48 48"><path fill="none" stroke="currentColor" stroke-miterlimit="10" stroke-width="1.5" d="M30.41 47c7.57-2.49 13.05-9.1 14.09-17h-41c1.04 7.9 6.52 14.51 14.09 17h12.82z"/><path fill="#00BEC8" stroke="#00BEC8" stroke-miterlimit="10" stroke-width="1.5" d="M35.82 11.61c-3.77 3.68-9.5 2-9.5 2-.94-3.7.21-7.62 3-10.23 3.77-3.68 9.24-2 9.24-2 1.12 3.66.05 7.63-2.74 10.23z"/><path fill="none" stroke="currentColor" stroke-miterlimit="10" stroke-width="1.5" d="M24 21v9M20.19 12.35c4.2 3.31 3.8 9.57 3.8 9.57-3.9 1.21-8.15.47-11.4-2C8.38 16.61 9 10.84 9 10.84c3.73-1.54 8-.96 11.19 1.51z"/></svg>