<svg xmlns="http://www.w3.org/2000/svg" viewBox="0 0 48 48"><path fill="#00bec8" stroke="#00bec8" stroke-miterlimit="10" stroke-width="1.5" d="M44.75 14A23 23 0 0024 1 23.42 23.42 0 003 14l6.75-4H39z"/><path fill="none" stroke="currentColor" stroke-miterlimit="10" stroke-width="1.5" d="M19 33a5 5 0 0110 0h9a5 5 0 005-5V15.75A4.82 4.82 0 0038 11H10a4.82 4.82 0 00-5 4.75V28a5 5 0 005 5zM33 38a16 16 0 01-9 3 15 15 0 01-9-3M5 30l-4-1.25v-13.5L5 14v16zM43 30l4-1.25v-13.5L43 14v16zM46.5 29a23.06 23.06 0 01-45 0"/></svg>