<svg xmlns="http://www.w3.org/2000/svg" viewBox="0 0 48 48"><path fill="none" stroke="currentColor" stroke-miterlimit="10" stroke-width="1.5" d="M4.75 30a18.37 18.37 0 012.5-8.5l10.5-19.75 10.5 19.75a18.37 18.37 0 012.5 8.5c0 10.5-10.93 12-13 12-2.34 0-13-1.5-13-12zM17.75 42v6M35.25 42v6"/><path fill="#00bec8" stroke="#00bec8" stroke-miterlimit="10" stroke-width="1.5" d="M27.25 34.5a11.45 11.45 0 011.5-5.25L35.25 17l6.5 12.25a11.45 11.45 0 011.5 5.25c0 6.52-6.26 7.75-8 7.75-1.25 0-8-1.25-8-7.75z"/></svg>