<svg xmlns="http://www.w3.org/2000/svg" viewBox="0 0 48 48"><path fill="none" stroke="currentColor" stroke-miterlimit="10" stroke-width="1.5" d="M19.5 30.25a13.13 13.13 0 00-7-2C6 28.25.84 32.83.75 38.5H21M30.75 33.5h16.49c0-5.7-5.2-10.25-11.74-10.25a12.93 12.93 0 00-7.75 2.5"/><path fill="currentColor" stroke="currentColor" stroke-miterlimit="10" stroke-width="1.5" d="M3.75 15.75c4.71 1.89 10.53.69 14.25-1.25a5.55 5.55 0 003.25 2.5h0a8.88 8.88 0 00-8.75-9 8.78 8.78 0 00-8.75 7.5z"/><circle cx="12.5" cy="16.88" r="8.88" fill="none" stroke="currentColor" stroke-miterlimit="10" stroke-width="1.5"/><path fill="currentColor" stroke="currentColor" stroke-miterlimit="10" stroke-width="1.5" d="M30.44 19.25a8.69 8.69 0 01-3.78-5.68l-.16-.15v5.83h3.94zM40.56 19.25a8.69 8.69 0 003.78-5.68l.16-.15v5.83h-3.94z"/><circle cx="35.5" cy="11.75" r="9" fill="none" stroke="currentColor" stroke-miterlimit="10" stroke-width="1.5"/><path fill="currentColor" stroke="currentColor" stroke-miterlimit="10" stroke-width="1.5" d="M44.25 12a9.87 9.87 0 01-10.5-7.1s-2.61 5.55-7 5.35c0 0 1.25-7 7.5-7.25 10.05-.4 10 9 10 9z"/><path fill="none" stroke="#00bec8" stroke-miterlimit="10" stroke-width="1.5" d="M33.5 45a8 8 0 00-8.25-7.75A8 8 0 0017 45z"/><circle cx="25.25" cy="31.25" r="6" fill="none" stroke="#00bec8" stroke-miterlimit="10" stroke-width="1.5"/><path fill="#00bec8" stroke="#00bec8" stroke-miterlimit="10" stroke-width="1.5" d="M19.75 29.25a7.59 7.59 0 003.5.75 7.73 7.73 0 006.25-3 6 6 0 00-4.25-1.75 5.92 5.92 0 00-5.5 4z"/></svg>