<svg xmlns="http://www.w3.org/2000/svg" viewBox="0 0 48 48"><path fill="none" stroke="currentColor" stroke-miterlimit="10" stroke-width="1.5" d="M47.25 20c0-5-4.41-9-9.5-9a10.25 10.25 0 00-3 .5A14 14 0 0023 4.5a12.77 12.77 0 00-12.75 10 5.37 5.37 0 00-1.75 0c-4 .41-7.75 3.45-7.75 8a7.22 7.22 0 006.75 7H39c5-.15 8.25-4.62 8.25-9.5z"/><path fill="none" stroke="#00bec8" stroke-miterlimit="10" stroke-width="1.5" d="M1 1c4.22-1 9 1.76 10 6"/><path fill="none" stroke="currentColor" stroke-miterlimit="10" stroke-width="1.5" d="M40 30l-3 17.25H11L8 29.5"/><path fill="currentColor" stroke="currentColor" stroke-miterlimit="10" stroke-width="1.5" d="M9.5 36h29l-.5 5H10l-.5-5z"/><circle cx="12" cy="12.5" r="6" fill="#00bec8" stroke="#00bec8" stroke-miterlimit="10" stroke-width="1.5"/></svg>