<svg xmlns="http://www.w3.org/2000/svg" viewBox="0 0 48 48"><path fill="#00bec8" stroke="#00bec8" stroke-miterlimit="10" stroke-width="1.5" d="M23.75 19a5 5 0 000 10 5 5 0 004.5-3l.25-.5h11v-3h-11l-.25-.44a5.06 5.06 0 00-4.5-3.06z"/><path fill="none" stroke="currentColor" stroke-miterlimit="10" stroke-width="1.5" d="M2 46h44V2H2z"/><path fill="none" stroke="currentColor" stroke-miterlimit="10" stroke-width="1.5" d="M33 18.75L36.25 17a14.3 14.3 0 10-12.5 21.35 14.51 14.51 0 0012.5-7.1L33 29.5M23.75 38v-4M23.75 13.75V10M9.75 24h3.75M30.75 36l-2-3.5M18.75 15.25l-2.25-3.5M11.5 31l3.5-2M11.5 17l3.5 2M30.75 12l-2 3.25M18.75 32.5l-2 3.5"/></svg>