<svg xmlns="http://www.w3.org/2000/svg" viewBox="0 0 48 48"><path fill="none" stroke="currentColor" stroke-miterlimit="10" stroke-width="1.5" d="M20 2.25A11.5 11.5 0 008.5 13.13v.62h-.75a7.77 7.77 0 00.75 15.5h31a7.75 7.75 0 000-15.5h-7.75V13A11.63 11.63 0 0020 2.25z"/><path fill="#00bec8" stroke="#00bec8" stroke-miterlimit="10" stroke-width="1.5" d="M12 37l-2.25 4c-1.19 2.38-.22 3.82.5 4.25a3.74 3.74 0 003.5 0c.72-.43 1.7-1.85.5-4.25zM24 37l-2.25 4c-1.19 2.38-.22 3.82.5 4.25a3.74 3.74 0 003.5 0c.71-.43 1.7-1.85.5-4.25zM36 37l-2.25 4c-1.19 2.38-.22 3.82.5 4.25a3.74 3.74 0 003.5 0c.71-.43 1.7-1.85.5-4.25z"/></svg>