<svg xmlns="http://www.w3.org/2000/svg" viewBox="0 0 48 48"><path fill="none" stroke="currentColor" stroke-width="1.5" d="M20 36l-9 8v-8A10 10 0 011 26V11.06A10 10 0 0111 1h26a10 10 0 0110 10v15a10 10 0 01-10 10z"/><path fill="#00bec8" stroke="#00bec8" stroke-miterlimit="10" stroke-width="1.5" d="M13 15.5h5V29h-5z"/><path fill="none" stroke="currentColor" stroke-miterlimit="10" stroke-width="1.5" d="M34 15H23s3.19-6.23 3.25-7.5a1.86 1.86 0 00-2-2 2 2 0 00-1.75 1.25L18 15v14h14.5a1.75 1.75 0 000-3.5h.5a1.75 1.75 0 000-3.5h.5a1.75 1.75 0 000-3.5h.5a1.75 1.75 0 000-3.5z"/><path fill="none" fill-rule="evenodd" stroke="currentColor" stroke-miterlimit="10" stroke-width="1.5" d="M32.5 25.5h0zM33 22h0zM33.5 18.5h0z"/></svg>