<svg xmlns="http://www.w3.org/2000/svg" viewBox="0 0 48 48"><path fill="none" stroke="#003CB4" stroke-miterlimit="10" stroke-width="1.5" d="M35.38 12.61c2.59-2.74 2.48-7.06-.25-9.65h0a6.925 6.925 0 00-9.65 0L24 4.44l-1.48-1.49a6.925 6.925 0 00-9.65 0h0c-2.73 2.6-2.84 6.92-.25 9.65L24 24l11.38-11.39zM12.62 35.4c-2.59 2.73-2.48 7.05.25 9.64h0a6.925 6.925 0 009.65 0L24 43.56l1.48 1.49a6.925 6.925 0 009.65 0h0c2.73-2.6 2.84-6.92.25-9.65L24 24 12.62 35.4zM12.62 12.61a6.817 6.817 0 00-9.65.25h0c-2.61 2.69-2.61 6.97 0 9.65L4.45 24l-1.48 1.49c-2.61 2.69-2.61 6.97 0 9.65h0c2.6 2.73 6.92 2.84 9.65.25L24 24 12.62 12.61z"/><path fill="#00BEC8" stroke="#00BEC8" stroke-miterlimit="10" stroke-width="1.5" d="M41.02 11.25c3.3 0 5.99 2.75 5.99 6.12 0 2.13-.72 3.52-2.85 5.51l-.62.58-.57.54.58.54.62.58c2.13 1.99 2.85 3.38 2.85 5.51 0 3.38-2.69 6.12-5.99 6.12-1.41 0-2.97-.77-4.29-2.11L26.1 24l10.64-10.66c1.3-1.33 2.87-2.09 4.28-2.09"/></svg>