<svg xmlns="http://www.w3.org/2000/svg" viewBox="0 0 48 48"><path fill="none" fill-rule="evenodd" stroke="currentColor" stroke-miterlimit="10" stroke-width="1.5" d="M25 14.5c-2.35-1.7 1-9.25 2.75-11.5a5.53 5.53 0 017.5-1 4.8 4.8 0 011 7c-1.75 2.25-8.9 7.2-11.25 5.5z"/><path fill="none" fill-rule="evenodd" stroke="currentColor" stroke-miterlimit="10" stroke-width="1.5" d="M23.75 14.5c-1.42 1.63-7.26-1.35-9-2.75a3.84 3.84 0 01-.75-5.5A4.2 4.2 0 0119.75 6c1.74 1.4 5.42 6.87 4 8.5z"/><path fill="none" stroke="currentColor" stroke-miterlimit="10" stroke-width="1.5" d="M5.5 24.5h37v22h-37zM24.5 46V14.84"/><path fill="#00bec8" stroke="#00bec8" stroke-miterlimit="10" stroke-width="1.5" d="M2.5 16h43v9.5h-43z"/></svg>