<svg xmlns="http://www.w3.org/2000/svg" viewBox="0 0 48 48"><path fill="none" stroke="#003CB4" stroke-miterlimit="10" stroke-width="1.5" d="M10.5 25h10v7h-10zM27.5 25h10v7h-10zM20.5 28h7"/><path fill="none" stroke="#003CB4" stroke-miterlimit="10" stroke-width="1.5" d="M19.5 7.05A22.6 22.6 0 011.26 20.53c-.17 1.16-.26 2.33-.26 3.5C1 36.72 11.3 47 24 47c12.27.14 23-9.61 23-21.71-.59.08-20 2.73-27.5-18.24z"/><path fill="#00BEC8" stroke="#00BEC8" stroke-miterlimit="10" stroke-width="1.5" d="M19.5 7.05C27 28.02 46.41 25.37 47 25.29v-1.06C47.14 11.55 36.96 1.15 24.26 1 12.79.87 2.97 9.2 1.26 20.53A22.6 22.6 0 0019.5 7.05zM1.25 20.53c-.17 1.16-.25 2.33-.25 3.5.07 7.95 4.23 15.3 11 19.47H1V23.28"/><path fill="#00BEC8" stroke="#00BEC8" stroke-miterlimit="10" stroke-width="1.5" d="M46.75 20.53c.17 1.16.25 2.33.25 3.5-.07 7.95-4.51 15.18-11 19.47h11V23.28"/></svg>