<svg xmlns="http://www.w3.org/2000/svg" viewBox="0 0 48 48"><path fill="#00bec8" stroke="#00bec8" stroke-miterlimit="10" stroke-width="1.5" d="M11 9.5L9.5 5.25l-6.25-3-1.5 1.5 3.5 6L9.5 11l6.5 7.49 2.5-2.24L11 9.5zM24.25 29.5L39.5 44.75s2.59 3.1 5.5.25a3.62 3.62 0 00-.25-5.25L29.5 24.25"/><path fill="#00bec8" stroke="#00bec8" stroke-miterlimit="10" stroke-width="1.5" d="M24 18.75l-4-4L14.5 20l4.25 4"/><path fill="none" stroke="currentColor" stroke-miterlimit="10" stroke-width="1.5" d="M29 14c-1.11-3-.44-7.57 2-10 2.6-2.59 6.82-2.4 10-1l-5 5 4 4 5-5c1.42 3.15 1.6 7.41-1 10a9.07 9.07 0 01-9 2L9 45a4.54 4.54 0 01-6 0 4.52 4.52 0 010-6z"/></svg>