<svg xmlns="http://www.w3.org/2000/svg" viewBox="0 0 48 48"><path fill="none" stroke="currentColor" stroke-miterlimit="10" stroke-width="1.5" d="M29 46s0-12-14-12S1 46 1 46z"/><g stroke="#00bec8" stroke-miterlimit="10" stroke-width="1.5"><circle cx="15" cy="19" r="11" fill="none"/><path fill="#00bec8" d="M25.5 16A10.73 10.73 0 0015 8a10.73 10.73 0 00-10.5 8 23.77 23.77 0 0021 0z"/></g><path fill="none" stroke="currentColor" stroke-miterlimit="10" stroke-width="1.5" d="M27 40h20s0-12-14-12c-7.78 0-11.24 3.71-12.77 7"/><g stroke="#00bec8" stroke-miterlimit="10" stroke-width="1.5"><path fill="none" d="M22 13a11 11 0 113.75 8.25"/><path fill="#00bec8" d="M43.5 10a10.89 10.89 0 00-21 0 23.77 23.77 0 0021 0z"/></g></svg>