<svg xmlns="http://www.w3.org/2000/svg" viewBox="0 0 48 48"><path fill="none" stroke="currentColor" stroke-miterlimit="10" stroke-width="1.5" d="M29 9l4-8M20 9l-4-8M35 26l6-3 6 4M35 37l6-1 6 7M13 26l-6-3-6 4M13 37l-6-1-6 7"/><path fill="#00bec8" stroke="#00bec8" stroke-miterlimit="10" stroke-width="1.5" d="M24 8h0a11 11 0 0111 11v0h0-22 0v0A11 11 0 0124 8z"/><path fill="none" stroke="currentColor" stroke-miterlimit="10" stroke-width="1.5" d="M13 20h22v15a11 11 0 01-11 11h0a11 11 0 01-11-11V20h0z"/></svg>