<svg xmlns="http://www.w3.org/2000/svg" viewBox="0 0 48 48"><path fill="none" stroke="currentColor" stroke-miterlimit="10" stroke-width="1.5" d="M1 9h46v30H1zM24 24h23M24 19h23M24 14h23M1 29h46M1 34h46"/><path fill="#00bec8" d="M.25 8.25v16.5h24.5V8.25zm6.8 13.82l-1.55-.85-1.5.85.35-1.71L3 19.18 4.76 19l.74-1.6.74 1.6 1.76.2-1.3 1.16zm-.35-8.51l.35 1.71-1.55-.85-1.5.85.35-1.71L3 12.38l1.76-.2.74-1.58.74 1.58 1.76.2zm7.35 8.51l-1.55-.85-1.5.85.35-1.71L10 19.18l1.76-.2.74-1.58.74 1.6 1.76.2-1.3 1.18zm-.35-8.51l.35 1.71-1.55-.85-1.5.85.35-1.71L10 12.38l1.76-.2.74-1.58.74 1.58 1.76.2zm7.35 8.51l-1.55-.85-1.5.85.35-1.71L17 19.18l1.76-.2.74-1.58.74 1.6 1.76.2-1.3 1.18zm-.35-8.51l.35 1.71-1.55-.85-1.5.85.35-1.71L17 12.38l1.76-.2.74-1.58.74 1.58 1.76.2z"/></svg>