<svg xmlns="http://www.w3.org/2000/svg" id="auge-pikto_1_" x="0" y="0" version="1.1" viewBox="0 0 48 48" xml:space="preserve"><style>.st0{fill:none;stroke:currentColor;stroke-width:1.5;stroke-miterlimit:10}</style><g id="auge-pikto"><circle cx="24" cy="24" r="14" class="st0"/><path d="M47 24S36.2 38 24 38 1 24 1 24s10.9-14 23-14 23 14 23 14z" class="st0"/><path fill="#00bec8" stroke="#00bec8" stroke-miterlimit="10" stroke-width="1.5" d="M29 24c-3.3 0-6-2.7-6-6 0-.5.1-1 .2-1.5-3.8.4-6.7 3.7-6.8 7.5 0 4.1 3.4 7.5 7.5 7.5s7.5-3.4 7.5-7.5v-.5c-.7.3-1.5.5-2.4.5z"/></g></svg>