<svg xmlns="http://www.w3.org/2000/svg" viewBox="0 0 48 48"><path fill="#00bec8" stroke="#00bec8" stroke-miterlimit="10" stroke-width="1.5" d="M38 47H10a3 3 0 01-3-3v-4h34v4a3 3 0 01-3 3z"/><path fill="none" stroke="currentColor" stroke-miterlimit="10" stroke-width="1.5" d="M17 11a4.38 4.38 0 00-3-1c-4.44 0-4.79 4.59-4 6 1.47 2.61 10 15 10 15s10-13 10-16a4.85 4.85 0 00-5-5 4.85 4.85 0 00-5 5c0 3 10 16 10 16l8-12"/><path fill="none" stroke="currentColor" stroke-miterlimit="10" stroke-width="1.5" d="M42 39H6c-3 0-5.45-2.13-5-5L7 4c.22-1.4 1.53-3 3-3h28c1.47 0 2.78 1.6 3 3l6 30c.45 2.87-2 5-5 5z"/></svg>