<svg xmlns="http://www.w3.org/2000/svg" viewBox="0 0 48 48"><path fill="none" stroke="currentColor" stroke-miterlimit="10" stroke-width="1.5" d="M44.25 25.5a22 22 0 01-22 21.75A21.55 21.55 0 01.75 25.5a21.55 21.55 0 0121.5-21.75 22 22 0 0122 21.75zM25.5 19.5a5.75 5.75 0 0111.5 0M8 19.5a5.75 5.75 0 0111.5 0"/><path fill="none" stroke="currentColor" stroke-miterlimit="10" stroke-width="1.5" d="M22 26.75a2.88 2.88 0 013 2.75 3.09 3.09 0 01-3 3M22 32.5a3.09 3.09 0 013 3 2.88 2.88 0 01-3 2.75"/><path fill="#00bec8" stroke="#00bec8" stroke-miterlimit="10" stroke-width="1.5" d="M35.75 25A3.65 3.65 0 0033 26.25a4.5 4.5 0 000 6l6.5 7 6.75-7a4.28 4.28 0 001-3 4.33 4.33 0 00-1.25-3 3.57 3.57 0 00-5.3 0l-1.2 1.25-1-1.25A3.78 3.78 0 0035.75 25z"/></svg>