<svg xmlns="http://www.w3.org/2000/svg" viewBox="0 0 48 48"><path fill="none" stroke="currentColor" stroke-miterlimit="10" stroke-width="1.5" d="M5 .75h34a5 5 0 015 5v36.5a5 5 0 01-5 5H5h0V.75h0z"/><path fill="currentColor" stroke="currentColor" stroke-miterlimit="10" stroke-width="1.5" d="M4.5.75h3v46.5h-3z"/><path fill="#00bec8" stroke="#00bec8" stroke-miterlimit="10" stroke-width="1.5" d="M27.72 32h.93l.35-2.25.25-.25a7.62 7.62 0 002.75-4l.25-1 .75.5a2 2 0 002.75-1.75 2.1 2.1 0 00-1.25-1.75h0a2.19 2.19 0 011.25 1.75A1.73 1.73 0 0134 25a1.82 1.82 0 01-1.75-1.5h0A7.76 7.76 0 0024.5 16a7.1 7.1 0 00-4.75 1.76l-.5.5-.5-.5a1.75 1.75 0 00-1.5 0c-.41.14-.52.39-.75.75l1.5 1.24-.2.5A7.78 7.78 0 0017 23v.75h-1.75v2.5l2.75 1v.25a4.74 4.74 0 002 2.25l.25.25.47 2h1l.52-1.26.5.25A6.28 6.28 0 0026 31l1-.25z"/></svg>