<svg xmlns="http://www.w3.org/2000/svg" viewBox="0 0 48 48"><path fill="#00bec8" stroke="#00bec8" stroke-miterlimit="10" stroke-width="1.5" d="M38.5 47.25a8.82 8.82 0 008.75-8.75 9.38 9.38 0 00-3.75-7.25v-20h-10v20a9.38 9.38 0 00-3.75 7.25 8.84 8.84 0 008.75 8.75z"/><path fill="none" stroke="currentColor" stroke-miterlimit="10" stroke-width="1.5" d="M21 13h5M0 13h5M18.75 7.25l3.5-3.5M3.75 22.25l3.5-3.5M13 5V0M13 26v-5M7.25 7.25l-3.5-3.5M22.25 22l-3.5-3.25M38.5 47.25a8.82 8.82 0 008.75-8.75 9.38 9.38 0 00-3.75-7.25V5.5a4.9 4.9 0 00-5-4.75h0a4.91 4.91 0 00-5 4.75v25.75a9.38 9.38 0 00-3.75 7.25 8.84 8.84 0 008.75 8.75zM13 18.5a5.5 5.5 0 115.5-5.5 5.51 5.51 0 01-5.5 5.5z"/></svg>