<svg xmlns="http://www.w3.org/2000/svg" viewBox="0 0 48 48"><path fill="#00bec8" stroke="#00bec8" stroke-miterlimit="10" stroke-width="1.5" d="M9 11.25V18C.08 18 .75 11.25.75 11.25zM39 11.25V18c8.92 0 8.24-6.75 8.24-6.75z"/><path fill="none" stroke="currentColor" stroke-miterlimit="10" stroke-width="1.5" d="M9 39.5V11.25h30V39.5"/><g fill="none" stroke="currentColor" stroke-miterlimit="10" stroke-width="1.5"><path d="M12.75 11.25A2.65 2.65 0 0110 8.75V0M38 0v8.75a2.65 2.65 0 01-2.75 2.5"/></g><g fill="none" stroke="currentColor" stroke-miterlimit="10" stroke-width="1.5"><circle cx="18" cy="40" r="2.25"/><circle cx="30" cy="40" r="2.25"/></g><path fill="none" stroke="currentColor" stroke-miterlimit="10" stroke-width="1.5" d="M16.5 47.25A7.44 7.44 0 019 40a7.66 7.66 0 017.5-7.5h15A7.66 7.66 0 0139 40a7.44 7.44 0 01-7.5 7.25z"/></svg>