<svg xmlns="http://www.w3.org/2000/svg" viewBox="0 0 48 48"><path fill="#00bec8" fill-rule="evenodd" stroke="#00bec8" stroke-miterlimit="10" stroke-width="1.5" d="M20 9L5 23l-3.75-4L16 5l4 4z"/><path fill="#00bec8" stroke="#00bec8" stroke-miterlimit="10" stroke-width="1.5" d="M28.001 8.997l4.002-4.002 14 14-4.001 4.003z"/><path fill="none" fill-rule="evenodd" stroke="currentColor" stroke-miterlimit="10" stroke-width="1.5" d="M40 29l2-6L28 9 15 22a2.66 2.66 0 000 4c1.23 1.1 2.54.85 4 0l5-3s6.26 1.59 10-3"/><path fill="none" fill-rule="evenodd" stroke="currentColor" stroke-miterlimit="10" stroke-width="1.5" d="M32 22l8 7a2.5 2.5 0 01-3 4l-3-3 3 3a2.54 2.54 0 01.5 3.5 2.51 2.51 0 01-3.5.5l-3.5-3.5L34 37h0a2.62 2.62 0 01.5 3.49A2.5 2.5 0 0131 41l-2-2c.84 1.1 1.34 3.29-.49 4.5A2.71 2.71 0 0125 43h0L5 23 20 9l7 1"/><path fill="none" stroke="currentColor" stroke-miterlimit="10" stroke-width="1.5" d="M29 39l-3-3"/></svg>