<svg xmlns="http://www.w3.org/2000/svg" viewBox="0 0 48 48"><path fill="none" stroke="currentColor" stroke-miterlimit="10" stroke-width="1.5" d="M27.07 11.57c2.1-1.45 4.59-2.22 7.13-2.21 7.07 0 12.8 5.73 12.8 12.79s-5.73 12.79-12.79 12.79c-1.43 0-2.84-.24-4.18-.73"/><path fill="#00BEC8" d="M14.12.5C6.6.49.51 6.57.5 14.08c-.01 4.94 2.67 9.5 6.99 11.9l.5.29.39-.42c3.79-4.08 9.89-5.04 14.75-2.32l.51.29.39-.42c5.14-5.5 4.86-14.1-.63-19.23A13.58 13.58 0 0014.12.5zm3.52 12.72v1.48h-2.6v1.44h2.6v1.48h-2.6v2.13h-1.48v-2.13h-2.6v-1.48h2.6V14.7h-2.6v-1.48h1.97L9.9 8.64h1.77l2.63 3.94 2.59-3.94h1.76l-2.95 4.59h1.94z"/><g fill="none" stroke="currentColor" stroke-miterlimit="10" stroke-width="1.5"><path d="M17.23 41.83V26.58M17.23 34.26a2.949 2.949 0 110-5.9c1.63 0 2.95 1.32 2.95 2.95"/><path d="M17.23 34.21a2.949 2.949 0 110 5.9c-1.63 0-2.95-1.32-2.95-2.95"/></g><g fill="none" stroke="currentColor" stroke-miterlimit="10" stroke-width="1.5"><path d="M39.13 16.98c-.77-.36-1.61-.52-2.46-.49a5.661 5.661 0 000 11.32c.85.03 1.69-.14 2.46-.49M29.29 20.67h6.89M29.29 23.63h6.64"/></g><circle cx="17.23" cy="34.21" r="12.79" fill="none" stroke="currentColor" stroke-miterlimit="10" stroke-width="1.5"/></svg>