<svg xmlns="http://www.w3.org/2000/svg" viewBox="0 0 48 48"><path fill="none" stroke="currentColor" stroke-miterlimit="10" stroke-width="1.5" d="M1 .75h46V39H1z"/><path fill="#00bec8" stroke="#00bec8" stroke-miterlimit="10" stroke-width="1.5" d="M41 28l-2-1v-2.25l-2.5.25-1.5-1.5-1.75 1.5-2.25-.25-.25 2.25-2 1L30 30l-1 1.75L30.75 33l.5 2.25 1.75-.5v8.75l4 3V34.75l1.75.25.25-2 2-1.25L40 30l1-2z"/><g fill="none" stroke="currentColor" stroke-miterlimit="10" stroke-width="1.5"><path d="M23 23V7M28 18l-5 5-5-5"/></g><g fill="none" stroke="currentColor" stroke-miterlimit="10" stroke-width="1.5"><path d="M12 7v16M7 12l5-5 5 5"/></g></svg>