<svg xmlns="http://www.w3.org/2000/svg" viewBox="0 0 48 48"><path fill="none" stroke="currentColor" stroke-miterlimit="10" stroke-width="1.5" d="M33.35 32.16c-.29-3.76-1.43-7.41-3.35-10.66a75.252 75.252 0 00-8.5-12L24.75.75H9.5l3 8.75c-3.2 3.72-6.05 7.74-8.5 12-2.2 4.08-3.28 7.67-3.25 11-.01 1.27.16 2.53.5 3.75C2.41 40.01 5.02 43.16 8.5 45a18.894 18.894 0 0015 1M12.5 9.5h9"/><path fill="#00BEC8" stroke="#00BEC8" stroke-miterlimit="10" stroke-width="1.5" d="M38.75 30.75c-1.82-.02-3.59.6-5 1.75a8.98 8.98 0 012.5 6.25c.05 2.32-.96 4.53-2.75 6A7.614 7.614 0 0038.75 47 8.323 8.323 0 0047 38.75a8.11 8.11 0 00-8.22-8h-.03z"/><path fill="none" stroke="currentColor" stroke-miterlimit="10" stroke-width="1.5" d="M27.5 47c-4.69 0-8.5-3.81-8.5-8.5s3.81-8.5 8.5-8.5 8.5 3.81 8.5 8.5a8.519 8.519 0 01-8.5 8.5z"/></svg>