<svg xmlns="http://www.w3.org/2000/svg" viewBox="0 0 48 48"><path fill="none" stroke="currentColor" stroke-miterlimit="10" stroke-width="1.5" d="M26 8.5h0c-13.75-16.88-25 0-25 0s11.25 16.88 25 0z"/><circle cx="13.5" cy="8.5" r="3.5" fill="none" stroke="currentColor" stroke-miterlimit="10" stroke-width="1.5"/><path fill="none" stroke="currentColor" stroke-miterlimit="10" stroke-width="1.5" d="M21.75 13H47v34H13V16M38 23h0"/><path fill="none" stroke="currentColor" stroke-miterlimit="10" stroke-width="1.5" d="M36 25l2-2a10.28 10.28 0 00-7-3 10 10 0 000 20 9.65 9.65 0 007-3l-2-2M31 37v3M31 20v3M21 30h3M26 35l-2 2M23.96 23L26 25"/><circle cx="31" cy="30" r="3" fill="#00bec8" stroke="#00bec8" stroke-miterlimit="10" stroke-width="1.5"/><path fill="#00bec8" stroke="#00bec8" stroke-miterlimit="10" stroke-width="2" d="M41 30H31"/></svg>