<svg xmlns="http://www.w3.org/2000/svg" viewBox="0 0 48 48"><path fill="none" stroke="currentColor" stroke-miterlimit="10" stroke-width="1.5" d="M22.75 41.25a12.25 12.25 0 0124.5 0z"/><g fill="none" stroke="currentColor" stroke-miterlimit="10" stroke-width="1.5"><path d="M8.5 3.75h14a3.08 3.08 0 013 3 2.87 2.87 0 01-3 2.75H16"/><path d="M11.25.75l-2.75 3 2.75 3"/></g><circle cx="35" cy="16.88" r="9.63" fill="none" stroke="currentColor" stroke-miterlimit="3" stroke-width="1.5"/><path fill="#00bec8" stroke="#00bec8" stroke-miterlimit="10" stroke-width="1.5" d="M.75 47.25a12.25 12.25 0 0124.5 0zM13 13a9.48 9.48 0 00-9.25 8.5 16.35 16.35 0 006.25 1 17.93 17.93 0 009-2.25 4.4 4.4 0 003.5 2.25A9.49 9.49 0 0013 13z"/><path fill="none" stroke="currentColor" stroke-miterlimit="10" stroke-width="1.5" d="M35 7.25a9.46 9.46 0 00-9.5 8.25 17.45 17.45 0 006.5 1 17.72 17.72 0 009-2.25 4.68 4.68 0 003.5 2.5 9.45 9.45 0 00-9.5-9.5z"/><path fill="none" stroke="#00bec8" stroke-miterlimit="3" stroke-width="1.5" d="M22.75 22.5A9.83 9.83 0 0113 32.25a9.62 9.62 0 01-9.5-9.75A9.41 9.41 0 0113 13a9.62 9.62 0 019.75 9.5z"/></svg>