<svg xmlns="http://www.w3.org/2000/svg" viewBox="0 0 48 48"><path fill="#00bec8" stroke="#00bec8" stroke-miterlimit="10" stroke-width="1.5" d="M26 1l-2 14h2l3 12a6.8 6.8 0 003 1c5.85 1 11-3.15 12-9l3-14zm.25 9.25L28.5 8.5a3.38 3.38 0 002 1.5 4 4 0 002.25-.5l1.5 2.5a5.33 5.33 0 01-4.5.75 4.9 4.9 0 01-3.5-2.5zm11.94 13.22a5.16 5.16 0 00-4.28-3.23 5.54 5.54 0 00-4.68 1.42l-1.48-2.42a8.76 8.76 0 016.75-1.74 8.66 8.66 0 016 4.25zm.81-8.72a4.9 4.9 0 01-3.5-2.5l2.25-1.75a3.38 3.38 0 002 1.5 4 4 0 002.25-.5l1.5 2.5a5.33 5.33 0 01-4.5.75z"/><g fill="none" stroke="currentColor" stroke-miterlimit="10" stroke-width="1.5"><path d="M4 37c1.21 6.87 8.13 10.21 15 9s11.21-7.13 10-14l-3-17-25 4zM11 37a8.31 8.31 0 0012-2M18 27a3.43 3.43 0 015-1M8 29a3.43 3.43 0 015-1"/></g></svg>