<svg xmlns="http://www.w3.org/2000/svg" viewBox="0 0 48 48"><path fill="none" stroke="currentColor" stroke-miterlimit="10" stroke-width="1.5" d="M29 17.3a14.82 14.82 0 013-.3 15 15 0 11-14.46 11M39 27H25"/><path fill="none" stroke="currentColor" stroke-miterlimit="10" stroke-width="1.5" d="M35 23l4 4-4 4M25 37h14M29 33l-4 4 4 4"/><g fill="#00bec8" stroke="#00bec8" stroke-miterlimit="10" stroke-width="1.5"><path d="M16 1a15 15 0 1015 15A15 15 0 0016 1zm9.5 16.5H9.75a6.38 6.38 0 006.25 5 6.67 6.67 0 006-4l2.75 1.25S22.25 25.5 16 25.5a9.5 9.5 0 119.5-9.5z"/><path d="M16 9.5a6.38 6.38 0 00-6.25 5h12.5a6.38 6.38 0 00-6.25-5z"/></g></svg>