<svg xmlns="http://www.w3.org/2000/svg" viewBox="0 0 48 48"><path fill="#00bec8" stroke="#00bec8" stroke-miterlimit="10" stroke-width="1.5" d="M23.5 41h23.75a12.28 12.28 0 00-24.5-1.25A14.25 14.25 0 0123.5 41zM35 7a9.73 9.73 0 00-9.5 8.5 17.66 17.66 0 006.5 1 17.93 17.93 0 009-2.25 4.4 4.4 0 003.5 2.25A9.49 9.49 0 0035 7z"/><path fill="none" stroke="currentColor" stroke-miterlimit="10" stroke-width="1.5" d="M.75 47.25a12.25 12.25 0 0124.5 0z"/><path fill="none" stroke="currentColor" stroke-miterlimit="3" stroke-width="1.5" d="M3.37 23.13A9.32 9.32 0 0013 32.5a9.31 9.31 0 009.62-9.37A9.75 9.75 0 0013 13.25a9.76 9.76 0 00-9.63 9.88z"/><path fill="none" stroke="currentColor" stroke-miterlimit="10" stroke-width="1.5" d="M13 13.25a9.46 9.46 0 00-9.5 8.25 17.45 17.45 0 006.5 1 17.72 17.72 0 009-2.25 4.68 4.68 0 003.5 2.5 9.45 9.45 0 00-9.5-9.5zM22.25 3.5h-14M19.5.5l2.75 3-2.75 3"/><circle cx="35" cy="16.75" r="9.75" fill="none" stroke="#00bec8" stroke-miterlimit="3" stroke-width="1.5"/></svg>