<svg xmlns="http://www.w3.org/2000/svg" viewBox="0 0 48 48"><circle cx="21" cy="23.25" r="20" fill="none" stroke="#003CB4" stroke-miterlimit="10" stroke-width="1.5"/><path fill="#00BEC8" stroke="#00BEC8" stroke-miterlimit="10" stroke-width="1.5" d="M45.7 14.25c-4.55 8.06-13.28 9.49-13.28 9.49.11-.89-.15-1.79-.72-2.49l.5-.25c.76-.32 3-1.85 1.25-4-1.47-1.76-4.25-.49-4.25 2.5 0 0-.07-.47-1.5-.5s-1.5.5-1.5.5c0-3-2.78-4.26-4.25-2.5-1.79 2.15.49 3.68 1.25 4l.5.25c-.57.7-.83 1.6-.72 2.49 0 0-8.73-1.43-13.28-9.49-3.28 8.48.56 17 6.5 21.5 3.73-4.81 10.25-2.56 11.5.5 1.25-3.11 7.77-5.31 11.5-.5 5.94-4.51 9.78-13.02 6.5-21.5zM25.45 24.5c-.97 0-1.75-.78-1.75-1.75S24.49 21 25.45 21s1.75.78 1.75 1.75c0 .96-.78 1.74-1.75 1.75zm4.5 0c-.97 0-1.75-.78-1.75-1.75S28.99 21 29.95 21s1.75.78 1.75 1.75c0 .96-.78 1.74-1.75 1.75z"/></svg>