<svg xmlns="http://www.w3.org/2000/svg" viewBox="0 0 48 48"><path fill="#00bec8" stroke="#00bec8" stroke-miterlimit="10" stroke-width="1.5" d="M33 5.25L47 1c.36 4.69-.65 8.23-2.75 10.5a8.4 8.4 0 01-5.51 2.5c-.56-2-2.06-6.53-5.74-8.75zM15 5.25L1 1c-.36 4.68.65 8.23 2.75 10.5a8.38 8.38 0 005.5 2.5c.56-2 2.07-6.52 5.75-8.75z"/><path fill="none" stroke="currentColor" stroke-miterlimit="10" stroke-width="1.5" d="M20 4C11.11 4 9 14.89 9 15c-.08.58-2 15.05-2 21s8 7 8 7 2 4 9 4 9-4 9-4 8-1 8-7-2-20.85-2-21S36.83 4 28 4z"/><path fill="none" stroke="currentColor" stroke-miterlimit="10" stroke-width="1.5" d="M21 33h6l2-6-5-16-5 16z"/><circle cx="13.5" cy="26.5" r="1.5" fill="none" stroke="currentColor" stroke-miterlimit="10" stroke-width="1.5"/><circle cx="34.5" cy="26.5" r="1.5" fill="none" stroke="currentColor" stroke-miterlimit="10" stroke-width="1.5"/><path fill="none" stroke="currentColor" stroke-miterlimit="10" stroke-width="1.5" d="M18 37a3 3 0 013 3M30 37a3 3 0 00-3 3"/></svg>