<svg xmlns="http://www.w3.org/2000/svg" viewBox="0 0 48 48"><path fill="#00BEC8" stroke="#00BEC8" stroke-miterlimit="10" stroke-width="1.5" d="M28.5 25.25a7.823 7.823 0 00-7.75 7.25v.75H20a5.182 5.182 0 00-4.5 5.25c0 2.9 2.35 5.25 5.25 5.25h21a5.25 5.25 0 100-10.5H36.5v-.75a8.103 8.103 0 00-8-7.25z"/><path fill="currentColor" stroke="currentColor" stroke-miterlimit="10" stroke-width="1.5" d="M40.75 6a1.25 1.25 0 100 2.5 1.25 1.25 0 000-2.5z"/><path fill="none" stroke="currentColor" stroke-miterlimit="10" stroke-width="1.5" d="M42.25 10.75C44.32 10.2 45.55 8.07 45 6s-2.68-3.3-4.75-2.75l-29.75 8.5L1.25 8.5l3.5 13 37.5-10.75z"/><path fill="none" stroke="currentColor" stroke-miterlimit="10" stroke-width="1.5" d="M20.25 17l1.5 6.5 8.5-9.25M28.25 6.75L16.5 3l1.75 6.5"/></svg>