<svg xmlns="http://www.w3.org/2000/svg" viewBox="0 0 48 48"><path fill="#00BEC8" stroke="#00BEC8" stroke-miterlimit="10" stroke-width="1.5" d="M15.75 20.75l4 1-1 4c-.27.19-5.75 4.25-10 4.25-.45 0-3 0-4-2.25l11-7zM27 14l-3.25 3L21 14c0-.33-.54-7.17 1.75-10.75A5.44 5.44 0 0127 1v13zM29.25 25.75l-1-4 4-1c.29.15 6.35 3.2 8.25 7 .2.4 1.3 2.89-.25 4.75l-11-6.75z"/><circle cx="24" cy="21" r="3" fill="none" stroke="#003CB4" stroke-miterlimit="10" stroke-width="1.5"/><path fill="none" stroke="#003CB4" stroke-miterlimit="10" stroke-width="1.5" d="M23 23.75l-3 18.26M25 23.75l3 18.26M16 42.25h16v5H16z"/></svg>