<svg xmlns="http://www.w3.org/2000/svg" viewBox="0 0 48 48"><circle cx="9.5" cy="24" r="8.75" fill="none" stroke="#003CB4" stroke-miterlimit="10" stroke-width="1.5"/><g fill="none" stroke="#003CB4" stroke-miterlimit="10" stroke-width="1.5"><path d="M21.5 24H33M29.75 20.5L33 24l-3.25 3.5"/></g><g fill="none" stroke="#003CB4" stroke-miterlimit="10" stroke-width="1.5"><path d="M19.75 17.75l9.75-6.25M25 10.25l4.5 1.25-1 4.75"/></g><g fill="none" stroke="#003CB4" stroke-miterlimit="10" stroke-width="1.5"><path d="M28.75 31.25l1 4.75-4.5 1.5M19.75 30l10 6"/></g><path fill="#00BEC8" stroke="#00BEC8" stroke-miterlimit="10" stroke-width="1.5" d="M42.25 28.75c-2.62 0-4.75-2.13-4.75-4.75s2.13-4.75 4.75-4.75S47 21.38 47 24h0c0 2.62-2.13 4.75-4.75 4.75z"/><path fill="none" stroke="#003CB4" stroke-miterlimit="10" stroke-width="1.5" d="M37.5 12.25c-2.62 0-4.75-2.13-4.75-4.75s2.13-4.75 4.75-4.75 4.75 2.13 4.75 4.75-2.13 4.75-4.75 4.75zM37.5 44.5c-2.62 0-4.75-2.13-4.75-4.75S34.88 35 37.5 35s4.75 2.13 4.75 4.75-2.13 4.75-4.75 4.75h0z"/></svg>