<svg xmlns="http://www.w3.org/2000/svg" viewBox="0 0 48 48"><path fill="#00bec8" stroke="#00bec8" stroke-miterlimit="10" d="M35.75 36.25l4.75-5c1.24-1.26 1.9-3.4 0-5-2.07-1.74-4.75.75-4.75.75s-2.68-2.49-4.75-.75c-1.9 1.6-1.24 3.74 0 5z"/><path fill="currentColor" stroke="currentColor" stroke-miterlimit="10" stroke-width="1.5" d="M1 15h46v6H1z"/><path fill="none" stroke="currentColor" stroke-miterlimit="10" stroke-width="1.5" d="M47 36.75c0 2.34-1.56 4.25-3.5 4.25h-39C2.56 41 1 39.09 1 36.75v-25.5C1 8.91 2.56 7 4.5 7h39c1.94 0 3.5 1.91 3.5 4.25z"/></svg>