<svg xmlns="http://www.w3.org/2000/svg" viewBox="0 0 48 48"><path fill="none" stroke="currentColor" stroke-miterlimit="10" stroke-width="1.5" d="M32.75 44.25A3.89 3.89 0 0129 47H5a4 4 0 01-4-4V5a4 4 0 014-4h24a4 4 0 014 4v18.25"/><path fill="#00bec8" stroke="#00bec8" stroke-width="1.5" d="M38.75 30.5A8 8 0 0144.5 33a8 8 0 002-5.25 7.75 7.75 0 00-15.5 0A8 8 0 0033 33a8 8 0 015.75-2.5z"/><path fill="currentColor" stroke="currentColor" stroke-miterlimit="10" stroke-width="1.5" d="M26 1v46h-7V1z"/><circle cx="39" cy="39" r="8" fill="none" stroke="currentColor" stroke-width="1.5"/></svg>