<svg xmlns="http://www.w3.org/2000/svg" viewBox="0 0 48 48"><path fill="none" stroke="currentColor" stroke-miterlimit="10" stroke-width="1.5" d="M40.25 7.75L46.5 1.5"/><path fill="none" stroke="#00bec8" stroke-miterlimit="10" stroke-width="1.5" d="M17.75 10.75L25 3.5M37.25 30l7.25-7.25"/><path fill="none" stroke="currentColor" stroke-miterlimit="10" stroke-width="1.5" d="M6.25 22.25S.75 26 .75 32c0 5.12 6 9 6 9s6.14-4.45 5.5-10.5c-.59-5.59-6-8.25-6-8.25z"/><path fill="none" stroke="currentColor" stroke-miterlimit="10" stroke-width="1.5" d="M25.75 41.5s-3.24-5.5-9.25-5.75c-5.11-.21-9.75 5.75-9.75 5.75s3.68 6.13 9.75 5.75c5.61-.36 9.25-5.75 9.25-5.75z"/><path fill="#00bec8" stroke="#00bec8" stroke-miterlimit="10" stroke-width="1.5" d="M17.75 10.75s-5.5 3.74-5.5 9.75c0 5.12 6 9 6 9s6.14-4.45 5.5-10.5c-.59-5.59-6-8.25-6-8.25z"/><path fill="#00bec8" stroke="#00bec8" stroke-miterlimit="10" stroke-width="1.5" d="M37.25 30S34 24.51 28 24.26C22.89 24 18.25 30 18.25 30s3.68 6.13 9.75 5.75c5.61-.35 9.25-5.75 9.25-5.75z"/><path fill="none" stroke="currentColor" stroke-miterlimit="10" stroke-width="1.5" d="M27.25 20.75s7 1.38 11.25-3c3.9-4 2.25-10.5 2.25-10.5s-6.86-1.45-11.25 3c-3.21 3.25-2.25 10.5-2.25 10.5zM.75 47.25L27.5 20.5"/></svg>