<svg xmlns="http://www.w3.org/2000/svg" viewBox="0 0 48 48"><path fill="none" stroke="currentColor" stroke-miterlimit="10" stroke-width="1.5" d="M24 31H13V17.5a3.6 3.6 0 013.5-3.5H22a7.45 7.45 0 013.5 1l9.5 6c1.7 1.09 1.64 2.45 1 3.5a2.1 2.1 0 01-3 .5l-8-4.5c-.35-.2-1 .1-1 .5v5.5"/><path fill="none" stroke="currentColor" stroke-miterlimit="10" stroke-width="1.5" d="M24 29l9 1a3.78 3.78 0 012.5 1.5L41 41s1.78 2.69-.5 4a2.67 2.67 0 01-3.5-1l-5-7a22.21 22.21 0 00-4-1M24 6a5 5 0 11-5-5 5 5 0 015 5z"/><circle cx="18" cy="35" r="12" fill="#00bec8" stroke="#00bec8" stroke-miterlimit="10" stroke-width="1.5"/></svg>