<svg xmlns="http://www.w3.org/2000/svg" viewBox="0 0 48 48"><path fill="none" stroke="currentColor" stroke-miterlimit="10" stroke-width="1.5" d="M9 6.25A22.94 22.94 0 0122 1v9.75a13 13 0 00-6 2.5zM13.75 15.75a13.85 13.85 0 00-3 8.25 14 14 0 002.5 7.75L6 38.5A23 23 0 016.75 9zM41.75 39A23.53 23.53 0 0047 25.75h-9.75a13.72 13.72 0 01-2.5 6.25z"/><path fill="#00bec8" stroke="#00bec8" stroke-miterlimit="10" stroke-width="1.5" d="M47 22A23.21 23.21 0 0025.75 1v9.5A13.76 13.76 0 0137.25 22z"/><path fill="none" stroke="currentColor" stroke-miterlimit="10" stroke-width="1.5" d="M16 34.25a13.85 13.85 0 008.25 3 14 14 0 007.75-2.5L38.75 42a23 23 0 01-29.5-.75z"/></svg>