<svg xmlns="http://www.w3.org/2000/svg" viewBox="0 0 48 48"><g fill="none" stroke="currentColor" stroke-miterlimit="10" stroke-width="1.5"><path d="M18.25 42l-7.75 5M29.75 42l7.75 5"/></g><path fill="#00bec8" stroke="#00bec8" stroke-miterlimit="10" stroke-width="1.5" d="M42 27.5H6L4.5 38a4.28 4.28 0 004.25 4.5H39a4.49 4.49 0 004.5-4.5zM16.25 37a1.8 1.8 0 01-.75 1.25 1 1 0 01-.75.25c-.13 0-6.25-1.5-6.25-1.5a1.48 1.48 0 01-1-1.5v-1.25a1.5 1.5 0 011.5-1.5h5.75a1.5 1.5 0 011.5 1.5zm15.5-2.75a1.5 1.5 0 011.5-1.5H39a1.5 1.5 0 011.5 1.5v1.25a1.48 1.48 0 01-1 1.5s-6.12 1.5-6.25 1.5a1 1 0 01-.75-.25 1.8 1.8 0 01-.75-1.25z"/><path fill="none" stroke="currentColor" stroke-linecap="round" stroke-miterlimit="10" stroke-width="1.5" d="M27.5 4.75L24 8.5l-3.5-3.75 3.5-3.5 3.5 3.5z"/><path fill="none" stroke="currentColor" stroke-miterlimit="10" stroke-width="1.5" d="M17.5 14h13M42 27.5l-2-15S34.48 9 24 9 8 12.5 8 12.5l-2 15z"/></svg>