<svg xmlns="http://www.w3.org/2000/svg" viewBox="0 0 48 48"><path fill="none" stroke="currentColor" stroke-miterlimit="10" stroke-width="1.5" d="M2.25 10.25v-8h8M37.75 2.25h8v8M45.75 37.75v8h-8M10.25 45.75h-8v-8"/><circle cx="24" cy="24" r="15.25" fill="none" stroke="#00bec8" stroke-miterlimit="10" stroke-width="1.5"/><path fill="#00bec8" stroke="#00bec8" stroke-miterlimit="10" stroke-width="1.5" d="M24 9.25C11.48 9.25 9 22 9 22c4.87-.77 9.68-4.67 12-9 2.62 6.88 8.19 13 18 12 0 0-1.25-15.75-15-15.75zM8.75 24v13h7S11.1 34.21 10 31.5 8.75 24 8.75 24z"/><path fill="#00bec8" stroke="#00bec8" stroke-miterlimit="10" stroke-width="1.5" d="M39.25 24v13h-7s4.65-2.79 5.75-5.5 1.25-7.5 1.25-7.5z"/></svg>