<svg xmlns="http://www.w3.org/2000/svg" viewBox="0 0 48 48"><path fill="#00BEC8" stroke="#00BEC8" stroke-miterlimit="10" stroke-width="1.5" d="M21 13.5c-7.46 0-13.5 6.04-13.5 13.5S13.54 40.5 21 40.5 34.5 34.46 34.5 27c-.01-7.45-6.05-13.49-13.5-13.5zm0 22.25c-4.83 0-8.75-3.92-8.75-8.75s3.92-8.75 8.75-8.75 8.75 3.92 8.75 8.75c.01 4.83-3.9 8.74-8.73 8.75H21z"/><circle cx="21" cy="27" r="20" fill="none" stroke="currentColor" stroke-miterlimit="10" stroke-width="1.5"/><path fill="none" stroke="currentColor" stroke-miterlimit="10" stroke-width="1.5" d="M38.75 9.25L21 27"/><path fill="currentColor" stroke="currentColor" stroke-miterlimit="10" stroke-width="1.5" d="M38.25 9.75l3.5.5 4.25-4-3.75-.5-.5-3.75-4 4zM21 24.5a2.5 2.5 0 000 5 2.5 2.5 0 000-5z"/></svg>