<svg xmlns="http://www.w3.org/2000/svg" viewBox="0 0 48 48"><circle cx="36.25" cy="22.5" r="9.5" fill="none" stroke="currentColor" stroke-miterlimit="10" stroke-width="1.5"/><path fill="currentColor" d="M28.25 18c1.21-1.64 3.74-6.1 10.25-5s6.94 8.63 7 9c-6.78 2.94-13.77.77-17.25-4z"/><path fill="currentColor" d="M17.5.75C10.85.75 5.32 6.61 4.5 13a22.38 22.38 0 008.5 1.5 24.47 24.47 0 0012.25-3c1 1.75 3.67 2.78 5.75 3C31 7.34 24.7.75 17.5.75z"/><path fill="none" stroke="currentColor" stroke-miterlimit="10" stroke-width="1.5" d="M26.75 23.5A13.09 13.09 0 1131 13.75M47.25 47.25a11.21 11.21 0 00-11.5-11c-6.42 0-11.75 4.91-11.75 11z"/><path fill="#00bec8" stroke="#00bec8" stroke-miterlimit="10" stroke-width="1.5" d="M18.25 32.25l1.75 8.5L17.75 43l-2.25-2.25 1.75-8.5z"/><path fill="none" stroke="currentColor" stroke-miterlimit="10" stroke-width="1.5" d="M31.5 37.5A17.3 17.3 0 0018 31.25c-9.49 0-17.25 7.12-17.25 16H25"/></svg>