<svg xmlns="http://www.w3.org/2000/svg" viewBox="0 0 48 48"><path fill="none" stroke="#00bec8" stroke-miterlimit="3" stroke-width="1.5" d="M45 11L16 5 3 14"/><circle cx="4" cy="14" r="3" fill="#00bec8" stroke="#00bec8" stroke-miterlimit="3" stroke-width="1.5"/><circle cx="44" cy="11" r="3" fill="#00bec8" stroke="#00bec8" stroke-miterlimit="3" stroke-width="1.5"/><circle cx="16" cy="5" r="4" fill="#00bec8" stroke="#00bec8" stroke-miterlimit="3" stroke-width="1.5"/><path fill="none" stroke="currentColor" stroke-miterlimit="10" stroke-width="1.5" d="M23 29v-2a4.13 4.13 0 014-4 3.88 3.88 0 014 4v1.2"/><path fill="none" stroke="currentColor" stroke-miterlimit="10" stroke-width="1.5" d="M31 29v-1a3.86 3.86 0 014-4 3.81 3.81 0 014 4v1"/><path fill="none" stroke="currentColor" stroke-miterlimit="10" stroke-width="1.5" d="M39 29a4 4 0 014-4 4.13 4.13 0 014 4v18H14L2 32a4.19 4.19 0 01.5-5.75c1.68-1.4 4-1.07 5.5.75.55.64 7 8 7 8V13a4 4 0 014-4 3.74 3.74 0 014 4v14"/></svg>