<svg xmlns="http://www.w3.org/2000/svg" viewBox="0 0 48 48"><path fill="none" stroke="currentColor" stroke-miterlimit="10" stroke-width="1.5" d="M20 13h27v34H13V20M38 23h0"/><path fill="none" stroke="currentColor" stroke-miterlimit="10" stroke-width="1.5" d="M36 25l2-2a10.28 10.28 0 00-7-3 10 10 0 000 20 9.65 9.65 0 007-3l-2-2M31 37v3M31 20v3M21 30h3M26 35l-2 2M23.96 23L26 25M1 3h19v17H1z"/><g fill="none" stroke="currentColor" stroke-miterlimit="10" stroke-width="1.5"><path d="M6 0v3M15 0v3"/></g><path fill="none" stroke="currentColor" stroke-miterlimit="10" stroke-width="1.5" d="M1 7h19M9 11h2v5"/><path fill="none" stroke="#00bec8" stroke-miterlimit="10" stroke-width="2" d="M31 30h10"/><circle cx="31" cy="30" r="3" fill="#00bec8" stroke="#00bec8" stroke-miterlimit="10" stroke-width="1.5"/></svg>