<svg xmlns="http://www.w3.org/2000/svg" viewBox="0 0 48 48"><path fill="none" stroke="currentColor" stroke-miterlimit="10" stroke-width="1.5" d="M19.5 4.5a7.59 7.59 0 00-7.5-1 7.7 7.7 0 003.25 7 8 8 0 007.75.75 7.52 7.52 0 00-3.5-6.75z"/><path fill="#00bec8" stroke="#00bec8" stroke-miterlimit="10" stroke-width="1.5" d="M29.25 2.5A8 8 0 0137 1.75a7.27 7.27 0 01-3.25 6.75 8 8 0 01-7.75.75 7.27 7.27 0 013.25-6.75z"/><path fill="none" stroke="currentColor" stroke-linecap="round" stroke-miterlimit="10" stroke-width="1.5" d="M33.25 16c19.85 3 4.93 37-5 30-2.93-2.06-5.07-2.06-8 0C13.94 50.44 6.08 38.66 6 28.5c0-5.81 2.39-11.41 9.25-12.5s9.25 3 9.25 3 1.8-4 8.75-3z"/></svg>