<svg id="aktie-pikto" xmlns="http://www.w3.org/2000/svg" width="48" height="48" viewBox="0 0 48 48">
  <title>uebersicht-pikto-rgb_aktie-pikto</title>
  <rect x="1" y="1" width="46" height="38" fill="none" stroke="#003cb4" stroke-miterlimit="10" stroke-width="1.5"/>
  <polyline points="41.75 7.75 33.25 16.25 28.25 11 19 20.5 13 14.5 6.25 21.25" fill="none" stroke="#003cb4" stroke-miterlimit="2" stroke-width="1.5"/>
  <polygon points="41 28 39 27 39 24.75 36.5 25 35 23.5 33.25 25 31 24.75 30.75 27 28.75 28 30 30 29 31.75 30.75 33 31.25 35.25 33 34.75 33 43.5 37 46.5 37 34.75 38.75 35 39 33 41 31.75 40 30 41 28" fill="#00bec8" stroke="#00bec8" stroke-miterlimit="10" stroke-width="1.5"/>
</svg>
