<svg id="aktie-pikto" xmlns="http://www.w3.org/2000/svg" width="48" height="48" viewBox="0 0 48 48">
  <title>aktie-pikto-form</title>
  <g>
    <path d="M47.75.25H.25v39.5h32v4.13L37.75,48V39.75h10Zm-1.5,38h-8.5V35.61l1.65.24.3-2.4L42,32l-1.16-2L42,27.66l-2.26-1.12V23.92l-3,.3L35,22.48l-2,1.74-2.67-.3-.29,2.59L27.68,27.7,29.13,30,28,32l2.07,1.47.61,2.75,1.56-.45v2.51H1.75V1.75h44.5Z" fill="#003cb4"/>
    <polygon points="13 15.56 19.01 21.57 28.24 12.08 33.24 17.32 42.28 8.28 41.22 7.22 33.26 15.18 28.26 9.92 18.99 19.43 13 13.44 5.72 20.72 6.78 21.78 13 15.56" fill="#003cb4"/>
  </g>
</svg>
