<svg id="angebot-pikto" xmlns="http://www.w3.org/2000/svg" width="48" height="48" viewBox="0 0 48 48">
  <title>angebot-pikto-form</title>
  <g>
    <path d="M48,34.56,35.57,8.15,23,1.63,21.85.25H8.15L.25,9.88V39.25H16.79l3.85,8.25ZM1.75,10.42l7.1-8.67h12.3l7.1,8.67V37.75H1.75Z" fill="#003cb4"/>
    <rect x="4.39" y="23.75" width="21.21" height="1.5" transform="translate(-12.93 17.78) rotate(-45)" fill="#003cb4"/>
    <path d="M20,26.25a3.25,3.25,0,1,0,3.25,3.25A3.26,3.26,0,0,0,20,26.25Zm0,5a1.75,1.75,0,1,1,1.75-1.75A1.76,1.76,0,0,1,20,31.25Z" fill="#003cb4"/>
    <path d="M10,22.75A3.25,3.25,0,1,0,6.75,19.5,3.26,3.26,0,0,0,10,22.75Zm0-5A1.75,1.75,0,1,1,8.25,19.5,1.76,1.76,0,0,1,10,17.75Z" fill="#003cb4"/>
    <circle cx="15" cy="6.5" r="2.25" fill="#003cb4"/>
  </g>
</svg>
