<?xml version="1.0" encoding="utf-8"?>
<!-- Generator: Adobe Illustrator 23.1.1, SVG Export Plug-In . SVG Version: 6.00 Build 0)  -->
<svg version="1.1" id="anhang-pikto" xmlns="http://www.w3.org/2000/svg" xmlns:xlink="http://www.w3.org/1999/xlink" x="0px"
	 y="0px" viewBox="0 0 48 48" enable-background="new 0 0 48 48" xml:space="preserve">
<title>uebersicht-pikto-rgb_anhang-pikto</title>
<polygon fill="none" stroke="#003CB4" stroke-width="1.5" points="42,47 6,47 6,1 30.5,1 30.5,12 42,12 "/>
<path fill="none" stroke="#003CB4" stroke-width="1.5" stroke-miterlimit="10" d="M21.2,26.6v9.96c-0.09,1.57,1.09,2.91,2.65,3.01
	c0.05,0,0.1,0,0.15,0.01c1.66,0,3-1.35,3-3.01l-0.2-12.65c-0.01-2.65-2.16-4.79-4.8-4.78c0,0,0,0,0,0c-2.67,0-4.87,2.1-5,4.78v12.15
	c0.12,3.86,3.16,7.19,7,7.19s6.88-3.33,7-7.19V26.1"/>
<polygon fill="#00BEC8" points="31.25,0.25 42.75,11.25 31.25,11.25 "/>
</svg>
