<svg id="anhang-pikto" xmlns="http://www.w3.org/2000/svg" width="48" height="48" viewBox="0 0 48 48">
  <title>anhang-pikto-form</title>
  <g>
    <path d="M42.73,11.35,31.25.25h-26v47.5h37.5V11.35Zm-1.48,34.9H6.75V1.75h23v11.1h11.5Z" fill="#003cb4"/>
    <path d="M24,42.25a6.66,6.66,0,0,1-6.25-6.39V23.76a4.2,4.2,0,0,1,4.25-4,4,4,0,0,1,4.05,4l.2,12.59A2.24,2.24,0,0,1,24,38.58,2.08,2.08,0,0,1,22,36.36V26.44h-1.5v9.92A3.56,3.56,0,0,0,24,40.08a3.74,3.74,0,0,0,3.75-3.74l-.2-12.58A5.54,5.54,0,0,0,22,18.25a5.71,5.71,0,0,0-5.75,5.51v12.1A8.13,8.13,0,0,0,24,43.75a8.13,8.13,0,0,0,7.75-7.89V25.94h-1.5v9.92A6.66,6.66,0,0,1,24,42.25Z" fill="#003cb4"/>
  </g>
</svg>
