<?xml version="1.0" encoding="utf-8"?>
<!-- Generator: Adobe Illustrator 23.1.1, SVG Export Plug-In . SVG Version: 6.00 Build 0)  -->
<svg version="1.1" id="anlegen-1-pikto" xmlns="http://www.w3.org/2000/svg" xmlns:xlink="http://www.w3.org/1999/xlink" x="0px"
	 y="0px" viewBox="0 0 48 48" enable-background="new 0 0 48 48" xml:space="preserve">
<title>uebersicht-pikto-rgb_anlegen-1-pikto</title>
<path fill="none" stroke="#003CB4" stroke-width="1.5" stroke-miterlimit="10" d="M28.73,38l11.89-6c3.68-1.72,5.49,0.31,5.94,1.25
	c1,2.17,0.38,4.17-2.72,5.75l-15.35,8H1V33.25L9.42,31h16.1c3,0,4.7,1.59,4.7,4c-0.12,2.33-2.12,4.12-4.45,4c0,0-0.01,0-0.01,0
	H15.12"/>
<path fill="#00BEC8" stroke="#00BEC8" stroke-width="1.5" stroke-miterlimit="10" d="M35.83,11.61c-3.77,3.68-9.5,2-9.5,2
	c-0.94-3.7,0.21-7.62,3-10.23c3.77-3.68,9.24-2,9.24-2C39.69,5.04,38.63,9.01,35.83,11.61z"/>
<line fill="none" stroke="#003CB4" stroke-width="1.5" stroke-miterlimit="10" x1="24.01" y1="21" x2="24.01" y2="31"/>
<path fill="none" stroke="#003CB4" stroke-width="1.5" stroke-miterlimit="10" d="M20.2,12.35c4.2,3.31,3.8,9.57,3.8,9.57
	c-3.9,1.21-8.15,0.47-11.4-2C8.38,16.61,9,10.84,9,10.84C12.74,9.3,17.01,9.88,20.2,12.35z"/>
</svg>
