<svg id="anlegen-2-pikto" xmlns="http://www.w3.org/2000/svg" width="48" height="48" viewBox="0 0 48 48">
  <title>anlegen-2-pikto-form</title>
  <g>
    <path d="M25.73,14.22l.38.11a12.32,12.32,0,0,0,3.32.43,9.7,9.7,0,0,0,6.92-2.61,10.68,10.68,0,0,0,2.92-11L39.15.78,38.79.67c-.24-.07-5.94-1.78-10,2.18a11.14,11.14,0,0,0-3.19,11Z" fill="#003cb4"/>
    <path d="M24.75,29.25V21h0c-.06-2-.6-6.49-4.09-9.23a11.91,11.91,0,0,0-11.93-1.6l-.38.17-.05.42c0,.25-.65,6.22,3.83,9.75a12.77,12.77,0,0,0,8,2.75,13.73,13.73,0,0,0,3.1-.35v6.34H2.65l.11.84A21.44,21.44,0,0,0,17.35,47.71l13.18,0,.12,0A21.44,21.44,0,0,0,45.24,30.09l.11-.84Zm-11.7-9.92c-3.17-2.5-3.33-6.62-3.29-8a10.45,10.45,0,0,1,10,1.58c3.17,2.49,3.51,6.91,3.53,8.42A11.91,11.91,0,0,1,13.05,19.33ZM30.29,46.25H17.71A20,20,0,0,1,4.37,30.75H43.63A20,20,0,0,1,30.29,46.25Z" fill="#003cb4"/>
  </g>
</svg>
