<?xml version="1.0" encoding="utf-8"?>
<!-- Generator: Adobe Illustrator 23.1.1, SVG Export Plug-In . SVG Version: 6.00 Build 0)  -->
<svg version="1.1" id="anlegen-2-pikto" xmlns="http://www.w3.org/2000/svg" xmlns:xlink="http://www.w3.org/1999/xlink" x="0px"
	 y="0px" viewBox="0 0 48 48" enable-background="new 0 0 48 48" xml:space="preserve">
<title>uebersicht-pikto-rgb_anlegen-2-pikto</title>
<path fill="none" stroke="#003CB4" stroke-width="1.5" stroke-miterlimit="10" d="M30.41,47c7.57-2.49,13.05-9.1,14.09-17h-41
	c1.04,7.9,6.52,14.51,14.09,17H30.41z"/>
<path fill="#00BEC8" stroke="#00BEC8" stroke-width="1.5" stroke-miterlimit="10" d="M35.82,11.61c-3.77,3.68-9.5,2-9.5,2
	c-0.94-3.7,0.21-7.62,3-10.23c3.77-3.68,9.24-2,9.24-2C39.68,5.04,38.61,9.01,35.82,11.61z"/>
<line fill="none" stroke="#003CB4" stroke-width="1.5" stroke-miterlimit="10" x1="24" y1="21" x2="24" y2="30"/>
<path fill="none" stroke="#003CB4" stroke-width="1.5" stroke-miterlimit="10" d="M20.19,12.35c4.2,3.31,3.8,9.57,3.8,9.57
	c-3.9,1.21-8.15,0.47-11.4-2C8.38,16.61,9,10.84,9,10.84C12.73,9.3,17,9.88,20.19,12.35z"/>
</svg>
