<svg id="anleihe-pikto" xmlns="http://www.w3.org/2000/svg" width="48" height="48" viewBox="0 0 48 48">
  <title>anleihe-pikto-form</title>
  <g>
    <path d="M47.75.25H.25v39.5h32v3.63l5.5,4.12V39.75h10Zm-1.5,38h-8.5v-2.5h2V33.46L42,32.34,40.84,30,42,27.66l-2.26-1.12V24.25H36.81L35,22.44l-1.81,1.81H30.25v2.29L28,27.66,29.16,30,28,32.34l2.26,1.12v2.29h2v2.5H1.75V1.75h44.5Z" fill="#003cb4"/>
    <polygon points="19.47 15.47 20.53 16.53 26.06 11 20.53 5.47 19.47 6.53 23.19 10.25 8 10.25 8 11.75 23.19 11.75 19.47 15.47" fill="#003cb4"/>
    <polygon points="14.53 25.47 10.81 21.75 25 21.75 25 20.25 10.81 20.25 14.53 16.53 13.47 15.47 7.94 21 13.47 26.53 14.53 25.47" fill="#003cb4"/>
  </g>
</svg>
