<svg id="anlegen-1-pikto" xmlns="http://www.w3.org/2000/svg" width="48" height="48" viewBox="0 0 48 48">
  <title>anlegen-1-pikto-form</title>
  <g>
    <path d="M25.73,14.22l.38.11a12.32,12.32,0,0,0,3.32.43,9.7,9.7,0,0,0,6.92-2.61,10.68,10.68,0,0,0,2.92-11L39.15.78,38.79.67c-.24-.07-5.94-1.78-10,2.18a11.14,11.14,0,0,0-3.19,11Z" fill="#003cb4"/>
    <path d="M47.22,32.93c-.66-1.38-2.95-3.48-6.95-1.6l-9.46,4.78A4.24,4.24,0,0,0,31,35c0-2.89-2.14-4.75-5.46-4.75h-.75V21c-.06-2-.6-6.49-4.09-9.23a11.91,11.91,0,0,0-11.93-1.6l-.38.17-.05.42c0,.25-.65,6.22,3.83,9.75a12.77,12.77,0,0,0,8,2.75,13.73,13.73,0,0,0,3.1-.35v7.34H9.42L.25,32.67V47.75H28.66l15.5-8.08C48.56,37.43,48,34.48,47.22,32.93ZM13.05,19.33c-3.17-2.5-3.33-6.62-3.29-8a10.45,10.45,0,0,1,10,1.58c3.17,2.49,3.51,6.91,3.53,8.42A11.91,11.91,0,0,1,13.05,19.33Zm30.43,19L28.29,46.25H1.75V33.83l7.76-2.08H23c1.34,0,2.08,0,2.51,0v0c2.52,0,4,1.18,4,3.25a3.5,3.5,0,0,1-3.71,3.25H15.11v1.5H25.75a5.34,5.34,0,0,0,3.31-1.08l11.86-6c3.65-1.71,4.9.79,4.95.89C46.45,34.8,46.84,36.62,43.48,38.33Z" fill="#003cb4"/>
  </g>
</svg>
