<svg id="anleihe-pikto" xmlns="http://www.w3.org/2000/svg" width="48" height="48" viewBox="0 0 48 48">
  <title>uebersicht-pikto-rgb_anleihe-pikto</title>
  <rect x="1" y="1" width="46" height="38" fill="none" stroke="#003cb4" stroke-miterlimit="10" stroke-width="1.5"/>
  <polygon points="41 28 39 27 39 25 36.5 25 35 23.5 33.5 25 31 25 31 27 29 28 30 30 29 32 31 33 31 35 33 35 33 43 37 46 37 35 39 35 39 33 41 32 40 30 41 28" fill="#00bec8" stroke="#00bec8" stroke-miterlimit="10" stroke-width="1.5"/>
  <line x1="24" y1="11" x2="8" y2="11" fill="none" stroke="#003cb4" stroke-miterlimit="10" stroke-width="1.5"/>
  <polyline points="20 6 25 11 20 16" fill="none" stroke="#003cb4" stroke-miterlimit="10" stroke-width="1.5"/>
  <line x1="9" y1="21" x2="25" y2="21" fill="none" stroke="#003cb4" stroke-miterlimit="10" stroke-width="1.5"/>
  <polyline points="14 16 9 21 14 26" fill="none" stroke="#003cb4" stroke-miterlimit="10" stroke-width="1.5"/>
</svg>
