<svg id="ar-pikto" xmlns="http://www.w3.org/2000/svg" width="48" height="48" viewBox="0 0 48 48">
  <title>ar-pikto-form</title>
  <g>
    <rect x="27.5" y="5.25" width="7" height="1.5" fill="#003cb4"/>
    <path d="M46,.25H16A1.76,1.76,0,0,0,14.25,2V15.47A11.92,11.92,0,0,0,12,15.25a11.75,11.75,0,0,0,0,23.5,11.92,11.92,0,0,0,2.25-.22V46A1.76,1.76,0,0,0,16,47.75H46A1.81,1.81,0,0,0,47.75,46V2A1.81,1.81,0,0,0,46,.25Zm-34,37a10.25,10.25,0,0,1,0-20.5,10.41,10.41,0,0,1,2.25.25V37A10.41,10.41,0,0,1,12,37.25ZM46.25,46a.35.35,0,0,1-.25.25H16a.25.25,0,0,1-.25-.25V38.13a11.74,11.74,0,0,0,0-22.26V2A.25.25,0,0,1,16,1.75H46a.35.35,0,0,1,.25.25Z" fill="#003cb4"/>
  </g>
</svg>
