<svg id="augen-pikto" xmlns="http://www.w3.org/2000/svg" width="48" height="48" viewBox="0 0 48 48">
  <title>augen-pikto-form</title>
  <g>
    <path d="M12,21.25A11.75,11.75,0,1,0,23.75,33,11.76,11.76,0,0,0,12,21.25Zm0,22a10.33,10.33,0,0,1-3.21-.52l.46,0a5.49,5.49,0,1,0-4.84-2.88A10.24,10.24,0,1,1,12,43.25Z" fill="#003cb4"/>
    <path d="M36,21.25A11.75,11.75,0,1,0,47.75,33,11.76,11.76,0,0,0,36,21.25Zm0,22a10.33,10.33,0,0,1-3.21-.52l.46,0a5.49,5.49,0,1,0-4.84-2.88A10.24,10.24,0,1,1,36,43.25Z" fill="#003cb4"/>
    <path d="M36,12.75c3.94,0,7.29,1.33,9.44,3.75l1.12-1c-2.44-2.74-6.19-4.25-10.56-4.25a13.28,13.28,0,0,0-10.59,5.28l1.18.94A11.87,11.87,0,0,1,36,12.75Z" fill="#003cb4"/>
    <path d="M12,4.75c3.94,0,7.29,1.33,9.44,3.75l1.12-1C20.12,4.76,16.37,3.25,12,3.25A13.28,13.28,0,0,0,1.41,8.53l1.18.94A11.87,11.87,0,0,1,12,4.75Z" fill="#003cb4"/>
  </g>
</svg>
