<?xml version="1.0" encoding="utf-8"?>
<!-- Generator: Adobe Illustrator 23.1.1, SVG Export Plug-In . SVG Version: 6.00 Build 0)  -->
<svg version="1.1" id="augen-pikto" xmlns="http://www.w3.org/2000/svg" xmlns:xlink="http://www.w3.org/1999/xlink" x="0px"
	 y="0px" viewBox="0 0 48 48" enable-background="new 0 0 48 48" xml:space="preserve">
<title>uebersicht-pikto-rgb_augen-pikto</title>
<path fill="#00BEC8" stroke="#00BEC8" stroke-width="1.42" stroke-miterlimit="10" d="M14,37.2c0,2.65-2.14,4.8-4.77,4.8
	c-2.61,0-4.73-2.13-4.73-4.75s2.12-4.75,4.73-4.75C11.83,32.49,13.96,34.58,14,37.2"/>
<path fill="#00BEC8" stroke="#00BEC8" stroke-width="1.42" stroke-miterlimit="10" d="M38,37.2c0,2.65-2.14,4.8-4.77,4.8
	c-2.61,0-4.73-2.13-4.73-4.75s2.12-4.75,4.73-4.75C35.83,32.49,37.96,34.58,38,37.2"/>
<circle fill="none" stroke="#003CB4" stroke-width="1.5" stroke-miterlimit="10" cx="12" cy="33" r="11"/>
<circle fill="none" stroke="#003CB4" stroke-width="1.5" stroke-miterlimit="10" cx="36" cy="33" r="11"/>
<path fill="none" stroke="#003CB4" stroke-width="1.5" stroke-miterlimit="10" d="M26,17c2.37-3.13,6.07-4.97,10-4.99
	c3.75-0.15,7.39,1.3,10,3.99"/>
<path fill="none" stroke="#003CB4" stroke-width="1.5" stroke-miterlimit="10" d="M2,9c2.37-3.13,6.07-4.97,10-4.99
	c3.75-0.15,7.39,1.3,10,3.99"/>
</svg>
