<?xml version="1.0" encoding="utf-8"?>
<!-- Generator: Adobe Illustrator 23.1.1, SVG Export Plug-In . SVG Version: 6.00 Build 0)  -->
<svg version="1.1" id="auge-pikto_1_" xmlns="http://www.w3.org/2000/svg" xmlns:xlink="http://www.w3.org/1999/xlink" x="0px"
	 y="0px" viewBox="0 0 48 48" style="enable-background:new 0 0 48 48;" xml:space="preserve">
<style type="text/css">
	.st0{fill:none;stroke:#003CB4;stroke-width:1.5;stroke-miterlimit:10;}
	.st1{fill:#00BEC8;stroke:#00BEC8;stroke-width:1.5;stroke-miterlimit:10;}
</style>
<title>uebersicht-pikto-rgb</title>
<g id="auge-pikto">
	<circle class="st0" cx="24" cy="24" r="14"/>
	<path class="st0" d="M47,24c0,0-10.8,14-23,14S1,24,1,24s10.9-14,23-14S47,24,47,24z"/>
	<path class="st1" d="M29,24c-3.3,0-6-2.7-6-6c0-0.5,0.1-1,0.2-1.5c-3.8,0.4-6.7,3.7-6.8,7.5c0,4.1,3.4,7.5,7.5,7.5s7.5-3.4,7.5-7.5
		c0-0.2,0-0.3,0-0.5C30.7,23.8,29.9,24,29,24z"/>
</g>
</svg>
