<svg id="auszeichnung-pikto" xmlns="http://www.w3.org/2000/svg" width="48" height="48" viewBox="0 0 48 48">
  <title>auszeichnung-pikto-form</title>
  <g>
    <path d="M24,9.25A8.75,8.75,0,1,0,32.75,18,8.76,8.76,0,0,0,24,9.25Zm0,16A7.25,7.25,0,1,1,31.25,18,7.26,7.26,0,0,1,24,25.25Z" fill="#003cb4"/>
    <path d="M38.79,22.21,43,16.94l-4.2-4.2,1.06-6.36-6.4-1.06L30.33.1,24,2.21,17.67.1,14.53,5.33,9.25,6.39v6.3L5,16.94l4.21,5.27L8.14,28.62l6.19,1-4.22,9.52,8.12,8.12L24,34.79l5.77,12.5,8.12-8.12-4.22-9.52,6.19-1Zm-6.25,6.11L29.67,33.1,24,31.21,18.33,33.1l-2.87-4.78-5.6-.94.93-5.59L7,17.06l3.75-3.75V7.61l4.72-.94L18.33,1.9,24,3.79,29.67,1.9l2.87,4.78,5.6.94-.94,5.64,3.8,3.8-3.79,4.73.93,5.59Z" fill="#003cb4"/>
  </g>
</svg>
