<svg id="auto-pikto" xmlns="http://www.w3.org/2000/svg" width="48" height="48" viewBox="0 0 48 48">
  <title>auto-pikto-form</title>
  <path d="M44.72,19.71,36.51,6.39l-.24-.09a37.75,37.75,0,0,0-24.54,0l-.24.09L3.28,19.71l-3,4V39A2.53,2.53,0,0,0,3,41.75H8A2.53,2.53,0,0,0,10.75,39v-.25h26.5V39A2.53,2.53,0,0,0,40,41.75h5A2.53,2.53,0,0,0,47.75,39V23.75ZM12.5,7.62a36.3,36.3,0,0,1,23,0l6.56,10.63H5.94ZM10.75,31c0,.43-.09.53-.17.58a1.23,1.23,0,0,1-.51.07c-.51-.11-3.87-.93-6.06-1.47-.12,0-.46-.13-.46-.78V28a.78.78,0,0,1,.75-.75H10a.78.78,0,0,1,.75.75Zm20,.05H17.25v-3h13.5Zm13.7-1.65c0,.65-.34.75-.46.78-2.19.54-5.55,1.36-6.06,1.47a1.23,1.23,0,0,1-.51-.07c-.08,0-.17-.15-.17-.58V28a.78.78,0,0,1,.75-.75h5.7a.78.78,0,0,1,.75.75Z" fill="#003cb4"/>
</svg>
