<?xml version="1.0" encoding="utf-8"?>
<!-- Generator: Adobe Illustrator 23.1.1, SVG Export Plug-In . SVG Version: 6.00 Build 0)  -->
<svg version="1.1" id="auto-pikto" xmlns="http://www.w3.org/2000/svg" xmlns:xlink="http://www.w3.org/1999/xlink" x="0px" y="0px"
	 viewBox="0 0 48 48" enable-background="new 0 0 48 48" xml:space="preserve">
<title>uebersicht-pikto-rgb_auto-pikto</title>
<path fill="#00BEC8" stroke="#00BEC8" stroke-width="1.5" stroke-miterlimit="10" d="M43.99,20H4.01l-3,4v15
	c-0.12,0.99,0.59,1.88,1.57,2c0.14,0.02,5.42,0,5.42,0c0.96,0,1.88-0.59,2-1.57c0.02-0.14,0.02-0.28,0-0.43v-1h27.98v1
	c-0.12,0.99,0.59,1.88,1.57,2c0.14,0.02,5.42,0,5.42,0c0.99,0,1.88-0.59,2-1.57c0.02-0.14,0.02-0.28,0-0.43V24L43.99,20z
	 M11.51,30.99c0.07,0.46-0.12,0.92-0.5,1.2c-0.31,0.16-0.65,0.23-1,0.2c-0.1,0-6.2-1.5-6.2-1.5c-0.65-0.2-1.07-0.83-1-1.5V28
	c0.02-0.82,0.68-1.48,1.5-1.5h5.7c0.82,0.02,1.48,0.68,1.5,1.5V30.99z M31.5,31.79H16.5v-4.5H31.5V31.79z M45.26,29.57
	c0,0.68-0.43,1.23-1.07,1.42c0,0-6.1,1.5-6.2,1.5c-0.34-0.02-0.68-0.09-1-0.2c-0.35-0.3-0.53-0.74-0.5-1.2v-3
	c0.02-0.82,0.68-1.48,1.5-1.5h5.8c0.82,0.02,1.48,0.68,1.5,1.5L45.26,29.57z"/>
<path fill="none" stroke="#003CB4" stroke-width="1.5" stroke-miterlimit="10" d="M43.39,19l-7.4-12c-7.77-2.67-16.21-2.67-23.99,0
	l-7.4,12H43.39z"/>
</svg>
