<svg id="avatar-frau-pikto" xmlns="http://www.w3.org/2000/svg" width="48" height="48" viewBox="0 0 48 48">
  <title>avatar-frau-pikto-form</title>
  <g>
    <path d="M24,38.25a14.16,14.16,0,0,1-12.34-7.61l-1.32.72A15.67,15.67,0,0,0,24,39.75a15.67,15.67,0,0,0,13.66-8.39l-1.32-.72A14.16,14.16,0,0,1,24,38.25Z" fill="#003cb4"/>
    <path d="M47.74,23.25a23.24,23.24,0,0,0-.25-2.86h0A23.86,23.86,0,0,0,24,.25,23.91,23.91,0,0,0,.52,20.39h0c0,.14,0,.29,0,.43l-.08.48h0c-.07.63-.12,1.27-.14,1.95v21H11.61A23.57,23.57,0,0,0,24,47.75a23.87,23.87,0,0,0,12.49-3.5H47.75v-21ZM35.6,42.86,33.75,44A22.54,22.54,0,0,1,24,46.25a22,22,0,0,1-10-2.39l-1.59-1A22.52,22.52,0,0,1,1.75,24a22.5,22.5,0,0,1,.18-2.81A23.31,23.31,0,0,0,19.42,8.89c6.33,15.48,19.29,17.27,24.95,17.27.71,0,1.31,0,1.76-.06A22.64,22.64,0,0,1,35.6,42.86Z" fill="#003cb4"/>
  </g>
</svg>
