<svg id="avatar-oma-brille-pikto" xmlns="http://www.w3.org/2000/svg" width="48" height="48" viewBox="0 0 48 48">
  <title>avatar-oma-brille-pikto-form</title>
  <g>
    <path d="M31,25.25a5.75,5.75,0,0,0-5.7,5H19.7a5.75,5.75,0,1,0,0,1.5h5.6a5.75,5.75,0,1,0,5.7-6.5Zm-17,10A4.25,4.25,0,1,1,18.25,31,4.26,4.26,0,0,1,14,35.25Zm17,0A4.25,4.25,0,1,1,35.25,31,4.26,4.26,0,0,1,31,35.25Z" fill="#003cb4"/>
    <path d="M47.75,8.5A8.24,8.24,0,0,0,32.56,4.06,25.05,25.05,0,0,0,23,2.25,22.75,22.75,0,0,0,.51,21.65l-.13.9C.3,23.36.25,24.17.25,25a22.75,22.75,0,0,0,45.49.35v-.6A24.54,24.54,0,0,0,44,15.42,8.25,8.25,0,0,0,47.75,8.5Zm-3,17.06h0Zm-.57.11A21.24,21.24,0,0,1,1.75,25a21.75,21.75,0,0,1,.17-2.57h0a23.14,23.14,0,0,0,17-11.76C24.3,23.79,34.24,26,40.28,26A24,24,0,0,0,44.22,25.67Z" fill="#003cb4"/>
  </g>
</svg>
