<?xml version="1.0" encoding="utf-8"?>
<!-- Generator: Adobe Illustrator 23.1.1, SVG Export Plug-In . SVG Version: 6.00 Build 0)  -->
<svg version="1.1" id="avatar-frau-brille-pikto" xmlns="http://www.w3.org/2000/svg" xmlns:xlink="http://www.w3.org/1999/xlink"
	 x="0px" y="0px" viewBox="0 0 48 48" enable-background="new 0 0 48 48" xml:space="preserve">
<title>uebersicht-pikto-rgb_avatar-frau-brille-pikto</title>
<rect x="10.5" y="25" fill="none" stroke="#003CB4" stroke-width="1.5" stroke-miterlimit="10" width="10" height="7"/>
<rect x="27.5" y="25" fill="none" stroke="#003CB4" stroke-width="1.5" stroke-miterlimit="10" width="10" height="7"/>
<line fill="none" stroke="#003CB4" stroke-width="1.5" stroke-miterlimit="10" x1="20.5" y1="28" x2="27.5" y2="28"/>
<path fill="none" stroke="#003CB4" stroke-width="1.5" stroke-miterlimit="10" d="M19.5,7.05C16.28,14.49,9.32,19.63,1.26,20.53
	C1.09,21.69,1,22.86,1,24.03C1,36.72,11.3,47,24,47c12.27,0.14,23-9.61,23-21.71C46.41,25.37,27,28.02,19.5,7.05z"/>
<path fill="#00BEC8" stroke="#00BEC8" stroke-width="1.5" stroke-miterlimit="10" d="M19.5,7.05C27,28.02,46.41,25.37,47,25.29
	c0-0.35,0-0.71,0-1.06C47.14,11.55,36.96,1.15,24.26,1c-11.47-0.13-21.29,8.2-23,19.53C9.32,19.63,16.28,14.49,19.5,7.05z"/>
<path fill="#00BEC8" stroke="#00BEC8" stroke-width="1.5" stroke-miterlimit="10" d="M1.25,20.53C1.08,21.69,1,22.86,1,24.03
	c0.07,7.95,4.23,15.3,11,19.47H1V23.28"/>
<path fill="#00BEC8" stroke="#00BEC8" stroke-width="1.5" stroke-miterlimit="10" d="M46.75,20.53c0.17,1.16,0.25,2.33,0.25,3.5
	c-0.07,7.95-4.51,15.18-11,19.47h11V23.28"/>
</svg>
