<svg id="avatar-oma-pikto" xmlns="http://www.w3.org/2000/svg" width="48" height="48" viewBox="0 0 48 48">
  <title>avatar-oma-pikto-form</title>
  <g>
    <path d="M24,38.25a14.16,14.16,0,0,1-12.34-7.61l-1.32.72A15.67,15.67,0,0,0,24,39.75a15.67,15.67,0,0,0,13.66-8.39l-1.32-.72A14.16,14.16,0,0,1,24,38.25Z" fill="#003cb4"/>
    <path d="M47.75,8.5A8.24,8.24,0,0,0,32.56,4.06,25.05,25.05,0,0,0,23,2.25,22.75,22.75,0,0,0,.51,21.65l-.13.9C.3,23.36.25,24.17.25,25a22.75,22.75,0,0,0,45.49.35h0v-.6A24.54,24.54,0,0,0,44,15.42,8.25,8.25,0,0,0,47.75,8.5Zm-3,17.06h0Zm-.57.11A21.24,21.24,0,0,1,1.75,25a21.75,21.75,0,0,1,.17-2.57h0a23.14,23.14,0,0,0,17-11.76C24.3,23.79,34.24,26,40.28,26A24,24,0,0,0,44.22,25.67Z" fill="#003cb4"/>
  </g>
</svg>
