<svg id="avatar-frau-brille-pikto" xmlns="http://www.w3.org/2000/svg" width="48" height="48" viewBox="0 0 48 48">
  <title>avatar-frau-brille-pikto-form</title>
  <path d="M47.74,23.25a23.24,23.24,0,0,0-.25-2.86h0A23.86,23.86,0,0,0,24,.25,23.91,23.91,0,0,0,.52,20.39h0c0,.14,0,.29,0,.43l-.08.48h0c-.07.63-.12,1.27-.14,1.95v21H11.61A23.57,23.57,0,0,0,24,47.75a23.87,23.87,0,0,0,12.49-3.5H47.75v-21ZM35.6,42.86,33.75,44A22.54,22.54,0,0,1,24,46.25a22,22,0,0,1-10-2.39l-1.59-1A22.52,22.52,0,0,1,1.75,24a22.5,22.5,0,0,1,.18-2.81A23.31,23.31,0,0,0,19.42,8.89c3.63,8.87,9.43,13.24,14.8,15.36H26.75v3h-5.5v-3H9.75v8.5h11.5v-4h5.5v4h11.5V25.48a28.09,28.09,0,0,0,6.12.68c.71,0,1.31,0,1.76-.06A22.64,22.64,0,0,1,35.6,42.86Zm1.15-17.11v5.5h-8.5v-5.5Zm-17,0v5.5h-8.5v-5.5Z" fill="#003cb4"/>
</svg>
