<svg id="avatar-opa-pikto" xmlns="http://www.w3.org/2000/svg" width="48" height="48" viewBox="0 0 48 48">
  <title>avatar-opa-pikto-form</title>
  <g>
    <path d="M47.75,24c0-.59,0-1.18-.07-1.76l0-.34q-.07-.87-.21-1.71l0-.19A23.75,23.75,0,0,0,.59,20l0,.19Q.42,21,.35,21.9l0,.34c0,.58-.07,1.17-.07,1.76v.85h0a23.75,23.75,0,0,0,47.46,0h0ZM24,46.25A22.26,22.26,0,0,1,1.77,24.63a8.8,8.8,0,0,0,7-8.63,9.38,9.38,0,0,0-2-6.05,22.22,22.22,0,0,1,34.48,0,9.38,9.38,0,0,0-2,6.05,8.8,8.8,0,0,0,7,8.63A22.26,22.26,0,0,1,24,46.25Z" fill="#003cb4"/>
    <path d="M32.8,22.45a5.75,5.75,0,0,0-5.7,5H20.9a5.75,5.75,0,1,0,0,1.5h6.2a5.75,5.75,0,1,0,5.7-6.5Zm-17.6,10a4.25,4.25,0,1,1,4.25-4.25A4.26,4.26,0,0,1,15.2,32.45Zm17.6,0a4.25,4.25,0,1,1,4.25-4.25A4.26,4.26,0,0,1,32.8,32.45Z" fill="#003cb4"/>
  </g>
</svg>
