<svg id="avatar-mann-brille-pikto" xmlns="http://www.w3.org/2000/svg" width="48" height="48" viewBox="0 0 48 48">
  <title>avatar-mann-brille-pikto-form</title>
  <g>
    <path d="M32.5,22.25a5.75,5.75,0,0,0-5.7,5H21.2a5.75,5.75,0,1,0,0,1.5h5.6a5.75,5.75,0,1,0,5.7-6.5Zm-17,10A4.25,4.25,0,1,1,19.75,28,4.26,4.26,0,0,1,15.5,32.25Zm17,0A4.25,4.25,0,1,1,36.75,28,4.26,4.26,0,0,1,32.5,32.25Z" fill="#003cb4"/>
    <path d="M47.62,21.37l-.13-1C45.94,8.72,36.06.25,24,.25A23.61,23.61,0,0,0,1.28,17l-.19.64h0A23.52,23.52,0,0,0,.25,24a23.75,23.75,0,0,0,47.5,0C47.75,23.11,47.62,21.37,47.62,21.37ZM24,46.25A22.25,22.25,0,0,1,2.49,18.31c6,2.78,17.86,5.74,33.22-2.79,2.5,3.94,8.45,5.29,10.35,5.63A22.2,22.2,0,0,1,24,46.25Z" fill="#003cb4"/>
  </g>
</svg>
