<svg id="avatar-mann-pikto" xmlns="http://www.w3.org/2000/svg" width="48" height="48" viewBox="0 0 48 48">
  <title>avatar-mann-pikto-form</title>
  <g>
    <path d="M24,38.25a14.16,14.16,0,0,1-12.34-7.61l-1.32.72A15.67,15.67,0,0,0,24,39.75a15.67,15.67,0,0,0,13.66-8.39l-1.32-.72A14.16,14.16,0,0,1,24,38.25Z" fill="#003cb4"/>
    <path d="M47.62,21.37l-.13-1C45.94,8.72,36.06.25,24,.25A23.61,23.61,0,0,0,1.28,17l-.19.64h0A23.52,23.52,0,0,0,.25,24a23.75,23.75,0,0,0,47.5,0C47.75,23.11,47.62,21.37,47.62,21.37ZM24,46.25A22.25,22.25,0,0,1,2.49,18.31c6,2.78,17.86,5.74,33.22-2.79,2.5,3.94,8.45,5.29,10.35,5.63A22.2,22.2,0,0,1,24,46.25Z" fill="#003cb4"/>
  </g>
</svg>
