<svg id="bagger-pikto" xmlns="http://www.w3.org/2000/svg" width="48" height="48" viewBox="0 0 48 48">
  <title>bagger-pikto-form</title>
  <g>
    <circle cx="34" cy="41" r="2.25" fill="#003cb4"/>
    <circle cx="21" cy="41" r="2.25" fill="#003cb4"/>
    <circle cx="8" cy="41" r="2.25" fill="#003cb4"/>
    <path d="M34.26,28.12A6.83,6.83,0,0,0,41,33.75h0A6.75,6.75,0,0,0,47.75,27L43.64.25H38.71L27.07,10.92,25.52,6.75H12.25v15h-6V34.29A6.75,6.75,0,0,0,7,47.75H35a6.75,6.75,0,0,0,0-13.5H31.75V23.5l-1.14-3.06,8.07-9.87,4.26,14.49-8.79,2.39ZM7.75,23.25h6v-15H24.48l5.77,15.39V33H7.75ZM8,44.75A3.75,3.75,0,1,1,11.75,41,3.75,3.75,0,0,1,8,44.75Zm13,0A3.75,3.75,0,1,1,24.75,41,3.75,3.75,0,0,1,21,44.75ZM37.75,41A3.75,3.75,0,1,1,34,37.25,3.76,3.76,0,0,1,37.75,41ZM39.32,7.43,30,18.81l-2.38-6.37L39.29,1.75h3.07l3.46,22.52-1.43.39Zm6.73,18.33.2,1.3A5.26,5.26,0,0,1,41,32.25h0a5.34,5.34,0,0,1-5.09-3.72Z" fill="#003cb4"/>
    <path d="M16.25,10.25v12.5H27.07l-4.54-12.5Zm1.5,11v-9.5h3.72l3.46,9.5Z" fill="#003cb4"/>
  </g>
</svg>
