<svg id="baum-umwelt-pikto" xmlns="http://www.w3.org/2000/svg" width="48" height="48" viewBox="0 0 48 48">
  <title>baum-umwelt-pikto</title>
  <path d="M17.75,42m-13-12a18.37,18.37,0,0,1,2.5-8.5L17.75,1.75,28.25,21.5a18.37,18.37,0,0,1,2.5,8.5c0,10.5-10.93,12-13,12C15.41,42,4.75,40.5,4.75,30Z" fill="none" stroke="#003cb4" stroke-miterlimit="10" stroke-width="1.5"/>
  <line x1="17.75" y1="42" x2="17.75" y2="48" fill="none" stroke="#003cb4" stroke-miterlimit="10" stroke-width="1.5"/>
  <line x1="35.25" y1="42" x2="35.25" y2="48" fill="none" stroke="#003cb4" stroke-miterlimit="10" stroke-width="1.5"/>
  <path d="M35.25,42m-8-7.5a11.45,11.45,0,0,1,1.5-5.25L35.25,17l6.5,12.25a11.45,11.45,0,0,1,1.5,5.25c0,6.52-6.26,7.75-8,7.75C34,42.25,27.25,41,27.25,34.5Z" fill="#00bec8" stroke="#00bec8" stroke-miterlimit="10" stroke-width="1.5"/>
</svg>
