<svg id="baum-umwelt-pikto" xmlns="http://www.w3.org/2000/svg" width="48" height="48" viewBox="0 0 48 48">
  <title>baum-umwelt-pikto-form</title>
  <path d="M44,34.42a12.16,12.16,0,0,0-1.59-5.6l-7.16-13.5-4.83,9.1a24.44,24.44,0,0,0-1.51-3.36L17.75,0,6.59,21.06A19.21,19.21,0,0,0,4,29.94C4,39.73,12.94,42.4,17,42.7V48h1.5V42.69a17.68,17.68,0,0,0,6.9-2.12,13.68,13.68,0,0,0,2.34-1.71,9.88,9.88,0,0,0,6.76,4V48H36V42.87C38.69,42.58,44,40.71,44,34.42ZM17.75,41.25c-.43,0-12.25-.33-12.25-11.31a17.77,17.77,0,0,1,2.41-8.17L17.75,3.21l9.84,18.56a22.33,22.33,0,0,1,1.85,4.5l-1.35,2.56a12.09,12.09,0,0,0-1.59,5.59,8.31,8.31,0,0,0,.56,3.09C23.5,41,18,41.25,17.75,41.25Z" fill="#003cb4"/>
</svg>
