<svg id="behaviour-pikto" xmlns="http://www.w3.org/2000/svg" width="48" height="48" viewBox="0 0 48 48">
  <title>behaviour-pikto</title>
  <polyline points="45 11 16 5 3 14" fill="none" stroke="#00bec8" stroke-miterlimit="3" stroke-width="1.5"/>
  <circle cx="4" cy="14" r="3" fill="#00bec8" stroke="#00bec8" stroke-miterlimit="3" stroke-width="1.5"/>
  <circle cx="44" cy="11" r="3" fill="#00bec8" stroke="#00bec8" stroke-miterlimit="3" stroke-width="1.5"/>
  <circle cx="16" cy="5" r="4" fill="#00bec8" stroke="#00bec8" stroke-miterlimit="3" stroke-width="1.5"/>
  <path d="M23,29V27a4.13,4.13,0,0,1,4-4,3.88,3.88,0,0,1,4,4V28.2" fill="none" stroke="#003cb4" stroke-miterlimit="10" stroke-width="1.5"/>
  <path d="M31,29V28a3.86,3.86,0,0,1,4-4,3.81,3.81,0,0,1,4,4v1" fill="none" stroke="#003cb4" stroke-miterlimit="10" stroke-width="1.5"/>
  <path d="M39,29a4,4,0,0,1,4-4,4.13,4.13,0,0,1,4,4V47H14L2,32a4.19,4.19,0,0,1,.5-5.75c1.68-1.4,4-1.07,5.5.75.55.64,7,8,7,8V13a4,4,0,0,1,4-4,3.74,3.74,0,0,1,4,4V27" fill="none" stroke="#003cb4" stroke-miterlimit="10" stroke-width="1.5"/>
</svg>
