<svg id="belegscanner-pikto" xmlns="http://www.w3.org/2000/svg" width="48" height="48" viewBox="0 0 48 48">
  <title>belegscanner-pikto-form</title>
  <g>
    <polygon points="2.75 2.75 10 2.75 10 1.25 1.25 1.25 1.25 10 2.75 10 2.75 2.75" fill="#003cb4"/>
    <polygon points="2.75 38 1.25 38 1.25 46.75 10 46.75 10 45.25 2.75 45.25 2.75 38" fill="#003cb4"/>
    <polygon points="38 1.25 38 2.75 45.25 2.75 45.25 10 46.75 10 46.75 1.25 38 1.25" fill="#003cb4"/>
    <polygon points="45.25 45.25 38 45.25 38 46.75 46.75 46.75 46.75 38 45.25 38 45.25 45.25" fill="#003cb4"/>
    <path d="M38.75,12.25H9.25v23.5h29.5Zm-28,22V13.75h26.5v14.5h-14v6Z" fill="#003cb4"/>
    <rect x="14" y="16.25" width="10" height="1.5" fill="#003cb4"/>
    <rect x="14" y="20.25" width="8" height="1.5" fill="#003cb4"/>
    <rect x="14" y="24.25" width="10" height="1.5" fill="#003cb4"/>
  </g>
</svg>
