<svg id="beraterin-pikto" xmlns="http://www.w3.org/2000/svg" width="48" height="48" viewBox="0 0 48 48">
  <title>beraterin-pikto-form</title>
  <g>
    <path d="M37.51,35.61c-3.19-3.22-7.74-4.86-13.51-4.86-18,0-18.25,16.33-18.25,16.5V48H42.24v-.74A17.69,17.69,0,0,0,37.51,35.61ZM7.28,46.5c.23-2.92,2-13.17,14.69-14.17A8.33,8.33,0,0,0,20.25,37c0,3.33,3.2,5.5,3.33,5.59l.42.28.42-.28c.13-.09,3.34-2.26,3.33-5.59A8.27,8.27,0,0,0,26,32.33c4.38.33,7.88,1.78,10.4,4.33a16.18,16.18,0,0,1,4.28,9.84Z" fill="#003cb4"/>
    <path d="M24,28.5a14.21,14.21,0,0,0,6.83-1.75h7.52s-.1-12.42-.1-12.5A14.25,14.25,0,0,0,9.76,14V26.75h7.42A14.18,14.18,0,0,0,24,28.5Zm-11.11-8a14.31,14.31,0,0,1-1.61-5.59c0-.06,0-.56,0-.75a12.52,12.52,0,0,1,.14-1.75A13.33,13.33,0,0,0,21.38,6c2.27,5.63,7.43,8.56,15.35,8.74a12.74,12.74,0,0,1-23.84,5.76Z" fill="#003cb4"/>
  </g>
</svg>
