<svg id="berater-pikto" xmlns="http://www.w3.org/2000/svg" width="48" height="48" viewBox="0 0 48 48">
  <title>berater-pikto</title>
  <path d="M21.75,41,24,43l2.25-2L24.5,31.75c-.39,0-.61,0-1,0Z" fill="#00bec8" stroke="#00bec8" stroke-miterlimit="10" stroke-width="1.5"/>
  <path d="M41.5,47.25S41.5,31.5,24,31.5,6.5,47.25,6.5,47.25Z" fill="none" stroke="#003cb4" stroke-miterlimit="10" stroke-width="1.5"/>
  <g>
    <path d="M23.94.75a13.39,13.39,0,0,0-13.19,11c2.84,1.1,5.83,2.4,9.06,2.4a24.69,24.69,0,0,0,12.44-3.4,6.65,6.65,0,0,0,5.25,3C37.5,6.45,31.33.75,23.94.75Z" fill="#003cb4" stroke="#003cb4" stroke-miterlimit="10" stroke-width="1.5"/>
    <circle cx="24" cy="14.25" r="13.5" fill="none" stroke="#003cb4" stroke-miterlimit="3" stroke-width="1.5"/>
  </g>
</svg>
