<svg id="berater-pikto" xmlns="http://www.w3.org/2000/svg" width="48" height="48" viewBox="0 0 48 48">
  <title>berater-pikto-form</title>
  <g>
    <path d="M24,30.75c-18,0-18.25,16.33-18.25,16.5V48h36.5v-.75C42.25,47.08,42,30.75,24,30.75ZM7.28,46.5c.24-3,2-13.54,15.36-14.22l-1.71,9L24,44l3.07-2.72-1.71-9C38.68,33,40.47,43.53,40.71,46.5Z" fill="#003cb4"/>
    <path d="M24,28.5A14.26,14.26,0,0,0,38.23,14.58h0l0,0a3,3,0,0,0,0-.31A14.24,14.24,0,0,0,9.91,12.2v0h0a14.88,14.88,0,0,0-.16,2A14.26,14.26,0,0,0,24,28.5ZM11.34,12.79c2.67,1,5.43,2.11,8.47,2.11A25.36,25.36,0,0,0,32,11.75a7.44,7.44,0,0,0,4.74,2.64,12.75,12.75,0,0,1-25.49-.14A14,14,0,0,1,11.34,12.79Z" fill="#003cb4"/>
  </g>
</svg>
