<?xml version="1.0" encoding="utf-8"?>
<!-- Generator: Adobe Illustrator 24.0.1, SVG Export Plug-In . SVG Version: 6.00 Build 0)  -->
<svg version="1.1" id="bier-pikto" xmlns="http://www.w3.org/2000/svg" xmlns:xlink="http://www.w3.org/1999/xlink" x="0px" y="0px"
	 viewBox="0 0 48 48" enable-background="new 0 0 48 48" xml:space="preserve">
<title>bier-pikto-form</title>
<g>
	<path fill="#003CB4" d="M44.37,17.52c-2.14-2.08-5.02-3.21-8-3.12h-1.51v-3.28c-0.04-3.1-2.5-5.64-5.6-5.78
		C28.84,2.22,26.14-0.08,22.99,0c-2.31-0.04-4.45,1.18-5.59,3.19C16.18,1.18,13.98-0.03,11.62,0C8.48-0.08,5.77,2.22,5.35,5.34
		C2.29,5.45-0.11,8.02,0,11.08c0,0.01,0,0.03,0,0.04v30.31c0.02,3.52,2.8,6.41,6.31,6.57H28.8c2.51-0.07,4.72-1.67,5.56-4.04h1.77
		c6.56,0,11.87-5.31,11.87-11.87c0-0.09,0-0.17,0-0.26v-5.31C48.05,23.16,46.75,19.91,44.37,17.52z M33.35,41.43
		c0,2.44-1.83,5.05-4.55,5.05H6.32c-2.68-0.17-4.77-2.37-4.8-5.05V15.44c1.1,1.4,2.77,2.23,4.55,2.24h22.48
		c1.87-0.03,3.63-0.89,4.8-2.35V41.43z M28.55,16.17H6.07c-2.81,0-4.55-2.63-4.55-5.05c0-2.65,1.74-4.29,4.55-4.29h0.76V6.07
		c0.05-2.56,2.16-4.6,4.72-4.55c0.02,0,0.05,0,0.07,0c2.65-0.13,4.91,1.9,5.05,4.55h1.52c0.05-2.56,2.16-4.6,4.72-4.55
		c0.02,0,0.05,0,0.07,0c2.56-0.09,4.71,1.91,4.8,4.47c0,0.02,0,0.05,0,0.07v0.76h0.76c2.78,0,4.8,1.81,4.8,4.29
		C33.35,13.81,31.24,16.04,28.55,16.17z M42.44,31.83c0,3.24-3.28,5.56-6.31,5.81h-1.26V20.97h1.52c2.93,0,6.06,2.23,6.06,5.56
		V31.83z"/>
	<rect x="9.1" y="22.23" fill="#003CB4" width="1.52" height="20.21"/>
	<rect x="17.18" y="22.23" fill="#003CB4" width="1.52" height="20.21"/>
	<rect x="25.26" y="22.23" fill="#003CB4" width="1.52" height="20.21"/>
</g>
</svg>
