<svg id="biometrische-identifizierung-pikto" xmlns="http://www.w3.org/2000/svg" width="48" height="48" viewBox="0 0 48 48">
  <title>biometrische-identifizierung-pikto-form</title>
  <g>
    <polygon points="2.75 2.75 10 2.75 10 1.25 1.25 1.25 1.25 10 2.75 10 2.75 2.75" fill="#003cb4"/>
    <polygon points="2.75 38 1.25 38 1.25 46.75 10 46.75 10 45.25 2.75 45.25 2.75 38" fill="#003cb4"/>
    <polygon points="38 1.25 38 2.75 45.25 2.75 45.25 10 46.75 10 46.75 1.25 38 1.25" fill="#003cb4"/>
    <polygon points="45.25 45.25 38 45.25 38 46.75 46.75 46.75 46.75 38 45.25 38 45.25 45.25" fill="#003cb4"/>
    <path d="M24,5.25A18.75,18.75,0,1,0,42.75,24,18.77,18.77,0,0,0,24,5.25ZM16,29.52a5.33,5.33,0,0,0-3.31-.36l3.21,4-1.18.94L11.3,29.82a4.21,4.21,0,0,0-1.1,1.26l-1.34-.66c0-.05,2.3-4.45,7.7-2.3ZM18.74,39l-1.06-1.06c2.48-2.48,1.39-5.9-.16-9.79a9,9,0,0,1,1.35-9c1.88-2.14,4.8-2.84,8.21-2l-.37,1.46a8,8,0,0,0-4.08-.11l4.8,4.93-1.08,1-5.2-5.33a5,5,0,0,0-1.15,1,5.53,5.53,0,0,0-.73,1.1l5.25,5.09-1,1.08-4.81-4.67a7.79,7.79,0,0,0,.24,4.82C20.19,30.78,22.12,35.61,18.74,39ZM29.28,28.8a6.58,6.58,0,0,1-5.14,2.27,10.48,10.48,0,0,1-3.27-.57l.47-1.43c2.9,1,5.25.53,6.81-1.25a8.15,8.15,0,0,0,1-8.31c-1.48-3-3.08-7.28.14-10.5l1.07,1.06c-2,1.95-1.92,4.66.14,8.77A9.63,9.63,0,0,1,29.28,28.8ZM36.62,20a4.78,4.78,0,0,1-2.27.54,8.07,8.07,0,0,1-2.91-.62l.55-1.4a4.61,4.61,0,0,0,3.91.16l-4.72-4.72,1.06-1.06L37,17.64a4.66,4.66,0,0,0,.71-1.51l1.47.31A5.57,5.57,0,0,1,36.62,20Z" fill="#003cb4"/>
  </g>
</svg>
