<svg id="buch-pikto" xmlns="http://www.w3.org/2000/svg" width="48" height="48" viewBox="0 0 48 48">
  <title>buch-pikto</title>
  <path d="M45,6V43s-17-2-21,3c-4-5-21-3-21-3V6H1V47H47V6Z" fill="#00bec8" stroke="#00bec8" stroke-miterlimit="10" stroke-width="1.5"/>
  <path d="M45,4S28,1.09,24,6C20,1.09,3,4,3,4V43s17-2,21,3c4-5,21-3,21-3Z" fill="none" stroke="#003cb4" stroke-miterlimit="10" stroke-width="1.5"/>
  <line x1="24" y1="6" x2="24" y2="46" fill="none" stroke="#003cb4" stroke-miterlimit="10" stroke-width="1.5"/>
  <line x1="28" y1="22" x2="40" y2="22" fill="none" stroke="#003cb4" stroke-miterlimit="10" stroke-width="1.5"/>
  <line x1="28" y1="12" x2="40" y2="12" fill="none" stroke="#003cb4" stroke-miterlimit="10" stroke-width="1.5"/>
  <line x1="28" y1="17" x2="36" y2="17" fill="none" stroke="#003cb4" stroke-miterlimit="10" stroke-width="1.5"/>
  <line x1="7" y1="22" x2="19" y2="22" fill="none" stroke="#003cb4" stroke-miterlimit="10" stroke-width="1.5"/>
  <line x1="7" y1="12" x2="19" y2="12" fill="none" stroke="#003cb4" stroke-miterlimit="10" stroke-width="1.5"/>
  <line x1="7" y1="17" x2="15" y2="17" fill="none" stroke="#003cb4" stroke-miterlimit="10" stroke-width="1.5"/>
  <line x1="7" y1="27" x2="15" y2="27" fill="none" stroke="#003cb4" stroke-miterlimit="10" stroke-width="1.5"/>
</svg>
