<svg id="bulle-pikto" xmlns="http://www.w3.org/2000/svg" width="48" height="48" viewBox="0 0 48 48">
  <title>bulle-pikto-form</title>
  <g>
    <path d="M47.74,11.36l-.12-.61H38.91a11.51,11.51,0,0,0,5.84-10h-1.5a10,10,0,0,1-10,10H14.74a10,10,0,0,1-10-10H3.25a11.51,11.51,0,0,0,5.84,10H.38l-.12.61a6.79,6.79,0,0,0,1.44,5.4C3.08,18.27,5.15,19,8.5,19.21V37.5h0a10.82,10.82,0,0,0,2.86,7.72A7.18,7.18,0,0,0,16.5,47.5h15a7.18,7.18,0,0,0,5.13-2.28A10.82,10.82,0,0,0,39.5,37.5h0V19.21c3.35-.2,5.42-.94,6.8-2.45A6.79,6.79,0,0,0,47.74,11.36ZM35.57,44.17A5.69,5.69,0,0,1,31.5,46h-15a5.69,5.69,0,0,1-4.08-1.83A9.3,9.3,0,0,1,10,37.51c.07-4.72,2.83-8.26,6.45-8.26H31.51c3.63,0,6.42,3.52,6.49,8.26A9.3,9.3,0,0,1,35.57,44.17ZM38,31.75a7.45,7.45,0,0,0-6.43-4H16.44a7.46,7.46,0,0,0-6.44,4V12.25H38Z" fill="#003cb4"/>
    <path d="M30,32.75a3,3,0,0,0-1.47,5.6,5.2,5.2,0,0,1-9.06,0,3,3,0,1,0-1.51.4,6.74,6.74,0,0,0,12.08,0,3,3,0,0,0,0-6ZM18.9,36.94a5.17,5.17,0,0,1-.15-1.19h-1.5a6.84,6.84,0,0,0,.14,1.37,1.51,1.51,0,0,1-.89-1.37,1.5,1.5,0,1,1,2.4,1.19Zm11.71.18a6.84,6.84,0,0,0,.14-1.37h-1.5a5.17,5.17,0,0,1-.15,1.19,1.5,1.5,0,1,1,2.4-1.19A1.51,1.51,0,0,1,30.61,37.12Z" fill="#003cb4"/>
  </g>
</svg>
