<svg id="bulle-pikto" xmlns="http://www.w3.org/2000/svg" width="48" height="48" viewBox="0 0 48 48">
  <title>bulle-pikto</title>
  <path d="M1,11.5a6,6,0,0,0,1.25,4.75c1.33,1.45,3.36,2.13,7,2.25v-7Z" fill="#00bec8" stroke="#00bec8" stroke-miterlimit="10" stroke-width="1.5"/>
  <path d="M38.75,11.5v7c3.64-.12,5.67-.8,7-2.25A6,6,0,0,0,47,11.5Z" fill="#00bec8" stroke="#00bec8" stroke-miterlimit="10" stroke-width="1.5"/>
  <path d="M4,.75A10.74,10.74,0,0,0,14.74,11.5H33.25A10.75,10.75,0,0,0,44,.75" fill="none" stroke="#003cb4" stroke-miterlimit="10" stroke-width="1.5"/>
  <path d="M31.5,46.75c4.17,0,7.32-4.21,7.25-9.25s-3.08-9-7.25-9h-15c-4.17,0-7.18,4-7.25,9s3.08,9.21,7.25,9.25Z" fill="none" stroke="#003cb4" stroke-miterlimit="10" stroke-width="1.5"/>
  <polyline points="38.75 37.5 38.75 11.5 9.25 11.5 9.25 37.5" fill="none" stroke="#003cb4" stroke-miterlimit="10" stroke-width="1.5"/>
  <circle cx="18" cy="35.75" r="2.25" fill="none" stroke="#003cb4" stroke-miterlimit="10" stroke-width="1.5"/>
  <circle cx="30" cy="35.75" r="2.25" fill="none" stroke="#003cb4" stroke-miterlimit="10" stroke-width="1.5"/>
  <path d="M30,35.75a6,6,0,0,1-12,0" fill="none" stroke="#003cb4" stroke-miterlimit="10" stroke-width="1.5"/>
</svg>
