<svg id="cloud-pikto" xmlns="http://www.w3.org/2000/svg" width="48" height="48" viewBox="0 0 48 48">
  <title>cloud-pikto</title>
  <path d="M42,33.25a3.74,3.74,0,0,0-3.67,3H29.75v-5.5H40a7.75,7.75,0,0,0,0-15.5h-.25V14C39.75,6.42,33.13.25,25,.25a13.89,13.89,0,0,0-13.61,11H10a9.75,9.75,0,0,0,0,19.5h8.25v5.5H8.67a3.75,3.75,0,1,0,0,1.5H19.75v-7h3.5v8.58a3.75,3.75,0,1,0,1.5,0V30.75h3.5v7H38.33A3.75,3.75,0,1,0,42,33.25ZM1.75,21A8.26,8.26,0,0,1,10,12.75h2.62l.12-.61A12.43,12.43,0,0,1,25,1.75c7.31,0,13.25,5.5,13.25,12.25v2.75H40a6.25,6.25,0,0,1,0,12.5H10A8.26,8.26,0,0,1,1.75,21Z" fill="#003cb4"/>
</svg>
