<svg id="cloud-pikto" xmlns="http://www.w3.org/2000/svg" width="48" height="48" viewBox="0 0 48 48">
  <title>cloud-pikto</title>
  <polyline points="8 37 19 37 19 30" fill="none" stroke="#00bec8" stroke-miterlimit="10" stroke-width="1.5"/>
  <line x1="24" y1="41" x2="24" y2="30" fill="none" stroke="#00bec8" stroke-miterlimit="10" stroke-width="1.5"/>
  <circle cx="24" cy="43" r="3" fill="#00bec8" stroke="#00bec8" stroke-miterlimit="10" stroke-width="1.5"/>
  <circle cx="5" cy="37" r="3" fill="#00bec8" stroke="#00bec8" stroke-miterlimit="10" stroke-width="1.5"/>
  <polyline points="39 37 29 37 29 30" fill="none" stroke="#00bec8" stroke-miterlimit="10" stroke-width="1.5"/>
  <circle cx="42" cy="37" r="3" fill="#00bec8" stroke="#00bec8" stroke-miterlimit="10" stroke-width="1.5"/>
  <path d="M40,16H39V14C39,6.54,32.46,1,25,1A13.22,13.22,0,0,0,12,12H10a9,9,0,0,0,0,18H40a7,7,0,0,0,0-14Z" fill="none" stroke="#003cb4" stroke-miterlimit="10" stroke-width="1.5"/>
</svg>
