<svg id="cocktail-pikto" xmlns="http://www.w3.org/2000/svg" width="48" height="48" viewBox="0 0 48 48">
  <title>cocktail-pikto-form</title>
  <path d="M24.75,30.34,48,9.75H12.31L5,2.47,4,3.53l6.22,6.22H0L23.25,30.34V46.25H14v1.5H34v-1.5H24.75ZM4,11.25h7.71l3.92,3.92a3.26,3.26,0,0,0-.49,1.71,3.21,3.21,0,0,0,3.26,3.24,3.08,3.08,0,0,0,.68-.07,3.43,3.43,0,0,0-.18,1.07,3.25,3.25,0,1,0,3.24-3.24,3.08,3.08,0,0,0-.68.07,3.43,3.43,0,0,0,.18-1.07,3.21,3.21,0,0,0-3.24-3.26,3.26,3.26,0,0,0-1.71.49l-2.86-2.86H44L24,29Z" fill="#003cb4"/>
</svg>
