<svg id="daumen-hoch-pikto" xmlns="http://www.w3.org/2000/svg" width="48" height="48" viewBox="0 0 48 48">
  <title>daumen-hoch-pikto-form</title>
  <path d="M48,23.06a4.51,4.51,0,0,0-1.22-3.35,3.52,3.52,0,0,0-2.55-1.21H23.78C25.3,15.36,29.27,7,29.37,4.78a4.44,4.44,0,0,0-1.21-3.33A5,5,0,0,0,24.59,0,4.64,4.64,0,0,0,20.4,2.63L11.53,19H0V48H38.43a4.23,4.23,0,0,0,4.28-4.28,4.61,4.61,0,0,0-1.08-2.86c1.31-.38,2.3-1.56,2.81-3.41a3.52,3.52,0,0,0-.34-2.91,3.82,3.82,0,0,0-.64-.79,4.59,4.59,0,0,0,2.77-3.94,3.8,3.8,0,0,0-1-3,3.53,3.53,0,0,0,1.19-.64A4.47,4.47,0,0,0,48,23.06ZM43.8,25.51c-.51-.07-1.45-.25-1.46-.25L42,26.73c.86.21,2.86.91,2.69,3a2.88,2.88,0,0,1-2.54,2.81,5.24,5.24,0,0,1-1.33-.17l-.25-.06-.36,1.45.21.06a4.27,4.27,0,0,1,2.36,1.53A2.15,2.15,0,0,1,43,37.05c-.31,1.1-1,2.42-2.31,2.45a7.7,7.7,0,0,1-1.38-.18l-.21,0-.37,1.45.21.05a3.25,3.25,0,0,1,2.27,2.95,2.75,2.75,0,0,1-2.77,2.78H13V19.44L21.74,3.31A3.13,3.13,0,0,1,24.59,1.5a3.44,3.44,0,0,1,2.48,1,3,3,0,0,1,.79,2.23c-.08,1.69-3.61,9.42-6,14.2L21.36,20H44.22a2.12,2.12,0,0,1,1.45.73,3,3,0,0,1-.19,4.32A2.19,2.19,0,0,1,43.8,25.51Z" fill="#003cb4"/>
</svg>
