<svg id="daumen-hoch-pikto" xmlns="http://www.w3.org/2000/svg" width="48" height="48" viewBox="0 0 48 48">
  <title>daumen-hoch-pikto</title>
  <rect x="0.75" y="19.75" width="11.5" height="27.5" fill="#00bec8" stroke="#00bec8" stroke-miterlimit="10" stroke-width="1.5"/>
  <path d="M12.5,19.25,21.25,3A3.87,3.87,0,0,1,24.75.75a3.81,3.81,0,0,1,4,4c-.11,2.46-6,14.5-6,14.5h21.5c1.62,0,3.14,1.86,3,3.75s-1.54,3.49-3.5,3.25c-.53-.07-1.5-.25-1.5-.25,1.57.37,3.44,1.48,3.25,3.75a3.59,3.59,0,0,1-3.25,3.5A6.69,6.69,0,0,1,40.5,33s4.17.9,3.25,4.25c-.52,1.9-1.58,3-3,3A10.11,10.11,0,0,1,39,40h0a4,4,0,0,1,3,3.72,3.48,3.48,0,0,1-3.5,3.53h-26Z" fill="none" stroke="#003cb4" stroke-miterlimit="10" stroke-width="1.5"/>
</svg>
