<svg id="depot-pikto" xmlns="http://www.w3.org/2000/svg" width="48" height="48" viewBox="0 0 48 48">
  <title>depot-pikto-form</title>
  <g>
    <path d="M38.75,0H3.5V48H38.75a5.76,5.76,0,0,0,5.75-5.75V5.75A5.76,5.76,0,0,0,38.75,0ZM43,42.25a4.26,4.26,0,0,1-4.25,4.25H8V1.5H38.75A4.26,4.26,0,0,1,43,5.75Z" fill="#003cb4"/>
    <polygon points="28.99 21.69 26.24 18.94 21.23 23.94 17.99 20.69 12.93 25.75 15.74 28.56 17.99 26.31 21.24 29.56 26.27 24.54 29 27.02 35.07 21.26 32.24 18.44 28.99 21.69" fill="#003cb4"/>
  </g>
</svg>
