<svg id="depot-pikto" xmlns="http://www.w3.org/2000/svg" width="48" height="48" viewBox="0 0 48 48">
  <title>depot-pikto-linie</title>
  <path d="M5,.75H39a5,5,0,0,1,5,5v36.5a5,5,0,0,1-5,5H5a0,0,0,0,1,0,0V.75A0,0,0,0,1,5,.75Z" fill="none" stroke="#003cb4" stroke-miterlimit="10" stroke-width="1.5"/>
  <rect x="4.5" y="0.75" width="3" height="46.5" fill="#003cb4" stroke="#003cb4" stroke-miterlimit="10" stroke-width="1.5"/>
  <path d="M19.5,25.25l3.25,3.25,5-5L30.5,26l5-4.75L33.75,19.5,30.5,22.75,27.75,20l-5,5L19.5,21.75l-4,4,1.75,1.75Z" fill="#00bec8" stroke="#00bec8" stroke-miterlimit="10" stroke-width="1.5"/>
</svg>
