<svg id="desinvestieren-pikto" xmlns="http://www.w3.org/2000/svg" width="48" height="48" viewBox="0 0 48 48">
  <title>desinvestieren-pikto-form</title>
  <g>
    <path d="M34,12.5H9.25V48H34a5.76,5.76,0,0,0,5.75-5.75v-24A5.76,5.76,0,0,0,34,12.5Zm4.25,29.75A4.26,4.26,0,0,1,34,46.5H12.75V14H34a4.26,4.26,0,0,1,4.25,4.25Z" fill="#003cb4"/>
    <path d="M25,35.5A5.25,5.25,0,0,1,25,25a4.9,4.9,0,0,1,4.35,2.63l1.3-.76A6.44,6.44,0,0,0,25,23.5,6.75,6.75,0,0,0,25,37a6.44,6.44,0,0,0,5.65-3.37l-1.3-.76A4.9,4.9,0,0,1,25,35.5Z" fill="#003cb4"/>
    <path d="M25,27.5a2.75,2.75,0,1,0,2.56,3.75H32v-2H27.56A2.77,2.77,0,0,0,25,27.5Z" fill="#003cb4"/>
    <polygon points="23.25 3.06 23.25 10.25 24.75 10.25 24.75 3.06 27.47 5.78 28.53 4.72 24 0.19 19.47 4.72 20.53 5.78 23.25 3.06" fill="#003cb4"/>
  </g>
</svg>
