<svg id="desinvestieren-pikto" xmlns="http://www.w3.org/2000/svg" width="48" height="48" viewBox="0 0 48 48">
  <title>desinvestieren-pikto-linie</title>
  <path d="M34,47.25H10v-34H34a5,5,0,0,1,5,5v24A5,5,0,0,1,34,47.25Z" fill="none" stroke="#003cb4" stroke-miterlimit="10" stroke-width="1.5"/>
  <rect x="10" y="13.25" width="2" height="34" fill="#003cb4" stroke="#003cb4" stroke-miterlimit="10" stroke-width="1.5"/>
  <g>
    <circle cx="25" cy="30.25" r="2" fill="#00bec8" stroke="#00bec8" stroke-miterlimit="10" stroke-width="1.5"/>
    <path d="M30,33.25a5.69,5.69,0,0,1-5,3,6,6,0,0,1,0-12,5.69,5.69,0,0,1,5,3" fill="none" stroke="#00bec8" stroke-miterlimit="10" stroke-width="1.5"/>
    <line x1="27" y1="30.25" x2="32" y2="30.25" fill="none" stroke="#00bec8" stroke-miterlimit="10" stroke-width="2"/>
  </g>
  <line x1="24" y1="10.25" x2="24" y2="1.25" fill="none" stroke="#003cb4" stroke-miterlimit="10" stroke-width="1.5"/>
  <polyline points="28 5.25 24 1.25 20 5.25" fill="none" stroke="#003cb4" stroke-miterlimit="10" stroke-width="1.5"/>
</svg>
