<svg id="devisen-edelmetalle-pikto" xmlns="http://www.w3.org/2000/svg" width="48" height="48" viewBox="0 0 48 48">
  <title>devisen-edelmetalle-pikto-form</title>
  <path d="M47,47.75l-4.7-15.5H33.74a25.63,25.63,0,0,0-3.33-11.11A78.91,78.91,0,0,0,22.84,9.85L26,.25H7.37l3.77,9.62A81.63,81.63,0,0,0,3.59,21.14C1.32,25.4.23,29.11.25,32.5A15.07,15.07,0,0,0,8.39,45.65a18,18,0,0,0,8.09,2.09h.34a26.86,26.86,0,0,0,6.45-.93l-.28.93ZM35,34.25h5.47L42,38.72l-1.54.39-1.2-3.36H35ZM9.57,1.75H24l-2.5,7.5h-9Zm7,44.49a16.48,16.48,0,0,1-7.41-1.9A13.63,13.63,0,0,1,1.75,32.49c0-3.13,1-6.61,3.16-10.64a78.4,78.4,0,0,1,7.45-11.1h9.28a77.5,77.5,0,0,1,7.45,11.1,24.67,24.67,0,0,1,3.15,10.4H27.69L23.79,45.1A24.72,24.72,0,0,1,16.52,46.24Z" fill="#003cb4"/>
</svg>
