<svg id="diversifizieren-pikto" xmlns="http://www.w3.org/2000/svg" width="48" height="48" viewBox="0 0 48 48">
  <title>diversifizieren-pikto-form</title>
  <g>
    <path d="M9.5,14.5A9.5,9.5,0,1,0,19,24,9.51,9.51,0,0,0,9.5,14.5ZM9.5,32a8,8,0,1,1,8-8A8,8,0,0,1,9.5,32Z" fill="#003cb4"/>
    <polygon points="30.3 28.01 34.02 24 30.3 19.99 29.2 21.01 31.28 23.25 21.5 23.25 21.5 24.75 31.28 24.75 29.2 26.99 30.3 28.01" fill="#003cb4"/>
    <polygon points="20.16 18.38 28.4 13.1 27.77 16.1 29.23 16.4 30.38 10.97 25.2 9.53 24.8 10.97 27.68 11.77 19.34 17.12 20.16 18.38" fill="#003cb4"/>
    <polygon points="28.02 31.4 28.66 34.47 20.14 29.36 19.36 30.64 27.97 35.8 25.01 36.79 25.49 38.21 30.62 36.5 29.48 31.1 28.02 31.4" fill="#003cb4"/>
    <path d="M37.49,13h.06a5.37,5.37,0,0,0,3.83-1.6A5.6,5.6,0,0,0,43,7.51a5.33,5.33,0,0,0-1.6-3.89A5.6,5.6,0,0,0,37.51,2h-.06a5.37,5.37,0,0,0-3.83,1.6A5.6,5.6,0,0,0,32,7.49a5.33,5.33,0,0,0,1.6,3.89A5.6,5.6,0,0,0,37.49,13Zm-2.8-8.34A3.85,3.85,0,0,1,37.45,3.5h0a4.05,4.05,0,0,1,2.85,1.19,3.84,3.84,0,0,1,1.16,2.8,4.05,4.05,0,0,1-1.19,2.85,3.94,3.94,0,0,1-2.8,1.16,4.05,4.05,0,0,1-2.85-1.19,3.84,3.84,0,0,1-1.16-2.8A4.05,4.05,0,0,1,34.69,4.66Z" fill="#003cb4"/>
    <path d="M37.51,34.25h-.06a5.37,5.37,0,0,0-3.83,1.6A5.6,5.6,0,0,0,32,39.74a5.33,5.33,0,0,0,1.6,3.89,5.6,5.6,0,0,0,3.89,1.62h.06a5.37,5.37,0,0,0,3.83-1.6A5.6,5.6,0,0,0,43,39.76a5.33,5.33,0,0,0-1.6-3.89A5.6,5.6,0,0,0,37.51,34.25Zm2.8,8.34a3.94,3.94,0,0,1-2.8,1.16,4.05,4.05,0,0,1-2.85-1.19,3.84,3.84,0,0,1-1.16-2.8,4.05,4.05,0,0,1,1.19-2.85,3.85,3.85,0,0,1,2.76-1.16h0a4.05,4.05,0,0,1,2.85,1.19,3.84,3.84,0,0,1,1.16,2.8A4.05,4.05,0,0,1,40.31,42.59Z" fill="#003cb4"/>
    <circle cx="42.5" cy="24" r="5.5" fill="#003cb4"/>
  </g>
</svg>
