<?xml version="1.0" encoding="utf-8"?>
<!-- Generator: Adobe Illustrator 23.1.1, SVG Export Plug-In . SVG Version: 6.00 Build 0)  -->
<svg version="1.1" id="diversifizieren-pikto" xmlns="http://www.w3.org/2000/svg" xmlns:xlink="http://www.w3.org/1999/xlink"
	 x="0px" y="0px" viewBox="0 0 48 48" enable-background="new 0 0 48 48" xml:space="preserve">
<title>diversifizieren-pikto-linie</title>
<circle fill="none" stroke="#003CB4" stroke-width="1.5" stroke-miterlimit="10" cx="9.5" cy="24" r="8.75"/>
<g>
	<line fill="none" stroke="#003CB4" stroke-width="1.5" stroke-miterlimit="10" x1="21.5" y1="24" x2="33" y2="24"/>
	<polyline fill="none" stroke="#003CB4" stroke-width="1.5" stroke-miterlimit="10" points="29.75,20.5 33,24 29.75,27.5 	"/>
</g>
<g>
	<line fill="none" stroke="#003CB4" stroke-width="1.5" stroke-miterlimit="10" x1="19.75" y1="17.75" x2="29.5" y2="11.5"/>
	<polyline fill="none" stroke="#003CB4" stroke-width="1.5" stroke-miterlimit="10" points="25,10.25 29.5,11.5 28.5,16.25 	"/>
</g>
<g>
	<polyline fill="none" stroke="#003CB4" stroke-width="1.5" stroke-miterlimit="10" points="28.75,31.25 29.75,36 25.25,37.5 	"/>
	<line fill="none" stroke="#003CB4" stroke-width="1.5" stroke-miterlimit="10" x1="19.75" y1="30" x2="29.75" y2="36"/>
</g>
<path fill="#00BEC8" stroke="#00BEC8" stroke-width="1.5" stroke-miterlimit="10" d="M42.25,28.75c-2.62,0-4.75-2.13-4.75-4.75
	s2.13-4.75,4.75-4.75S47,21.38,47,24l0,0C47,26.62,44.87,28.75,42.25,28.75z"/>
<path fill="none" stroke="#003CB4" stroke-width="1.5" stroke-miterlimit="10" d="M37.5,12.25c-2.62,0-4.75-2.13-4.75-4.75
	s2.13-4.75,4.75-4.75s4.75,2.13,4.75,4.75S40.12,12.25,37.5,12.25z"/>
<path fill="none" stroke="#003CB4" stroke-width="1.5" stroke-miterlimit="10" d="M37.5,44.5c-2.62,0-4.75-2.13-4.75-4.75
	S34.88,35,37.5,35s4.75,2.13,4.75,4.75S40.12,44.5,37.5,44.5L37.5,44.5z"/>
</svg>
