<svg id="ebanking-weitere-person-pikto" xmlns="http://www.w3.org/2000/svg" width="48" height="48" viewBox="0 0 48 48">
  <title>ebanking-weitere-person-pikto-form</title>
  <g>
    <path d="M16,8.75a7.16,7.16,0,0,0-7,5.58l-.22.92H23.2L23,14.33A7.16,7.16,0,0,0,16,8.75Z" fill="#003cb4"/>
    <path d="M36,36.25C24.38,36.25,24.25,46.89,24.25,47v.75h23.5V47C47.75,46.89,47.62,36.25,36,36.25Zm-10.2,10C26,44,27.47,37.75,36,37.75S46,44,46.2,46.25Z" fill="#003cb4"/>
    <path d="M36,34.75a9.74,9.74,0,0,0,6-17.44L41.59,17l-.21-.14a9.62,9.62,0,0,0-2.48-1.19h0a8.67,8.67,0,0,0-.84-.22l-.17,0c-.24,0-.49-.09-.74-.12l-.21,0c-.31,0-.62-.05-.93-.05a9.55,9.55,0,0,0-4.24,1,1.93,1.93,0,0,1,0-.24A15.75,15.75,0,1,0,16,31.75a15.39,15.39,0,0,0,10.58-4.28A9.76,9.76,0,0,0,36,34.75Zm8.11-11.26A8.25,8.25,0,1,1,27.75,25a7.49,7.49,0,0,1,.16-1.5A20.48,20.48,0,0,0,36,25.26,20.45,20.45,0,0,0,44.11,23.49ZM24.75,16.75H8.8l.22.92a7.16,7.16,0,0,0,7,5.58,7.24,7.24,0,0,0,6.35-3.77l1.37.63A9,9,0,0,1,16,24.75,8.75,8.75,0,1,1,24.75,16Z" fill="#003cb4"/>
  </g>
</svg>
