<?xml version="1.0" encoding="utf-8"?>
<!-- Generator: Adobe Illustrator 23.1.1, SVG Export Plug-In . SVG Version: 6.00 Build 0)  -->
<svg version="1.1" id="ebanking-weitere-person-pikto"
	 xmlns="http://www.w3.org/2000/svg" xmlns:xlink="http://www.w3.org/1999/xlink" x="0px" y="0px" viewBox="0 0 48 48"
	 enable-background="new 0 0 48 48" xml:space="preserve">
<title>uebersicht-pikto-rgb_200206_ebanking-weitere-person-pikto</title>
<g>
	<path fill="#00BEC8" stroke="#00BEC8" stroke-width="1.5" stroke-miterlimit="10" d="M27.09,23.91c0.38-2.5,1.8-4.72,3.91-6.11
		c0.05-0.51,0-0.98,0-1.47c0.18-8.28-6.38-15.14-14.66-15.32S1.21,7.4,1.03,15.68S7.41,30.82,15.69,31
		c4.33,0.09,8.49-1.69,11.41-4.89C27.05,25.38,27.05,24.64,27.09,23.91z M25.63,17.8H10.23c0.63,2.86,3.18,4.9,6.11,4.89
		c2.55-0.04,4.84-1.57,5.86-3.91L24.89,20c0,0-2.44,5.62-8.55,5.62c-5.13,0-9.28-4.16-9.28-9.29s4.16-9.29,9.28-9.29
		s9.28,4.16,9.28,9.29V17.8z"/>
	<path fill="#00BEC8" stroke="#00BEC8" stroke-width="1.5" stroke-miterlimit="10" d="M16.34,9.98c-2.93-0.01-5.47,2.03-6.11,4.89
		h12.22C21.82,12,19.27,9.97,16.34,9.98z"/>
</g>
<path fill="none" stroke="#003CB4" stroke-width="1.5" stroke-miterlimit="10" d="M47,47c0,0,0-10-11-10S25,47,25,47H47z"/>
<circle fill="none" stroke="#003CB4" stroke-width="1.5" stroke-miterlimit="10" cx="36" cy="25" r="9"/>
<path fill="#003CB4" stroke="#003CB4" stroke-width="1.5" stroke-miterlimit="10" d="M44.5,22.5c-1.28-4.69-6.12-7.46-10.82-6.18
	c-3.01,0.82-5.36,3.17-6.18,6.18C32.85,25.18,39.15,25.18,44.5,22.5z"/>
</svg>
