<svg id="ebanking-pikto" xmlns="http://www.w3.org/2000/svg" width="48" height="48" viewBox="0 0 48 48">
  <title>ebanking-pikto-form</title>
  <g>
    <path d="M32,16.25h-.26c0-.09,0-.17,0-.26A15.75,15.75,0,1,0,16,31.75h.26c0,.08,0,.17,0,.26A15.75,15.75,0,1,0,32,16.25ZM7.25,16a8.75,8.75,0,0,1,17.5,0v.75H8.8l.22.92a7.16,7.16,0,0,0,7,5.58,7.24,7.24,0,0,0,6.35-3.77l1.37.63A9,9,0,0,1,16,24.75,8.77,8.77,0,0,1,7.25,16ZM32,46.25A14.26,14.26,0,0,1,17.75,32c0-.12,0-.24,0-.36a15.66,15.66,0,0,0,8.69-3.89H37.19l-2.72,2.72,1.06,1.06L40.06,27l-4.53-4.53-1.06,1.06,2.72,2.72H27.93a15.67,15.67,0,0,0,3.71-8.48l.36,0a14.25,14.25,0,0,1,0,28.5Z" fill="#003cb4"/>
    <polygon points="29.53 33.53 28.47 32.47 23.94 37 28.47 41.53 29.53 40.47 26.81 37.75 39 37.75 39 36.25 26.81 36.25 29.53 33.53" fill="#003cb4"/>
    <path d="M23,14.33a7.16,7.16,0,0,0-14,0l-.22.92H23.2Z" fill="#003cb4"/>
  </g>
</svg>
