<svg id="ebanking-pikto" xmlns="http://www.w3.org/2000/svg" width="48" height="48" viewBox="0 0 48 48">
  <title>uebersicht-pikto-rgb_200206_ebanking-pikto</title>
  <path d="M29,17.3a14.82,14.82,0,0,1,3-.3A15,15,0,1,1,17.54,28" fill="none" stroke="#003cb4" stroke-miterlimit="10" stroke-width="1.5"/>
  <line x1="39" y1="27" x2="25" y2="27" fill="none" stroke="#003cb4" stroke-miterlimit="10" stroke-width="1.5"/>
  <polyline points="35 23 39 27 35 31" fill="none" stroke="#003cb4" stroke-miterlimit="10" stroke-width="1.5"/>
  <line x1="25" y1="37" x2="39" y2="37" fill="none" stroke="#003cb4" stroke-miterlimit="10" stroke-width="1.5"/>
  <polyline points="29 33 25 37 29 41" fill="none" stroke="#003cb4" stroke-miterlimit="10" stroke-width="1.5"/>
  <g>
    <path d="M16,1A15,15,0,1,0,31,16,15,15,0,0,0,16,1Zm9.5,16.5H9.75a6.38,6.38,0,0,0,6.25,5,6.67,6.67,0,0,0,6-4l2.75,1.25S22.25,25.5,16,25.5A9.5,9.5,0,1,1,25.5,16Z" fill="#00bec8" stroke="#00bec8" stroke-miterlimit="10" stroke-width="1.5"/>
    <path d="M16,9.5a6.38,6.38,0,0,0-6.25,5h12.5A6.38,6.38,0,0,0,16,9.5Z" fill="#00bec8" stroke="#00bec8" stroke-miterlimit="10" stroke-width="1.5"/>
  </g>
</svg>
