<svg xmlns="http://www.w3.org/2000/svg" viewBox="0 0 24 24">
    <path d="M12 1A11 11 0 001 12a11 11 0 0011 11 11 11 0 000-22zM8 11.87v.44l-.07.37c0 .12-.08.19-.19.19H5.11v.32c0 .41.23.69.81.69s1.12-.06 1.46-.09c.1 0 .16 0 .15.12l-.1.5c0 .13 0 .18-.19.2a7.76 7.76 0 01-1.59.13 1.45 1.45 0 01-1.59-1.54 2.38 2.38 0 010-.46l.08-.47a2.06 2.06 0 012.25-2A1.44 1.44 0 018 11.87zm4.95.87c0 1.47-1 2-2.74 2a7.66 7.66 0 01-1.35-.09c-.21 0-.32-.11-.32-.29v-.12l.88-4.84a.43.43 0 01.42-.4 9.79 9.79 0 011.33-.08c1.42 0 2.18.43 2.18 1.43a1.45 1.45 0 01-1 1.44 1 1 0 01.58.95zm2.32-2l-.68 3.79a.16.16 0 01-.19.15h-.72c-.1 0-.14-.06-.13-.16l.69-3.79a.17.17 0 01.18-.15h.72c.07 0 .14.03.11.15zm.12-.94h-.8a.14.14 0 01-.11-.16l.11-.64a.18.18 0 01.19-.16h.82a.12.12 0 01.08.15l-.13.67a.19.19 0 01-.18.13zm1.06 4.89h-.75c-.1 0-.14 0-.13-.16l1-5.52a.18.18 0 01.18-.16h.74c.09 0 .15 0 .12.16l-1 5.52c-.01.08-.04.15-.18.15zM19.64 9l-1 5.52c0 .09 0 .16-.18.16h-.73c-.1 0-.14 0-.13-.16l1-5.52a.18.18 0 01.18-.16h.74c.09 0 .15.04.12.16z" fill="currentColor"/>
    <path d="M11 9.81h-.58l-.28 1.56h1c.87 0 1.1-.46 1.1-1 .01-.37-.32-.56-1.24-.56zM11 12.16h-1l-.3 1.69h.65c1 0 1.49-.24 1.49-1.06 0-.35-.19-.63-.84-.63zM6.27 11.18c-.63 0-.92.41-1 1h1.65a1.43 1.43 0 000-.29H7a.61.61 0 00-.73-.71z" fill="currentColor"/>
</svg>
