<svg xmlns="http://www.w3.org/2000/svg" viewBox="0 0 24 24"><title>xyc</title><path d="M12,1A11,11,0,0,0,1,12H1A11,11,0,0,0,12,23h0A11,11,0,0,0,12,1ZM8,11.87c0,.15,0,.3,0,.44l-.07.37c0,.12-.08.19-.19.19H5.11c0,.11,0,.21,0,.32,0,.41.23.69.81.69s1.12-.06,1.46-.09c.1,0,.16,0,.15.12l-.1.5c0,.13,0,.18-.19.2a7.76,7.76,0,0,1-1.59.13A1.45,1.45,0,0,1,4.06,13.2a2.38,2.38,0,0,1,0-.46l.08-.47a2.06,2.06,0,0,1,2.25-2A1.44,1.44,0,0,1,8,11.87Zm4.95.87c0,1.47-1,2-2.74,2a7.66,7.66,0,0,1-1.35-.09c-.21,0-.32-.11-.32-.29s0-.08,0-.12l.88-4.84A.43.43,0,0,1,9.84,9a9.79,9.79,0,0,1,1.33-.08c1.42,0,2.18.43,2.18,1.43h0a1.45,1.45,0,0,1-1,1.44A1,1,0,0,1,12.93,12.74Zm2.32-2-.68,3.79h0a.16.16,0,0,1-.19.15h-.72c-.1,0-.14-.06-.13-.16l.69-3.79a.17.17,0,0,1,.18-.15h.72C15.21,10.58,15.28,10.61,15.25,10.73Zm.12-.94h-.8a.14.14,0,0,1-.11-.16L14.59,9a.18.18,0,0,1,.19-.16h.82a.12.12,0,0,1,.08.15l-.13.67A.19.19,0,0,1,15.37,9.79Zm1.06,4.89H15.7c-.1,0-.14,0-.13-.16l1-5.52h0a.18.18,0,0,1,.18-.16h.74c.09,0,.15,0,.12.16l-1,5.52C16.6,14.61,16.57,14.68,16.43,14.68ZM19.64,9l-1,5.52c0,.09,0,.16-.18.16h-.73c-.1,0-.14,0-.13-.16L18.6,9h0a.18.18,0,0,1,.18-.16h.74C19.61,8.84,19.67,8.88,19.64,9Z" style="fill:#003cb4"/><path d="M11,9.81h-.58l-.28,1.56h1c.87,0,1.1-.46,1.1-1h0C12.25,10,11.92,9.81,11,9.81Z" style="fill:#003cb4"/><path d="M11,12.16H10L9.7,13.85h.65c1,0,1.49-.24,1.49-1.06C11.84,12.44,11.65,12.16,11,12.16Z" style="fill:#003cb4"/><path d="M6.27,11.18c-.63,0-.92.41-1,1H6.92a1.43,1.43,0,0,0,0-.29H7A.61.61,0,0,0,6.27,11.18Z" style="fill:#003cb4"/></svg>