<?xml version="1.0" encoding="utf-8"?>
<!-- Generator: Adobe Illustrator 24.0.1, SVG Export Plug-In . SVG Version: 6.00 Build 0)  -->
<svg version="1.1" id="ehe-pikto" xmlns="http://www.w3.org/2000/svg" xmlns:xlink="http://www.w3.org/1999/xlink" x="0px" y="0px"
	 viewBox="0 0 48 48" enable-background="new 0 0 48 48" xml:space="preserve">
<title>ehe-pikto-form</title>
<g>
	<path fill="#003CB4" d="M24.02,16l7.48-7.5c1.94-1.64,2.18-4.55,0.54-6.5c-0.08-0.09-0.16-0.19-0.25-0.27
		C30.85,0.7,29.55,0.08,28.16,0c-1.37-0.04-2.7,0.48-3.68,1.45l-0.46,0.47l-0.48-0.48C22.57,0.48,21.24-0.04,19.88,0
		c-1.39,0.08-2.69,0.7-3.63,1.73c-1.79,1.8-1.79,4.71,0,6.51C16.34,8.33,24.02,16,24.02,16z"/>
	<path fill="#003CB4" d="M33.51,19c-3.49,0-6.87,1.27-9.5,3.57c-6.03-5.26-15.19-4.63-20.45,1.4s-4.63,15.2,1.4,20.46
		c5.46,4.76,13.59,4.76,19.05,0c6.04,5.25,15.19,4.6,20.43-1.44s4.6-15.19-1.44-20.44C40.38,20.26,37,19,33.51,19z M14.52,46.5
		C7.35,46.52,1.51,40.71,1.5,33.53C1.48,26.35,7.29,20.52,14.46,20.5c3.11-0.01,6.11,1.1,8.47,3.12c-5.22,5.55-5.22,14.21,0,19.76
		C20.6,45.39,17.61,46.5,14.52,46.5z M20.52,33.5c0-3.28,1.25-6.44,3.5-8.84c4.67,4.97,4.67,12.71,0,17.68
		C21.77,39.95,20.52,36.78,20.52,33.5z M33.51,46.5c-3.09,0-6.07-1.11-8.42-3.12c5.22-5.55,5.22-14.21,0-19.76
		c5.45-4.67,13.66-4.03,18.32,1.43s4.02,13.66-1.43,18.33C39.63,45.4,36.62,46.51,33.51,46.5z"/>
</g>
</svg>
