<svg id="einkaufswagen-pikto" xmlns="http://www.w3.org/2000/svg" width="48" height="48" viewBox="0 0 48 48">
  <title>einkaufswagen-pikto-form</title>
  <g>
    <rect x="16.88" y="19.25" width="19.5" height="10.5" fill="#003cb4"/>
    <path d="M7.4,10.75,5.79.75H.5v1.5h4l5.16,32H44.88l2.62-23.5Zm36.16,22H11l-3.3-20.5h38.2Z" fill="#003cb4"/>
    <path d="M15.5,37.75a4.75,4.75,0,1,0,4.75,4.75A4.75,4.75,0,0,0,15.5,37.75Zm0,8a3.25,3.25,0,1,1,3.25-3.25A3.26,3.26,0,0,1,15.5,45.75Z" fill="#003cb4"/>
    <path d="M37.75,37.75A4.75,4.75,0,1,0,42.5,42.5,4.75,4.75,0,0,0,37.75,37.75Zm0,8A3.25,3.25,0,1,1,41,42.5,3.26,3.26,0,0,1,37.75,45.75Z" fill="#003cb4"/>
  </g>
</svg>
