<svg id="email-pikto" xmlns="http://www.w3.org/2000/svg" width="48" height="48" viewBox="0 0 48 48">
  <title>email-pikto-linie</title>
  <polygon points="47 22 47 47 1 47 1 22 24 1 47 22" fill="none" stroke="#003cb4" stroke-miterlimit="10" stroke-width="1.5"/>
  <g>
    <circle cx="23.71" cy="21.92" r="2.13" fill="#00bec8"/>
    <path d="M6,9V25L24,35.5,42,25V9ZM31.39,23a2.92,2.92,0,0,1-2.67,2.58,2.57,2.57,0,0,1-1.89-.76,2.38,2.38,0,0,1-.4-.5A3.62,3.62,0,1,1,26,19.15v-.59h1.5v4.31a1.18,1.18,0,0,0,.36.85,1.1,1.1,0,0,0,.81.33,1.43,1.43,0,0,0,1.21-1.3,5.49,5.49,0,0,0,.06-.83,6,6,0,1,0-1.7,4.17l1.07,1A7.39,7.39,0,0,1,24,29.38a7.46,7.46,0,1,1,7.46-7.46A9.1,9.1,0,0,1,31.39,23Z" fill="#00bec8"/>
  </g>
  <polyline points="1 22 24 35.5 47 22" fill="none" stroke="#003cb4" stroke-miterlimit="10" stroke-width="1.5"/>
</svg>
