<svg id="email-pikto" xmlns="http://www.w3.org/2000/svg" width="48" height="48" viewBox="0 0 48 48">
  <title>email-pikto-form</title>
  <g>
    <circle cx="23.71" cy="21.92" r="2.13" fill="#003cb4"/>
    <path d="M41.75,16.34V9h-8.1L24,0,14,9H6.25v7.34l-6,5.33V47.75h47.5V21.67Zm0,2,4,3.52-4,2.44ZM26,18.56h1.5v4.31a1.18,1.18,0,0,0,.36.85,1.1,1.1,0,0,0,.81.33,1.43,1.43,0,0,0,1.21-1.3,5.49,5.49,0,0,0,.06-.83,6,6,0,1,0-1.7,4.17l1.07,1A7.39,7.39,0,0,1,24,29.38a7.46,7.46,0,1,1,7.46-7.46,9.1,9.1,0,0,1-.07,1,2.92,2.92,0,0,1-2.67,2.58,2.57,2.57,0,0,1-1.89-.76,2.38,2.38,0,0,1-.4-.5A3.62,3.62,0,1,1,26,19.15ZM24,2l7.43,7H16.22ZM6.25,18.36v6l-4-2.44Zm40,27.89H1.75V23.33L24,36.88,46.25,23.33Z" fill="#003cb4"/>
  </g>
</svg>
