<svg id="entscheidungshilfe-pikto" xmlns="http://www.w3.org/2000/svg" width="48" height="48" viewBox="0 0 48 48">
  <title>entscheidungshilfe-pikto-form</title>
  <path d="M47,33.75a4.31,4.31,0,0,0-2.5-2.52,4.92,4.92,0,0,0-4,.09l-9.33,4.5a4.79,4.79,0,0,0,.19-1.32,4.43,4.43,0,0,0-4.48-4.25h-.25v-5.5H37.38L40.94,20l-3.56-4.75H26.63v-3.5h11V2.25H26.63v-2H25.14v2H13.57L10,7l3.55,4.75H25.14v3.5H13.25v9.5H25.14v5.5H9L.25,32.41V47.75H29.31l14.83-8.08C46.65,38.42,47.8,36,47,33.75ZM14.31,10.25,11.89,7l2.42-3.25H36.09v6.5ZM43.45,38.34,28.93,46.25H1.74V33.59l7.31-1.84H26.88a2.88,2.88,0,0,1,.27,5.75L15,37.25l0,1.5L27.13,39a3.89,3.89,0,0,0,1.56-.33h0l12.45-6a3.47,3.47,0,0,1,2.79-.06,2.86,2.86,0,0,1,1.65,1.64C46.25,36.15,44.86,37.63,43.45,38.34Z" fill="#003cb4"/>
</svg>
