<svg id="essen-pikto" xmlns="http://www.w3.org/2000/svg" width="48" height="48" viewBox="0 0 48 48">
  <title>essen-pikto-form</title>
  <path d="M29,24.66,30.59,23a5.26,5.26,0,0,0,5.09-1.34L47,10.34,37.4,1l-11,11.07A5.32,5.32,0,0,0,25,17.16l-1.91,1.91L8.36,4a4.3,4.3,0,0,0-6.08,6.08L14.43,22.29l3.93,1.48,0,0L2,40.19a4,4,0,0,0,.25,5.59,4,4,0,0,0,5.58,0L24.37,29.24,40.88,46a3.19,3.19,0,0,0,4.58,0,3.52,3.52,0,0,0,0-4.83ZM6.79,44.71a2.5,2.5,0,0,1-3.45,0,2.49,2.49,0,0,1-.25-3.45L26.74,17.57l-.15-.44a3.91,3.91,0,0,1,.82-4l10-10,1.85,1.8-8.4,8.42,1.06,1.06L40.34,6l1.73,1.68L33.86,16.1l1.08,1,8.21-8.46,1.71,1.66L34.62,20.61a3.75,3.75,0,0,1-4,.84l-.45-.18Z" fill="#003cb4"/>
</svg>
