<svg id="essen-pikto" xmlns="http://www.w3.org/2000/svg" width="48" height="48" viewBox="0 0 48 48">
  <title>essen-pikto-linie</title>
  <g>
    <path d="M15,21.5,19,23l.5.75L23.25,20,8,4.5a3.54,3.54,0,0,0-5,5Z" fill="#00bec8" stroke="#00bec8" stroke-miterlimit="10" stroke-width="1.5"/>
    <path d="M28,24.5,24.5,28l17,17.25a2.42,2.42,0,0,0,3.5,0,2.74,2.74,0,0,0,0-3.75Z" fill="#00bec8" stroke="#00bec8" stroke-miterlimit="10" stroke-width="1.5"/>
  </g>
  <g>
    <path d="M46,10.25,35.25,21a4.49,4.49,0,0,1-4.75,1L7.5,45A3.19,3.19,0,0,1,3,45a3.2,3.2,0,0,1-.25-4.5L26,17.25a4.64,4.64,0,0,1,1-4.75L37.5,2Z" fill="none" stroke="#003cb4" stroke-miterlimit="10" stroke-width="1.5"/>
    <line x1="40.5" y1="4.75" x2="31.5" y2="13.75" fill="none" stroke="#003cb4" stroke-miterlimit="10" stroke-width="1.5"/>
    <line x1="43.25" y1="7.5" x2="34.5" y2="16.5" fill="none" stroke="#003cb4" stroke-miterlimit="10" stroke-width="1.5"/>
  </g>
</svg>
