<svg id="fahrstrecke-pikto" xmlns="http://www.w3.org/2000/svg" width="48" height="48" viewBox="0 0 48 48">
  <title>fahrstrecke-pikto-form</title>
  <g>
    <circle cx="39" cy="9.5" r="3.75" fill="#003cb4"/>
    <circle cx="9" cy="33.5" r="3.75" fill="#003cb4"/>
    <path d="M38,34H28a5.25,5.25,0,0,1,0-10.5H39l0,0,.52-.48c.33-.3,8.24-7.61,8.24-13.55a8.75,8.75,0,0,0-17.5,0c0,4.4,5,10.18,7.21,12.5H28a6.75,6.75,0,0,0,0,13.5H38a5,5,0,1,1,0,10H10.58c2.24-2.27,7.17-7.81,7.17-12.5A8.75,8.75,0,0,0,.25,33c0,5.52,7.89,13.21,8.23,13.54L9,47l0,0H38a6.5,6.5,0,1,0,0-13ZM31.75,9.5a7.25,7.25,0,0,1,14.5,0c0,4.47-5.5,10.24-7.24,12C37.28,19.67,31.75,13.65,31.75,9.5ZM9,45c-1.73-1.78-7.26-7.8-7.26-12a7.25,7.25,0,0,1,14.5,0C16.25,37.47,10.75,43.24,9,45Z" fill="#003cb4"/>
  </g>
</svg>
