<svg id="fahrrad-pikto" xmlns="http://www.w3.org/2000/svg" width="48" height="48" viewBox="0 0 48 48">
  <title>fahrrad-pikto-form</title>
  <path d="M38,28.25a9.72,9.72,0,0,0-2.36.3L34,23.75h6.5l2.5-7.5H31.54l-1-3H23.25v1.5h6.21l.5,1.5h0l1.23,3.69L23.08,36.17,17.8,23a6.11,6.11,0,0,0,3.43-.86A1.47,1.47,0,0,0,21.75,21c0-.4-.19-1-1.68-1.9s-5.51-2.72-7.41-1.77a3,3,0,0,0-1.46,3.48c.26,1.14,1,1.9,1.74,1.94.51.06,1.8.2,3.24.24l-2.75,5.89a9.75,9.75,0,1,0,6.28,9.87h3.75L31.86,22l.6,1.8h0L34.21,29A9.74,9.74,0,1,0,38,28.25Zm-24.88-7h0A1.72,1.72,0,0,1,12.6,20a1.33,1.33,0,0,1,.74-1.29c1.36-.69,6,1.44,6.85,2.37-.61.51-3.87.62-7.1.22ZM10,46.25a8.25,8.25,0,0,1,0-16.5,8.07,8.07,0,0,1,2.79.5l-4,8.5h9.39A8.25,8.25,0,0,1,10,46.25Zm1.18-9,3-6.37a8.24,8.24,0,0,1,4.06,6.37Zm8.53,0a9.74,9.74,0,0,0-4.92-7.73L17,24.89l4.94,12.36Zm18.29,9a8.25,8.25,0,0,1-3.31-15.8L37.53,39,39,38.47,36.12,30A7.74,7.74,0,0,1,38,29.75a8.25,8.25,0,0,1,0,16.5Z" fill="#003cb4"/>
</svg>
