<svg id="familie-pikto" xmlns="http://www.w3.org/2000/svg" width="48" height="48" viewBox="0 0 48 48">
  <title>familie-pikto-linie</title>
  <path d="M19.5,30.25a13.13,13.13,0,0,0-7-2C6,28.25.84,32.83.75,38.5H21" fill="none" stroke="#003cb4" stroke-miterlimit="10" stroke-width="1.5"/>
  <path d="M30.75,33.5H47.24c0-5.7-5.2-10.25-11.74-10.25a12.93,12.93,0,0,0-7.75,2.5" fill="none" stroke="#003cb4" stroke-miterlimit="10" stroke-width="1.5"/>
  <path d="M3.75,15.75c4.71,1.89,10.53.69,14.25-1.25A5.55,5.55,0,0,0,21.25,17h0A8.88,8.88,0,0,0,12.5,8a8.78,8.78,0,0,0-8.75,7.5Z" fill="#003cb4" stroke="#003cb4" stroke-miterlimit="10" stroke-width="1.5"/>
  <circle cx="12.5" cy="16.88" r="8.88" fill="none" stroke="#003cb4" stroke-miterlimit="10" stroke-width="1.5"/>
  <path d="M30.44,19.25a8.69,8.69,0,0,1-3.78-5.68l-.16-.15v5.83h3.94Z" fill="#003cb4" stroke="#003cb4" stroke-miterlimit="10" stroke-width="1.5"/>
  <path d="M40.56,19.25a8.69,8.69,0,0,0,3.78-5.68l.16-.15v5.83H40.56Z" fill="#003cb4" stroke="#003cb4" stroke-miterlimit="10" stroke-width="1.5"/>
  <circle cx="35.5" cy="11.75" r="9" fill="none" stroke="#003cb4" stroke-miterlimit="10" stroke-width="1.5"/>
  <path d="M44.25,12a9.87,9.87,0,0,1-10.5-7.1s-2.61,5.55-7,5.35c0,0,1.25-7,7.5-7.25C44.3,2.6,44.25,12,44.25,12Z" fill="#003cb4" stroke="#003cb4" stroke-miterlimit="10" stroke-width="1.5"/>
  <path d="M33.5,45a8,8,0,0,0-8.25-7.75A8,8,0,0,0,17,45Z" fill="none" stroke="#00bec8" stroke-miterlimit="10" stroke-width="1.5"/>
  <circle cx="25.25" cy="31.25" r="6" fill="none" stroke="#00bec8" stroke-miterlimit="10" stroke-width="1.5"/>
  <path d="M19.75,29.25a7.59,7.59,0,0,0,3.5.75,7.73,7.73,0,0,0,6.25-3,6,6,0,0,0-4.25-1.75A5.92,5.92,0,0,0,19.75,29.25Z" fill="#00bec8" stroke="#00bec8" stroke-miterlimit="10" stroke-width="1.5"/>
</svg>
