<svg id="familie-pikto" xmlns="http://www.w3.org/2000/svg" width="48" height="48" viewBox="0 0 48 48">
  <title>familie-pikto-form</title>
  <g>
    <path d="M12.51,26.5a9.63,9.63,0,0,0,0-19.25c-.32,0-.64,0-1,0l-.13,0a7.37,7.37,0,0,0-.84.13h0a9.47,9.47,0,0,0-6.92,5.68h0c-.09.23-.18.47-.26.71s-.12.39-.17.59l0,.12a9.33,9.33,0,0,0-.29,2.32A9.63,9.63,0,0,0,12.51,26.5ZM4.39,16.77c4.67,1.48,9.89.33,13.33-1.29a7,7,0,0,0,2.88,2.05,8.12,8.12,0,0,1-16.21-.65Z" fill="#003cb4"/>
    <path d="M35.5,21.5A9.77,9.77,0,0,0,40.68,20h4.57V11.65h0A9.73,9.73,0,0,0,32.16,2.6a7.66,7.66,0,0,0-3.3,2,9.74,9.74,0,0,0-3.1,7h0V20h4.57A9.71,9.71,0,0,0,35.5,21.5Zm-8.24-9.75c0-.25,0-.51,0-.75,3.09-.16,5.24-2.71,6.33-4.37a10.45,10.45,0,0,0,9.83,6.14h.23a8.24,8.24,0,0,1-16.42-1Z" fill="#003cb4"/>
    <path d="M28.58,37.11a6.71,6.71,0,0,0,2.7-2.86H48V33.5c0-6.17-5.53-11-12.5-11a13.75,13.75,0,0,0-7.89,2.44,7.1,7.1,0,0,0-1.65-.4h0c-.22,0-.45,0-.68,0a6.24,6.24,0,0,0-1,.08H24.2A6.75,6.75,0,0,0,18.89,29a14,14,0,0,0-6.38-1.54C5.59,27.5.1,32.33,0,38.49v.76H18.66A8.24,8.24,0,0,0,16.26,45v.75h18V45A8.6,8.6,0,0,0,28.58,37.11ZM35.5,24c5.84,0,10.5,3.79,11,8.75H31.82A6.53,6.53,0,0,0,30.46,27l0,0L30,26.47a6.24,6.24,0,0,0-.88-.75A12.41,12.41,0,0,1,35.5,24ZM20.11,30.21a8.67,8.67,0,0,0,3.15.54,8.62,8.62,0,0,0,6.24-2.57A5.24,5.24,0,1,1,20,31.25,5.1,5.1,0,0,1,20.11,30.21ZM12.51,29a12.49,12.49,0,0,1,6,1.56,5.32,5.32,0,0,0,0,.69,6.74,6.74,0,0,0,3.42,5.86,10.05,10.05,0,0,0-1.32.64H1.55C2.06,32.79,6.72,29,12.51,29Zm5.3,15.25A7.36,7.36,0,0,1,25.26,38a7.37,7.37,0,0,1,7.45,6.25Z" fill="#003cb4"/>
  </g>
</svg>
