<svg id="fingerprint-pikto" xmlns="http://www.w3.org/2000/svg" width="48" height="48" viewBox="0 0 48 48">
  <title>fingerprint-pikto-linie</title>
  <polyline points="2 10 2 2 10 2" fill="none" stroke="#003cb4" stroke-miterlimit="10" stroke-width="1.5"/>
  <polyline points="2 38 2 46 10 46" fill="none" stroke="#003cb4" stroke-miterlimit="10" stroke-width="1.5"/>
  <polyline points="46 10 46 2 38 2" fill="none" stroke="#003cb4" stroke-miterlimit="10" stroke-width="1.5"/>
  <polyline points="46 38 46 46 38 46" fill="none" stroke="#003cb4" stroke-miterlimit="10" stroke-width="1.5"/>
  <path d="M24,9c-5.52,0-10,3.86-10,8.75v12.5C14,35.14,18.48,39,24,39s10-3.86,10-8.75V17.75C34,12.86,29.52,9,24,9ZM17.5,21V31.75h-3V21c0-1.75.24-4.33,1.5-6l.25-.5,2.5,1.87-.5.63C17.69,17.74,17.5,19.09,17.5,21Zm8,15.75h-3v-7.5h3Zm0-9h-3V19h3Zm4,7h-3V20a2.5,2.5,0,0,0-5,0V34.75h-3V20a5.5,5.5,0,0,1,11,0Zm4-5h-3V19c0-3.14-3.1-6-6.5-6a4.57,4.57,0,0,0-3,1l-.75.5-1.75-2L19,12a6.62,6.62,0,0,1,5-2c5.06,0,9.5,4.21,9.5,9Z" fill="#00bec8" stroke="#00bec8" stroke-miterlimit="10" stroke-width="1.5"/>
</svg>
