<svg id="fingerprint-pikto" xmlns="http://www.w3.org/2000/svg" width="48" height="48" viewBox="0 0 48 48">
  <title>fingerprint-pikto-form</title>
  <g>
    <polygon points="1.25 10 2.75 10 2.75 2.75 10 2.75 10 1.25 1.25 1.25 1.25 10" fill="#003cb4"/>
    <polygon points="2.75 38 1.25 38 1.25 46.75 10 46.75 10 45.25 2.75 45.25 2.75 38" fill="#003cb4"/>
    <polygon points="45.25 10 46.75 10 46.75 1.25 38 1.25 38 2.75 45.25 2.75 45.25 10" fill="#003cb4"/>
    <polygon points="45.25 45.25 38 45.25 38 46.75 46.75 46.75 46.75 38 45.25 38 45.25 45.25" fill="#003cb4"/>
    <path d="M24,8.25c-5.92,0-10.74,4.26-10.75,9.5v12.5c0,5.24,4.82,9.5,10.75,9.5s10.74-4.26,10.75-9.5V17.75C34.75,12.51,29.93,8.25,24,8.25Zm-6.35,8.3c-.63.84-.9,2.17-.9,4.45V31h-1.5V21a10,10,0,0,1,1.23-5.39l1.2.9ZM24.75,36h-1.5V30h1.5Zm0-9h-1.5V19.75h1.5Zm4,7h-1.5V20a3.25,3.25,0,0,0-6.5,0V34h-1.5V20a4.75,4.75,0,0,1,9.5,0Zm4-5h-1.5V19c0-3.53-3.46-6.75-7.25-6.75a5.29,5.29,0,0,0-3.42,1.13l-.2.13-.86-1,.07-.07A6,6,0,0,1,24,10.75c4.66,0,8.75,3.85,8.75,8.25Z" fill="#003cb4"/>
  </g>
</svg>
