<?xml version="1.0" encoding="utf-8"?>
<!-- Generator: Adobe Illustrator 23.1.1, SVG Export Plug-In . SVG Version: 6.00 Build 0)  -->
<svg version="1.1" id="fledermaus-pikto" xmlns="http://www.w3.org/2000/svg" xmlns:xlink="http://www.w3.org/1999/xlink" x="0px"
	 y="0px" viewBox="0 0 48 48" enable-background="new 0 0 48 48" xml:space="preserve">
<title>fledermaus-pikto-linie</title>
<circle fill="none" stroke="#003CB4" stroke-width="1.5" stroke-miterlimit="10" cx="21" cy="23.25" r="20"/>
<path fill="#00BEC8" stroke="#00BEC8" stroke-width="1.5" stroke-miterlimit="10" d="M45.7,14.25c-4.55,8.06-13.28,9.49-13.28,9.49
	c0.11-0.89-0.15-1.79-0.72-2.49L32.2,21c0.76-0.32,3-1.85,1.25-4c-1.47-1.76-4.25-0.49-4.25,2.5c0,0-0.07-0.47-1.5-0.5
	s-1.5,0.5-1.5,0.5c0-3-2.78-4.26-4.25-2.5c-1.79,2.15,0.49,3.68,1.25,4l0.5,0.25c-0.57,0.7-0.83,1.6-0.72,2.49
	c0,0-8.73-1.43-13.28-9.49c-3.28,8.48,0.56,17,6.5,21.5c3.73-4.81,10.25-2.56,11.5,0.5c1.25-3.11,7.77-5.31,11.5-0.5
	C45.14,31.24,48.98,22.73,45.7,14.25z M25.45,24.5c-0.97,0-1.75-0.78-1.75-1.75S24.49,21,25.45,21s1.75,0.78,1.75,1.75
	C27.2,23.71,26.42,24.49,25.45,24.5z M29.95,24.5c-0.97,0-1.75-0.78-1.75-1.75S28.99,21,29.95,21s1.75,0.78,1.75,1.75
	C31.7,23.71,30.92,24.49,29.95,24.5z"/>
</svg>
