<svg id="fledermaus-pikto" xmlns="http://www.w3.org/2000/svg" width="48" height="48" viewBox="0 0 48 48">
  <title>fledermaus-pikto-form</title>
  <path d="M46.75,14.09l-.58-1.47L45.39,14a17.39,17.39,0,0,1-4.33,5,20.77,20.77,0,1,0-3.22,16,6.51,6.51,0,0,1,1.1,1.12l.45.58.59-.45C45.73,31.93,50.3,23.16,46.75,14.09Zm-26,28.41A19.25,19.25,0,1,1,39.71,20a21.19,21.19,0,0,1-6.24,2.82,4.12,4.12,0,0,0-.39-1.23,3.93,3.93,0,0,0,2-2.34,2.91,2.91,0,0,0-.77-2.65,2.83,2.83,0,0,0-3.2-.89,3.62,3.62,0,0,0-2.25,2.69,5.57,5.57,0,0,0-.9-.09,6.81,6.81,0,0,0-.88.08,3.62,3.62,0,0,0-2.25-2.68,2.83,2.83,0,0,0-3.2.89,2.91,2.91,0,0,0-.77,2.65,3.94,3.94,0,0,0,2,2.34,4.12,4.12,0,0,0-.39,1.23A19.59,19.59,0,0,1,10.61,14l-.78-1.37-.58,1.47c-3.55,9.07,1,17.84,6.77,22.15l.59.45.45-.58A6.21,6.21,0,0,1,23,33.69c2,.27,3.81,1.42,4.35,2.74L28,38.12l.69-1.7C29.24,35.08,31,34,33,33.68a6.28,6.28,0,0,1,3.56.51A19.25,19.25,0,0,1,20.75,42.5ZM31.26,22.78a1,1,0,1,1-1-1A1,1,0,0,1,31.26,22.78Zm-4.51,0a1,1,0,1,1-1-1A1,1,0,0,1,26.75,22.78Z" fill="#003cb4"/>
</svg>
