<svg id="flugzeug-pikto" xmlns="http://www.w3.org/2000/svg" width="48" height="48" viewBox="0 0 48 48">
  <title>flugzeug-pikto-form</title>
  <g>
    <path d="M42,32.5H37.5v-.06a8.9,8.9,0,0,0-8.75-7.94,8.52,8.52,0,0,0-8.5,8h-.09a5.89,5.89,0,0,0-5.16,6,6,6,0,0,0,6,6H42a6,6,0,0,0,0-12Z" fill="#003cb4"/>
    <circle cx="40.75" cy="7.25" r="2" fill="#003cb4"/>
    <path d="M21.18,25.19,30.58,15,42.3,11.6a4.59,4.59,0,0,0,3.27-5.67,4.8,4.8,0,0,0-2.16-2.82,4.48,4.48,0,0,0-3.52-.45L28,6.06,15.26,2l1.93,7.15L10.37,11.1,0,7.45,4.07,22.56l15.48-4.44ZM22,22.08l-1-4.37,6.81-2ZM25.38,6.8,18.63,8.74l-1.2-4.48Zm-23.19,3,8.13,2.86,30-8.57a3,3,0,0,1,2.35.3,3.25,3.25,0,0,1,1.47,1.94,3.1,3.1,0,0,1-2.23,3.82L5.12,20.7Z" fill="#003cb4"/>
  </g>
</svg>
