<?xml version="1.0" encoding="utf-8"?>
<!-- Generator: Adobe Illustrator 23.1.1, SVG Export Plug-In . SVG Version: 6.00 Build 0)  -->
<svg version="1.1" id="flugzeug-pikto" xmlns="http://www.w3.org/2000/svg" xmlns:xlink="http://www.w3.org/1999/xlink" x="0px"
	 y="0px" viewBox="0 0 48 48" enable-background="new 0 0 48 48" xml:space="preserve">
<title>flugzeug-pikto-linie</title>
<path fill="#00BEC8" stroke="#00BEC8" stroke-width="1.5" stroke-miterlimit="10" d="M28.5,25.25c-4.08,0.03-7.45,3.18-7.75,7.25
	v0.75H20c-2.62,0.35-4.56,2.61-4.5,5.25c0,2.9,2.35,5.25,5.25,5.25h21c2.9,0,5.25-2.35,5.25-5.25s-2.35-5.25-5.25-5.25H36.5V32.5
	C36.07,28.4,32.62,25.28,28.5,25.25z"/>
<path fill="#003CB4" stroke="#003CB4" stroke-width="1.5" stroke-miterlimit="10" d="M40.75,6c-0.69,0-1.25,0.56-1.25,1.25
	s0.56,1.25,1.25,1.25S42,7.94,42,7.25S41.44,6,40.75,6z"/>
<path fill="none" stroke="#003CB4" stroke-width="1.5" stroke-miterlimit="10" d="M42.25,10.75C44.32,10.2,45.55,8.07,45,6
	s-2.68-3.3-4.75-2.75l-29.75,8.5L1.25,8.5l3.5,13L42.25,10.75z"/>
<polyline fill="none" stroke="#003CB4" stroke-width="1.5" stroke-miterlimit="10" points="20.25,17 21.75,23.5 30.25,14.25 "/>
<polyline fill="none" stroke="#003CB4" stroke-width="1.5" stroke-miterlimit="10" points="28.25,6.75 16.5,3 18.25,9.5 "/>
</svg>
