<svg id="fondsmanager-pikto" xmlns="http://www.w3.org/2000/svg" width="48" height="48" viewBox="0 0 48 48">
  <title>fondsmanager-pikto-form</title>
  <g>
    <polygon points="39 0.25 39 1.75 45.19 1.75 26 20.94 11.97 6.91 1.45 18.5 2.56 19.5 12.03 9.09 26 23.06 46.25 2.81 46.25 9 47.75 9 47.75 0.25 39 0.25" fill="#003cb4"/>
    <path d="M22.6,25.27C12.37,25.76,5.66,35.66,5.38,36.08l-.28.42.28.42c.28.42,7,10.32,17.22,10.81l.78,0c6.25,0,12.37-3.62,18.2-10.78L42,36.5,41.58,36C35.51,28.58,29.12,25,22.6,25.27Zm.08,21C14.35,45.84,8.3,38.36,6.92,36.5c1.38-1.86,7.43-9.34,15.76-9.73,5.87-.3,11.72,3,17.35,9.73C34.4,43.24,28.56,46.52,22.68,46.23Z" fill="#003cb4"/>
    <circle cx="23.53" cy="36.5" r="5.77" fill="#003cb4"/>
  </g>
</svg>
