<svg id="frau-pikto" xmlns="http://www.w3.org/2000/svg" width="48" height="48" viewBox="0 0 48 48">
  <title>frau-pikto-form</title>
  <g>
    <path d="M24,30.75c-18,0-18.25,16.33-18.25,16.5V48h36.5v-.75C42.25,47.08,42,30.75,24,30.75ZM7.29,46.5C7.52,43.43,9.4,32.25,24,32.25S40.47,43.43,40.71,46.5Z" fill="#003cb4"/>
    <path d="M24,28.5a14.12,14.12,0,0,0,7.24-2h7V13.75h0a14.23,14.23,0,0,0-28.44,0l0,0V26.49l7.21.13A14.13,14.13,0,0,0,24,28.5ZM13.88,22a15.27,15.27,0,0,1-2.62-7.92,10.74,10.74,0,0,1,.06-1.14c4.63-.66,8.09-2.66,10.08-5.86,2.45,5.2,8.72,9,15.05,9h.08a14.69,14.69,0,0,1-3,6.67A12.7,12.7,0,0,1,13.88,22Z" fill="#003cb4"/>
  </g>
</svg>
