<svg id="geld-pikto" xmlns="http://www.w3.org/2000/svg" width="48" height="48" viewBox="0 0 48 48">
  <title>geld-pikto-linie</title>
  <polyline points="9.5 28.75 0.75 28.75 0.75 0.75 47.25 0.75 47.25 28.75 35 28.75" fill="none" stroke="#003cb4" stroke-miterlimit="10" stroke-width="1.5"/>
  <path d="M28.75,21.25A8.88,8.88,0,0,0,20,28c0,.48,5.71,5.94,4.25,10.25a8.39,8.39,0,0,0,4.5,1.25A9.33,9.33,0,0,0,38,30.25,9.12,9.12,0,0,0,28.75,21.25Z" fill="#00bec8" stroke="#00bec8" stroke-width="1.5"/>
  <polyline points="16 20.25 7.25 20.25 7.25 20.5 10.08 24" fill="none" stroke="#003cb4" stroke-miterlimit="10" stroke-width="1.5"/>
  <path d="M9.25,6a2.25,2.25,0,0,0,0,4.5H13.5a2.25,2.25,0,0,0,0-4.5Z" fill="none" stroke="#003cb4" stroke-miterlimit="10" stroke-width="1.5"/>
  <circle cx="14.5" cy="36.75" r="9.5" fill="none" stroke="#003cb4" stroke-width="1.5"/>
  <path d="M9.25,13a2.25,2.25,0,0,0,0,4.5H13.5a2.25,2.25,0,0,0,0-4.5Z" fill="none" stroke="#003cb4" stroke-miterlimit="10" stroke-width="1.5"/>
</svg>
