<svg id="geld-bezahlen-pikto" xmlns="http://www.w3.org/2000/svg" width="48" height="48" viewBox="0 0 48 48">
  <title>geld-bezahlen-pikto-linie</title>
  <path d="M32.75,44.25A3.89,3.89,0,0,1,29,47H5a4,4,0,0,1-4-4V5A4,4,0,0,1,5,1H29a4,4,0,0,1,4,4V23.25" fill="none" stroke="#003cb4" stroke-miterlimit="10" stroke-width="1.5"/>
  <path d="M38.75,30.5A8,8,0,0,1,44.5,33a8,8,0,0,0,2-5.25,7.75,7.75,0,0,0-15.5,0A8,8,0,0,0,33,33,8,8,0,0,1,38.75,30.5Z" fill="#00bec8" stroke="#00bec8" stroke-width="1.5"/>
  <rect x="-0.5" y="20.5" width="46" height="7" transform="translate(46.5 1.5) rotate(90)" fill="#003cb4" stroke="#003cb4" stroke-miterlimit="10" stroke-width="1.5"/>
  <circle cx="39" cy="39" r="8" fill="none" stroke="#003cb4" stroke-width="1.5"/>
</svg>
