<svg id="geld-pikto" xmlns="http://www.w3.org/2000/svg" width="48" height="48" viewBox="0 0 48 48">
  <title>geld-pikto-form</title>
  <g>
    <polygon points="6.5 20.77 9.5 24.47 10.67 23.53 8.62 21 16 21 16 19.5 6.5 19.5 6.5 20.77" fill="#003cb4"/>
    <path d="M9.25,11.25H13.5a3,3,0,0,0,0-6H9.25a3,3,0,0,0,0,6Zm0-4.5H13.5a1.5,1.5,0,0,1,0,3H9.25a1.5,1.5,0,0,1,0-3Z" fill="#003cb4"/>
    <path d="M9.25,18.25H13.5a3,3,0,0,0,0-6H9.25a3,3,0,0,0,0,6Zm0-4.5H13.5a1.5,1.5,0,0,1,0,3H9.25a1.5,1.5,0,0,1,0-3Z" fill="#003cb4"/>
    <path d="M48,0H0V29.5H7.26a10.24,10.24,0,1,0,17.18,9.69,9,9,0,0,0,4.31,1.06,10.13,10.13,0,0,0,10-10c0-.25,0-.5,0-.75H48ZM14.5,45.5a8.75,8.75,0,1,1,8.75-8.75A8.76,8.76,0,0,1,14.5,45.5ZM46.5,28h-8a10,10,0,0,0-9.72-7.5,9.61,9.61,0,0,0-9.44,7.2,10.26,10.26,0,0,0-4.81-1.2A10.11,10.11,0,0,0,9.19,28H1.5V1.5h45Zm-7.87.81s0-.08,0-.13S38.62,28.77,38.63,28.81Z" fill="#003cb4"/>
  </g>
</svg>
