<svg id="geld-fordern-pikto" xmlns="http://www.w3.org/2000/svg" width="48" height="48" viewBox="0 0 48 48">
  <title>geld-fordern-pikto-form</title>
  <g>
    <path d="M48,41.25a13,13,0,0,0-25.64-3A13,13,0,0,0,0,47.25V48H26v-.75A12.81,12.81,0,0,0,24.88,42H48ZM24.09,40.5c-.15-.25-.31-.5-.48-.74a11.5,11.5,0,0,1,22.87.74Z" fill="#003cb4"/>
    <path d="M11.8,6.24,10.21,4.5H22.5a2.34,2.34,0,0,1,2.25,2.25,2.12,2.12,0,0,1-2.25,2H16v1.5h6.5a3.63,3.63,0,0,0,3.75-3.5A3.84,3.84,0,0,0,22.5,3H10.21L11.8,1.26l-1.1-1L7.48,3.75,10.7,7.26Z" fill="#003cb4"/>
    <path d="M24.62,16.88A10.38,10.38,0,1,0,42.33,9.54,10.17,10.17,0,0,0,35,6.5c-.36,0-.71,0-1,0h0a10.11,10.11,0,0,0-8.79,7.15A10.36,10.36,0,0,0,24.62,16.88Zm1.89-2.59a.43.43,0,0,0,0,0h0A8.9,8.9,0,0,1,34,8.05h.07c.29,0,.59,0,.89,0a8.69,8.69,0,0,1,.89.05H36c.27,0,.52.07.78.12h0A8.77,8.77,0,0,1,40.57,10l.13.1.37.34.34.33.05.06a8.73,8.73,0,0,1,2.24,5,4.07,4.07,0,0,1-2-1.88l-.37-.69-.67.39A16.86,16.86,0,0,1,32,15.75,17.78,17.78,0,0,1,26.34,15,5.8,5.8,0,0,1,26.51,14.29Zm-.37,2.22a19.35,19.35,0,0,0,5.86.74,18.64,18.64,0,0,0,8.74-2,5.37,5.37,0,0,0,3.11,2.15,8.87,8.87,0,0,1-17.73-.52C26.12,16.75,26.14,16.64,26.14,16.51Z" fill="#003cb4"/>
    <path d="M13,33A10.64,10.64,0,0,0,23.5,22.5,10.39,10.39,0,0,0,13,12.25c-.32,0-.63,0-.94.05A10.11,10.11,0,0,0,2.75,22.5,10.39,10.39,0,0,0,13,33ZM4.25,22.47a17.65,17.65,0,0,0,5.75.78,19,19,0,0,0,8.75-2A5.15,5.15,0,0,0,22,23.15a9.13,9.13,0,0,1-9,8.35,8.89,8.89,0,0,1-8.75-9Z" fill="#003cb4"/>
  </g>
</svg>
