<svg id="geld-fordern-pikto" xmlns="http://www.w3.org/2000/svg" width="48" height="48" viewBox="0 0 48 48">
  <title>geld-fordern-pikto-linie</title>
  <path d="M22.75,41.25a12.25,12.25,0,0,1,24.5,0Z" fill="none" stroke="#003cb4" stroke-miterlimit="10" stroke-width="1.5"/>
  <g>
    <path d="M8.5,3.75h14a3.08,3.08,0,0,1,3,3,2.87,2.87,0,0,1-3,2.75H16" fill="none" stroke="#003cb4" stroke-miterlimit="10" stroke-width="1.5"/>
    <polyline points="11.25 0.75 8.5 3.75 11.25 6.75" fill="none" stroke="#003cb4" stroke-miterlimit="10" stroke-width="1.5"/>
  </g>
  <circle cx="35" cy="16.88" r="9.63" fill="none" stroke="#003cb4" stroke-miterlimit="3" stroke-width="1.5"/>
  <path d="M.75,47.25a12.25,12.25,0,0,1,24.5,0Z" fill="#00bec8" stroke="#00bec8" stroke-miterlimit="10" stroke-width="1.5"/>
  <path d="M13,13a9.48,9.48,0,0,0-9.25,8.5,16.35,16.35,0,0,0,6.25,1,17.93,17.93,0,0,0,9-2.25,4.4,4.4,0,0,0,3.5,2.25A9.49,9.49,0,0,0,13,13Z" fill="#00bec8" stroke="#00bec8" stroke-miterlimit="10" stroke-width="1.5"/>
  <path d="M35,7.25a9.46,9.46,0,0,0-9.5,8.25,17.45,17.45,0,0,0,6.5,1,17.72,17.72,0,0,0,9-2.25,4.68,4.68,0,0,0,3.5,2.5A9.45,9.45,0,0,0,35,7.25Z" fill="none" stroke="#003cb4" stroke-miterlimit="10" stroke-width="1.5"/>
  <path d="M22.75,22.5A9.83,9.83,0,0,1,13,32.25,9.62,9.62,0,0,1,3.5,22.5,9.41,9.41,0,0,1,13,13,9.62,9.62,0,0,1,22.75,22.5Z" fill="none" stroke="#00bec8" stroke-miterlimit="3" stroke-width="1.5"/>
</svg>
