<svg id="geld-senden-pikto" xmlns="http://www.w3.org/2000/svg" width="48" height="48" viewBox="0 0 48 48">
  <title>geld-senden-pikto-form</title>
  <g>
    <path d="M48,41A13,13,0,0,0,35,28,12.87,12.87,0,0,0,22.25,38.13,13,13,0,0,0,0,47.25V48H26v-.75a12.82,12.82,0,0,0-1.24-5.5H48ZM1.52,46.5a11.5,11.5,0,0,1,23,0Z" fill="#003cb4"/>
    <path d="M13,33.25A10,10,0,0,0,23.38,23.13a10.77,10.77,0,0,0-.88-4.25A10.12,10.12,0,0,0,13,12.5,10.15,10.15,0,0,0,2.76,21.41L2.68,22h0a10.73,10.73,0,0,0-.07,1.14A10,10,0,0,0,13,33.25Zm-.91-19.2h0a8.31,8.31,0,0,1,1.82,0h0a8.72,8.72,0,0,1,7.79,7.73,4.07,4.07,0,0,1-2-1.88l-.37-.69-.67.39A16.86,16.86,0,0,1,10,21.75,17.82,17.82,0,0,1,4.38,21,9,9,0,0,1,12.09,14.05ZM4.16,22.52a19.56,19.56,0,0,0,5.84.73,18.64,18.64,0,0,0,8.74-2,5.32,5.32,0,0,0,3.12,2.15A8.54,8.54,0,0,1,13,31.75a8.56,8.56,0,0,1-8.88-8.62C4.12,22.93,4.14,22.72,4.16,22.52Z" fill="#003cb4"/>
    <polygon points="18.95 5.99 20.05 7.01 23.27 3.5 20.05 -0.01 18.95 1.01 20.55 2.75 8.25 2.75 8.25 4.25 20.55 4.25 18.95 5.99" fill="#003cb4"/>
    <path d="M35,27.25a10.5,10.5,0,0,0,0-21c-.34,0-.67,0-1,0l-.77.11-.15,0A10.5,10.5,0,0,0,35,27.25ZM26,16.47a19.22,19.22,0,0,0,6,.78,19,19,0,0,0,8.75-2A5.21,5.21,0,0,0,44,17.16a9,9,0,0,1-18-.41C26,16.66,26,16.57,26,16.47Z" fill="#003cb4"/>
  </g>
</svg>
