<svg id="geld-senden-pikto" xmlns="http://www.w3.org/2000/svg" width="48" height="48" viewBox="0 0 48 48">
  <title>geld-senden-pikto-linie</title>
  <path d="M23.5,41H47.25a12.28,12.28,0,0,0-24.5-1.25A14.25,14.25,0,0,1,23.5,41Z" fill="#00bec8" stroke="#00bec8" stroke-miterlimit="10" stroke-width="1.5"/>
  <path d="M35,7a9.73,9.73,0,0,0-9.5,8.5,17.66,17.66,0,0,0,6.5,1,17.93,17.93,0,0,0,9-2.25,4.4,4.4,0,0,0,3.5,2.25A9.49,9.49,0,0,0,35,7Z" fill="#00bec8" stroke="#00bec8" stroke-miterlimit="10" stroke-width="1.5"/>
  <path d="M.75,47.25a12.25,12.25,0,0,1,24.5,0Z" fill="none" stroke="#003cb4" stroke-miterlimit="10" stroke-width="1.5"/>
  <path d="M3.37,23.13A9.32,9.32,0,0,0,13,32.5a9.31,9.31,0,0,0,9.62-9.37A9.75,9.75,0,0,0,13,13.25,9.76,9.76,0,0,0,3.37,23.13Z" fill="none" stroke="#003cb4" stroke-miterlimit="3" stroke-width="1.5"/>
  <path d="M13,13.25A9.46,9.46,0,0,0,3.5,21.5a17.45,17.45,0,0,0,6.5,1,17.72,17.72,0,0,0,9-2.25,4.68,4.68,0,0,0,3.5,2.5A9.45,9.45,0,0,0,13,13.25Z" fill="none" stroke="#003cb4" stroke-miterlimit="10" stroke-width="1.5"/>
  <line x1="22.25" y1="3.5" x2="8.25" y2="3.5" fill="none" stroke="#003cb4" stroke-miterlimit="10" stroke-width="1.5"/>
  <polyline points="19.5 0.5 22.25 3.5 19.5 6.5" fill="none" stroke="#003cb4" stroke-miterlimit="10" stroke-width="1.5"/>
  <circle cx="35" cy="16.75" r="9.75" fill="none" stroke="#00bec8" stroke-miterlimit="3" stroke-width="1.5"/>
</svg>
