<svg id="geld-bezahlen-pikto" xmlns="http://www.w3.org/2000/svg" width="48" height="48" viewBox="0 0 48 48">
  <title>geld-bezahlen-pikto-form</title>
  <path d="M45.41,33.06a8.77,8.77,0,0,0,1.84-5.31,8.51,8.51,0,0,0-8.5-8.5,8.41,8.41,0,0,0-5,1.64h0V5A4.75,4.75,0,0,0,29,.25H5A4.75,4.75,0,0,0,.25,5V43A4.75,4.75,0,0,0,5,47.75H29a4.59,4.59,0,0,0,4-2.35A8.74,8.74,0,0,0,45.41,33.06ZM18.25,46.25H5A3.26,3.26,0,0,1,1.75,43V5A3.26,3.26,0,0,1,5,1.75H18.25Zm10.75,0H26.75V1.75H29A3.26,3.26,0,0,1,32.25,5V22.28h0a8.45,8.45,0,0,0-2,5.47,8.85,8.85,0,0,0,2.07,5.61A8.71,8.71,0,0,0,32,44.19,3.14,3.14,0,0,1,29,46.25Zm10,0A7.25,7.25,0,1,1,46.25,39,7.26,7.26,0,0,1,39,46.25Z" fill="#003cb4"/>
</svg>
