<svg id="geschenk-pikto" xmlns="http://www.w3.org/2000/svg" width="48" height="48" viewBox="0 0 48 48">
  <title>geschenk-pikto-linie</title>
  <path d="M25,14.5C22.65,12.8,26,5.25,27.75,3a5.53,5.53,0,0,1,7.5-1,4.8,4.8,0,0,1,1,7C34.5,11.25,27.35,16.2,25,14.5Z" fill="none" stroke="#003cb4" stroke-miterlimit="10" stroke-width="1.5" fill-rule="evenodd"/>
  <path d="M23.75,14.5c-1.42,1.63-7.26-1.35-9-2.75A3.84,3.84,0,0,1,14,6.25,4.2,4.2,0,0,1,19.75,6C21.49,7.4,25.17,12.87,23.75,14.5Z" fill="none" stroke="#003cb4" stroke-miterlimit="10" stroke-width="1.5" fill-rule="evenodd"/>
  <rect x="5.5" y="24.5" width="37" height="22" fill="none" stroke="#003cb4" stroke-miterlimit="10" stroke-width="1.5"/>
  <line x1="24.5" y1="46" x2="24.5" y2="14.84" fill="none" stroke="#003cb4" stroke-miterlimit="10" stroke-width="1.5"/>
  <rect x="2.5" y="16" width="43" height="9.5" fill="#00bec8" stroke="#00bec8" stroke-miterlimit="10" stroke-width="1.5"/>
</svg>
