<svg id="geschenk-pikto" xmlns="http://www.w3.org/2000/svg" width="48" height="48" viewBox="0 0 48 48">
  <title>geschenk-pikto-form</title>
  <path d="M46.25,15.25H28.17a22.34,22.34,0,0,0,8.67-5.79A5.66,5.66,0,0,0,38,5.18a5.66,5.66,0,0,0-2.34-3.79,6.25,6.25,0,0,0-8.53,1.15,22.73,22.73,0,0,0-3.41,7.56,17.43,17.43,0,0,0-3.53-4.68,5,5,0,0,0-6.79.34,4.17,4.17,0,0,0-1,3.17,5,5,0,0,0,1.86,3.4,22,22,0,0,0,5.6,2.92H1.75v11h3v21h38.5v-21h3ZM28.34,3.46a4.81,4.81,0,0,1,6.47-.85,4.06,4.06,0,0,1,.85,5.93c-2.89,3.71-9.13,6.14-10.22,5.35a1.35,1.35,0,0,1-.46-1C24.61,10.37,26.94,5.26,28.34,3.46ZM13.91,8.79a2.69,2.69,0,0,1,.66-2,3.06,3.06,0,0,1,2.34-1,3.81,3.81,0,0,1,2.37.85c1.25,1,3.85,4.68,4,6.71a1,1,0,0,1-.13.72c-.84,1-5.88-1.17-8-2.84A3.52,3.52,0,0,1,13.91,8.79Zm-7.66,37V26.25h17.5v19.5Zm35.5,0H25.25V26.25h16.5Z" fill="#003cb4"/>
</svg>
