<svg id="gesetze-pikto" xmlns="http://www.w3.org/2000/svg" width="48" height="48" viewBox="0 0 48 48">
  <title>gesetze-pikto-form</title>
  <g>
    <path d="M24,14.75a2,2,0,0,1,2,2h3a5,5,0,1,0-8.56,3.5A5,5,0,0,0,24,28.75a2,2,0,1,1-2,2H19a5,5,0,1,0,8.56-3.5A5,5,0,0,0,24,18.75a2,2,0,0,1,0-4Zm0,7a2,2,0,1,1-2,2A2,2,0,0,1,24,21.75Z" fill="#003cb4"/>
    <path d="M38.75,0H3.5V48H38.75a5.76,5.76,0,0,0,5.75-5.75V5.75A5.76,5.76,0,0,0,38.75,0ZM43,42.25a4.26,4.26,0,0,1-4.25,4.25H8V1.5H38.75A4.26,4.26,0,0,1,43,5.75Z" fill="#003cb4"/>
  </g>
</svg>
