<svg id="gesichtsscan-pikto" xmlns="http://www.w3.org/2000/svg" width="48" height="48" viewBox="0 0 48 48">
  <title>gesichtsscan-pikto-form</title>
  <g>
    <polygon points="3 3 10.25 3 10.25 1.5 1.5 1.5 1.5 10.25 3 10.25 3 3" fill="#003cb4"/>
    <polygon points="37.75 1.5 37.75 3 45 3 45 10.25 46.5 10.25 46.5 1.5 37.75 1.5" fill="#003cb4"/>
    <polygon points="45 45 37.75 45 37.75 46.5 46.5 46.5 46.5 37.75 45 37.75 45 45" fill="#003cb4"/>
    <polygon points="3 37.75 1.5 37.75 1.5 46.5 10.25 46.5 10.25 45 3 45 3 37.75" fill="#003cb4"/>
    <path d="M40,24A16,16,0,0,0,8,24V37.75h7.86a15.85,15.85,0,0,0,16.28,0H40ZM24,38.5A14.51,14.51,0,0,1,9.62,25.76c0-.47-.07-.88-.09-1.18s0-.37,0-.55v0c0-.46,0-.9.07-1.35a18.83,18.83,0,0,0,11.31-8C25,24,32,25.86,37,25.86c.5,0,1,0,1.43-.06A14.52,14.52,0,0,1,24,38.5Z" fill="#003cb4"/>
  </g>
</svg>
