<svg id="gesichtsscan-pikto" xmlns="http://www.w3.org/2000/svg" width="48" height="48" viewBox="0 0 48 48">
  <title>gesichtsscan-pikto-linie</title>
  <polyline points="2.25 10.25 2.25 2.25 10.25 2.25" fill="none" stroke="#003cb4" stroke-miterlimit="10" stroke-width="1.5"/>
  <polyline points="37.75 2.25 45.75 2.25 45.75 10.25" fill="none" stroke="#003cb4" stroke-miterlimit="10" stroke-width="1.5"/>
  <polyline points="45.75 37.75 45.75 45.75 37.75 45.75" fill="none" stroke="#003cb4" stroke-miterlimit="10" stroke-width="1.5"/>
  <polyline points="10.25 45.75 2.25 45.75 2.25 37.75" fill="none" stroke="#003cb4" stroke-miterlimit="10" stroke-width="1.5"/>
  <circle cx="24" cy="24" r="15.25" fill="none" stroke="#00bec8" stroke-miterlimit="10" stroke-width="1.5"/>
  <path d="M24,9.25C11.48,9.25,9,22,9,22c4.87-.77,9.68-4.67,12-9,2.62,6.88,8.19,13,18,12C39,25,37.75,9.25,24,9.25Z" fill="#00bec8" stroke="#00bec8" stroke-miterlimit="10" stroke-width="1.5"/>
  <path d="M8.75,24V37h7S11.1,34.21,10,31.5,8.75,24,8.75,24Z" fill="#00bec8" stroke="#00bec8" stroke-miterlimit="10" stroke-width="1.5"/>
  <path d="M39.25,24V37h-7S36.9,34.21,38,31.5,39.25,24,39.25,24Z" fill="#00bec8" stroke="#00bec8" stroke-miterlimit="10" stroke-width="1.5"/>
</svg>
