<svg id="getreide-pikto" xmlns="http://www.w3.org/2000/svg" width="48" height="48" viewBox="0 0 48 48">
  <title>getreide-pikto-form</title>
  <path d="M37.86,28.34c-1.19-1.61-4.34-5.12-9.33-5.33a8.21,8.21,0,0,0-3,.48L28,21.06a16.22,16.22,0,0,0,2.34.16c2.56,0,6.4-.56,9.18-3.44C43.11,14.07,42.35,8.58,42,7L47.5,1.56,46.44.5,41,6c-1.6-.25-7.48-.82-11.52,3.27-3,3.08-2.66,9.18-2.5,10.74l-2.38,2.38A9.57,9.57,0,0,0,25,18.43c-.49-4.58-3.89-7.28-5.53-8.33L26,3.54,25,2.48l-7.2,7.2C17.17,10.1,12,13.9,12,20c0,4.51,4.14,8,5.73,9.19l-4.68,4.68a9.55,9.55,0,0,0,.44-4C12.86,24,7.31,21.2,7.08,21.09l-.39-.2-.37.25C6.09,21.3.5,25.17.5,31.5c0,4.51,4.15,8,5.73,9.19L.72,46.2l1.06,1.06L7,42c1.13,1.58,4.44,5.49,9.4,5.49l.61,0c5.91-.37,9.66-5.84,9.81-6.07l.27-.39-.24-.41c-.14-.24-3.52-5.85-9.86-6.11a8.16,8.16,0,0,0-2.91.44l4.42-4.42C19.64,32.09,23,36,27.94,36l.61,0c5.75-.36,9.45-5.54,9.79-6l7.19-7.19-1.06-1.06Zm-7.35-18C33.92,6.85,39,7.22,40.59,7.43c.27,1.5.82,6.24-2.15,9.31-3.24,3.34-8.35,3.06-10,2.86C28.28,17.9,28.09,12.75,30.51,10.3ZM2,31.5c0-4.66,3.63-7.92,4.81-8.85,1.19.71,4.74,3.16,5.19,7.43.49,4.65-3.47,8.38-4.78,9.47C5.89,38.58,2,35.38,2,31.5ZM17,36c4.59.2,7.49,3.76,8.36,5-.94,1.2-4.06,4.74-8.38,5-4.6.29-7.81-3.62-8.76-5C9.31,39.74,13.06,35.84,17,36Z" fill="#003cb4"/>
</svg>
