<?xml version="1.0" encoding="utf-8"?>
<!-- Generator: Adobe Illustrator 23.1.1, SVG Export Plug-In . SVG Version: 6.00 Build 0)  -->
<svg version="1.1" id="gruppe-pikto" xmlns="http://www.w3.org/2000/svg" xmlns:xlink="http://www.w3.org/1999/xlink" x="0px"
	 y="0px" viewBox="0 0 48 48" enable-background="new 0 0 48 48" xml:space="preserve">
<title>gruppe-pikto-linie</title>
<path fill="none" stroke="#003CB4" stroke-width="1.5" stroke-miterlimit="10" d="M16.75,34h-16c0,0-0.47-9.75,11-9.75
	c2.02-0.04,4.01,0.48,5.75,1.5"/>
<path fill="none" stroke="#003CB4" stroke-width="1.5" stroke-miterlimit="10" d="M31,21c1.82-0.74,3.78-1.08,5.75-1
	c10.11,0,10.5,9.75,10.5,9.75H34"/>
<path fill="#003CB4" stroke="#003CB4" stroke-width="1.5" stroke-miterlimit="10" d="M19.75,13.5c-1.43-0.24-2.65-1.18-3.25-2.5
	c0,0-2.08,2.42-7.5,2.5c-3.6,0.05-5.25-1.25-5.25-1.25s1.07-7.19,8-6.75C19.58,6,19.75,13.5,19.75,13.5z"/>
<circle fill="none" stroke="#003CB4" stroke-width="1.5" stroke-miterlimit="10" cx="11.75" cy="13.5" r="8.25"/>
<path fill="#00BEC8" stroke="#00BEC8" stroke-width="1.5" stroke-miterlimit="10" d="M17.75,25.5C21.35,26.44,24,21,24,21
	s3,6.9,9.5,6.25V26c0,0-2.29-7-7.75-7S18,24.25,18,24.25L17.75,25.5z"/>
<circle fill="none" stroke="#00BEC8" stroke-width="1.5" stroke-miterlimit="10" cx="25.75" cy="26.75" r="8.25"/>
<polygon fill="#00BEC8" stroke="#00BEC8" stroke-width="1.5" stroke-miterlimit="10" points="17.5,29.25 17.5,34 20.76,34 
	18.75,31.75 "/>
<polygon fill="#00BEC8" stroke="#00BEC8" stroke-width="1.5" stroke-miterlimit="10" points="34,29.25 34,34 30.74,34 32.75,31.75 
	"/>
<path fill="#003CB4" stroke="#003CB4" stroke-width="1.5" stroke-miterlimit="10" d="M28.5,7.75c3.6,0.94,6.25-4.5,6.25-4.5
	s3,6.9,9.5,6.25V8.25c0,0-2.29-7-7.75-7S28.75,6.5,28.75,6.5L28.5,7.75z"/>
<circle fill="none" stroke="#003CB4" stroke-width="1.5" stroke-miterlimit="10" cx="36.5" cy="9" r="8.25"/>
<polygon fill="#003CB4" stroke="#003CB4" stroke-width="1.5" stroke-miterlimit="10" points="28.25,11.5 28.25,16.25 31.51,16.25 
	29.5,14 "/>
<polygon fill="#003CB4" stroke="#003CB4" stroke-width="1.5" stroke-miterlimit="10" points="44.75,11.5 44.75,16.25 41.49,16.25 
	43.5,14 "/>
<path fill="none" stroke="#00BEC8" stroke-width="1.5" stroke-miterlimit="10" d="M15,47.25c0,0-0.47-9.75,11-9.75
	c10.11,0,10.5,9.75,10.5,9.75H15z"/>
</svg>
