<svg id="gruppe-pikto" xmlns="http://www.w3.org/2000/svg" width="48" height="48" viewBox="0 0 48 48">
  <title>gruppe-pikto-form</title>
  <g>
    <path d="M11.75,22.5a9,9,0,0,0,0-18A8.9,8.9,0,0,0,7.43,5.61a7.23,7.23,0,0,0-.66.4l-.07,0a5.92,5.92,0,0,0-.48.35A9,9,0,0,0,11.75,22.5ZM4.26,13.38A11.13,11.13,0,0,0,9,14.25a12.39,12.39,0,0,0,7.3-2.09,4.81,4.81,0,0,0,2.91,2,7.5,7.5,0,0,1-15-.66S4.26,13.42,4.26,13.38Z" fill="#003cb4"/>
    <path d="M21.65,34.75a8.91,8.91,0,0,0,8.2,0h4.9V30.5H48l0-.78c0-.1-.54-10.47-11.25-10.47a16.13,16.13,0,0,0-5.12.71A9,9,0,0,0,17,24.67a12,12,0,0,0-5.26-1.17c-3.92,0-6.94,1.09-9,3.25A10.71,10.71,0,0,0,0,34l0,.71ZM46.42,29H34.75V26.07l0,.07a9,9,0,0,0-1.92-5,16.11,16.11,0,0,1,4-.43C44.48,20.75,46.09,26.79,46.42,29ZM18.27,26.34c2.65.22,4.71-2.26,5.71-3.82C25.19,24.47,28,28,32.65,28l.48,0a7.49,7.49,0,0,1-14.88-1.27C18.25,26.61,18.26,26.48,18.27,26.34ZM1.53,33.25a9,9,0,0,1,2.32-5.48C5.61,25.93,8.27,25,11.75,25a10.39,10.39,0,0,1,5,1.21v7Z" fill="#003cb4"/>
    <path d="M36.5,18a9,9,0,0,0,4.1-1h4.9V8.32l0,.07a9,9,0,0,0-17.94,0l0-.07V17h4.9A9,9,0,0,0,36.5,18ZM29,9c0-.14,0-.27,0-.41,2.65.22,4.7-2.26,5.71-3.82,1.21,2,4.05,5.52,8.67,5.52l.48,0A7.49,7.49,0,0,1,29,9Z" fill="#003cb4"/>
    <path d="M26,36.75c-3.92,0-6.94,1.09-9,3.25a10.71,10.71,0,0,0-2.75,7.29l0,.71h23l0-.78C37.25,47.12,36.71,36.75,26,36.75ZM15.78,46.5A9,9,0,0,1,18.1,41c1.76-1.84,4.42-2.77,7.9-2.77,7.73,0,9.34,6,9.67,8.25Z" fill="#003cb4"/>
  </g>
</svg>
