<svg id="handel-pikto" xmlns="http://www.w3.org/2000/svg" width="48" height="48" viewBox="0 0 48 48">
  <title>handel-pikto-form</title>
  <g>
    <path d="M8.25.25v4h-4v4h-4v31.5h26v3.63l5.5,4.12V39.75h8v-4h4v-4h4V.25Zm30,38h-6.5v-2.5h2V33.46L36,32.34,34.84,30,36,27.66l-2.26-1.12V24.25H30.81L29,22.44l-1.81,1.81H24.25v2.29L22,27.66,23.16,30,22,32.34l2.26,1.12v2.29h2v2.5H1.75V9.75h36.5Zm4-4h-2.5v-26h-34V5.75h36.5Zm4-4h-2.5v-26h-34V1.75h36.5Z" fill="#003cb4"/>
    <polygon points="20.59 16.47 19.41 15.53 11.94 24.88 8.53 21.47 7.47 22.53 12.06 27.12 20.59 16.47" fill="#003cb4"/>
  </g>
</svg>
