<svg id="handschlag-pikto" xmlns="http://www.w3.org/2000/svg" width="48" height="48" viewBox="0 0 48 48">
  <title>handschlag-pikto-linie</title>
  <polygon points="20 9 5 23 1.25 19 16 5 20 9" fill="#00bec8" stroke="#00bec8" stroke-miterlimit="10" stroke-width="1.5" fill-rule="evenodd"/>
  <rect x="34.17" y="4.1" width="5.66" height="19.8" transform="translate(0.94 30.26) rotate(-45)" fill="#00bec8" stroke="#00bec8" stroke-miterlimit="10" stroke-width="1.5"/>
  <path d="M40,29l2-6L28,9,15,22a2.66,2.66,0,0,0,0,4c1.23,1.1,2.54.85,4,0l5-3s6.26,1.59,10-3" fill="none" stroke="#003cb4" stroke-miterlimit="10" stroke-width="1.5" fill-rule="evenodd"/>
  <path d="M32,22l8,7a2.5,2.5,0,0,1-3,4l-3-3,3,3a2.54,2.54,0,0,1,.5,3.5A2.51,2.51,0,0,1,34,37l-3.5-3.5L34,37h0a2.62,2.62,0,0,1,.5,3.49A2.5,2.5,0,0,1,31,41l-2-2c.84,1.1,1.34,3.29-.49,4.5A2.71,2.71,0,0,1,25,43h0L5,23,20,9l7,1" fill="none" stroke="#003cb4" stroke-miterlimit="10" stroke-width="1.5" fill-rule="evenodd"/>
  <line x1="29" y1="39" x2="26" y2="36" fill="none" stroke="#003cb4" stroke-miterlimit="10" stroke-width="1.5"/>
</svg>
