<svg id="handschlag-pikto" xmlns="http://www.w3.org/2000/svg" width="48" height="48" viewBox="0 0 48 48">
  <title>handschlag-pikto-form</title>
  <path d="M47,18.47,32.4,3.75l-3.92,4L27.22,9,20.29,8,16.4,3.91,1,18.9l3.57,3.79L25,43.1l.22.22h0a3.64,3.64,0,0,0,2.36.93,3.24,3.24,0,0,0,1.82-.56,3.38,3.38,0,0,0,1.53-2.29l0-.27.06,0a3.22,3.22,0,0,0,4.52-.66A3,3,0,0,0,36,37.84a3.19,3.19,0,0,0,2.51-1.29,3.43,3.43,0,0,0,.52-2.65,3.49,3.49,0,0,0,2.42-1.29,3.08,3.08,0,0,0,.66-2.29,3.37,3.37,0,0,0-.88-1.87l2-5.94Zm-6.69,13.2a1.73,1.73,0,0,1-2.41.41L35,29.13l-1.05,1.06,3,3,.08.07a1.77,1.77,0,0,1,.33,2.46,1.75,1.75,0,0,1-2.4.33l-3.41-3.42-1.06,1L34,37.22a1.84,1.84,0,0,1,.34,2.42,1.75,1.75,0,0,1-2.39.38l-1.94-2-3-3L26,36.15l2.93,2.93a2.93,2.93,0,0,1,.55,2.08A2,2,0,0,1,26,42L6.71,22.73,20.78,9.59l5.13.73L15,21.2a3.76,3.76,0,0,0-1.1,2.71,3.25,3.25,0,0,0,1.14,2.33c1.76,1.58,3.61.81,4.85.09l4.72-2.83a11.92,11.92,0,0,0,7.58-1l7.72,6.75a1.86,1.86,0,0,1,.71,1.23A1.56,1.56,0,0,1,40.31,31.67ZM40,27.37l-6.52-5.71A9.74,9.74,0,0,0,35,20.2l-1.15-.94C30.49,23.38,24.75,22,24.69,22l-.3-.08L19.17,25c-1.62.94-2.41.71-3.1.09a1.8,1.8,0,0,1-.65-1.28,2.21,2.21,0,0,1,.68-1.61L28.48,9.86,41.53,22.91Z" fill="#003cb4"/>
</svg>
