<svg id="handel-pikto" xmlns="http://www.w3.org/2000/svg" width="48" height="48" viewBox="0 0 48 48">
  <title>handel-pikto-linie</title>
  <rect x="1" y="9" width="38" height="30" fill="none" stroke="#003cb4" stroke-miterlimit="10" stroke-width="1.5"/>
  <polygon points="35 28 33 27 33 25 30.5 25 29 23.5 27.5 25 25 25 25 27 23 28 24 30 23 32 25 33 25 35 27 35 27 43 31 46 31 35 33 35 33 33 35 32 34 30 35 28" fill="#00bec8" stroke="#00bec8" stroke-miterlimit="10" stroke-width="1.5"/>
  <polyline points="39 35 43 35 43 5 5 5 5 9" fill="none" stroke="#003cb4" stroke-miterlimit="10" stroke-width="1.5"/>
  <polyline points="43 31 47 31 47 1 9 1 9 5" fill="none" stroke="#003cb4" stroke-miterlimit="10" stroke-width="1.5"/>
  <polyline points="8 22 12 26 20 16" fill="none" stroke="#003cb4" stroke-miterlimit="10" stroke-width="1.5"/>
</svg>
