<svg id="herz-pikto" xmlns="http://www.w3.org/2000/svg" width="48" height="48" viewBox="0 0 48 48">
  <title>herz-pikto-form</title>
  <path d="M46.12,24.48a7.49,7.49,0,0,0-5.26-2.12A6.66,6.66,0,0,0,36,24.26l-.74.85-.91-.89c-.13-.13-.27-.25-.41-.37l2.32-2.32a11.52,11.52,0,0,0,3.2-8.69,10.11,10.11,0,0,0-3.76-7.43c-4.62-3.67-10.08-3.36-14.25.81L19.74,7.94,18,6.22C13.86,2.05,8.4,1.74,3.78,5.41A10.07,10.07,0,0,0,0,12.84a11.51,11.51,0,0,0,3.19,8.69L19.74,38.06,24.2,33.6a6.15,6.15,0,0,0,.59.67l10.53,10.8L45.86,34.28A7,7,0,0,0,46.12,24.48ZM19.74,35.94,4.27,20.47a9.93,9.93,0,0,1-2.75-7.54A8.54,8.54,0,0,1,4.71,6.59a9.4,9.4,0,0,1,5.84-2.24A9,9,0,0,1,17,7.28l2.78,2.78,2.78-2.78c3.64-3.64,8.22-3.9,12.26-.69A8.58,8.58,0,0,1,38,12.93a10,10,0,0,1-2.76,7.54L32.66,23a6.88,6.88,0,0,0-3-.67,7.32,7.32,0,0,0-5.12,2.12,6.86,6.86,0,0,0-1.14,7.82Z" fill="#003cb4"/>
</svg>
