<svg id="idee-pikto" xmlns="http://www.w3.org/2000/svg" width="48" height="48" viewBox="0 0 48 48">
  <title>idee-pikto-linie</title>
  <path d="M30.5,39v1.5A6.76,6.76,0,0,1,24,47.25a6.76,6.76,0,0,1-6.5-6.75V39Z" fill="#00bec8" stroke="#00bec8" stroke-miterlimit="10" stroke-width="1.5"/>
  <path d="M37,23a13,13,0,0,0-26,0,13.33,13.33,0,0,0,6.5,11.5V39h13V34.5A13.71,13.71,0,0,0,37,23Z" fill="none" stroke="#003cb4" stroke-miterlimit="10" stroke-width="1.5"/>
  <line x1="24" x2="24" y2="6" fill="none" stroke="#003cb4" stroke-miterlimit="10" stroke-width="1.5"/>
  <line x1="47" y1="24" x2="41" y2="24" fill="none" stroke="#003cb4" stroke-miterlimit="10" stroke-width="1.5"/>
  <line x1="7" y1="24" x2="1" y2="24" fill="none" stroke="#003cb4" stroke-miterlimit="10" stroke-width="1.5"/>
  <line x1="10.25" y1="10.25" x2="6" y2="6" fill="none" stroke="#003cb4" stroke-miterlimit="10" stroke-width="1.5"/>
  <line x1="42" y1="6" x2="38" y2="10.25" fill="none" stroke="#003cb4" stroke-miterlimit="10" stroke-width="1.5"/>
</svg>
