<?xml version="1.0" encoding="utf-8"?>
<!-- Generator: Adobe Illustrator 24.0.1, SVG Export Plug-In . SVG Version: 6.00 Build 0)  -->
<svg version="1.1" id="identifikation-pikto" xmlns="http://www.w3.org/2000/svg" xmlns:xlink="http://www.w3.org/1999/xlink"
	 x="0px" y="0px" viewBox="0 0 48 48" style="enable-background:new 0 0 48 48;" xml:space="preserve">
<style type="text/css">
	.st0{fill:#003CB4;}
</style>
<title>identifizieren-pikto-form</title>
<g>
	<path class="st0" d="M14,30.2c-8.6,0-8.8,7.7-8.8,7.8v0.8h17.5V38C22.8,37.9,22.6,30.2,14,30.2z"/>
	<rect x="27" y="17.2" class="st0" width="15" height="1.5"/>
	<rect x="27" y="21.2" class="st0" width="15" height="1.5"/>
	<rect x="27" y="25.2" class="st0" width="15" height="1.5"/>
	<path class="st0" d="M43,8.2H27.8v-5h-7.5v5H5c-2.6,0-4.7,2.1-4.8,4.8v26c0,2.6,2.1,4.7,4.8,4.8h38c2.6,0,4.7-2.1,4.8-4.8V13
		C47.7,10.4,45.6,8.3,43,8.2z M21.8,4.7h4.5v8.5h-4.5V4.7z M46.2,39c0,1.8-1.5,3.2-3.2,3.2H5c-1.8,0-3.2-1.5-3.2-3.2V13
		c0-1.8,1.5-3.2,3.2-3.2h15.2v5h7.5v-5H43c1.8,0,3.2,1.5,3.2,3.2V39z"/>
	<circle class="st0" cx="14" cy="22" r="6.8"/>
</g>
</svg>
