<?xml version="1.0" encoding="utf-8"?>
<!-- Generator: Adobe Illustrator 24.0.1, SVG Export Plug-In . SVG Version: 6.00 Build 0)  -->
<svg version="1.1" id="identifikation-pikto" xmlns="http://www.w3.org/2000/svg" xmlns:xlink="http://www.w3.org/1999/xlink"
	 x="0px" y="0px" viewBox="0 0 48 48" style="enable-background:new 0 0 48 48;" xml:space="preserve">
<style type="text/css">
	.st0{fill:none;stroke:#003CB4;stroke-width:1.5;stroke-miterlimit:10;}
	.st1{fill:#00BEC8;stroke:#00BEC8;stroke-width:1.5;stroke-miterlimit:10;}
</style>
<title>identifizieren-pikto-linie</title>
<path class="st0" d="M27,9h16c2.2,0,4,1.8,4,4v26c0,2.2-1.8,4-4,4H5c-2.2,0-4-1.8-4-4V13c0-2.2,1.8-4,4-4h16"/>
<path class="st1" d="M22,38c0,0,0-7-8-7s-8,7-8,7H22z"/>
<line class="st0" x1="27" y1="18" x2="42" y2="18"/>
<line class="st0" x1="27" y1="22" x2="42" y2="22"/>
<line class="st0" x1="27" y1="26" x2="42" y2="26"/>
<rect x="21" y="4" class="st0" width="6" height="10"/>
<circle class="st1" cx="14" cy="22" r="6"/>
</svg>
