<?xml version="1.0" encoding="utf-8"?>
<!-- Generator: Adobe Illustrator 23.1.1, SVG Export Plug-In . SVG Version: 6.00 Build 0)  -->
<svg version="1.1" id="in-arbeit-pikto" xmlns="http://www.w3.org/2000/svg" xmlns:xlink="http://www.w3.org/1999/xlink" x="0px"
	 y="0px" viewBox="0 0 48 48" enable-background="new 0 0 48 48" xml:space="preserve">
<title>in-arbeit-pikto-linie</title>
<polygon fill="#00BEC8" stroke="#00BEC8" stroke-width="1.5" stroke-miterlimit="10" points="23.9,31.87 28.88,34.85 18.92,34.85 
	"/>
<polygon fill="#00BEC8" stroke="#00BEC8" stroke-width="1.5" stroke-miterlimit="10" points="23.9,23.9 29.12,17.93 18.67,17.93 "/>
<polyline fill="none" stroke="#003CB4" stroke-width="1.5" stroke-miterlimit="10" points="1.99,5.98 9.96,5.98 9.96,13.94 "/>
<path fill="none" stroke="#003CB4" stroke-width="1.5" stroke-miterlimit="10" d="M23.9,1C36.6,0.94,46.94,11.2,47,23.9
	C47.06,36.6,36.8,46.94,24.1,47C11.4,47.06,1.06,36.8,1,24.1C0.97,17.05,4.18,10.36,9.71,5.98"/>
<line fill="none" stroke="#003CB4" stroke-width="1.5" stroke-miterlimit="10" x1="13.94" y1="12.95" x2="33.85" y2="12.95"/>
<line fill="none" stroke="#003CB4" stroke-width="1.5" stroke-miterlimit="10" x1="13.94" y1="34.85" x2="33.85" y2="34.85"/>
<polyline fill="none" stroke="#003CB4" stroke-width="1.5" stroke-miterlimit="10" points="15.93,12.95 15.93,14.94 23.9,23.9 
	31.86,32.86 31.86,34.85 "/>
<polyline fill="none" stroke="#003CB4" stroke-width="1.5" stroke-miterlimit="10" points="31.86,12.95 31.86,14.94 15.93,32.86 
	15.93,34.85 "/>
</svg>
