<svg id="info-1-pikto" xmlns="http://www.w3.org/2000/svg" width="48" height="48" viewBox="0 0 48 48">
  <title>info-1-pikto-form</title>
  <g>
    <rect x="16.25" y="6" width="1.5" height="1.5" fill="#003cb4"/>
    <rect x="16.25" y="8.5" width="1.5" height="10" fill="#003cb4"/>
    <path d="M40,15.25H33.75V8A7.75,7.75,0,0,0,26,.25H8A7.75,7.75,0,0,0,.25,8V18a7.76,7.76,0,0,0,7,7.7v7.08l7-7V33A7.75,7.75,0,0,0,22,40.7H33.69l7.06,7V40.67a7.76,7.76,0,0,0,7-7.7V23A7.75,7.75,0,0,0,40,15.25ZM8.75,29.14V24.21H8A6.25,6.25,0,0,1,1.75,18V8A6.25,6.25,0,0,1,8,1.75H26A6.25,6.25,0,0,1,32.25,8V18A6.25,6.25,0,0,1,26,24.21H13.69Z" fill="#003cb4"/>
  </g>
</svg>
