<svg id="instrumente-pikto" xmlns="http://www.w3.org/2000/svg" width="48" height="48" viewBox="0 0 48 48">
  <title>instrumente-pikto-form</title>
  <g>
    <circle cx="24" cy="14" r="2.5" fill="#003cb4"/>
    <path d="M29.91,10a7.06,7.06,0,0,0-4.74-3l-.38,0V.13h-1.5V6.89a7,7,0,0,0-3.46,1.39,7.46,7.46,0,0,0-1.48,1.54h0l0,0C18.1,10.17,0,48,0,48S16.05,32.89,24,24.82C31.94,32.8,48,48,48,48S33.16,14.68,29.91,10ZM19.38,17.67a5.34,5.34,0,0,1-1-4,6.41,6.41,0,0,1,2.35-4.19,5.43,5.43,0,0,1,3.31-1.13,5.1,5.1,0,0,1,.87.07,5.56,5.56,0,0,1,3.74,2.39h0C31.19,14.46,40,33.73,43.55,41.71,37.25,35.71,22.1,21.18,19.38,17.67Z" fill="#003cb4"/>
  </g>
</svg>
