<svg id="instrumente-pikto" xmlns="http://www.w3.org/2000/svg" width="48" height="48" viewBox="0 0 48 48">
  <title>instrumente-pikto-linie</title>
  <path d="M18.75,18a6,6,0,0,1-.5-6.75c-3.59,5.64-16,33.5-16,33.5S16,31.82,24,23.69A67.69,67.69,0,0,1,18.75,18Z" fill="#00bec8" stroke="#00bec8" stroke-miterlimit="10" stroke-width="1.5"/>
  <path d="M24,12.25A1.75,1.75,0,1,0,25.75,14,1.76,1.76,0,0,0,24,12.25Z" fill="#00bec8" stroke="#00bec8" stroke-miterlimit="10" stroke-width="1.5"/>
  <line x1="24" y1="7.5" x2="24" fill="none" stroke="#003cb4" stroke-miterlimit="10" stroke-width="1.5"/>
  <path d="M29.25,10.25a6.25,6.25,0,0,0-9-1.5c-2.77,2.11-3.63,6.5-1.5,9.25,3.51,4.53,27,26.75,27,26.75S32.5,15,29.25,10.25Z" fill="none" stroke="#003cb4" stroke-miterlimit="10" stroke-width="1.5"/>
</svg>
