<svg xmlns="http://www.w3.org/2000/svg" viewBox="0 0 24 24"><title>xyc</title><path d="M22.93,7.46a8,8,0,0,0-.51-2.67,5.26,5.26,0,0,0-1.27-1.94,5.26,5.26,0,0,0-1.94-1.27,8,8,0,0,0-2.67-.51C15.36,1,15,1,12,1s-3.36,0-4.54.07a8,8,0,0,0-2.67.51A5.26,5.26,0,0,0,2.85,2.85,5.26,5.26,0,0,0,1.58,4.79a8,8,0,0,0-.51,2.67C1,8.64,1,9,1,12s0,3.36.07,4.54a8,8,0,0,0,.51,2.67,5.26,5.26,0,0,0,1.27,1.94,5.26,5.26,0,0,0,1.94,1.27,8,8,0,0,0,2.67.51C8.64,23,9,23,12,23s3.36,0,4.54-.07a8,8,0,0,0,2.67-.51,5.67,5.67,0,0,0,3.21-3.21,8,8,0,0,0,.51-2.67C23,15.36,23,15,23,12S23,8.64,22.93,7.46Zm-2,9a6.22,6.22,0,0,1-.37,2,3.74,3.74,0,0,1-2.09,2.09,6.22,6.22,0,0,1-2,.37C15.29,21,14.94,21,12,21S8.71,21,7.56,21a6.22,6.22,0,0,1-2-.37,3.34,3.34,0,0,1-1.26-.83,3.34,3.34,0,0,1-.83-1.26,6.22,6.22,0,0,1-.37-2C3,15.28,3,14.94,3,12s0-3.29.07-4.45a6.2,6.2,0,0,1,.37-2,3.34,3.34,0,0,1,.83-1.26,3.34,3.34,0,0,1,1.26-.83,6,6,0,0,1,2.05-.37C8.71,3,9.06,3,12,3s3.29,0,4.44.07a6,6,0,0,1,2,.37,3.34,3.34,0,0,1,1.26.83,3.34,3.34,0,0,1,.83,1.26,6.2,6.2,0,0,1,.37,2C21,8.71,21,9.06,21,12S21,15.28,21,16.44Z" style="fill:#003cb4"/><path d="M12,6.35A5.65,5.65,0,1,0,17.65,12,5.65,5.65,0,0,0,12,6.35Zm0,9.32A3.67,3.67,0,1,1,15.67,12,3.67,3.67,0,0,1,12,15.67Z" style="fill:#003cb4"/><circle cx="17.87" cy="6.13" r="1.32" style="fill:#003cb4"/></svg>