<svg id="investitionen-transferieren-pikto" xmlns="http://www.w3.org/2000/svg" width="48" height="48" viewBox="0 0 48 48">
  <title>investitionen-transferieren-pikto-form</title>
  <g>
    <path d="M15,37.25a5.25,5.25,0,1,1,4.55-7.87l1.3-.76a6.75,6.75,0,1,0,0,6.76l-1.3-.76A5.28,5.28,0,0,1,15,37.25Z" fill="#003cb4"/>
    <path d="M15,29.25A2.75,2.75,0,1,0,17.56,33H22V31H17.56A2.77,2.77,0,0,0,15,29.25Z" fill="#003cb4"/>
    <path d="M42.75,5.25H20.5V15.5H0V48H22.25a5.25,5.25,0,0,0,5.25-5.25v-5H42.75A5.25,5.25,0,0,0,48,32.5v-22A5.25,5.25,0,0,0,42.75,5.25ZM26,42.75a3.75,3.75,0,0,1-3.75,3.75H3.5V17H22.25A3.75,3.75,0,0,1,26,20.75ZM46.5,32.5a3.75,3.75,0,0,1-3.75,3.75H27.5V20.75a5.23,5.23,0,0,0-3.57-4.95v-9H42.75A3.75,3.75,0,0,1,46.5,10.5Z" fill="#003cb4"/>
    <path d="M1.5,9.53A3.22,3.22,0,0,1,4.75,6.28H14.94L11.22,10l1.07,1.06,5.52-5.53L12.28,0,11.22,1.06l3.72,3.72H4.75A4.75,4.75,0,0,0,0,9.53v3H1.5Z" fill="#003cb4"/>
  </g>
</svg>
