<svg id="investitionen-reaktivieren-pikto" xmlns="http://www.w3.org/2000/svg" width="48" height="48" viewBox="0 0 48 48">
  <title>investitionen-reaktivieren-pikto-linie</title>
  <path d="M31,47H7V13H31a5,5,0,0,1,5,5V42A5,5,0,0,1,31,47Z" fill="none" stroke="#003cb4" stroke-miterlimit="10" stroke-width="1.5"/>
  <rect x="7" y="13" width="2" height="34" fill="#003cb4" stroke="#003cb4" stroke-miterlimit="10" stroke-width="1.5"/>
  <g>
    <circle cx="22" cy="30" r="2" fill="#003cb4" stroke="#003cb4" stroke-miterlimit="10" stroke-width="1.5"/>
    <path d="M27,33a5.69,5.69,0,0,1-5,3,6,6,0,0,1,0-12,5.69,5.69,0,0,1,5,3" fill="none" stroke="#003cb4" stroke-miterlimit="10" stroke-width="1.5"/>
    <line x1="24" y1="30" x2="29" y2="30" fill="none" stroke="#003cb4" stroke-miterlimit="10" stroke-width="2"/>
  </g>
  <path d="M38.5,4a7,7,0,1,0,7,7A7,7,0,0,0,38.5,4ZM37,16l-4.5-4.5,2-2L37,12l5.25-5.25,2,2Z" fill="#00bec8" stroke="#00bec8" stroke-miterlimit="10" stroke-width="1.5"/>
  <line x1="22" x2="22" y2="9" fill="none" stroke="#003cb4" stroke-miterlimit="10" stroke-width="1.5"/>
  <polyline points="26 5 22 9 18 5" fill="none" stroke="#003cb4" stroke-miterlimit="10" stroke-width="1.5"/>
</svg>
