<svg id="investition-verkaufen-pikto" xmlns="http://www.w3.org/2000/svg" width="48" height="48" viewBox="0 0 48 48">
  <title>investition-verkaufen-pikto-form</title>
  <g>
    <path d="M41.25,35v3A3.22,3.22,0,0,1,38,41.25H27.81l3.72-3.72-1.06-1.06L24.94,42l5.53,5.53,1.06-1.06-3.72-3.72H38A4.75,4.75,0,0,0,42.75,38V35Z" fill="#003cb4"/>
    <path d="M30.5,29.75v-24A5.76,5.76,0,0,0,24.75,0H0V35.5H24.75A5.76,5.76,0,0,0,30.5,29.75ZM24.75,34H3.5V1.5H24.75A4.26,4.26,0,0,1,29,5.75v24A4.26,4.26,0,0,1,24.75,34Z" fill="#003cb4"/>
    <path d="M15.75,22.75a5.25,5.25,0,0,1,0-10.5,4.9,4.9,0,0,1,4.35,2.63l1.3-.76a6.44,6.44,0,0,0-5.65-3.37,6.75,6.75,0,0,0,0,13.5,6.44,6.44,0,0,0,5.65-3.37l-1.3-.76A4.9,4.9,0,0,1,15.75,22.75Z" fill="#003cb4"/>
    <path d="M15.75,14.75a2.75,2.75,0,1,0,2.56,3.75h4.44v-2H18.31A2.77,2.77,0,0,0,15.75,14.75Z" fill="#003cb4"/>
  </g>
</svg>
