<svg id="investieren-pikto" xmlns="http://www.w3.org/2000/svg" width="48" height="48" viewBox="0 0 48 48">
  <title>investieren-pikto-linie</title>
  <line x1="24" x2="24" y2="9" fill="none" stroke="#003cb4" stroke-miterlimit="10" stroke-width="1.5"/>
  <polyline points="28 5 24 9 20 5" fill="none" stroke="#003cb4" stroke-miterlimit="10" stroke-width="1.5"/>
  <path d="M33.5,47H9.5V13h24a5,5,0,0,1,5,5V42A5,5,0,0,1,33.5,47Z" fill="none" stroke="#003cb4" stroke-miterlimit="10" stroke-width="1.5"/>
  <rect x="9.5" y="13" width="2" height="34" fill="#003cb4" stroke="#003cb4" stroke-miterlimit="10" stroke-width="1.5"/>
  <g>
    <circle cx="24.5" cy="30" r="2" fill="#00bec8" stroke="#00bec8" stroke-miterlimit="10" stroke-width="1.5"/>
    <path d="M29.5,33a5.69,5.69,0,0,1-5,3,6,6,0,0,1,0-12,5.69,5.69,0,0,1,5,3" fill="none" stroke="#00bec8" stroke-miterlimit="10" stroke-width="1.5"/>
    <line x1="26.5" y1="30" x2="31.5" y2="30" fill="none" stroke="#00bec8" stroke-miterlimit="10" stroke-width="2"/>
  </g>
</svg>
