<svg id="investitionsmodus-pikto" xmlns="http://www.w3.org/2000/svg" width="48" height="48" viewBox="0 0 48 48">
  <title>investitionsmodus-pikto-form</title>
  <path d="M32,16.25l-.52,0c0-.18,0-.35,0-.52A15.75,15.75,0,1,0,15.75,31.5l.53,0c0,.17,0,.34,0,.52A15.75,15.75,0,1,0,32,16.25ZM10.75,21.5V20H15V11.5H10.75V10H16.5V20h4.25v1.5ZM32,46.25A14.26,14.26,0,0,1,17.75,32c0-.21,0-.43.05-.64a15.73,15.73,0,0,0,5.86-2A8.47,8.47,0,0,0,23.25,32a8.79,8.79,0,0,0,16.4,4.37l-1.3-.74A7.33,7.33,0,0,1,32,39.25a7.25,7.25,0,0,1,0-14.5,7,7,0,0,1,7,6.39l-2.67-2.67-1.06,1.06,4.53,4.53,4.53-4.53-1.06-1.06-2.76,2.76a8.51,8.51,0,0,0-11.1-7.57,15.73,15.73,0,0,0,2-5.87c.21,0,.42,0,.64,0a14.25,14.25,0,0,1,0,28.5Z" fill="#003cb4"/>
</svg>
