<svg id="investitionen-deaktivieren-pikto" xmlns="http://www.w3.org/2000/svg" width="48" height="48" viewBox="0 0 48 48">
  <title>investitionen-deaktivieren-pikto-form</title>
  <g>
    <path d="M22,35.25a5.25,5.25,0,0,1,0-10.5,4.9,4.9,0,0,1,4.35,2.63l1.3-.76A6.44,6.44,0,0,0,22,23.25a6.75,6.75,0,0,0,0,13.5,6.44,6.44,0,0,0,5.65-3.37l-1.3-.76A4.9,4.9,0,0,1,22,35.25Z" fill="#003cb4"/>
    <path d="M22,27.25A2.75,2.75,0,1,0,24.56,31H29V29H24.56A2.77,2.77,0,0,0,22,27.25Z" fill="#003cb4"/>
    <polygon points="26.53 5.53 25.47 4.47 22.75 7.19 22.75 0 21.25 0 21.25 7.19 18.53 4.47 17.47 5.53 22 10.06 26.53 5.53" fill="#003cb4"/>
    <path d="M38.5,3.25A7.76,7.76,0,0,0,30.75,11a7.48,7.48,0,0,0,.15,1.5H6.25V48H31a5.76,5.76,0,0,0,5.75-5.75V18.54A7.75,7.75,0,1,0,38.5,3.25Zm-3.25,15v24A4.26,4.26,0,0,1,31,46.5H9.75V14H31c.13,0,.25,0,.37,0a7.74,7.74,0,0,0,3.86,4C35.23,18.09,35.25,18.17,35.25,18.25Zm6.69-4.75-.94.94-2.5-2.5L36,14.44l-.94-.94,2.5-2.5-2.5-2.5,1-1L38.5,9.76,41,7.53l1,1L39.44,11Z" fill="#003cb4"/>
  </g>
</svg>
