<svg id="investitionen-transferieren-pikto" xmlns="http://www.w3.org/2000/svg" width="48" height="48" viewBox="0 0 48 48">
  <title>investitionen-transferieren-pikto-linie</title>
  <path d="M22.5,47H1V16H22.5A4.51,4.51,0,0,1,27,20.5v22A4.51,4.51,0,0,1,22.5,47Z" fill="none" stroke="#003cb4" stroke-miterlimit="10" stroke-width="1.5"/>
  <rect x="1" y="16" width="2" height="31" fill="#003cb4" stroke="#003cb4" stroke-miterlimit="10" stroke-width="1.5"/>
  <g>
    <circle cx="15" cy="32" r="2" fill="#00bec8" stroke="#00bec8" stroke-miterlimit="10" stroke-width="1.5"/>
    <path d="M20.2,35a6,6,0,1,1,0-6" fill="none" stroke="#00bec8" stroke-miterlimit="10" stroke-width="1.5"/>
    <line x1="17" y1="32" x2="22" y2="32" fill="none" stroke="#00bec8" stroke-miterlimit="10" stroke-width="2"/>
  </g>
  <path d="M21,16V6H42.5A4.51,4.51,0,0,1,47,10.5v22A4.51,4.51,0,0,1,42.5,37H27" fill="none" stroke="#003cb4" stroke-miterlimit="10" stroke-width="1.5"/>
  <rect x="21" y="6" width="2" height="10" fill="#003cb4" stroke="#003cb4" stroke-miterlimit="10" stroke-width="1.35"/>
  <path d="M17,6H5a4,4,0,0,0-4,4v3" fill="none" stroke="#003cb4" stroke-miterlimit="10" stroke-width="1.5"/>
  <polyline points="12 1 17 6 12.01 11" fill="none" stroke="#003cb4" stroke-miterlimit="10" stroke-width="1.5"/>
</svg>
