<svg id="kaefer-pikto" xmlns="http://www.w3.org/2000/svg" width="48" height="48" viewBox="0 0 48 48">
  <title>kaefer-pikto</title>
  <path d="M41.29,35.19l-5.6.93A10.37,10.37,0,0,0,35.75,35V26.46L41,23.87l5.63,3.75.84-1.24-6.37-4.25-5.3,2.66V19A11.74,11.74,0,0,0,29.91,8.86l3.76-7.52L32.33.66,28.57,8.18a11.62,11.62,0,0,0-8.3-.31L16.67.66l-1.34.68,3.55,7.1A11.75,11.75,0,0,0,12.25,19v5.79L7,22.13.58,26.38l.84,1.24,5.63-3.75,5.2,2.59V35a10.37,10.37,0,0,0,.06,1.12l-5.6-.93L.43,42.51l1.14,1,5.72-6.68,5.28.88a11.74,11.74,0,0,0,22.86,0l5.28-.88,5.72,6.68,1.14-1Zm-7-.19a10.25,10.25,0,0,1-20.5,0V20.75h20.5Z" fill="#003cb4"/>
</svg>
