<svg id="kaelteenergie-pikto" xmlns="http://www.w3.org/2000/svg" width="48" height="48" viewBox="0 0 48 48">
  <title>kaelteenergie-pikto-form</title>
  <g>
    <path d="M44.25,30.85V5.5c0-3.1-3.09-5.5-5.75-5.5a5.7,5.7,0,0,0-5.75,5.5V30.85A9.94,9.94,0,0,0,29,38.75,9.39,9.39,0,0,0,38.5,48,9.62,9.62,0,0,0,48,38.75,9.94,9.94,0,0,0,44.25,30.85ZM38.5,1.5c1.91,0,4.25,1.85,4.25,4v22h-8.5V5.5A4.24,4.24,0,0,1,38.5,1.5Z" fill="#003cb4"/>
    <polygon points="22 6.85 12.13 12.57 12.13 2.5 10.63 2.5 10.63 12.57 0.75 6.85 0 8.15 9.88 13.88 0 19.6 0.75 20.9 10.63 15.18 10.63 25.5 12.13 25.5 12.13 15.18 22 20.9 22.75 19.6 12.87 13.88 22.75 8.15 22 6.85" fill="#003cb4"/>
  </g>
</svg>
