<svg id="kaelteenergie-pikto" xmlns="http://www.w3.org/2000/svg" width="48" height="48" viewBox="0 0 48 48">
  <title>kaelteenergie-pikto-linie</title>
  <path d="M43,28.25V31.5c2,1.31,4,4,4,6.5,0,4-4.83,9-9,9-3.28,0-8-5-8-9,0-2.52,2-5.19,4-6.5V28.25Z" fill="#00bec8" stroke="#00bec8" stroke-miterlimit="10" stroke-width="1.5"/>
  <path d="M47.25,38.75a9.14,9.14,0,0,0-3.75-7.5V5.5C43.5,3,40.9.75,38.5.75a5,5,0,0,0-5,4.75V31.25a9.14,9.14,0,0,0-3.75,7.5,8.69,8.69,0,0,0,8.75,8.5C43,47.25,47.25,43.31,47.25,38.75Z" fill="none" stroke="#003cb4" stroke-miterlimit="10" stroke-width="1.5"/>
  <line x1="11.5" y1="2.5" x2="11.5" y2="25.5" fill="none" stroke="#003cb4" stroke-miterlimit="10" stroke-width="1.5"/>
  <line x1="22.5" y1="20.25" x2="0.5" y2="7.5" fill="none" stroke="#003cb4" stroke-miterlimit="10" stroke-width="1.5"/>
  <line x1="22.5" y1="7.5" x2="0.5" y2="20.25" fill="none" stroke="#003cb4" stroke-miterlimit="10" stroke-width="1.5"/>
</svg>
