<svg id="kaffee-pikto" xmlns="http://www.w3.org/2000/svg" width="48" height="48" viewBox="0 0 48 48">
  <title>kaffee-pikto-form</title>
  <g>
    <path d="M25.59,12.28,26.41,11c-.77-.49-1.68-1.26-1.66-2.11s1.18-1.85,1.66-2.13c1.58-1,2.37-2.17,2.34-3.41C28.7,1.37,26.47.06,26.38,0l-.76,1.3c.45.26,1.61,1.15,1.63,2.11S26.36,5,25.62,5.5c-.09.06-2.32,1.37-2.37,3.37C23.22,10.11,24,11.26,25.59,12.28Z" fill="#003cb4"/>
    <path d="M11.09,12.28,11.91,11c-.77-.49-1.68-1.26-1.66-2.11s1.18-1.85,1.66-2.13c1.58-1,2.37-2.17,2.34-3.41C14.2,1.37,12,.06,11.88,0l-.76,1.3c.45.26,1.61,1.15,1.63,2.11S11.86,5,11.12,5.5C11,5.56,8.8,6.87,8.75,8.87,8.72,10.11,9.51,11.26,11.09,12.28Z" fill="#003cb4"/>
    <path d="M18.34,12.28,19.16,11c-.77-.49-1.68-1.26-1.66-2.11s1.18-1.85,1.66-2.13c1.58-1,2.37-2.17,2.34-3.41-.05-2-2.28-3.31-2.37-3.37l-.76,1.3C18.82,1.56,20,2.45,20,3.41S19.11,5,18.37,5.5c-.09.06-2.32,1.37-2.37,3.37C16,10.11,16.76,11.26,18.34,12.28Z" fill="#003cb4"/>
    <path d="M36.48,30.25h3.27A7.58,7.58,0,0,0,47.5,22.5a7.58,7.58,0,0,0-7.75-7.75H0V25.5c0,7.61,6.55,13.67,13,15.71l.11,0H0V48H40.25V41.25H24.36l.12,0A19,19,0,0,0,36.48,30.25Zm1-4.75V16.25h2.25A6.12,6.12,0,0,1,46,22.5a6.12,6.12,0,0,1-6.25,6.25H37A14.9,14.9,0,0,0,37.5,25.5Zm-36,0V16.25H36v9.22c-.28,6.25-5.15,12.11-11.87,14.28H13.37C7.45,37.83,1.5,32.35,1.5,25.5Z" fill="#003cb4"/>
  </g>
</svg>
