<?xml version="1.0" encoding="utf-8"?>
<!-- Generator: Adobe Illustrator 23.1.1, SVG Export Plug-In . SVG Version: 6.00 Build 0)  -->
<svg version="1.1" id="kaffee-pikto" xmlns="http://www.w3.org/2000/svg" xmlns:xlink="http://www.w3.org/1999/xlink" x="0px"
	 y="0px" viewBox="0 0 48 48" enable-background="new 0 0 48 48" xml:space="preserve">
<title>kaffee-pikto-linie</title>
<rect x="1" y="42" fill="#00BEC8" stroke="#00BEC8" stroke-width="1.5" stroke-miterlimit="10" width="38.75" height="5.25"/>
<path fill="none" stroke="#003CB4" stroke-width="1.5" stroke-miterlimit="10" d="M26.25,0.75c0,0,4.5,2.6,0,5.5l0,0
	c0,0-4.5,2.6,0,5.5"/>
<path fill="none" stroke="#003CB4" stroke-width="1.5" stroke-miterlimit="10" d="M11.75,0.75c0,0,4.5,2.6,0,5.5l0,0
	c0,0-4.5,2.6,0,5.5"/>
<path fill="none" stroke="#003CB4" stroke-width="1.5" stroke-miterlimit="10" d="M19,0.75c0,0,4.5,2.6,0,5.5l0,0c0,0-4.5,2.6,0,5.5
	"/>
<path fill="none" stroke="#003CB4" stroke-width="1.5" stroke-miterlimit="10" d="M37,15.5h3c3.77-0.1,6.9,2.88,7,6.66
	c0,0.11,0,0.23,0,0.34c0.1,3.77-2.88,6.9-6.66,7c-0.11,0-0.23,0-0.34,0h-4"/>
<path fill="none" stroke="#003CB4" stroke-width="1.5" stroke-miterlimit="10" d="M37,15.5H1v10c0,6.91,5.93,12.92,12.5,15h11
	c6.56-2.08,12.18-7.87,12.5-15V15.5z"/>
</svg>
