<svg id="kino-pikto" xmlns="http://www.w3.org/2000/svg" width="48" height="48" viewBox="0 0 48 48">
  <title>kino-pikto-linie</title>
  <path d="M21.5,22.75a1,1,0,1,1-1,1,1,1,0,0,1,1-1" fill="#003cb4" stroke="#003cb4" stroke-miterlimit="10" stroke-width="1.5"/>
  <path d="M11.75,12.5a4,4,0,1,1-4,4,4,4,0,0,1,4-4" fill="#00bec8" stroke="#00bec8" stroke-miterlimit="10" stroke-width="1.5"/>
  <path d="M25.75,8.76a4,4,0,1,1-4,4,4,4,0,0,1,4-4" fill="#00bec8" stroke="#00bec8" stroke-miterlimit="10" stroke-width="1.5"/>
  <path d="M33.5,20a4,4,0,1,1-4,4,4,4,0,0,1,4-4" fill="#00bec8" stroke="#00bec8" stroke-miterlimit="10" stroke-width="1.5"/>
  <path d="M25.75,31.25a4,4,0,1,1-4,4,4,4,0,0,1,4-4" fill="#00bec8" stroke="#00bec8" stroke-miterlimit="10" stroke-width="1.5"/>
  <path d="M12,27a4,4,0,1,1-4,4,4,4,0,0,1,4-4" fill="#00bec8" stroke="#00bec8" stroke-miterlimit="10" stroke-width="1.5"/>
  <circle cx="21.5" cy="23.75" r="20.75" fill="none" stroke="#003cb4" stroke-miterlimit="10" stroke-width="1.5"/>
  <line x1="48" y1="44.5" x2="22" y2="44.5" fill="none" stroke="#003cb4" stroke-miterlimit="10" stroke-width="1.5"/>
</svg>
