<svg id="kino-pikto" xmlns="http://www.w3.org/2000/svg" width="48" height="48" viewBox="0 0 48 48">
  <title>kino-pikto-form</title>
  <g>
    <path d="M23.25,23.75A1.75,1.75,0,1,0,21.5,25.5,1.75,1.75,0,0,0,23.25,23.75Z" fill="#003cb4"/>
    <path d="M11.75,21.25A4.75,4.75,0,1,0,7,16.5,4.75,4.75,0,0,0,11.75,21.25Z" fill="#003cb4"/>
    <circle cx="25.75" cy="12.76" r="4.75" fill="#003cb4"/>
    <path d="M38.25,24a4.75,4.75,0,1,0-4.75,4.75A4.75,4.75,0,0,0,38.25,24Z" fill="#003cb4"/>
    <path d="M25.75,30.5a4.75,4.75,0,1,0,4.75,4.75A4.75,4.75,0,0,0,25.75,30.5Z" fill="#003cb4"/>
    <path d="M12,26.25A4.75,4.75,0,1,0,16.75,31,4.75,4.75,0,0,0,12,26.25Z" fill="#003cb4"/>
    <path d="M29.34,43.75a21.46,21.46,0,1,0-7.84,1.5H48v-1.5Zm-7.84,0a20,20,0,1,1,20-20A20,20,0,0,1,21.5,43.75Z" fill="#003cb4"/>
  </g>
</svg>
