<svg id="kirche-pikto" xmlns="http://www.w3.org/2000/svg" width="48" height="48" viewBox="0 0 48 48">
  <title>kirche-pikto-form</title>
  <g>
    <path d="M11.75,33A3,3,0,0,0,9,30.25,3,3,0,0,0,6.25,33v7.75h5.5Z" fill="#003cb4"/>
    <path d="M21.75,33A3,3,0,0,0,19,30.25,2.79,2.79,0,0,0,16.25,33v7.75h5.5Z" fill="#003cb4"/>
    <path d="M37,.15,26.25,11.71v6.74l-26,8v21.3h47.5v-36ZM26.25,46.25H1.75V27.55L26.25,20Zm14,0h-6.5V35c0-2.22,1-3.25,3.25-3.25s3.25,1,3.25,3.25Zm6,0h-4.5V35c0-3-1.73-4.75-4.75-4.75S32.25,32,32.25,35V46.25h-4.5v-34L37,2.35l9.25,9.94Z" fill="#003cb4"/>
    <path d="M33.25,17A3.75,3.75,0,1,0,37,13.25,3.75,3.75,0,0,0,33.25,17Zm6,0A2.25,2.25,0,1,1,37,14.75,2.25,2.25,0,0,1,39.25,17Z" fill="#003cb4"/>
  </g>
</svg>
