<svg id="kleeblatt-pikto" xmlns="http://www.w3.org/2000/svg" width="48" height="48" viewBox="0 0 48 48">
  <title>kleeblatt-pikto-form</title>
  <path d="M44.88,24.58,44.26,24l.61-.58c2.3-2.15,3.12-3.75,3.12-6.11a6.88,6.88,0,0,0-6.81-6.94,7.07,7.07,0,0,0-4.86,2.33l0,0A7.74,7.74,0,0,0,25,2.22l-1,1-1-1a7.76,7.76,0,0,0-12.73,8.09,7.45,7.45,0,0,0-2.73-.44,7.59,7.59,0,0,0-5.35,2.38,7.7,7.7,0,0,0,0,10.8l1,1-1,1A7.73,7.73,0,0,0,10.29,37.7,7.75,7.75,0,0,0,23,45.78l1-1,1,1A7.74,7.74,0,0,0,36.29,35.28h0a7.15,7.15,0,0,0,4.87,2.36A6.88,6.88,0,0,0,48,30.69C48,28.33,47.18,26.73,44.88,24.58ZM13.28,3.29a6.22,6.22,0,0,1,8.68,0l2,2,2-2a6.21,6.21,0,0,1,8.69,0A6.14,6.14,0,0,1,34.94,12L24,22.93,13.05,12A6.14,6.14,0,0,1,13.28,3.29Zm-10,31.43a6.21,6.21,0,0,1,0-8.68l2-2-2-2a6.22,6.22,0,0,1,0-8.7,6.1,6.1,0,0,1,4.3-1.91h.16A6.08,6.08,0,0,1,12,13l11,11L12,35A6.17,6.17,0,0,1,3.29,34.72Zm31.42,10a6.22,6.22,0,0,1-8.68,0l-2-2-2,2a6.22,6.22,0,0,1-8.7,0A6.13,6.13,0,0,1,13,36l11-11,11,11A6.16,6.16,0,0,1,34.71,44.71Z" fill="#003cb4"/>
</svg>
