<?xml version="1.0" encoding="utf-8"?>
<!-- Generator: Adobe Illustrator 23.1.1, SVG Export Plug-In . SVG Version: 6.00 Build 0)  -->
<svg version="1.1" id="kleeblatt-pikto" xmlns="http://www.w3.org/2000/svg" xmlns:xlink="http://www.w3.org/1999/xlink" x="0px"
	 y="0px" viewBox="0 0 48 48" enable-background="new 0 0 48 48" xml:space="preserve">
<title>kleeblatt-pikto-linie</title>
<title>kleeblatt-pikto-linie</title>
<path fill="none" stroke="#003CB4" stroke-width="1.5" stroke-miterlimit="10" d="M35.38,12.61c2.59-2.74,2.48-7.06-0.25-9.65l0,0
	c-2.69-2.61-6.96-2.61-9.65,0L24,4.44l-1.48-1.49c-2.69-2.61-6.96-2.61-9.65,0l0,0c-2.73,2.6-2.84,6.92-0.25,9.65L24,24L35.38,12.61
	z"/>
<path fill="none" stroke="#003CB4" stroke-width="1.5" stroke-miterlimit="10" d="M12.62,35.4c-2.59,2.73-2.48,7.05,0.25,9.64l0,0
	c2.69,2.61,6.96,2.61,9.65,0L24,43.56l1.48,1.49c2.69,2.61,6.96,2.61,9.65,0l0,0c2.73-2.6,2.84-6.92,0.25-9.65L24,24L12.62,35.4z"/>
<path fill="none" stroke="#003CB4" stroke-width="1.5" stroke-miterlimit="10" d="M12.62,12.61c-2.73-2.6-7.05-2.49-9.65,0.25l0,0
	c-2.61,2.69-2.61,6.97,0,9.65L4.45,24l-1.48,1.49c-2.61,2.69-2.61,6.97,0,9.65l0,0c2.6,2.73,6.92,2.84,9.65,0.25L24,24L12.62,12.61z
	"/>
<g>
	<path fill="#00BEC8" stroke="#00BEC8" stroke-width="1.5" stroke-miterlimit="10" d="M41.02,11.25c3.3,0,5.99,2.75,5.99,6.12
		c0,2.13-0.72,3.52-2.85,5.51l-0.62,0.58L42.97,24l0.58,0.54l0.62,0.58c2.13,1.99,2.85,3.38,2.85,5.51c0,3.38-2.69,6.12-5.99,6.12
		c-1.41,0-2.97-0.77-4.29-2.11L26.1,24l10.64-10.66C38.04,12.01,39.61,11.25,41.02,11.25"/>
</g>
</svg>
