<svg id="klemmbrett-pikto" xmlns="http://www.w3.org/2000/svg" width="48" height="48" viewBox="0 0 48 48">
  <title>klemmbrett-pikto-form</title>
  <g>
    <rect x="15" y="17.25" width="18" height="1.5" fill="#003cb4"/>
    <rect x="15" y="29.25" width="18" height="1.5" fill="#003cb4"/>
    <rect x="15" y="23.25" width="15" height="1.5" fill="#003cb4"/>
    <path d="M42.75,5.25h-10v-2H27.66A3.59,3.59,0,0,0,24,.25a3.59,3.59,0,0,0-3.66,3H15.25v2h-10v42.5h25.5l12-11Zm-26-.5h5l0-.72a2.25,2.25,0,1,1,4.5,0l0,.72h5v2.5H16.75Zm12.5,30.5v11H6.75V6.75h8.5v2h17.5v-2h8.5v28.5Z" fill="#003cb4"/>
  </g>
</svg>
