<svg id="kompass-pikto" xmlns="http://www.w3.org/2000/svg" width="48" height="48" viewBox="0 0 48 48">
  <title>kompass-pikto-linie</title>
  <circle cx="24" cy="24" r="23.25" fill="none" stroke="#003cb4" stroke-miterlimit="10" stroke-width="1.5"/>
  <line x1="24" y1="0.75" x2="24" y2="5" fill="none" stroke="#003cb4" stroke-miterlimit="10" stroke-width="1.5"/>
  <line x1="7.5" y1="40.5" x2="10.5" y2="37.5" fill="none" stroke="#003cb4" stroke-miterlimit="10" stroke-width="1.5"/>
  <line x1="0.75" y1="24" x2="5" y2="24" fill="none" stroke="#003cb4" stroke-miterlimit="10" stroke-width="1.5"/>
  <line x1="43" y1="24" x2="47.25" y2="24" fill="none" stroke="#003cb4" stroke-miterlimit="10" stroke-width="1.5"/>
  <line x1="10.5" y1="10.5" x2="7.5" y2="7.5" fill="none" stroke="#003cb4" stroke-miterlimit="10" stroke-width="1.5"/>
  <line x1="24" y1="47.25" x2="24" y2="43" fill="none" stroke="#003cb4" stroke-miterlimit="10" stroke-width="1.5"/>
  <line x1="40.5" y1="7.5" x2="37.5" y2="10.5" fill="none" stroke="#003cb4" stroke-miterlimit="10" stroke-width="1.5"/>
  <line x1="37.5" y1="37.5" x2="40.5" y2="40.5" fill="none" stroke="#003cb4" stroke-miterlimit="10" stroke-width="1.5"/>
  <path d="M30.5,9c.48,3,1.44,11.45-1.25,17.25-3.16,6.81-9.45,11.11-11.75,12.5-.52-2.76-1.58-10.59,1.25-17C21.65,15.16,28.11,10.52,30.5,9ZM24,20.25A3.75,3.75,0,1,0,27.75,24,3.75,3.75,0,0,0,24,20.25Z" fill="#00bec8" stroke="#00bec8" stroke-miterlimit="10" stroke-width="1.5"/>
</svg>
