<svg id="kompass-pikto" xmlns="http://www.w3.org/2000/svg" width="48" height="48" viewBox="0 0 48 48">
  <title>kompass-pikto-form</title>
  <g>
    <path d="M24,0A24,24,0,1,0,48,24,24,24,0,0,0,24,0ZM40.42,39.36,38,37,37,38l2.39,2.39a22.4,22.4,0,0,1-14.61,6.06V43h-1.5v3.48A22.4,22.4,0,0,1,8.64,40.42L11,38,10,37,7.58,39.36A22.4,22.4,0,0,1,1.52,24.75H5v-1.5H1.52A22.4,22.4,0,0,1,7.58,8.64L10,11,11,10,8.64,7.58A22.4,22.4,0,0,1,23.25,1.52V5h1.5V1.52A22.4,22.4,0,0,1,39.36,7.58L37,10,38,11l2.39-2.39a22.4,22.4,0,0,1,6.06,14.61H43v1.5h3.48A22.4,22.4,0,0,1,40.42,39.36Z" fill="#003cb4"/>
    <path d="M31.06,7.75l-1,.62c-2.05,1.3-9,6.1-12,13.08-2.89,6.55-1.87,14.38-1.3,17.44L17,40l.93-.56c2.55-1.54,8.82-5.87,12-12.82,2.86-6.17,1.73-15.1,1.31-17.69ZM24,27a3,3,0,1,1,3-3A3,3,0,0,1,24,27Z" fill="#003cb4"/>
  </g>
</svg>
