<svg id="lebensmittel-einkaufen-pikto" xmlns="http://www.w3.org/2000/svg" width="48" height="48" viewBox="0 0 48 48">
  <title>lebensmittel-einkaufen-pikto-form</title>
  <g>
    <path d="M42.19,4.42a2.64,2.64,0,0,0-2.57-.91c-8.93,1.61-13,9.37-14,11.77a8.75,8.75,0,0,0-4.84-3.84V0h-5.5V11.44a8.75,8.75,0,0,0-4.9,3.94l-.07.12h-3V48h33.5V15.5H38.41l4-8.94A2,2,0,0,0,42.19,4.42ZM39.25,17V46.5H8.75V17ZM41.07,5.94l-4.3,9.56H27.15a22.1,22.1,0,0,1,1.59-2.75H33v-1.5H29.84c.34-.42.69-.83,1.08-1.25H35V8.5H32.5A15.76,15.76,0,0,1,39.88,5,1.13,1.13,0,0,1,41,5.34.55.55,0,0,1,41.07,5.94Z" fill="#003cb4"/>
    <path d="M15.25,25.54V27a8.75,8.75,0,0,0,17.5,0V25.54a1.5,1.5,0,1,0-1.5,0V27a7.25,7.25,0,0,1-14.5,0V25.54a1.5,1.5,0,1,0-1.5,0Z" fill="#003cb4"/>
  </g>
</svg>
