<svg id="leistung-pikto" xmlns="http://www.w3.org/2000/svg" width="48" height="48" viewBox="0 0 48 48">
  <title>leistung-pikto-form</title>
  <g>
    <path d="M17.83,27.59a5.39,5.39,0,0,0,4.74,2.93l.51,0c1.93-.2,4.31-1.48,4.67-6.43l1.19-12-8.41,7.81C16.41,23.17,17.07,26.12,17.83,27.59Z" fill="#003cb4"/>
    <path d="M24,.25a23.73,23.73,0,0,0-9.71,45.4A22.57,22.57,0,0,0,19,47.2H19c.49.11,1,.2,1.49.27l.21,0c.45.07.9.12,1.36.15l.31,0c.53,0,1.08.06,1.62.06s.9,0,1.35,0l.46,0,.86-.07.54-.07.79-.12.53-.1c.29-.05.58-.12.87-.19.13,0,.26,0,.38-.09A23.75,23.75,0,0,0,24,.25Zm18.56,36H5.43a20.12,20.12,0,0,1-1.52-2.68,21.92,21.92,0,0,1-2.14-8.82H7v-1.5H1.77a22.09,22.09,0,0,1,6-14.43l3.71,3.71,1.06-1.06L8.82,7.76a22.09,22.09,0,0,1,14.43-6V7h1.5V1.77a22.09,22.09,0,0,1,14.43,6l-3.71,3.71,1.06,1.06,3.71-3.71a22.09,22.09,0,0,1,6,14.43H41v1.5h5.23A22.08,22.08,0,0,1,42.56,36.25Z" fill="#003cb4"/>
  </g>
</svg>
