<svg id="limite-pikto" xmlns="http://www.w3.org/2000/svg" width="48" height="48" viewBox="0 0 48 48">
  <title>limite-pikto-form</title>
  <g>
    <polygon points="2.75 8.25 2.75 2.75 20 2.75 20 1.25 1.25 1.25 1.25 46.75 20 46.75 20 45.25 2.75 45.25 2.75 39.75 20 39.75 20 38.25 2.75 38.25 2.75 32.75 20 32.75 20 31.25 2.75 31.25 2.75 24.75 20 24.75 20 23.25 2.75 23.25 2.75 16.75 46.75 16.75 46.75 8.25 2.75 8.25" fill="#003cb4"/>
    <polygon points="29.47 29.47 30.53 30.53 35.25 25.81 35.25 46 36.75 46 36.75 25.81 41.47 30.53 42.53 29.47 36 22.94 29.47 29.47" fill="#003cb4"/>
  </g>
</svg>
