<svg id="literatur-pikto" xmlns="http://www.w3.org/2000/svg" width="48" height="48" viewBox="0 0 48 48">
  <title>literatur-pikto-form</title>
  <g>
    <path d="M47.89,1,48,0,47,.13C46.42.21,32,2.24,21.78,12.5c-9.65,9.64-12,22.92-12.34,25L0,46.93,1.07,48l9.41-9.4c2.26-.05,15.44-.75,25-10.35C45.78,18,47.81,1.66,47.89,1ZM12.11,37,39.82,9.27,38.74,8.19,11.38,35.55c1-4.51,4-14.5,11.47-22C31.22,5.2,42.78,2.46,46.23,1.81c-.62,3.73-3.32,16.9-11.79,25.37C26.74,34.87,16.36,36.59,12.11,37Z" fill="#003cb4"/>
    <polygon points="41.33 31.75 32.33 31.75 32.33 38.27 25.65 48 48 48 41.33 38.27 41.33 31.75" fill="#003cb4"/>
  </g>
</svg>
