<svg id="maerkte-regionen-pikto" xmlns="http://www.w3.org/2000/svg" width="48" height="48" viewBox="0 0 48 48">
  <title>maerkte-regionen-pikto-form</title>
  <path d="M44.5,18.25A23.9,23.9,0,0,0,37,1l-.53-.5-4,4A17.72,17.72,0,0,0,7.67,29.71L3.45,34l.51.52a23.36,23.36,0,0,0,16.29,7.22V46.5H11V48H31V46.5H21.75V41.72A23.63,23.63,0,0,0,44.5,18.25Zm-23.75,22A21.78,21.78,0,0,1,5.56,34l3.17-3.23A17.72,17.72,0,0,0,33.59,5.53l2.92-3A22.37,22.37,0,0,1,43,18.25,22.15,22.15,0,0,1,20.75,40.25Z" fill="#003cb4"/>
</svg>
