<svg id="maestrokarte-weitere-person-pikto" xmlns="http://www.w3.org/2000/svg" width="48" height="48" viewBox="0 0 48 48">
  <title>maestrokarte-weitere-person-pikto-linie</title>
  <path d="M12,16V4.25A3.06,3.06,0,0,1,14.75,1h29.5A3.06,3.06,0,0,1,47,4.25v19.5A3.06,3.06,0,0,1,44.25,27H20.75" fill="none" stroke="#003cb4" stroke-miterlimit="10" stroke-width="1.5"/>
  <circle cx="39.5" cy="19.5" r="3.5" fill="none" stroke="#003cb4" stroke-miterlimit="10" stroke-width="1.5"/>
  <circle cx="33.5" cy="19.5" r="3.5" fill="#00bec8" stroke="#00bec8" stroke-miterlimit="10" stroke-width="1.5"/>
  <path d="M23,47s0-10-11-10S1,47,1,47Z" fill="none" stroke="#003cb4" stroke-miterlimit="10" stroke-width="1.5"/>
  <circle cx="12" cy="25" r="9" fill="none" stroke="#003cb4" stroke-miterlimit="10" stroke-width="1.5"/>
  <path d="M20.5,22.5A8.64,8.64,0,0,0,12,16a8.86,8.86,0,0,0-8.5,6.75C9.28,25.42,14.72,25.17,20.5,22.5Z" fill="#003cb4" stroke="#003cb4" stroke-miterlimit="10" stroke-width="1.5"/>
  <rect x="12" y="8" width="35" height="4" fill="#003cb4" stroke="#003cb4" stroke-miterlimit="10" stroke-width="1.5"/>
</svg>
