<svg id="maestrokarte-pikto" xmlns="http://www.w3.org/2000/svg" width="48" height="48" viewBox="0 0 48 48">
  <title>maestrokarte-pikto-form</title>
  <g>
    <path d="M43.5,6.75H4.25A4.48,4.48,0,0,0,0,11.5v25a4.48,4.48,0,0,0,4.25,4.75H43.5c2.4,0,4.5-2.34,4.5-5V11.5A4.64,4.64,0,0,0,43.5,6.75Zm3,29.5c0,1.83-1.43,3.5-3,3.5H4.25A3,3,0,0,1,1.5,36.5V21.74h45Zm0-22H1.5V11.5A3,3,0,0,1,4.25,8.25H43.5a3.17,3.17,0,0,1,3,3.25Z" fill="#003cb4"/>
    <path d="M32.5,36.25a5.75,5.75,0,0,0,2.88-.78,5.68,5.68,0,0,0,2.87.78,5.75,5.75,0,0,0,0-11.5,5.68,5.68,0,0,0-2.87.78A5.75,5.75,0,1,0,32.5,36.25Zm10-5.75a4.26,4.26,0,0,1-4.25,4.25,4.07,4.07,0,0,1-1.57-.31,5.73,5.73,0,0,0,0-7.88,4.07,4.07,0,0,1,1.57-.31A4.26,4.26,0,0,1,42.5,30.5Z" fill="#003cb4"/>
  </g>
</svg>
