<svg id="maestrokarte-weitere-person-pikto" xmlns="http://www.w3.org/2000/svg" width="48" height="48" viewBox="0 0 48 48">
  <title>maestrokarte-weitere-person-pikto-form</title>
  <g>
    <path d="M33.5,23.75a4.27,4.27,0,0,0,3-1.24,4.25,4.25,0,1,0,0-6,4.25,4.25,0,1,0-3,7.26Zm6-7a2.75,2.75,0,0,1,0,5.5,2.71,2.71,0,0,1-2.12-1,4.23,4.23,0,0,0,0-3.46A2.71,2.71,0,0,1,39.5,16.75Z" fill="#003cb4"/>
    <path d="M12,36.25C.38,36.25.25,46.89.25,47v.75h23.5V47C23.75,46.89,23.62,36.25,12,36.25Zm-10.2,10C2,44,3.47,37.75,12,37.75S22,44,22.2,46.25Z" fill="#003cb4"/>
    <path d="M44.25.25H14.75a3.78,3.78,0,0,0-3.5,4v11A9.36,9.36,0,0,0,4.53,19a9.5,9.5,0,0,0-2.28,6,9.75,9.75,0,0,0,19.1,2.75h22.9a3.78,3.78,0,0,0,3.5-4V4.25A3.78,3.78,0,0,0,44.25.25ZM12,33.25A8.26,8.26,0,0,1,3.75,25a6.76,6.76,0,0,1,.13-1.27,19.56,19.56,0,0,0,7.72,1.66,21.44,21.44,0,0,0,8.51-1.9A8.25,8.25,0,0,1,12,33.25Zm34.25-9.5a2.32,2.32,0,0,1-2,2.5H21.66A10.36,10.36,0,0,0,21.75,25,9.7,9.7,0,0,0,18,17.31L17.59,17l-.21-.14a9.62,9.62,0,0,0-2.48-1.19h0a8.67,8.67,0,0,0-.84-.22l-.17,0c-.24,0-.49-.09-.74-.12l-.21,0h-.18V12.75h33.5Zm0-16.5H12.75v-3a2.33,2.33,0,0,1,2-2.5h29.5a2.33,2.33,0,0,1,2,2.5Z" fill="#003cb4"/>
  </g>
</svg>
