<svg id="mann-pikto" xmlns="http://www.w3.org/2000/svg" width="48" height="48" viewBox="0 0 48 48">
  <title>mann-pikto-form</title>
  <g>
    <path d="M24,30.75c-18,0-18.25,16.33-18.25,16.5V48h36.5v-.75C42.25,47.08,42,30.75,24,30.75ZM7.28,46.5C7.52,43.43,9.4,32.25,24,32.25S40.47,43.43,40.71,46.5Z" fill="#003cb4"/>
    <path d="M9.75,13.9v.3a14.26,14.26,0,0,0,28.49.85h0v-.8a14.3,14.3,0,0,0-28.5-1.58l-.06.6.06,0C9.74,13.52,9.75,13.71,9.75,13.9Zm9.79,1a26.37,26.37,0,0,0,12.71-3.11,7.68,7.68,0,0,0,4.5,3.15,12.76,12.76,0,0,1-25.5-.7v-.45A31.67,31.67,0,0,0,19.54,14.86Z" fill="#003cb4"/>
  </g>
</svg>
