<svg id="mikrofon-pikto" xmlns="http://www.w3.org/2000/svg" width="48" height="48" viewBox="0 0 48 48">
  <title>mikrofon-pikto-form</title>
  <path d="M9.37,38.81a3.75,3.75,0,0,0,2.5-1.19L33.6,18c.26,0,.51,0,.77,0a8.75,8.75,0,1,0-8.75-8.75,8.31,8.31,0,0,0,.14,1.51l-19,21.83a3.47,3.47,0,0,0-.57,4.6,5.91,5.91,0,0,0-1.35,3.59,6.62,6.62,0,0,0,1.93,4.76,6.09,6.09,0,0,0,4.45,2,6.79,6.79,0,0,0,4.61-1.92l14-12.94a3.58,3.58,0,0,1,4.94,0,3.67,3.67,0,0,1,1,2.65,3.22,3.22,0,0,1-1,2.28l-3,3,1.06,1.06,3-3a4.66,4.66,0,0,0,1.45-3.31,5.19,5.19,0,0,0-1.42-3.72,5.1,5.1,0,0,0-7,0l-14,12.93a4.78,4.78,0,0,1-6.94,0,5.17,5.17,0,0,1-1.53-3.69,4.43,4.43,0,0,1,1-2.59A3.75,3.75,0,0,0,9.37,38.81ZM26.24,12.48a8.78,8.78,0,0,0,5.53,5.13l-6.24,5.64-4.74-4.49ZM7.93,33.58,19.81,19.89l4.6,4.37L10.87,36.51a2.45,2.45,0,0,1-1.5.81,2.17,2.17,0,0,1-2.25-2.24A2.42,2.42,0,0,1,7.93,33.58Z" fill="#003cb4"/>
</svg>
