<svg id="mikrofon-pikto" xmlns="http://www.w3.org/2000/svg" width="48" height="48" viewBox="0 0 48 48">
  <title>mikrofon-pikto-linie</title>
  <path d="M34,17,12,37a3.13,3.13,0,0,1-2,1,2.92,2.92,0,0,1-3-3,3.13,3.13,0,0,1,1-2L27,11" fill="none" stroke="#003cb4" stroke-miterlimit="10" stroke-width="1.5"/>
  <circle cx="35" cy="9" r="8" fill="#00bec8" stroke="#00bec8" stroke-miterlimit="10" stroke-width="1.5"/>
  <path d="M8,37a5.48,5.48,0,0,0,0,8,5.51,5.51,0,0,0,8,0L30,32a4.24,4.24,0,0,1,6,6l-3,3" fill="none" stroke="#003cb4" stroke-miterlimit="10" stroke-width="1.5"/>
  <line x1="20.5" y1="18.75" x2="26" y2="24" fill="none" stroke="#003cb4" stroke-miterlimit="10" stroke-width="1.5"/>
</svg>
