<svg id="militaer-pikto" xmlns="http://www.w3.org/2000/svg" width="48" height="48" viewBox="0 0 48 48">
  <title>militaer-pikto-form</title>
  <g>
    <path d="M24,29.5a12.75,12.75,0,0,0,12.71-12h3.5l-1.46-2.93a14.75,14.75,0,0,0-29.5,0L7.79,17.5h3.5A12.75,12.75,0,0,0,24,29.5ZM21.25,6h5.5V9.75a2.75,2.75,0,0,1-5.5,0ZM24,28A11.26,11.26,0,0,1,12.79,17.5H35.21A11.26,11.26,0,0,1,24,28Z" fill="#003cb4"/>
    <path d="M24,32.5C7.44,32.5,7.25,47.1,7.25,47.25V48h33.5v-.75C40.75,47.1,40.56,32.5,24,32.5ZM8.79,46.5C9,43.67,10.85,34,24,34s15,9.67,15.21,12.5Z" fill="#003cb4"/>
    <path d="M24,11a1.25,1.25,0,0,0,1.25-1.25V7.5h-2.5V9.75A1.25,1.25,0,0,0,24,11Z" fill="#003cb4"/>
  </g>
</svg>
