<svg id="militaer-pikto" xmlns="http://www.w3.org/2000/svg" width="48" height="48" viewBox="0 0 48 48">
  <title>militaer-pikto-linie</title>
  <circle cx="24" cy="17" r="12" fill="none" stroke="#003cb4" stroke-miterlimit="10" stroke-width="1.5"/>
  <path d="M40,47s0-14-16-14S8,47,8,47Z" fill="none" stroke="#003cb4" stroke-miterlimit="10" stroke-width="1.5"/>
  <g>
    <path d="M23.5,10a.5.5,0,0,0,1,0V8.5h-1Z" fill="#00bec8" stroke="#00bec8" stroke-miterlimit="10" stroke-width="1.5"/>
    <path d="M24,1A14,14,0,0,0,10,15L9,17H39l-1-2A14,14,0,0,0,24,1Zm0,12.5A3.5,3.5,0,0,1,20.5,10V5.5h7V10A3.5,3.5,0,0,1,24,13.5Z" fill="#00bec8" stroke="#00bec8" stroke-miterlimit="10" stroke-width="1.5"/>
  </g>
</svg>
