<svg id="mobilitaet-pikto" xmlns="http://www.w3.org/2000/svg" width="48" height="48" viewBox="0 0 48 48">
  <title>mobilitaet-pikto-form</title>
  <g>
    <path d="M42.84,28.06h0L40.7,11.86l-.3-.18c-.22-.14-5.4-3.34-15.16-3.59l3.3-3.55L24,0,19.46,4.54l3.3,3.55C13,8.34,7.82,11.54,7.6,11.68l-.3.18L5.14,28.06h0l-1.4,9.83V38a5,5,0,0,0,5,5.25H15.5l-5.41,3.49L10.91,48l7.36-4.75H29.73L37.09,48l.82-1.26L32.5,43.25H39A5.23,5.23,0,0,0,44.25,38V38ZM21.54,4.58,24,2.12l2.46,2.46L24,7.21ZM8.69,12.78C10,12.09,15.22,9.56,24,9.56s14,2.53,15.31,3.22l1.83,13.78H6.86ZM15.5,37a1.15,1.15,0,0,1-.46.66.27.27,0,0,1-.23.09c-.5-.11-4-1-6.12-1.47a.77.77,0,0,1-.44-.78V34.25A.75.75,0,0,1,9,33.5h5.75a.75.75,0,0,1,.75.75Zm24.25-1.5a.76.76,0,0,1-.43.77c-2.15.53-5.63,1.37-6.13,1.48-.11,0-.13,0-.24-.1A1.13,1.13,0,0,1,32.5,37V34.25a.75.75,0,0,1,.75-.75H39a.76.76,0,0,1,.75.75Z" fill="#003cb4"/>
    <rect x="17.5" y="13.25" width="13" height="1.5" fill="#003cb4"/>
  </g>
</svg>
