<svg id="muffin-pikto" xmlns="http://www.w3.org/2000/svg" width="48" height="48" viewBox="0 0 48 48">
  <title>muffin-pikto-form</title>
  <path d="M37.75,10.25a10.58,10.58,0,0,0-2.66.37A14.7,14.7,0,0,0,23,3.75a14.16,14.16,0,0,0-8.21,2.56A6.66,6.66,0,0,0,12,5.7a6.08,6.08,0,0,0-.61,0A9.39,9.39,0,0,0,.83.21l.34,1.47A8,8,0,0,1,9.89,6a6.75,6.75,0,0,0-4.64,6.41,6.6,6.6,0,0,0,.32,2A8.56,8.56,0,0,0,0,22.5a8,8,0,0,0,7.36,7.73l3,17.77H37.63l3.13-18c4-.85,7.24-4.95,7.24-10C48,14.71,43.31,10.25,37.75,10.25ZM36.37,46.5H11.63l-.8-4.75H37.2Zm2-11.25H9.73l-.84-5H39.2Zm.67-6.5H7.57A6.45,6.45,0,0,1,1.5,22.5a7.12,7.12,0,0,1,4.68-6.65,6.74,6.74,0,1,0,10-8.68A12.77,12.77,0,0,1,23,5.25a13.19,13.19,0,0,1,11.1,6.63l.31.52.57-.19a9.67,9.67,0,0,1,2.77-.46c4.74,0,8.75,3.78,8.75,8.25C46.5,24.13,43.86,28.6,39,28.75Z" fill="#003cb4"/>
</svg>
