<?xml version="1.0" encoding="utf-8"?>
<!-- Generator: Adobe Illustrator 23.1.1, SVG Export Plug-In . SVG Version: 6.00 Build 0)  -->
<svg version="1.1" id="musik-pikto" xmlns="http://www.w3.org/2000/svg" xmlns:xlink="http://www.w3.org/1999/xlink" x="0px"
	 y="0px" viewBox="0 0 48 48" enable-background="new 0 0 48 48" xml:space="preserve">
<title>musik-pikto-linie</title>
<polyline fill="none" stroke="#003CB4" stroke-width="1.5" stroke-miterlimit="10" points="46.75,33.25 46.75,1 14.25,7.75 
	14.25,40.25 "/>
<line fill="none" stroke="#003CB4" stroke-width="1.5" stroke-miterlimit="10" x1="46.75" y1="7.75" x2="14.25" y2="14.5"/>
<line fill="none" stroke="#003CB4" stroke-width="1.5" stroke-miterlimit="10" x1="46.75" y1="14.5" x2="14.25" y2="21.25"/>
<path fill="#00BEC8" stroke="#00BEC8" stroke-width="1.51" stroke-miterlimit="10" d="M7.75,33.5C4.02,33.5,1,36.52,1,40.25
	S4.02,47,7.75,47s6.75-3.02,6.75-6.75C14.49,36.52,11.48,33.51,7.75,33.5z"/>
<path fill="#00BEC8" stroke="#00BEC8" stroke-width="1.51" stroke-miterlimit="10" d="M40,26.5c-3.73,0-6.75,3.02-6.75,6.75
	c0,3.73,3.02,6.75,6.75,6.75s6.75-3.02,6.75-6.75C46.74,29.52,43.73,26.51,40,26.5z"/>
</svg>
