<svg id="nachfolge-pikto" xmlns="http://www.w3.org/2000/svg" width="48" height="48" viewBox="0 0 48 48">
  <title>nachfolge-pikto-form</title>
  <g>
    <path d="M17.88,27.75a13.87,13.87,0,0,0,8.41-2.88,10.24,10.24,0,1,0,10-12.62,10.1,10.1,0,0,0-4.52,1.07A13.87,13.87,0,1,0,17.88,27.75ZM45,22.2c0,.1,0,.2,0,.3a8.75,8.75,0,1,1-16.46-4.14C32,22.76,38.55,24.74,45,22.2ZM5.53,13.37A22.67,22.67,0,0,0,13,14.5a24.47,24.47,0,0,0,12.25-3c.82,1.5,2.92,2.46,4.81,2.85A10.22,10.22,0,0,0,26,22.5c0,.21,0,.42,0,.62A12.32,12.32,0,0,1,5.5,13.88C5.5,13.7,5.52,13.54,5.53,13.37Z" fill="#003cb4"/>
    <path d="M35.75,35.5a13.21,13.21,0,0,0-4.38.76A18.12,18.12,0,0,0,18,30.5C8.08,30.5,0,38,0,47.25V48H48v-.75A12,12,0,0,0,35.75,35.5ZM1.52,46.5c.4-7.61,6.86-13.76,15-14.43L14.68,41l3.07,3.07L20.82,41,19,32.05A16.59,16.59,0,0,1,29.9,36.87a11.75,11.75,0,0,0-6.61,9.63ZM25,46.5h-.22c.41-5.3,5.18-9.5,11-9.5a10.43,10.43,0,0,1,10.72,9.5Z" fill="#003cb4"/>
  </g>
</svg>
