<svg id="nachhaltigkeit-pikto" xmlns="http://www.w3.org/2000/svg" width="48" height="48" viewBox="0 0 48 48">
  <title>nachhaltigkeit-pikto-form</title>
  <g>
    <path d="M17.29,13.9A16.55,16.55,0,0,0,.54,12.32l-.4.17,0,.43A16.94,16.94,0,0,0,22.84,30.84V48h1.5V29.77A17.8,17.8,0,0,0,17.29,13.9Zm5.6,15.34A15.49,15.49,0,0,1,1.55,13.51,14.83,14.83,0,0,1,16.4,15.1,16.33,16.33,0,0,1,22.89,29.24Z" fill="#003cb4"/>
    <path d="M47.37.91,47.24.47,46.79.38C40.7-.8,35.13.78,31.12,4.84a16.55,16.55,0,0,0-4.45,16l.11.42.42.11a17.36,17.36,0,0,0,4.48.6,16.08,16.08,0,0,0,11.5-4.8A16.62,16.62,0,0,0,47.37.91Z" fill="#003cb4"/>
  </g>
</svg>
