<svg id="nashorn-pikto" xmlns="http://www.w3.org/2000/svg" width="48" height="48" viewBox="0 0 48 48">
  <title>nashorn-pikto-form</title>
  <g>
    <path d="M47.93.93,47.86,0,32.67,4.61A9.91,9.91,0,0,0,28,3.5H20a10.14,10.14,0,0,0-4.71,1.1L.14,0,.07.93C-.29,5.7.73,9.53,3,12a9,9,0,0,0,5.34,2.66c-.07.31-.11.5-.11.53-.33,2.53-2,15.44-2,21.05,0,5.08,5.23,7.21,8.29,7.7.71,1,3.25,4,9.46,4s8.76-3,9.46-4c3.07-.5,8.29-2.64,8.29-7.7,0-5.83-1.8-19.53-2-21.15l-.11-.44A9,9,0,0,0,45,12C47.27,9.52,48.29,5.7,47.93.93ZM40.25,36.25c0,5.26-7,6.22-7.34,6.26l-.4.05-.18.36S30.49,46.5,24,46.5s-8.26-3.44-8.33-3.58l-.18-.36-.4-.05c-.3,0-7.34-1-7.34-6.26,0-5.52,1.66-18.34,2-20.87C9.76,15.28,11.77,5,20,5h8c8.09,0,10.18,10,10.26,10.37C38.46,16.91,40.25,30.51,40.25,36.25Z" fill="#003cb4"/>
    <path d="M29.79,27,24,8.49,18.21,27l2.25,6.74h7.08Zm-8.25,5.24L19.79,27,24,13.51,28.21,27l-1.75,5.26Z" fill="#003cb4"/>
    <path d="M13.5,24.25a2.25,2.25,0,1,0,2.25,2.25A2.25,2.25,0,0,0,13.5,24.25Zm0,3a.75.75,0,1,1,.75-.75A.76.76,0,0,1,13.5,27.25Z" fill="#003cb4"/>
    <path d="M34.5,24.25a2.25,2.25,0,1,0,2.25,2.25A2.25,2.25,0,0,0,34.5,24.25Zm0,3a.75.75,0,1,1,.75-.75A.76.76,0,0,1,34.5,27.25Z" fill="#003cb4"/>
    <path d="M18,36.25v1.5A2.25,2.25,0,0,1,20.25,40h1.5A3.75,3.75,0,0,0,18,36.25Z" fill="#003cb4"/>
    <path d="M26.25,40h1.5A2.25,2.25,0,0,1,30,37.75v-1.5A3.75,3.75,0,0,0,26.25,40Z" fill="#003cb4"/>
  </g>
</svg>
