<svg id="nashorn-pikto" xmlns="http://www.w3.org/2000/svg" width="48" height="48" viewBox="0 0 48 48">
  <title>nashorn-pikto-linie</title>
  <path d="M33,5.25,47,1c.36,4.69-.65,8.23-2.75,10.5A8.4,8.4,0,0,1,38.74,14C38.18,12,36.68,7.47,33,5.25Z" fill="#00bec8" stroke="#00bec8" stroke-miterlimit="10" stroke-width="1.5"/>
  <path d="M15,5.25,1,1C.64,5.68,1.65,9.23,3.75,11.5A8.38,8.38,0,0,0,9.25,14C9.81,12,11.32,7.48,15,5.25Z" fill="#00bec8" stroke="#00bec8" stroke-miterlimit="10" stroke-width="1.5"/>
  <path d="M20,4C11.11,4,9,14.89,9,15c-.08.58-2,15.05-2,21s8,7,8,7,2,4,9,4,9-4,9-4,8-1,8-7-2-20.85-2-21S36.83,4,28,4Z" fill="none" stroke="#003cb4" stroke-miterlimit="10" stroke-width="1.5"/>
  <path d="M21,33h6l2-6L24,11,19,27Z" fill="none" stroke="#003cb4" stroke-miterlimit="10" stroke-width="1.5"/>
  <circle cx="13.5" cy="26.5" r="1.5" fill="none" stroke="#003cb4" stroke-miterlimit="10" stroke-width="1.5"/>
  <circle cx="34.5" cy="26.5" r="1.5" fill="none" stroke="#003cb4" stroke-miterlimit="10" stroke-width="1.5"/>
  <path d="M18,37a3,3,0,0,1,3,3" fill="none" stroke="#003cb4" stroke-miterlimit="10" stroke-width="1.5"/>
  <path d="M30,37a3,3,0,0,0-3,3" fill="none" stroke="#003cb4" stroke-miterlimit="10" stroke-width="1.5"/>
</svg>
