<svg id="natur-pikto" xmlns="http://www.w3.org/2000/svg" width="48" height="48" viewBox="0 0 48 48">
  <title>natur-pikto-form</title>
  <g>
    <path d="M47.75,9.53A8,8,0,0,0,40,1a17.72,17.72,0,0,0-4.39.75H12.37A17.88,17.88,0,0,0,8,1H8A8,8,0,0,0,.25,9.53c.07,2.17,1.71,5,3.33,6.63A16.15,16.15,0,0,0,1.5,24.5C1.5,37.38,13.38,47,24,47a22,22,0,0,0,16.08-7.29A23.13,23.13,0,0,0,46.5,24.54a16.71,16.71,0,0,0-2.16-8.3C46,14.64,47.67,11.73,47.75,9.53ZM45,24.5a21.62,21.62,0,0,1-6,14.19A20.47,20.47,0,0,1,24,45.5c-9.91,0-21-9-21-21.06a14.57,14.57,0,0,1,1.9-7.57c2-3.61,6.93-11.8,8-13.62H35.07C36.15,5.08,41,13.25,43,16.84A15.34,15.34,0,0,1,45,24.5Z" fill="#003cb4"/>
    <path d="M24,14.75c-4.37,0-9.75,6.48-9.75,11.75v1.25A6.76,6.76,0,0,0,21,34.5h6a6.76,6.76,0,0,0,6.75-6.75V26.5C33.75,21.23,28.37,14.75,24,14.75Zm8.25,13A5.26,5.26,0,0,1,27,33H21a5.26,5.26,0,0,1-5.25-5.25V26.5c0-4.5,4.63-10.25,8.25-10.25S32.25,22,32.25,26.5Z" fill="#003cb4"/>
    <rect x="20" y="28.75" width="8" height="1.5" fill="#003cb4"/>
    <path d="M24,24.52a2,2,0,1,0-2-2A2,2,0,0,0,24,24.52Z" fill="#003cb4"/>
  </g>
</svg>
