<svg id="natur-pikto" xmlns="http://www.w3.org/2000/svg" width="48" height="48" viewBox="0 0 48 48">
  <title>natur-pikto-linie</title>
  <path d="M35.75,2.5c1,1.73,5.56,9.63,7.75,13.5,1.62-1.38,3.43-4.37,3.5-6.5a7.26,7.26,0,0,0-7-7.75A16.63,16.63,0,0,0,35.75,2.5Z" fill="#00bec8" stroke="#00bec8" stroke-miterlimit="10" stroke-width="1.5"/>
  <path d="M8,1.75A7.26,7.26,0,0,0,1,9.5c.07,2.13,1.88,5.12,3.5,6.5,2.19-3.87,6.73-11.77,7.75-13.5A16.63,16.63,0,0,0,8,1.75Z" fill="#00bec8" stroke="#00bec8" stroke-miterlimit="10" stroke-width="1.5"/>
  <path d="M24,15.5c-4,0-9,6.06-9,11v1.25a6,6,0,0,0,6,6h6a6,6,0,0,0,6-6V26.5C33,21.56,28,15.5,24,15.5Z" fill="none" stroke="#003cb4" stroke-miterlimit="10" stroke-width="1.5"/>
  <path d="M12.5,2.5s-5.95,9.89-8.25,14a15.4,15.4,0,0,0-2,8C2.25,37,13.74,46.25,24,46.25a21.19,21.19,0,0,0,15.53-7,22.43,22.43,0,0,0,6.22-14.7,16.07,16.07,0,0,0-2.14-8c-2.29-4.09-8.11-14-8.11-14Z" fill="none" stroke="#003cb4" stroke-miterlimit="10" stroke-width="1.5"/>
  <line x1="28" y1="29.5" x2="20" y2="29.5" fill="none" stroke="#003cb4" stroke-miterlimit="10" stroke-width="1.5"/>
  <path d="M24,21.25a1.25,1.25,0,1,0,1.25,1.25A1.25,1.25,0,0,0,24,21.25Z" fill="#003cb4" stroke="#003cb4" stroke-miterlimit="10" stroke-width="1.54"/>
</svg>
