<svg id="negativ-pikto" xmlns="http://www.w3.org/2000/svg" width="48" height="48" viewBox="0 0 48 48">
  <title>negativ-pikto-form</title>
  <g>
    <path d="M13,36,14,37A14.11,14.11,0,0,1,34,37L35,36A15.62,15.62,0,0,0,13,36Z" fill="#003cb4"/>
    <path d="M47.6,21.37h0l-.13-1A23.11,23.11,0,0,0,27.76.55c-.44-.07-.89-.13-1.34-.18l-.5,0C25.28.28,24.65.25,24,.25s-1.15,0-1.71.07l-.45,0c-.51.05-1,.11-1.52.19l-.67.12-.79.16A23.53,23.53,0,0,0,1.73,15.74l-.18.51c-.09.26-.19.52-.27.78l-.19.64h0A23.52,23.52,0,0,0,.25,24a23.75,23.75,0,0,0,47.5,0A22.8,22.8,0,0,0,47.6,21.37ZM24,46.25A22.25,22.25,0,0,1,2.49,18.31c6,2.78,17.86,5.74,33.22-2.79,2.5,3.94,8.45,5.29,10.35,5.63A22.2,22.2,0,0,1,24,46.25Z" fill="#003cb4"/>
  </g>
</svg>
