<svg id="neutrale-gruppe-pikto" xmlns="http://www.w3.org/2000/svg" width="48" height="48" viewBox="0 0 48 48">
  <title>neutrale-gruppe-pikto-linie</title>
  <path d="M35,28H47s0-8-10-8a11.87,11.87,0,0,0-6,1.37" fill="none" stroke="#003cb4" stroke-miterlimit="10" stroke-width="1.5"/>
  <path d="M44.5,7A7.81,7.81,0,0,0,37,1a8.1,8.1,0,0,0-7.75,6A17.24,17.24,0,0,0,44.5,7Z" fill="#00bec8" stroke="#00bec8" stroke-miterlimit="10" stroke-width="1.5"/>
  <path d="M19,28c-1.42-1.61-3.85-3-8-3C1,25,1,33,1,33H21" fill="none" stroke="#003cb4" stroke-miterlimit="10" stroke-width="1.5"/>
  <path d="M18.5,12A7.81,7.81,0,0,0,11,6a8.1,8.1,0,0,0-7.75,6A17.24,17.24,0,0,0,18.5,12Z" fill="#00bec8" stroke="#00bec8" stroke-miterlimit="10" stroke-width="1.5"/>
  <path d="M37,47s0-8-10-8-10,8-10,8Z" fill="none" stroke="#003cb4" stroke-miterlimit="10" stroke-width="1.5"/>
  <path d="M34.5,26A7.81,7.81,0,0,0,27,20a8.1,8.1,0,0,0-7.75,6A17.24,17.24,0,0,0,34.5,26Z" fill="#00bec8" stroke="#00bec8" stroke-miterlimit="10" stroke-width="1.5"/>
  <circle cx="11" cy="14" r="8" fill="none" stroke="#00bec8" stroke-miterlimit="10" stroke-width="1.5"/>
  <circle cx="26.99" cy="28" r="8" fill="none" stroke="#00bec8" stroke-miterlimit="10" stroke-width="1.5"/>
  <circle cx="37" cy="9" r="8" fill="none" stroke="#00bec8" stroke-miterlimit="10" stroke-width="1.5"/>
</svg>
