<svg id="neutrale-person-pikto" xmlns="http://www.w3.org/2000/svg" width="48" height="48" viewBox="0 0 48 48">
  <title>neutrale-person-pikto-form</title>
  <g>
    <path d="M24,30.75C6.45,30.75,6.25,46.34,6.25,46.5v.75h35.5V46.5C41.75,46.34,41.55,30.75,24,30.75Zm-16.21,15c.25-3,2.14-13.5,16.21-13.5s16,10.53,16.21,13.5Z" fill="#003cb4"/>
    <path d="M24,28.75A14.25,14.25,0,1,0,9.75,14.5,14.26,14.26,0,0,0,24,28.75ZM11.49,12a30.4,30.4,0,0,0,12.26,2.74,30.68,30.68,0,0,0,12.71-2.94,12.41,12.41,0,0,1,.29,2.67,12.75,12.75,0,0,1-25.5,0A13.43,13.43,0,0,1,11.49,12Z" fill="#003cb4"/>
  </g>
</svg>
