<svg id="neutrale-gruppe-pikto" xmlns="http://www.w3.org/2000/svg" width="48" height="48" viewBox="0 0 48 48">
  <title>neutrale-gruppe-pikto-form</title>
  <g>
    <path d="M37,19.25a13.24,13.24,0,0,0-5.69,1.15A8.62,8.62,0,0,0,27,19.25a8.76,8.76,0,0,0-8.6,7.17A11.76,11.76,0,0,0,11,24.25C.37,24.25.25,32.91.25,33v.75H20.42a8.73,8.73,0,0,0,15.29-5h12V28C47.75,27.91,47.63,19.25,37,19.25Zm-35.18,13c.27-1.86,1.71-6.5,9.18-6.5,3.23,0,5.66.87,7.27,2.57a8.59,8.59,0,0,0,1.09,3.93Zm25.18,3a7.19,7.19,0,0,1-7.18-8.19,18.31,18.31,0,0,0,7.06,1.47A18.52,18.52,0,0,0,34.17,27a7.17,7.17,0,0,1,.08,1A7.26,7.26,0,0,1,27,35.25Zm8.71-8a8.75,8.75,0,0,0-3-5.84A12.79,12.79,0,0,1,37,20.75c7.43,0,8.89,4.64,9.18,6.5Z" fill="#003cb4"/>
    <path d="M27,38.25c-10.63,0-10.75,8.66-10.75,8.75v.75h21.5V47C37.75,46.91,37.63,38.25,27,38.25Zm-9.18,8c.27-1.86,1.71-6.5,9.18-6.5s8.89,4.64,9.18,6.5Z" fill="#003cb4"/>
    <path d="M11,22.75A8.75,8.75,0,1,0,2.25,14,8.76,8.76,0,0,0,11,22.75ZM3.82,13.06a18.31,18.31,0,0,0,7.06,1.47A18.52,18.52,0,0,0,18.17,13a7.17,7.17,0,0,1,.08,1,7.25,7.25,0,1,1-14.43-.94Z" fill="#003cb4"/>
    <path d="M37,17.75A8.75,8.75,0,1,0,28.25,9,8.76,8.76,0,0,0,37,17.75ZM29.82,8.06a18.31,18.31,0,0,0,7.06,1.47A18.52,18.52,0,0,0,44.17,8a7.17,7.17,0,0,1,.08,1,7.25,7.25,0,1,1-14.43-.94Z" fill="#003cb4"/>
  </g>
</svg>
