<svg id="nutztier-pikto" xmlns="http://www.w3.org/2000/svg" width="48" height="48" viewBox="0 0 48 48">
  <title>nutztier-pikto-form</title>
  <g>
    <path d="M48,11.17l-.06-.67H38.19a3.06,3.06,0,0,0,.56-1.75V0h-1.5V8.75a1.91,1.91,0,0,1-2,1.75H12.75a1.91,1.91,0,0,1-2-1.75V0H9.25V8.75a3.06,3.06,0,0,0,.56,1.75H.08L0,11.18a6.89,6.89,0,0,0,1.7,5c1.44,1.58,3.63,2.44,6.53,2.56V40a8.14,8.14,0,0,0,8.25,8h15a8.14,8.14,0,0,0,8.25-8V18.72c2.9-.12,5.1-1,6.53-2.56A6.9,6.9,0,0,0,48,11.17ZM31.5,46.5h-15A6.72,6.72,0,0,1,9.75,40a6.92,6.92,0,0,1,6.75-6.75h15A6.92,6.92,0,0,1,38.25,40,6.72,6.72,0,0,1,31.5,46.5Zm0-14.75h-15a8.32,8.32,0,0,0-6.75,3.58V18.75h0V12H38.25v6.75h0V35.33A8.32,8.32,0,0,0,31.5,31.75Z" fill="#003cb4"/>
    <path d="M18,37a3,3,0,1,0,3,3A3,3,0,0,0,18,37Zm0,4.5A1.5,1.5,0,1,1,19.5,40,1.5,1.5,0,0,1,18,41.5Z" fill="#003cb4"/>
    <path d="M30,37a3,3,0,1,0,3,3A3,3,0,0,0,30,37Zm0,4.5A1.5,1.5,0,1,1,31.5,40,1.5,1.5,0,0,1,30,41.5Z" fill="#003cb4"/>
  </g>
</svg>
