<?xml version="1.0" encoding="utf-8"?>
<!-- Generator: Adobe Illustrator 23.1.1, SVG Export Plug-In . SVG Version: 6.00 Build 0)  -->
<svg version="1.1" id="ohr-pikto" xmlns="http://www.w3.org/2000/svg" xmlns:xlink="http://www.w3.org/1999/xlink" x="0px" y="0px"
	 viewBox="0 0 48 48" enable-background="new 0 0 48 48" xml:space="preserve">
<title>ohr-pikto-linie</title>
<path fill="#00BEC8" stroke="#00BEC8" stroke-width="1.5" stroke-miterlimit="10" d="M18,17c3.31,0,6,2.69,6,6c0,3.31-3,6-7,5l2-4
	c0,0-4-2.34-4-4C15,18.34,16.34,17,18,17"/>
<path fill="none" stroke="#003CB4" stroke-width="1.5" stroke-miterlimit="10" d="M8,22v-5C8.12,8.21,15.22,1.12,24,1
	c8.78,0.12,15.88,7.22,16,16c0,10.53-5.73,16.71-12,22c0.13,4.28-3.23,7.87-7.51,8C20.33,47,20.16,47,20,47
	c-4.28,0.13-7.87-3.23-8-7.51c-0.01-0.16-0.01-0.33,0-0.49"/>
<path fill="none" stroke="#003CB4" stroke-width="1.5" stroke-miterlimit="10" d="M14,18c0-5.52,4.48-10,10-10s10.13,4.48,10,10
	c-0.05,2.15-0.8,4.22-2,6"/>
<path fill="none" stroke="#003CB4" stroke-width="1.5" stroke-miterlimit="10" d="M22,31c0,1.66-1.34,3-3,3s-3-1.34-3-3c0-3,4-6,1-8
	c-1.88-0.95-3.05-2.89-3-5c0-2.76,2.24-5,5-5c2.4-0.01,4.48,1.66,5,4"/>
</svg>
