<svg id="partnerschaft-pikto" xmlns="http://www.w3.org/2000/svg" width="48" height="48" viewBox="0 0 48 48">
  <title>partnerschaft-pikto-form</title>
  <g>
    <path d="M48,43.5l0-.77c0-.14-.56-14-16-14-5,0-8.66,1.32-11.3,4-.34-.09-.69-.17-1.06-.24a22.66,22.66,0,0,0-4.14-.26c-4.85,0-8.69,1.38-11.41,4.11A15.11,15.11,0,0,0,0,46.25V47H31v-.74a14.38,14.38,0,0,0-.34-2.76ZM32,30.25c12.08,0,14.09,9,14.43,11.75H30.26a13.11,13.11,0,0,0-8-8.72C24.63,31.25,27.8,30.25,32,30.25ZM1.54,45.5a13.51,13.51,0,0,1,3.61-8.08c2.42-2.44,5.9-3.67,10.34-3.67a21.09,21.09,0,0,1,3.86.24c8.63,1.67,9.92,9.1,10.11,11.51Z" fill="#003cb4"/>
    <path d="M15.49,29.25a11.93,11.93,0,0,0,10-5.45A11.16,11.16,0,0,0,32,25.75a12.1,12.1,0,0,0,5.86-1.5h6.38V13.7h0c0-.07,0-.13,0-.2A12.24,12.24,0,0,0,21.68,6.9a12.23,12.23,0,0,0-6.19-1.65A11.75,11.75,0,0,0,3.5,17,12.14,12.14,0,0,0,15.49,29.25ZM29.62,6.69c2,4.67,6.38,7.12,13.09,7.29A10.75,10.75,0,0,1,32,24.25a9.76,9.76,0,0,1-5.79-1.76A12.29,12.29,0,0,0,27.49,17a11.64,11.64,0,0,0-1.94-6.48A10.49,10.49,0,0,0,29.62,6.69ZM5,16.47a20.6,20.6,0,0,0,7,1.28A22,22,0,0,0,22.23,15.5,5.66,5.66,0,0,0,26,17.66,10.76,10.76,0,0,1,15.49,27.75,10.76,10.76,0,0,1,5,17C5,16.82,5,16.65,5,16.47Z" fill="#003cb4"/>
  </g>
</svg>
