<svg id="partnerschaft-frau-frau-pikto" xmlns="http://www.w3.org/2000/svg" width="48" height="48" viewBox="0 0 48 48">
  <title>partnerschaft-frau-frau-pikto-form</title>
  <g>
    <path d="M30.79,43.5H48l0-.77c0-.14-.56-14-16-14-5.11,0-8.89,1.39-11.55,4.24l.1.09a20.62,20.62,0,0,0-5.05-.58c-4.9,0-8.76,1.39-11.48,4.13a15,15,0,0,0-4,9.88v.74H31.26v-.76A14.74,14.74,0,0,0,30.79,43.5ZM32,30.25c12.09,0,14.1,9,14.44,11.75H30.34a13.4,13.4,0,0,0-8.29-8.46C24.38,31.34,27.64,30.25,32,30.25ZM1.54,45.75A13.52,13.52,0,0,1,5.1,37.68C7.52,35.24,11,34,15.5,34c12.1,0,13.93,9,14.2,11.75Z" fill="#003cb4"/>
    <path d="M15.5,29.5A12.16,12.16,0,0,0,21.37,28h6.38V25a12.12,12.12,0,0,0,10.12-.72h6.38V13.48A12.16,12.16,0,0,0,21.87,6.85a12.24,12.24,0,0,0-6.37-1.8A12.48,12.48,0,0,0,3.26,17.28V28H9.63A12.16,12.16,0,0,0,15.5,29.5ZM29.63,6.66c2,4.68,6.39,7.12,13.1,7.3A10.76,10.76,0,0,1,32,24.23a10.61,10.61,0,0,1-4.25-.9V17.26a12.11,12.11,0,0,0-2.09-6.82h0A10.45,10.45,0,0,0,29.63,6.66ZM24.88,9.43a1.07,1.07,0,0,0-.14-.16A1.07,1.07,0,0,1,24.88,9.43Zm-.9-1-.09-.09ZM23,7.6l0,0ZM6.7,23.4a11.86,11.86,0,0,1-1.94-6.29,10.15,10.15,0,0,1,.12-1.46,11.29,11.29,0,0,0,8.25-5.21c2,4.67,6.39,7.12,13.1,7.29A10.73,10.73,0,0,1,6.7,23.4Z" fill="#003cb4"/>
  </g>
</svg>
