<svg id="partnerschaft-mann-mann-pikto" xmlns="http://www.w3.org/2000/svg" width="48" height="48" viewBox="0 0 48 48">
  <title>partnerschaft-mann-mann-pikto-form</title>
  <g>
    <path d="M48,42.25a15.09,15.09,0,0,0-4.09-9.89c-2.71-2.73-6.55-4.11-11.41-4.11-4,0-7,.76-9.42,2.38a17.76,17.76,0,0,0-2.6,2.07l-.84-.19a22.66,22.66,0,0,0-4.14-.26c-4.86,0-8.7,1.38-11.41,4.11A15.09,15.09,0,0,0,0,46.25V47H31v-.74A15.08,15.08,0,0,0,30.55,43H48ZM1.54,45.5a13.57,13.57,0,0,1,3.61-8.08c2.42-2.44,5.9-3.67,10.35-3.67a21.15,21.15,0,0,1,3.86.24c8.63,1.67,9.92,9.1,10.11,11.51Zm28.57-4a13,13,0,0,0-8-8.29,21.36,21.36,0,0,1,1.79-1.34c2.13-1.45,4.86-2.12,8.58-2.12,4.44,0,7.92,1.23,10.34,3.66a13.54,13.54,0,0,1,3.61,8.09Z" fill="#003cb4"/>
    <path d="M15.5,29.25a12,12,0,0,0,10.24-5.89A14.08,14.08,0,0,0,32.25,25a12,12,0,0,0,0-24A11.61,11.61,0,0,0,21.84,7,12.24,12.24,0,0,0,15.5,5.25,11.75,11.75,0,0,0,3.5,17,12.14,12.14,0,0,0,15.5,29.25ZM39.23,11a5.39,5.39,0,0,0,3.49,2.66A10.51,10.51,0,0,1,32.25,23.5,12.52,12.52,0,0,1,26.43,22a12.42,12.42,0,0,0,1.07-5A11.9,11.9,0,0,0,27,13.65a18.89,18.89,0,0,0,2,.1A21.65,21.65,0,0,0,39.23,11ZM5,16.47a20.52,20.52,0,0,0,7,1.28A22,22,0,0,0,22.24,15.5,5.66,5.66,0,0,0,26,17.66,10.76,10.76,0,0,1,15.5,27.75,10.77,10.77,0,0,1,5,17C5,16.82,5,16.65,5,16.47Z" fill="#003cb4"/>
  </g>
</svg>
