<svg id="partnerschaft-mann-mann-pikto" xmlns="http://www.w3.org/2000/svg" width="48" height="48" viewBox="0 0 48 48">
  <title>partnerschaft-mann-mann-pikto-linie</title>
  <path d="M21.75,9.25a11.09,11.09,0,0,1,10.5-7.5,11.25,11.25,0,0,1,0,22.5,13,13,0,0,1-6.5-1.75" fill="none" stroke="#003cb4" stroke-miterlimit="10" stroke-width="1.5"/>
  <path d="M32.5,1.75A11.34,11.34,0,0,0,21.25,11.5,21.68,21.68,0,0,0,29,13a21.17,21.17,0,0,0,10.5-3c.82,1.51,2,2.81,3.75,3C43.23,6.83,38.65,1.75,32.5,1.75Z" fill="#003cb4" stroke="#003cb4" stroke-miterlimit="10" stroke-width="1.5"/>
  <path d="M29.5,42.25H47.25S47.31,29,32.5,29c-4.06,0-6.86.8-9,2.25a14.52,14.52,0,0,0-2.75,2.25" fill="none" stroke="#003cb4" stroke-miterlimit="10" stroke-width="1.5"/>
  <path d="M.75,46.25S.69,33,15.5,33a21.73,21.73,0,0,1,4,.25c10.88,2.11,10.75,13,10.75,13Z" fill="none" stroke="#00bec8" stroke-miterlimit="10" stroke-width="1.5"/>
  <path d="M26.75,17A11.46,11.46,0,0,1,15.5,28.5,11.46,11.46,0,0,1,4.25,17,11,11,0,0,1,15.5,6,11,11,0,0,1,26.75,17Z" fill="none" stroke="#00bec8" stroke-miterlimit="3" stroke-width="1.5"/>
  <path d="M15,6C9.32,6,5.2,10,4.5,15.5A20.35,20.35,0,0,0,12,17a20.8,20.8,0,0,0,10.5-2.5,4.86,4.86,0,0,0,4,2.5C26.48,10.83,21.15,6,15,6Z" fill="#00bec8" stroke="#00bec8" stroke-miterlimit="10" stroke-width="1.5"/>
</svg>
