<svg id="pavillion-pikto" xmlns="http://www.w3.org/2000/svg" width="48" height="48" viewBox="0 0 48 48">
  <title>pavillion-pikto-form</title>
  <g>
    <path d="M44.75,39.75V13.67L30.13.1,14.69,7.82C14.26,6.45,13,2.57,13,2.57s-1.6,4.94-2.32,7.25L3.25,13.54V39.75Zm-9.5-1.5h-8.5V22.75h8.5Zm-30.5,0V14.46l5.31-2.65C8.32,17.5,6.25,24.67,6.25,26.75a6.91,6.91,0,0,0,6,7v4.55Zm9-4.55a6.91,6.91,0,0,0,6-7c0-2.4-2.76-11.61-4.6-17.48L29.87,1.9,43.25,14.33V38.25h-6.5v-17H25.25v17H13.75Z" fill="#003cb4"/>
    <rect x="2" y="42.5" width="44" height="1.5" fill="#003cb4"/>
    <rect y="46.5" width="48" height="1.5" fill="#003cb4"/>
  </g>
</svg>
