<svg id="peacezeichen-pikto" xmlns="http://www.w3.org/2000/svg" width="48" height="48" viewBox="0 0 48 48">
  <title>peacezeichen-pikto-form</title>
  <path d="M46.66,2.62A6.14,6.14,0,0,0,38.56,1,5.37,5.37,0,0,0,36,4.61L32.61,22.5,29,4.61A5.37,5.37,0,0,0,26.44,1,6.19,6.19,0,0,0,22.11.26a5.9,5.9,0,0,0-4.85,6.63l1.86,9.42a5.56,5.56,0,0,0-2.37-.56H16a5.45,5.45,0,0,0-4.75,2.86A5.47,5.47,0,0,0,6.5,15.75h-1A5.64,5.64,0,0,0,0,21.5V48H44.5V30.75a5.66,5.66,0,0,0-1-3.12l4.2-20.74A5.33,5.33,0,0,0,46.66,2.62Zm-27.92,4a4.42,4.42,0,0,1,3.65-4.87A4.3,4.3,0,0,1,27.51,4.9L31.58,25H22.36ZM12,21.5a4.13,4.13,0,0,1,4-4.25h.75a4.33,4.33,0,0,1,2.77,1.12l1.33,6.75a5.84,5.84,0,0,0-4.6,5.63v1a5.23,5.23,0,0,0,.22,1.5H16A4.13,4.13,0,0,1,12,29Zm-10.5,0a4.09,4.09,0,0,1,4-4.25h1a4.09,4.09,0,0,1,4,4.25V29a4.09,4.09,0,0,1-4,4.25h-1A4.09,4.09,0,0,1,1.5,29Zm0,20V32.93a5.35,5.35,0,0,0,4,1.82h1a5.47,5.47,0,0,0,4.75-2.86A5.45,5.45,0,0,0,16,34.75h1.22A5.83,5.83,0,0,0,22,37h8.25V35.5H22c-2.11,0-4.25-1.29-4.25-3.75v-1A4.31,4.31,0,0,1,22,26.5H38.75A4.33,4.33,0,0,1,43,30.75V41.5ZM46.26,6.6l-4,19.66A5.72,5.72,0,0,0,38.75,25H33.66L37.49,4.89a3.86,3.86,0,0,1,1.84-2.56,4.67,4.67,0,0,1,3.28-.59,4.77,4.77,0,0,1,2.86,1.79A3.82,3.82,0,0,1,46.26,6.6Z" fill="#003cb4"/>
</svg>
