<?xml version="1.0" encoding="utf-8"?>
<!-- Generator: Adobe Illustrator 23.1.1, SVG Export Plug-In . SVG Version: 6.00 Build 0)  -->
<svg version="1.1" id="peacezeichen-pikto" xmlns="http://www.w3.org/2000/svg" xmlns:xlink="http://www.w3.org/1999/xlink" x="0px"
	 y="0px" viewBox="0 0 48 48" enable-background="new 0 0 48 48" xml:space="preserve">
<title>peacezeichen-pikto-linie</title>
<line fill="none" stroke="#003CB4" stroke-width="1.5" stroke-miterlimit="10" x1="0.75" y1="29" x2="0.75" y2="48"/>
<path fill="none" stroke="#003CB4" stroke-width="1.5" stroke-miterlimit="10" d="M11.25,29c0.08,2.68-2.24,5-5.43,5
	c-2.68,0-5.13-2.28-5.07-4.97c0-0.01,0-0.02,0-0.03v-7.5c-0.08-2.68,2.36-5,5.25-5c2.75,0,5.31,2.28,5.25,4.97c0,0.01,0,0.02,0,0.03
	V29z"/>
<path fill="none" stroke="#003CB4" stroke-width="1.5" stroke-miterlimit="10" d="M43.65,31.05L43.65,31.05"/>
<path fill="none" stroke="#003CB4" stroke-width="1.5" stroke-miterlimit="10" d="M21.74,25.75L18,6.75C17.65,4,19.52,1.47,22.25,1
	l0,0c2.68-0.58,5.34,1.08,6,3.75l4.25,21"/>
<path fill="none" stroke="#003CB4" stroke-width="1.5" stroke-miterlimit="10" d="M17.5,34c0,0-0.75,0-1.75,0
	c-2.68,0-4.56-2.28-4.5-4.97c0-0.01,0-0.02,0-0.03v-7.5c-0.08-2.68,2.03-4.92,4.72-5c0.01,0,0.02,0,0.03,0h0.75
	c1.32,0.03,2.57,0.57,3.5,1.5"/>
<path fill="none" stroke="#003CB4" stroke-width="1.5" stroke-miterlimit="10" d="M42.75,27.75l4.25-21C47.35,4,45.48,1.47,42.75,1
	l0,0c-2.68-0.58-5.34,1.08-6,3.75l-4,21"/>
<path fill="none" stroke="#003CB4" stroke-width="1.5" stroke-miterlimit="10" d="M30.25,36.25H22c-2.71,0-5-1.79-5-4.5v-1
	c0.04-2.75,2.25-4.96,5-5h16.75c2.75,0.04,4.96,2.25,5,5V48"/>
<rect x="0.75" y="42.25" fill="#00BEC8" stroke="#00BEC8" stroke-width="1.5" stroke-miterlimit="10" width="43" height="5"/>
</svg>
