<svg id="picknick-korb-pikto" xmlns="http://www.w3.org/2000/svg" width="48" height="48" viewBox="0 0 48 48">
  <title>picknick-korb-pikto-form</title>
  <path d="M40.63,21.25l3.8-8.94a2,2,0,0,0-.24-2.14,2.64,2.64,0,0,0-2.57-.91c-9.2,1.65-13.23,9.86-14.13,12h-.74V.25h-5.5V19.09a8.76,8.76,0,0,0-5.5-5.4V2.25h-5.5V13.69a8.77,8.77,0,0,0-6,7.56h-4v7.5H3.39l4,19H40.61l4-19h3.14v-7.5Zm-10.07-2.5H35v-1.5H31.63q.59-.75,1.29-1.5H37v-1.5H34.5a15.71,15.71,0,0,1,7.38-3.51,1.13,1.13,0,0,1,1.12.35.55.55,0,0,1,.06.62L39,21.25H29.15A22.68,22.68,0,0,1,30.56,18.75Zm-7.81-17h2.5v19.5h-2.5Zm16.64,44.5H8.61L4.92,28.75H43.08Zm6.86-19H1.75v-4.5h44.5Z" fill="#003cb4"/>
</svg>
