<svg id="pipeline-pikto" xmlns="http://www.w3.org/2000/svg" width="48" height="48" viewBox="0 0 48 48">
  <title>pipeline-pikto-form</title>
  <path d="M44.75,44.75V32.5a13.77,13.77,0,0,0-13.5-13.74v-3h-4.5v-9h8v-5H13.25v5h8v9h-4.5v3A13.77,13.77,0,0,0,3.25,32.5V44.75H0v1.5H17v-1.5H13.75V33.5A3.26,3.26,0,0,1,17,30.25H31a3.26,3.26,0,0,1,3.25,3.25V44.75H31v1.5H48v-1.5ZM12.25,33.5V44.75H4.75V32.5a12.26,12.26,0,0,1,12-12.24v8.51A4.76,4.76,0,0,0,12.25,33.5Zm31,11.25h-7.5V33.5a4.76,4.76,0,0,0-4.5-4.73V20.26a12.26,12.26,0,0,1,12,12.24Z" fill="#003cb4"/>
</svg>
