<svg id="pizza-pikto" xmlns="http://www.w3.org/2000/svg" width="48" height="48" viewBox="0 0 48 48">
  <title>pizza-pikto-linie</title>
  <path d="M16.5,17a3.25,3.25,0,1,0,3.25,3.25A3.26,3.26,0,0,0,16.5,17Z" fill="#00bec8" stroke="#00bec8" stroke-miterlimit="10" stroke-width="1.5"/>
  <path d="M19.5,32a3.25,3.25,0,1,0,3.25,3.25A3.28,3.28,0,0,0,19.5,32Z" fill="#00bec8" stroke="#00bec8" stroke-miterlimit="10" stroke-width="1.5"/>
  <path d="M30,23a3,3,0,1,0,3,3A3,3,0,0,0,30,23Z" fill="#00bec8" stroke="#00bec8" stroke-miterlimit="10" stroke-width="1.5"/>
  <path d="M17.5,7.25a43.25,43.25,0,0,1,23.25,23.5" fill="none" stroke="#003cb4" stroke-miterlimit="10" stroke-width="1.5"/>
  <path d="M1.5,46.5,47,28.25A50.28,50.28,0,0,0,20,1Z" fill="none" stroke="#003cb4" stroke-miterlimit="10" stroke-width="1.5"/>
</svg>
