<svg id="pokal-pikto" xmlns="http://www.w3.org/2000/svg" width="48" height="48" viewBox="0 0 48 48">
  <title>pokal-pikto-form</title>
  <g>
    <path d="M48,3.5H40.75V0H7V3.5H0V15c0,3.33,3.17,6,7.32,6.22A12,12,0,0,0,19,30.5h4.25v16H8V48H39.75V46.5h-15v-16h4.5a11.52,11.52,0,0,0,11.28-9.28c4.18-.3,7.47-3,7.47-6.22ZM1.5,15V5H7V18.5a11.71,11.71,0,0,0,.06,1.19C3.92,19.36,1.5,17.39,1.5,15Zm37.75,4a10,10,0,0,1-10,10H19A10.39,10.39,0,0,1,8.5,18.5V1.5H39.25Zm1.46.69c0-.23,0-.46,0-.69V5h5.74V15C46.5,17.34,43.94,19.35,40.71,19.69Z" fill="#003cb4"/>
    <path d="M24,22.24a8,8,0,1,0-8-8A8,8,0,0,0,24,22.24ZM21,16.5h2.5V11.75H21v-1.5h4V16.5h2.5V18H21Z" fill="#003cb4"/>
  </g>
</svg>
