<svg id="portfolio-pikto" xmlns="http://www.w3.org/2000/svg" width="48" height="48" viewBox="0 0 48 48">
  <title>portfolio-pikto-form</title>
  <g>
    <path d="M16.44,13.85a12.45,12.45,0,0,1,5.67-2.36l.64-.09V.19l-.81.06A23.71,23.71,0,0,0,8.52,5.68l-.63.52,8,8Zm4.81-12v8.29a13.92,13.92,0,0,0-5.17,2.15l-6-6A22.21,22.21,0,0,1,21.25,1.83Z" fill="#003cb4"/>
    <path d="M13.87,31.33A13.24,13.24,0,0,1,11.5,24a13.13,13.13,0,0,1,2.85-7.8l.4-.53-8-7.76-.52.6A23.7,23.7,0,0,0,5.42,39l.5.63,8.31-7.74ZM6.09,37.39A22.19,22.19,0,0,1,6.81,10.1l6,5.74A14.45,14.45,0,0,0,10,24a14.57,14.57,0,0,0,2.28,7.63Z" fill="#003cb4"/>
    <path d="M36.51,25.65a13,13,0,0,1-2.36,5.91l-.39.52,8,8,.53-.63a24.43,24.43,0,0,0,5.42-13.67l.06-.81H36.59Zm9.67.85a22.94,22.94,0,0,1-4.49,11.38l-6-6a14.24,14.24,0,0,0,2.17-5.41Z" fill="#003cb4"/>
    <path d="M36.51,22.11l.1.64H47.82l-.07-.82A23.92,23.92,0,0,0,25.81.25L25,.19v11l.64.09A13,13,0,0,1,36.51,22.11Z" fill="#003cb4"/>
    <path d="M31.58,34.13a13.24,13.24,0,0,1-7.33,2.37,13.13,13.13,0,0,1-7.8-2.85l-.53-.4-7.76,8,.6.52a23.7,23.7,0,0,0,30.46.76l.63-.5-7.74-8.31ZM24.25,46.25a22.08,22.08,0,0,1-13.9-5.06l5.74-5.95A14.45,14.45,0,0,0,24.25,38a14.57,14.57,0,0,0,7.63-2.28l5.76,6.19A22.2,22.2,0,0,1,24.25,46.25Z" fill="#003cb4"/>
  </g>
</svg>
