<svg id="positiv-pikto" xmlns="http://www.w3.org/2000/svg" width="48" height="48" viewBox="0 0 48 48">
  <title>positiv-pikto-form</title>
  <g>
    <path d="M24,36.5a14,14,0,0,1-10-4L13,33.53A15.46,15.46,0,0,0,24,38a15,15,0,0,0,10.78-4.47l-1.06-1.06A13.47,13.47,0,0,1,24,36.5Z" fill="#003cb4"/>
    <path d="M24,.25A23.75,23.75,0,1,0,47.75,24,23.77,23.77,0,0,0,24,.25Zm0,46A22.25,22.25,0,0,1,2.49,18.31c6,2.78,17.86,5.74,33.22-2.79,2.5,3.94,8.45,5.29,10.35,5.63A22.2,22.2,0,0,1,24,46.25Z" fill="#003cb4"/>
  </g>
</svg>
