<svg id="praesentation-pikto" xmlns="http://www.w3.org/2000/svg" width="48" height="48" viewBox="0 0 48 48">
  <title>praesentation-pikto-form</title>
  <g>
    <path d="M47,1.26H1V36H22.71l-9.25,9.48,1.08,1L24,36.82l9.46,9.7,1.08-1L25.29,36H47ZM45.5,34.5H2.5V2.76h43Z" fill="#003cb4"/>
    <path d="M29.75,18.75a5.62,5.62,0,0,1-.66,2.65l-.29.54,3.88,3.18.45-.72a10.21,10.21,0,0,0,1.62-5.65A10.87,10.87,0,0,0,25.61,8l-.86-.13v5l.58.14A5.9,5.9,0,0,1,29.75,18.75Z" fill="#003cb4"/>
    <path d="M24,29.5a10.62,10.62,0,0,0,7-2.68l.68-.59-3.89-3.18-.47.35A5.46,5.46,0,0,1,24,24.5a5.89,5.89,0,0,1-5.75-6A5.61,5.61,0,0,1,22.67,13l.58-.14v-5L22.39,8A10.58,10.58,0,0,0,13.25,18.5,10.88,10.88,0,0,0,24,29.5Z" fill="#003cb4"/>
  </g>
</svg>
