<svg id="puzzle-pikto" xmlns="http://www.w3.org/2000/svg" width="48" height="48" viewBox="0 0 48 48">
  <title>puzzle-pikto-form</title>
  <path d="M1,1V47H47V1ZM2.5,2.5H23.25V9.25H24A3.75,3.75,0,0,1,27.75,13,3.55,3.55,0,0,1,24,16.5h-.75v6.75H18A5,5,0,0,0,13,18.75a5.27,5.27,0,0,0-5.2,4.5H2.5Zm20.75,43H2.5V24.75H9.25V24A3.75,3.75,0,0,1,13,20.25,3.55,3.55,0,0,1,16.5,24v.75h6.75v5.3a5.25,5.25,0,0,0,0,10.4Zm22.25,0H24.75V39H24a3.75,3.75,0,0,1,0-7.5h.75V24.75h5.3a5.26,5.26,0,0,0,10.4,0h5Z" fill="#003cb4"/>
</svg>
