<svg id="qr-code-pikto" xmlns="http://www.w3.org/2000/svg" width="48" height="48" viewBox="0 0 48 48">
  <title>qr-code-pikto-form</title>
  <g>
    <path d="M9.75,22.5h12.5V10H9.75Zm1.5-11h9.5V21h-9.5Z" fill="#003cb4"/>
    <rect x="13.5" y="13.75" width="5" height="5" fill="#003cb4"/>
    <path d="M38.25,10H25.75V22.5h12.5Zm-1.5,11h-9.5V11.5h9.5Z" fill="#003cb4"/>
    <rect x="29.5" y="13.75" width="5" height="5" fill="#003cb4"/>
    <path d="M9.75,38h12.5V25.5H9.75Zm1.5-11h9.5v9.5h-9.5Z" fill="#003cb4"/>
    <rect x="13.5" y="29.25" width="5" height="5" fill="#003cb4"/>
    <path d="M38.25,25.5H25.75V38h12.5Zm-1.5,11h-9.5V27h9.5Z" fill="#003cb4"/>
    <rect x="29.5" y="29.25" width="5" height="5" fill="#003cb4"/>
    <polygon points="2.75 2.75 10 2.75 10 1.25 1.25 1.25 1.25 10 2.75 10 2.75 2.75" fill="#003cb4"/>
    <polygon points="2.75 38 1.25 38 1.25 46.75 10 46.75 10 45.25 2.75 45.25 2.75 38" fill="#003cb4"/>
    <polygon points="38 1.25 38 2.75 45.25 2.75 45.25 10 46.75 10 46.75 1.25 38 1.25" fill="#003cb4"/>
    <polygon points="45.25 45.25 38 45.25 38 46.75 46.75 46.75 46.75 38 45.25 38 45.25 45.25" fill="#003cb4"/>
  </g>
</svg>
