<svg id="rakete-pikto" xmlns="http://www.w3.org/2000/svg" width="48" height="48" viewBox="0 0 48 48">
  <title>rakete-pikto-form</title>
  <g>
    <path d="M44.76,3.26a10.3,10.3,0,0,0-14.55,0l-9.8,9.79L1.33,14.93l8.74,8.46L6.7,26.76l4.07,4.07c-2.14.36-4.09,2.26-5.44,5.37L3.42,40.61c-1.08,2.47-1.8,4.16-2.33,5.31L.25,47.75l1.83-.84c1.17-.53,2.87-1.27,5.39-2.35l4.34-1.89C15,41.29,16.8,39.31,17,37l4.26,4.26,3.37-3.37,8.46,8.74L35,27.6l9.8-9.8a10.2,10.2,0,0,0,3-7.27A10.2,10.2,0,0,0,44.76,3.26ZM4.7,16.11l14-1.39-7.61,7.61ZM31.9,43.3l-6.23-6.42,7.62-7.61ZM43.7,16.74,21.25,39.18,8.82,26.76,31.27,4.32A8.79,8.79,0,0,1,43.7,16.74Z" fill="#003cb4"/>
    <rect x="15.39" y="25.51" width="12.71" height="1.5" transform="translate(-12.2 23.07) rotate(-45.01)" fill="#003cb4"/>
    <path d="M32.22,11.51a3,3,0,0,0,0,4.31,3,3,0,0,0,4.31,0,3,3,0,0,0,0-4.31A3.12,3.12,0,0,0,32.22,11.51Zm3.25,3.25a1.58,1.58,0,0,1-2.19,0,1.55,1.55,0,0,1,1.09-2.64,1.58,1.58,0,0,1,1.1.45A1.56,1.56,0,0,1,35.47,14.76Z" fill="#003cb4"/>
  </g>
</svg>
