<svg id="reflektieren-pikto" xmlns="http://www.w3.org/2000/svg" width="48" height="48" viewBox="0 0 48 48">
  <title>reflektieren-pikto-form</title>
  <g>
    <path d="M14.75,34.5C.17,34.5,0,47.12,0,47.25V48H29.5v-.75C29.5,47.12,29.33,34.5,14.75,34.5ZM1.54,46.5C1.8,44,3.5,36,14.75,36S27.69,44,28,46.5Z" fill="#003cb4"/>
    <path d="M14.75,32A11.75,11.75,0,1,0,3,20.25,11.76,11.76,0,0,0,14.75,32ZM4.66,18.54a25.64,25.64,0,0,0,10.08,2.15,25.57,25.57,0,0,0,10.1-2.16A9.74,9.74,0,0,1,25,20.25a10.25,10.25,0,0,1-20.5,0A9.54,9.54,0,0,1,4.66,18.54Z" fill="#003cb4"/>
    <ellipse cx="37.25" cy="7.75" rx="10.75" ry="7.75" fill="#003cb4"/>
    <ellipse cx="32.25" cy="19.75" rx="3.75" ry="2.75" fill="#003cb4"/>
  </g>
</svg>
