<svg id="regenwolke-pikto" xmlns="http://www.w3.org/2000/svg" width="48" height="48" viewBox="0 0 48 48">
  <title>regenwolke-pikto-form</title>
  <g>
    <path d="M39.5,13h-7v0A12.39,12.39,0,0,0,7.76,13H7.69A8.52,8.52,0,0,0,8.5,30h31a8.5,8.5,0,0,0,0-17Zm0,15.5H8.5a7,7,0,0,1-.75-14h1.5V13.17A10.89,10.89,0,0,1,31,13l0,1.48H39.5a7,7,0,0,1,0,14Z" fill="#003cb4"/>
    <path d="M12,35.47l-2.92,5.2c-1.45,2.89-.12,4.68.78,5.22a4.23,4.23,0,0,0,2.14.54,4.23,4.23,0,0,0,2.14-.54c.9-.54,2.23-2.33.76-5.26Z" fill="#003cb4"/>
    <path d="M24,35.47l-2.92,5.2c-1.45,2.89-.12,4.68.78,5.22a4.49,4.49,0,0,0,4.27,0c.91-.54,2.23-2.33.77-5.26Z" fill="#003cb4"/>
    <path d="M36,35.47l-2.92,5.2c-1.45,2.89-.12,4.68.78,5.22a4.49,4.49,0,0,0,4.27,0c.91-.54,2.23-2.33.77-5.26Z" fill="#003cb4"/>
  </g>
</svg>
