<svg id="robot-pikto" xmlns="http://www.w3.org/2000/svg" width="48" height="48" viewBox="0 0 48 48">
  <title>robot-pikto-form</title>
  <g>
    <path d="M41.75,23.5v-10h-17V5.88a2.75,2.75,0,1,0-1.5,0V13.5h-17v10H0V37H6.25V47h35.5V37H48V23.5Zm-35.5,12H1.5V25H6.25ZM22.75,3.25A1.25,1.25,0,1,1,24,4.5,1.25,1.25,0,0,1,22.75,3.25ZM40.25,45.5H7.75V15h32.5Zm6.25-10H41.75V25H46.5Z" fill="#003cb4"/>
    <path d="M16,30.75a4.5,4.5,0,1,0-4.5-4.5A4.51,4.51,0,0,0,16,30.75Zm0-6a1.5,1.5,0,1,1-1.5,1.5A1.5,1.5,0,0,1,16,24.75Z" fill="#003cb4"/>
    <path d="M17.25,35.25a6.75,6.75,0,0,0,13.5,0V34.5H17.25Zm12,.75a5.25,5.25,0,0,1-10.4,0Z" fill="#003cb4"/>
    <path d="M32,30.75a4.5,4.5,0,1,0-4.5-4.5A4.51,4.51,0,0,0,32,30.75Zm0-6a1.5,1.5,0,1,1-1.5,1.5A1.5,1.5,0,0,1,32,24.75Z" fill="#003cb4"/>
  </g>
</svg>
