<?xml version="1.0" encoding="utf-8"?>
<!-- Generator: Adobe Illustrator 23.1.1, SVG Export Plug-In . SVG Version: 6.00 Build 0)  -->
<svg version="1.1" id="sackmesser-pikto" xmlns="http://www.w3.org/2000/svg" xmlns:xlink="http://www.w3.org/1999/xlink" x="0px"
	 y="0px" viewBox="0 0 48 48" enable-background="new 0 0 48 48" xml:space="preserve">
<title>sackmesser-pikto-linie</title>
<path fill="#00BEC8" stroke="#00BEC8" stroke-width="1.5" stroke-miterlimit="10" d="M38,33c0,0-5.99-14.82-7-23c-0.98-7.94,4-9,4-9
	l10,32H38z"/>
<polyline fill="none" stroke="#003CB4" stroke-width="1.5" stroke-miterlimit="10" points="13,32 16,25 19,25 17,20 22,21 21,16 
	26,17 25,13 "/>
<path fill="none" stroke="#003CB4" stroke-width="1.5" stroke-miterlimit="10" d="M23,47h20c2.21,0,4-1.79,4-4v-6c0-2.21-1.79-4-4-4
	H5c-2.21,0-4,1.79-4,4v6c0,2.21,1.79,4,4,4h6v-5h12V47z"/>
<line fill="none" stroke="#003CB4" stroke-width="1.5" stroke-miterlimit="10" x1="14" y1="42" x2="14" y2="47"/>
<line fill="none" stroke="#003CB4" stroke-width="1.5" stroke-miterlimit="10" x1="17" y1="42" x2="17" y2="47"/>
<line fill="none" stroke="#003CB4" stroke-width="1.5" stroke-miterlimit="10" x1="20" y1="42" x2="20" y2="47"/>
<path fill="none" stroke="#003CB4" stroke-width="1.5" stroke-miterlimit="10" d="M5,33V1c0,0,8,0,8,9H9v8c0,1.1,0.9,2,2,2
	s2-0.9,2-2v15"/>
</svg>
