<svg id="sackmesser-pikto" xmlns="http://www.w3.org/2000/svg" width="48" height="48" viewBox="0 0 48 48">
  <title>sackmesser-pikto-form</title>
  <path d="M45.86,33.23,35.51.12l-.67.15c-.05,0-5.64,1.3-4.58,9.82.86,7,5.26,18.64,6.64,22.16H13.75v-.1l2.74-6.4h3.62L18.21,21,23,22l-1-5L27,18l-1.28-5.15-1.46.36L25,16,20,15l1,5L15.79,19l2.1,5.26H15.51l-1.76,4.1V18h-1.5a1.25,1.25,0,0,1-2.5,0V10.75h4V10C13.75.36,5.09.25,5,.25H4.25V32.33A4.74,4.74,0,0,0,.25,37v6A4.75,4.75,0,0,0,5,47.75h6.75v-5h1.5V47h1.5V42.75h1.5V47h1.5V42.75h1.5V47h1.5V42.75h1.5v5H43A4.75,4.75,0,0,0,47.75,43V37A4.74,4.74,0,0,0,45.86,33.23ZM5.75,1.81c1.79.25,6.14,1.46,6.48,7.44h-4V18a2.75,2.75,0,0,0,4,2.45v11.8H5.75ZM46.25,43A3.26,3.26,0,0,1,43,46.25H23.75v-5H10.25v5H5A3.26,3.26,0,0,1,1.75,43V37A3.26,3.26,0,0,1,5,33.75H43A3.26,3.26,0,0,1,46.25,37Z" fill="#003cb4"/>
</svg>
