<svg id="segelschiff-pikto" xmlns="http://www.w3.org/2000/svg" width="48" height="48" viewBox="0 0 48 48">
  <title>segelschiff-pikto-form</title>
  <path d="M47.47,45.07a8.9,8.9,0,0,0-2.9-1.54L40.42,36h-19V32.89h18L21.52,0l-.05,3.87L6.5,36H.1l.74,1.16a29.93,29.93,0,0,0,5.47,6.41,9.75,9.75,0,0,0-2.94,1.59c-.35.25-.68.49-1,.7l.77,1.28c.38-.23.75-.49,1.13-.76a6.61,6.61,0,0,1,4.23-1.63,5,5,0,0,1,3.65,1.45,6.4,6.4,0,0,0,4.6,1.8,7.35,7.35,0,0,0,4.82-1.77,5.89,5.89,0,0,1,3.93-1.48,5.4,5.4,0,0,1,3.8,1.47,7.11,7.11,0,0,0,9.41,0,5.39,5.39,0,0,1,3.79-1.47,6.24,6.24,0,0,1,4.12,1.54l.45.32.86-1.22ZM20,10.63V36H8.15Zm22.5,32.62A6.88,6.88,0,0,0,37.77,45a5.63,5.63,0,0,1-7.59,0,6.89,6.89,0,0,0-4.71-1.78A7.32,7.32,0,0,0,20.66,45a5.9,5.9,0,0,1-3.94,1.48,4.94,4.94,0,0,1-3.64-1.45A6.43,6.43,0,0,0,9,43.28v0c-1.44,0-4.17-3.06-6.08-5.75H39.53l3.18,5.76Z" fill="#003cb4"/>
</svg>
