<svg id="sektglaeser-pikto" xmlns="http://www.w3.org/2000/svg" width="48" height="48" viewBox="0 0 48 48">
  <title>sektglaeser-pikto-linie</title>
  <path d="M40.5,19.5H28.75l1,3a5.59,5.59,0,0,0,6.75,4A5.86,5.86,0,0,0,40.5,19.5Z" fill="#00bec8" stroke="#00bec8" stroke-miterlimit="10" stroke-width="1.5"/>
  <path d="M7.5,19l-.24.5a6,6,0,0,0,4.24,7,5.32,5.32,0,0,0,6.5-4l2.5-9.24Z" fill="#00bec8" stroke="#00bec8" stroke-miterlimit="10" stroke-width="1.5"/>
  <path d="M41.25,19.5A6.34,6.34,0,0,1,29,22.75L25,7.25,37,4Z" fill="none" stroke="#003cb4" stroke-miterlimit="10" stroke-width="1.49"/>
  <line x1="36.75" y1="27" x2="41.73" y2="45.75" fill="none" stroke="#003cb4" stroke-miterlimit="10" stroke-width="1.49"/>
  <line x1="35.75" y1="47.25" x2="47.75" y2="44" fill="none" stroke="#003cb4" stroke-miterlimit="10" stroke-width="1.49"/>
  <path d="M18.75,22.75,23,7.25,11,4,6.75,19.5a6.41,6.41,0,0,0,4.5,7.75A6.15,6.15,0,0,0,18.75,22.75Z" fill="none" stroke="#003cb4" stroke-miterlimit="10" stroke-width="1.49"/>
  <line x1="11.25" y1="27.16" x2="6.25" y2="45.75" fill="none" stroke="#003cb4" stroke-miterlimit="10" stroke-width="1.49"/>
  <line x1="12.25" y1="47.25" x2="0.25" y2="44" fill="none" stroke="#003cb4" stroke-miterlimit="10" stroke-width="1.49"/>
  <line x1="29" y1="0.5" x2="25.25" y2="4" fill="none" stroke="#003cb4" stroke-miterlimit="10" stroke-width="1.49"/>
  <line x1="18.75" y1="0.5" x2="22.5" y2="4" fill="none" stroke="#003cb4" stroke-miterlimit="10" stroke-width="1.49"/>
</svg>
