<svg id="sektglaeser-pikto" xmlns="http://www.w3.org/2000/svg" width="48" height="48" viewBox="0 0 48 48">
  <title>sektglaeser-pikto-form</title>
  <g>
    <path d="M47.55,43.28l-5.32,1.44-4.52-17A7.18,7.18,0,0,0,42,19.31L37.52,3.09,24.09,6.72l4.19,16.22a7.22,7.22,0,0,0,6.91,5.26,6.57,6.57,0,0,0,1.08-.1l4.52,17-5.24,1.42L36,48l12-3.25ZM36.47,4.92l3.8,13.83H28.74l-2.83-11Z" fill="#003cb4"/>
    <path d="M6,19.31a7.18,7.18,0,0,0,4.29,8.42l-4.57,17L.45,43.28l-.4,1.44,12,3.25.4-1.44L7.2,45.11l4.57-17a6.22,6.22,0,0,0,1.05.1,6.67,6.67,0,0,0,3.48-1,7.15,7.15,0,0,0,3.17-4.28L23.92,6.73,10.48,3.09Zm16-11.54-1.23,4.51L7.94,18,11.52,4.92Z" fill="#003cb4"/>
    <rect x="24.56" y="1.5" width="5.13" height="1.49" transform="translate(5.76 19.12) rotate(-43.04)" fill="#003cb4"/>
    <rect x="19.88" y="-0.31" width="1.49" height="5.13" transform="matrix(0.68, -0.73, 0.73, 0.68, 4.91, 15.79)" fill="#003cb4"/>
  </g>
</svg>
