<svg id="server-pikto" xmlns="http://www.w3.org/2000/svg" width="48" height="48" viewBox="0 0 48 48">
  <title>server-pikto</title>
  <g>
    <path d="M47.75,13.75V.25H.25v13.5h23v3.5H.25v13.5h23v3.5H.25v13.5h47.5V34.25h-23v-3.5h23V17.25h-23v-3.5Zm-1.5,22v10.5H1.75V35.75ZM40,21.25A2.75,2.75,0,1,1,37.25,24,2.75,2.75,0,0,1,40,21.25Zm-8,3.5H6v-1.5H32ZM1.75,12.25V1.75h44.5v10.5Z" fill="#003cb4"/>
    <path d="M40,4.25A2.75,2.75,0,1,0,42.75,7,2.75,2.75,0,0,0,40,4.25Zm0,4A1.25,1.25,0,1,1,41.25,7,1.25,1.25,0,0,1,40,8.25Z" fill="#003cb4"/>
    <path d="M40,43.75A2.75,2.75,0,1,0,37.25,41,2.75,2.75,0,0,0,40,43.75Zm0-4A1.25,1.25,0,1,1,38.75,41,1.25,1.25,0,0,1,40,39.75Z" fill="#003cb4"/>
    <rect x="6" y="6.25" width="26" height="1.5" fill="#003cb4"/>
    <circle cx="40" cy="24" r="1.25" fill="#003cb4"/>
    <rect x="6" y="40.25" width="26" height="1.5" fill="#003cb4"/>
  </g>
</svg>
