<svg id="shop-pikto" xmlns="http://www.w3.org/2000/svg" width="48" height="48" viewBox="0 0 48 48">
  <title>shop-pikto-form</title>
  <g>
    <path d="M48,7H41.21A7.76,7.76,0,0,0,33.5,0,7.6,7.6,0,0,0,26,7H19.5V17.25H0V48H28.5V37.5H48ZM27,46.5H1.5V18.75H27ZM27.54,7a6,6,0,0,1,6-5.5A6.35,6.35,0,0,1,39.7,7Z" fill="#003cb4"/>
    <path d="M21.25,22A1.29,1.29,0,0,0,20,23.25a1.24,1.24,0,0,0,.53,1v1a6.33,6.33,0,0,1-6.25,6.25A6.07,6.07,0,0,1,8,25.5V24.25a1.24,1.24,0,0,0,.53-1,1.28,1.28,0,1,0-2.56,0,1.24,1.24,0,0,0,.53,1V25.5A7.64,7.64,0,0,0,14.25,33,7.76,7.76,0,0,0,22,25.25v-1a1.24,1.24,0,0,0,.53-1A1.29,1.29,0,0,0,21.25,22Z" fill="#003cb4"/>
  </g>
</svg>
