<svg id="smily-sonnenbrille-pikto" xmlns="http://www.w3.org/2000/svg" width="48" height="48" viewBox="0 0 48 48">
  <title>smily-sonnenbrille-pikto-form</title>
  <g>
    <path d="M24,37.5A14.16,14.16,0,0,1,13.83,33l-1.08,1A15.64,15.64,0,0,0,24,39a15.68,15.68,0,0,0,11.29-5l-1.08-1A14.21,14.21,0,0,1,24,37.5Z" fill="#003cb4"/>
    <path d="M24,0A24,24,0,1,0,48,24,24,24,0,0,0,24,0Zm0,46.5A22.5,22.5,0,1,1,46.5,24,22.52,22.52,0,0,1,24,46.5Z" fill="#003cb4"/>
    <polygon points="27 15 27 19.75 21 19.75 21 15 5 15 5 26 21 26 21 21.25 27 21.25 27 26 43 26 43 15 27 15" fill="#003cb4"/>
  </g>
</svg>
