<svg id="smily-sterne-pikto" xmlns="http://www.w3.org/2000/svg" width="48" height="48" viewBox="0 0 48 48">
  <title>smily-sterne-pikto-form</title>
  <g>
    <path d="M24,0A24,24,0,1,0,48,24,24,24,0,0,0,24,0Zm0,46.5A22.5,22.5,0,1,1,46.5,24,22.52,22.52,0,0,1,24,46.5Z" fill="#003cb4"/>
    <path d="M39.75,24A15.88,15.88,0,0,1,8,24H6.5a17.38,17.38,0,0,0,34.75,0Z" fill="#003cb4"/>
    <polygon points="9.99 21.89 14.75 19.35 19.61 21.94 18.33 16.51 22.46 12.69 17.02 12.07 14.75 6.87 12.49 12.07 6.78 12.68 10.94 16.52 9.99 21.89" fill="#003cb4"/>
    <polygon points="28.49 21.89 33.25 19.35 38.11 21.94 36.83 16.51 40.95 12.7 35.52 12.06 33.25 6.88 30.99 12.05 25.28 12.69 29.44 16.52 28.49 21.89" fill="#003cb4"/>
  </g>
</svg>
