<svg id="smily-kussmund-pikto" xmlns="http://www.w3.org/2000/svg" width="48" height="48" viewBox="0 0 48 48">
  <title>smily-kussmund-pikto-linie</title>
  <path d="M44.25,25.5a22,22,0,0,1-22,21.75A21.55,21.55,0,0,1,.75,25.5,21.55,21.55,0,0,1,22.25,3.75,22,22,0,0,1,44.25,25.5Z" fill="none" stroke="#003cb4" stroke-miterlimit="10" stroke-width="1.5"/>
  <path d="M25.5,19.5a5.75,5.75,0,0,1,11.5,0" fill="none" stroke="#003cb4" stroke-miterlimit="10" stroke-width="1.5"/>
  <path d="M8,19.5a5.75,5.75,0,0,1,11.5,0" fill="none" stroke="#003cb4" stroke-miterlimit="10" stroke-width="1.5"/>
  <path d="M22,26.75a2.88,2.88,0,0,1,3,2.75,3.09,3.09,0,0,1-3,3" fill="none" stroke="#003cb4" stroke-miterlimit="10" stroke-width="1.5"/>
  <path d="M22,32.5a3.09,3.09,0,0,1,3,3,2.88,2.88,0,0,1-3,2.75" fill="none" stroke="#003cb4" stroke-miterlimit="10" stroke-width="1.5"/>
  <path d="M35.75,25A3.65,3.65,0,0,0,33,26.25a4.5,4.5,0,0,0,0,6l6.5,7,6.75-7a4.28,4.28,0,0,0,1-3,4.33,4.33,0,0,0-1.25-3,3.57,3.57,0,0,0-5.3,0L39.5,27.5l-1-1.25A3.78,3.78,0,0,0,35.75,25Z" fill="#00bec8" stroke="#00bec8" stroke-miterlimit="10" stroke-width="1.5"/>
</svg>
