<svg id="smily-sterne-pikto" xmlns="http://www.w3.org/2000/svg" width="48" height="48" viewBox="0 0 48 48">
  <title>smily-sterne-pikto-linie</title>
  <circle cx="24" cy="24" r="23.25" fill="none" stroke="#003cb4" stroke-miterlimit="10" stroke-width="1.5"/>
  <path d="M40.5,24A16.47,16.47,0,0,1,24,40.5,16.69,16.69,0,0,1,7.25,24" fill="none" stroke="#003cb4" stroke-miterlimit="10" stroke-width="1.5"/>
  <path d="M8.5,13.25l3.25,3L11,20.5l3.75-2,3.75,2-1-4.24,3.25-3-4.25-.48-1.75-4-1.75,4Z" fill="#00bec8" stroke="#00bec8" stroke-miterlimit="10" stroke-width="1.5"/>
  <path d="M27,13.25l3.25,3L29.5,20.5l3.75-2,3.75,2-1-4.24,3.25-3L35,12.75l-1.75-4-1.75,4Z" fill="#00bec8" stroke="#00bec8" stroke-miterlimit="10" stroke-width="1.5"/>
</svg>
