<?xml version="1.0" encoding="utf-8"?>
<!-- Generator: Adobe Illustrator 23.1.1, SVG Export Plug-In . SVG Version: 6.00 Build 0)  -->
<svg version="1.1" id="smily-zunge-pikto" xmlns="http://www.w3.org/2000/svg" xmlns:xlink="http://www.w3.org/1999/xlink" x="0px"
	 y="0px" viewBox="0 0 48 48" enable-background="new 0 0 48 48" xml:space="preserve">
<title>smily-zunge-pikto-linie</title>
<circle fill="none" stroke="#003CB4" stroke-width="1.5" stroke-miterlimit="10" cx="24" cy="24" r="23.25"/>
<path fill="none" stroke="#00BEC8" stroke-width="1.5" stroke-miterlimit="10" d="M24,43.78c-1.39-0.01-2.81-0.36-3.76-1.38
	c-0.96-1.04-1.12-2.27-1.24-3.9v-7.75h10.25v7.79c0,1.41-0.47,2.82-1.44,3.85C26.84,43.42,25.41,43.79,24,43.78z"/>
<path fill="#00BEC8" stroke="#00BEC8" stroke-width="1.5" stroke-miterlimit="10" d="M40.25,28.75c-0.79-0.73-3.74-0.49-7.75-0.25
	c-2.54,0.15-5.33,0.25-8.5,0.25s-5.95-0.1-8.5-0.25c-1.85-0.11-3.72-0.25-5-0.25c-1.49,0-2.32,0.11-2.75,0.5
	c-0.15,0.13-0.24,0.31-0.25,0.5c0,1.43,4.93,6.4,11.5,8.5v-7h10.25v7c6.53-2.12,11.25-7.08,11.25-8.5
	C40.49,29.06,40.4,28.88,40.25,28.75z"/>
<path fill="none" stroke="#003CB4" stroke-width="1.5" stroke-miterlimit="10" d="M9.5,19.5c0-3.18,2.57-5.75,5.75-5.75
	S21,16.32,21,19.5"/>
<path fill="none" stroke="#003CB4" stroke-width="1.5" stroke-miterlimit="10" d="M27,19.5c0-3.18,2.57-5.75,5.75-5.75
	s5.75,2.57,5.75,5.75"/>
</svg>
