<svg id="smily-kussmund-pikto" xmlns="http://www.w3.org/2000/svg" width="48" height="48" viewBox="0 0 48 48">
  <title>smily-kussmund-pikto-form</title>
  <g>
    <path d="M36.25,19.5h1.5a6.5,6.5,0,0,0-13,0h1.5a5,5,0,0,1,10,0Z" fill="#003cb4"/>
    <path d="M13.75,13a6.51,6.51,0,0,0-6.5,6.5h1.5a5,5,0,0,1,10,0h1.5A6.51,6.51,0,0,0,13.75,13Z" fill="#003cb4"/>
    <path d="M25.75,29.5A3.63,3.63,0,0,0,22,26v1.5a2.14,2.14,0,0,1,2.25,2A2.34,2.34,0,0,1,22,31.75v1.5a2.34,2.34,0,0,1,2.25,2.25,2.14,2.14,0,0,1-2.25,2V39a3.63,3.63,0,0,0,3.75-3.5,3.8,3.8,0,0,0-1.58-3A3.8,3.8,0,0,0,25.75,29.5Z" fill="#003cb4"/>
    <path d="M46.55,25.74A4.41,4.41,0,0,0,45,24.65,22.66,22.66,0,0,0,22.25,3a22.5,22.5,0,0,0,0,45,22.83,22.83,0,0,0,17.16-7.75l.08.09,7.31-7.58A5,5,0,0,0,48,29.25,5.07,5.07,0,0,0,46.55,25.74ZM22.25,46.5a21,21,0,0,1,0-42A21.15,21.15,0,0,1,43.44,24.33h-.09a4.33,4.33,0,0,0-3.19,1.41l-.61.63-.5-.62a4.53,4.53,0,0,0-3.3-1.49,4.44,4.44,0,0,0-3.3,1.49,5.26,5.26,0,0,0,0,7l5.92,6.38A21.27,21.27,0,0,1,22.25,46.5Z" fill="#003cb4"/>
  </g>
</svg>
