<svg xmlns="http://www.w3.org/2000/svg" viewBox="0 0 24 24"><title>xyc</title><path d="M12,1h0A11,11,0,1,0,23,12,11,11,0,0,0,12,1ZM3.33,13.78a.07.07,0,0,1-.07.07.08.08,0,0,1-.07-.07l-.13-1,.13-1a.08.08,0,0,1,.07-.07.07.07,0,0,1,.07.07l.16,1Zm.67.6a.07.07,0,0,1-.07.07.08.08,0,0,1-.08-.07l-.17-1.59.17-1.61a.08.08,0,0,1,.08-.07.06.06,0,0,1,.07.07l.2,1.61Zm.73.26a.1.1,0,0,1-.19,0l-.16-1.85.16-1.91a.1.1,0,0,1,.19,0l.19,1.91Zm.72.06a.11.11,0,0,1-.1.11.12.12,0,0,1-.11-.11l-.16-1.9.16-2a.11.11,0,0,1,.11-.1.1.1,0,0,1,.1.1l.18,2Zm.74,0a.14.14,0,0,1-.12.12A.12.12,0,0,1,6,14.72L5.8,12.8,6,11a.12.12,0,0,1,.12-.12.13.13,0,0,1,.12.12l.17,1.83Zm.74,0h0a.15.15,0,0,1-.14.13.13.13,0,0,1-.13-.13L6.51,12.8l.15-3a.13.13,0,0,1,.13-.13.15.15,0,0,1,.14.13l.16,3Zm.74,0a.15.15,0,0,1-.3,0L7.24,12.8l.13-3.66a.15.15,0,0,1,.3,0l.15,3.66Zm.75,0a.16.16,0,0,1-.16.16.17.17,0,0,1-.17-.16L8,12.8l.12-4a.17.17,0,0,1,.17-.17.16.16,0,0,1,.16.17l.14,4Zm.76,0h0a.18.18,0,0,1-.18.19.18.18,0,0,1-.18-.18L8.7,12.8l.12-4.1a.18.18,0,0,1,.36,0l.13,4.1Zm.77,0h0a.2.2,0,0,1-.2.19.19.19,0,0,1-.2-.19l-.1-1.86.1-4a.2.2,0,0,1,.2-.2.21.21,0,0,1,.2.2l.11,4Zm.76,0h0a.21.21,0,1,1-.42,0l-.1-1.85L10.29,9a.21.21,0,0,1,.42,0l.11,3.85Zm.78,0a.23.23,0,1,1-.46,0L11,12.8,11,8.22a.23.23,0,0,1,.46,0l.1,4.58Zm.77,0h0a.25.25,0,0,1-.49,0l-.1-1.81.1-5a.25.25,0,0,1,.49,0l.11,5Zm6.59.26H12.71a.26.26,0,0,1-.24-.26v-7c0-.13,0-.19.21-.26a4.12,4.12,0,0,1,1.42-.26A3.91,3.91,0,0,1,18,10.61a2.22,2.22,0,1,1,.86,4.26Z" style="fill:#003cb4"/></svg>