<svg id="sparkonto-pikto" xmlns="http://www.w3.org/2000/svg" width="48" height="48" viewBox="0 0 48 48">
  <title>sparkonto-pikto-form</title>
  <g>
    <path d="M34.8,20.81l-.61,1.37A1.47,1.47,0,0,1,35,23.25a1.11,1.11,0,0,1-.2.62,1,1,0,0,1-.8.38,1.07,1.07,0,0,1-1-.83,8.56,8.56,0,0,0-8.5-8.18,7.86,7.86,0,0,0-5.25,2l-.1-.08A2.47,2.47,0,0,0,17,17,1.94,1.94,0,0,0,16,18l-.44.68L17.1,20a8.71,8.71,0,0,0-.85,3H14.5v3.78l2.81,1a5.5,5.5,0,0,0,2.21,2.53l.61,2.43h2.11l.41-1a6.93,6.93,0,0,0,3.53,0l.45-.11.65,1.14h2l.41-2.66,0,0a8.16,8.16,0,0,0,3-4.38,2.47,2.47,0,0,0,2.38-.11,2.83,2.83,0,0,0,.85-.76,2.49,2.49,0,0,0,.55-1.58A2.85,2.85,0,0,0,34.8,20.81Z" fill="#003cb4"/>
    <path d="M38.75,0H3.5V48H38.75a5.76,5.76,0,0,0,5.75-5.75V5.75A5.76,5.76,0,0,0,38.75,0ZM43,42.25a4.26,4.26,0,0,1-4.25,4.25H8V1.5H38.75A4.26,4.26,0,0,1,43,5.75Z" fill="#003cb4"/>
  </g>
</svg>
