<svg id="sparkonto-pikto" xmlns="http://www.w3.org/2000/svg" width="48" height="48" viewBox="0 0 48 48">
  <title>sparkonto-pikto-linie</title>
  <path d="M5,.75H39a5,5,0,0,1,5,5v36.5a5,5,0,0,1-5,5H5a0,0,0,0,1,0,0V.75A0,0,0,0,1,5,.75Z" fill="none" stroke="#003cb4" stroke-miterlimit="10" stroke-width="1.5"/>
  <rect x="4.5" y="0.75" width="3" height="46.5" fill="#003cb4" stroke="#003cb4" stroke-miterlimit="10" stroke-width="1.5"/>
  <path d="M27.72,32h.93L29,29.75l.25-.25a7.62,7.62,0,0,0,2.75-4l.25-1L33,25a2,2,0,0,0,2.75-1.75A2.1,2.1,0,0,0,34.5,21.5h0a2.19,2.19,0,0,1,1.25,1.75A1.73,1.73,0,0,1,34,25a1.82,1.82,0,0,1-1.75-1.5h0A7.76,7.76,0,0,0,24.5,16a7.1,7.1,0,0,0-4.75,1.76l-.5.5-.5-.5a1.75,1.75,0,0,0-1.5,0c-.41.14-.52.39-.75.75L18,19.75l-.2.5A7.78,7.78,0,0,0,17,23v.75H15.25v2.5l2.75,1v.25a4.74,4.74,0,0,0,2,2.25l.25.25.47,2h1l.52-1.26.5.25A6.28,6.28,0,0,0,26,31l1-.25Z" fill="#00bec8" stroke="#00bec8" stroke-miterlimit="10" stroke-width="1.5"/>
</svg>
