<?xml version="1.0" encoding="utf-8"?>
<!-- Generator: Adobe Illustrator 23.1.1, SVG Export Plug-In . SVG Version: 6.00 Build 0)  -->
<svg version="1.1" id="sparen-pikto" xmlns="http://www.w3.org/2000/svg" xmlns:xlink="http://www.w3.org/1999/xlink" x="0px"
	 y="0px" viewBox="0 0 48 48" enable-background="new 0 0 48 48" xml:space="preserve">
<title>sparen-pikto-linie</title>
<path fill="none" stroke="#003CB4" stroke-width="1.5" stroke-miterlimit="10" d="M8.58,13c-2.97,0.24-5.32,2.57-5.56,5.5L6.31,20
	c-0.94,1.88-1.54,3.91-1.77,6H1v8l7.08,4c1.14,1.53,2.5,2.88,4.04,4l1.01,5h4.04l1.26-2.75c1.32,0.4,2.67,0.65,4.04,0.75
	c1.54-0.03,3.08-0.29,4.55-0.75L28.3,47h4.04l1.01-5.75c4.15-3.39,6.56-8.43,6.57-13.75c0.04-9.63-7.83-17.47-17.57-17.5
	c-3.99-0.01-7.86,1.31-10.99,3.75C10.5,13.32,9.55,13.06,8.58,13z"/>
<path fill="none" stroke="#003CB4" stroke-width="1.5" stroke-miterlimit="10" d="M43.46,24c1.95,0,3.54,1.57,3.54,3.5
	S45.42,31,43.46,31c-1.95,0-3.54-1.57-3.54-3.5"/>
<path fill="#00BEC8" stroke="#00BEC8" stroke-width="1.5" stroke-miterlimit="10" d="M25.65,14c2.13-1.25,3.46-3.53,3.5-6
	c0-3.87-3.14-7-7-7c-3.87,0-7,3.14-7,7c0,2.45,1.29,4.73,3.39,6H25.65z"/>
<line fill="none" stroke="#003CB4" stroke-width="1.5" stroke-miterlimit="10" x1="15.15" y1="15" x2="29.31" y2="15"/>
</svg>
