<svg id="sport-gesundheit-pikto" xmlns="http://www.w3.org/2000/svg" width="48" height="48" viewBox="0 0 48 48">
  <title>sport-gesundheit-pikto-form</title>
  <g>
    <rect x="1.25" y="33" width="20" height="1.5" fill="#003cb4"/>
    <rect x="8.25" y="41" width="20" height="1.5" fill="#003cb4"/>
    <path d="M39.61,11.24l-.92,1.06a7.43,7.43,0,0,1-5.44,2.76A7.28,7.28,0,0,1,26,7.77a9.21,9.21,0,0,1,1.81-5.53l.54-.61-.65-.49a5.79,5.79,0,0,0-6.9,0L8.18,13.81l34.55,34a6.72,6.72,0,0,0,3.33-1.08A6,6,0,0,0,48,43Zm6,34L12.35,11.83l9.39-9.52a4.3,4.3,0,0,1,4.42-.37A11.32,11.32,0,0,0,24.5,7.77a8.79,8.79,0,0,0,8.75,8.8,8.54,8.54,0,0,0,5.61-2.31l1.81,6.84H35.25v1.5h5.82L42,26.12H36.25v1.51h6.16l.93,3.52H37.25v1.51h6.49l2.76,10.4A3.51,3.51,0,0,1,45.56,45.22Z" fill="#003cb4"/>
  </g>
</svg>
