<svg xmlns="http://www.w3.org/2000/svg" viewBox="0 0 24 24"><title>xyc</title><path d="M12,1A11,11,0,1,0,23,12,11,11,0,0,0,12,1Zm5,15.87a.68.68,0,0,1-.94.22c-2.58-1.58-5.83-1.93-9.66-1.06a.68.68,0,0,1-.31-1.33c4.19-1,7.79-.55,10.69,1.22A.69.69,0,0,1,17,16.87Zm1.35-3a.86.86,0,0,1-1.18.28,14.48,14.48,0,0,0-11-1.28.86.86,0,0,1-.5-1.64,16,16,0,0,1,12.36,1.46.86.86,0,0,1,.28,1.18Zm.12-3.12C15,8.65,9.11,8.45,5.73,9.48a1,1,0,1,1-.6-2C9,6.33,15.47,6.56,19.56,9a1,1,0,1,1-1,1.77Z" style="fill:#003cb4"/></svg>