<svg id="sprachassistenz-pikto" xmlns="http://www.w3.org/2000/svg" width="48" height="48" viewBox="0 0 48 48">
  <title>sprachassistenz-pikto-form</title>
  <g>
    <path d="M24,32A11.27,11.27,0,0,0,35.25,20.75V11A11,11,0,0,0,24,0,11,11,0,0,0,12.75,11v9.75A11.27,11.27,0,0,0,24,32Z" fill="#003cb4"/>
    <path d="M40.75,22.25h-1.5c0,7.59-7.13,14.25-15.25,14.25S8.75,29.84,8.75,22.25H7.25c0,8.15,7.39,15.31,16,15.71V46.5H14V48H34V46.5H24.75V38C33.36,37.56,40.75,30.4,40.75,22.25Z" fill="#003cb4"/>
  </g>
</svg>
