<svg id="standort-pikto" xmlns="http://www.w3.org/2000/svg" width="48" height="48" viewBox="0 0 48 48">
  <title>standort-pikto-form</title>
  <g>
    <circle cx="24" cy="17.75" r="7.5" fill="#003cb4"/>
    <path d="M24,0A17.59,17.59,0,0,0,6.25,17.81c0,11,16.5,28.85,17.2,29.6L24,48l.55-.59c.7-.75,17.2-18.56,17.2-29.6A17.59,17.59,0,0,0,24,0Zm0,45.78c-2.89-3.22-16.25-18.61-16.25-28A16.11,16.11,0,0,1,24,1.5,16.11,16.11,0,0,1,40.25,17.81C40.25,27.17,26.89,42.56,24,45.78Z" fill="#003cb4"/>
  </g>
</svg>
