<svg id="strom-pikto" xmlns="http://www.w3.org/2000/svg" width="48" height="48" viewBox="0 0 48 48">
  <title>strom-pikto-form</title>
  <path d="M37.75,30.25A8.56,8.56,0,0,0,29,39a7,7,0,0,1-7.25,7.25A7,7,0,0,1,14.5,39V34.72C22,34.38,27.5,29,27.5,22V10.25H21.75V0h-5.5V10.25h-4.5V0H6.25V10.25H0V22c0,7,5.54,12.38,13,12.72V39a8.56,8.56,0,0,0,8.75,8.75A8.56,8.56,0,0,0,30.5,39a7,7,0,0,1,7.25-7.25A7,7,0,0,1,45,39v5h1.5V39A8.56,8.56,0,0,0,37.75,30.25ZM1.5,22V11.75H26V22c0,6.52-5.15,11.25-12.25,11.25S1.5,28.52,1.5,22Z" fill="#003cb4"/>
</svg>
