<svg id="strom-nachhaltigkeit-2-pikto" xmlns="http://www.w3.org/2000/svg" width="48" height="48" viewBox="0 0 48 48">
  <title>strom-nachhaltigkeit-2-pikto-form</title>
  <g>
    <rect x="15.75" y="28" width="1.5" height="5" fill="#003cb4"/>
    <rect x="5.93" y="4.18" width="1.5" height="4.9" transform="translate(-2.7 5.85) rotate(-40.03)" fill="#003cb4"/>
    <rect y="15.75" width="5" height="1.5" fill="#003cb4"/>
    <rect x="4.33" y="25.63" width="4.6" height="1.5" transform="translate(-16.71 12.41) rotate(-45)" fill="#003cb4"/>
    <rect x="25.38" y="24.08" width="1.5" height="4.6" transform="translate(-11 26.2) rotate(-45)" fill="#003cb4"/>
    <rect x="28" y="15.75" width="5" height="1.5" fill="#003cb4"/>
    <rect x="24.04" y="5.87" width="4.42" height="1.5" transform="translate(3.58 21.42) rotate(-47.29)" fill="#003cb4"/>
    <circle cx="16.5" cy="16.5" r="9" fill="#003cb4"/>
    <rect x="15.75" width="1.5" height="5" fill="#003cb4"/>
    <polygon points="28.17 35.84 48 26.17 47.34 24.83 7.34 44.33 8 45.67 26.67 36.57 26.67 46.5 17.92 46.5 17.92 48 36.92 48 36.92 46.5 28.17 46.5 28.17 35.84" fill="#003cb4"/>
  </g>
</svg>
