<svg id="strom-nachhaltigkeit-1-pikto" xmlns="http://www.w3.org/2000/svg" width="48" height="48" viewBox="0 0 48 48">
  <title>strom-nachhaltigkeit-1-pikto-form</title>
  <path d="M41.25,26.29V23c0-4.91-3.4-8.75-7.75-8.75S25.75,18.09,25.75,23V39c0,4.13-2.69,7.25-6.25,7.25S13.25,43.13,13.25,39V35.41c4.25-2.76,11-9.27,11-17.41C24.25,9.63,17.11,3,12.9.36L12.5.12l-.4.24C7.89,3,.75,9.63.75,18c0,8.14,6.75,14.65,11,17.41V39c0,4.91,3.4,8.75,7.75,8.75s7.75-3.84,7.75-8.75V23c0-4.13,2.69-7.25,6.25-7.25s6.25,3.12,6.25,7.25v3.29a6.43,6.43,0,0,0-6,6.46v6H36.6V43.9h2.8V38.75h2.2V43.9h2.8V38.75h2.85v-6A6.43,6.43,0,0,0,41.25,26.29Zm4.5,11H35.25v-4.5a5,5,0,0,1,5.25-5,5,5,0,0,1,5.25,5Z" fill="#003cb4"/>
</svg>
