<svg id="strukturierte-produkte-pikto" xmlns="http://www.w3.org/2000/svg" width="48" height="48" viewBox="0 0 48 48">
  <title>strukturierte-produkte-pikto-form</title>
  <g>
    <path d="M47.75,0H.25V39.75h32v4.13L37.75,48V39.75h10Zm-1.5,38.25h-8.5V35.62l1.65.23.3-2.4L42,32l-1.16-2L42,27.67l-2.26-1.13V23.92l-3,.3L35,22.48l-2,1.74-2.67-.3-.29,2.59L27.68,27.7,29.13,30,28,32l2.07,1.47.61,2.75,1.56-.45v2.51H1.75V1.5h44.5Z" fill="#003cb4"/>
    <polygon points="23 24.06 28.53 18.53 27.47 17.47 23.75 21.19 23.75 7 22.25 7 22.25 21.19 18.53 17.47 17.47 18.53 23 24.06" fill="#003cb4"/>
    <polygon points="11.25 8.81 11.25 23 12.75 23 12.75 8.81 16.47 12.53 17.53 11.47 12 5.94 6.47 11.47 7.53 12.53 11.25 8.81" fill="#003cb4"/>
  </g>
</svg>
