<svg id="taschenrechner-pikto" xmlns="http://www.w3.org/2000/svg" width="48" height="48" viewBox="0 0 48 48">
  <title>taschenrechner-pikto-form</title>
  <g>
    <path d="M1.25,1.25v45.5h45.5V1.25Zm22,44H2.75V24.75h20.5Zm-20.5-22V2.75h20.5v20.5ZM29,38.5V37H41v1.5ZM41,33H29V31.5H41ZM24.75,23.25V2.75h20.5v20.5Z" fill="#003cb4"/>
    <rect x="29" y="12.25" width="12" height="1.5" fill="#003cb4"/>
    <polygon points="13.75 8 12.25 8 12.25 12.25 8 12.25 8 13.75 12.25 13.75 12.25 18 13.75 18 13.75 13.75 18 13.75 18 12.25 13.75 12.25 13.75 8" fill="#003cb4"/>
    <polygon points="9.53 38.53 12.5 35.56 15.47 38.53 16.53 37.47 13.56 34.5 16.53 31.53 15.47 30.47 12.5 33.44 9.53 30.47 8.47 31.53 11.44 34.5 8.47 37.47 9.53 38.53" fill="#003cb4"/>
  </g>
</svg>
