<svg id="telefon-pikto" xmlns="http://www.w3.org/2000/svg" width="48" height="48" viewBox="0 0 48 48">
  <title>telefon-pikto-form</title>
  <g>
    <path d="M21.22,38C16.65,36.71,11.33,31.39,10,26.78l1.75-5L9.83,12.36,0,14.39V15C0,33.81,14.19,48,33,48h.6l2-9-9.41-2.77Z" fill="#003cb4"/>
    <path d="M19.25,8V9.5A19.28,19.28,0,0,1,38.5,28.75H40A20.78,20.78,0,0,0,19.25,8Z" fill="#003cb4"/>
    <path d="M30.5,28.75H32A12.76,12.76,0,0,0,19.25,16v1.5A11.27,11.27,0,0,1,30.5,28.75Z" fill="#003cb4"/>
    <path d="M19.25,0V1.5A27.28,27.28,0,0,1,46.5,28.75H48A28.79,28.79,0,0,0,19.25,0Z" fill="#003cb4"/>
  </g>
</svg>
