<svg id="theater-pikto" xmlns="http://www.w3.org/2000/svg" width="48" height="48" viewBox="0 0 48 48">
  <title>theater-pikto-linie</title>
  <path d="M26,1,24,15h2l3,12a6.8,6.8,0,0,0,3,1c5.85,1,11-3.15,12-9L47,5Zm.25,9.25L28.5,8.5a3.38,3.38,0,0,0,2,1.5,4,4,0,0,0,2.25-.5l1.5,2.5a5.33,5.33,0,0,1-4.5.75A4.9,4.9,0,0,1,26.25,10.25ZM38.19,23.47a5.16,5.16,0,0,0-4.28-3.23,5.54,5.54,0,0,0-4.68,1.42l-1.48-2.42A8.76,8.76,0,0,1,34.5,17.5a8.66,8.66,0,0,1,6,4.25ZM39,14.75a4.9,4.9,0,0,1-3.5-2.5l2.25-1.75a3.38,3.38,0,0,0,2,1.5A4,4,0,0,0,42,11.5L43.5,14A5.33,5.33,0,0,1,39,14.75Z" fill="#00bec8" stroke="#00bec8" stroke-miterlimit="10" stroke-width="1.5"/>
  <g>
    <path d="M4,37c1.21,6.87,8.13,10.21,15,9s11.21-7.13,10-14L26,15,1,19Z" fill="none" stroke="#003cb4" stroke-miterlimit="10" stroke-width="1.5"/>
    <path d="M11,37a8.31,8.31,0,0,0,12-2" fill="none" stroke="#003cb4" stroke-miterlimit="10" stroke-width="1.5"/>
    <path d="M18,27a3.43,3.43,0,0,1,5-1" fill="none" stroke="#003cb4" stroke-miterlimit="10" stroke-width="1.5"/>
    <path d="M8,29a3.43,3.43,0,0,1,5-1" fill="none" stroke="#003cb4" stroke-miterlimit="10" stroke-width="1.5"/>
  </g>
</svg>
