<svg id="theater-pikto" xmlns="http://www.w3.org/2000/svg" width="48" height="48" viewBox="0 0 48 48">
  <title>theater-pikto-form</title>
  <g>
    <path d="M25.47,0,23.38,14.64,0,18.38,3.12,37.13a11.37,11.37,0,0,0,5.75,8A14.64,14.64,0,0,0,16.07,47,17,17,0,0,0,19,46.74a13.14,13.14,0,0,0,8.51-5.18,12.62,12.62,0,0,0,2.1-9.69l-.75-4.27a7.51,7.51,0,0,0,3.13,1,11,11,0,0,0,1.89.17,10.62,10.62,0,0,0,6.5-2.23A12.07,12.07,0,0,0,44.84,19L48,4.29Zm3,9.44a3.72,3.72,0,0,0,2,1.18,4.09,4.09,0,0,0,2.09-.27l.77,1.28a4.9,4.9,0,0,1-3.3.27,4.66,4.66,0,0,1-2.68-1.59ZM26.28,40.68a11.62,11.62,0,0,1-7.55,4.58C12.79,46.31,5.81,43.73,4.6,36.87L1.73,19.62l23.52-3.76,2.87,16.27A11.13,11.13,0,0,1,26.28,40.68ZM38.57,22.21a6,6,0,0,0-4.45-2.83,6.61,6.61,0,0,0-1-.07,6.35,6.35,0,0,0-3.62,1.11l-.67-1.09a7.74,7.74,0,0,1,10.75,2.11Zm.71-8.31a4.66,4.66,0,0,1-2.68-1.59l1.12-.87a3.72,3.72,0,0,0,2,1.18,4.09,4.09,0,0,0,2.09-.27l.77,1.28A4.9,4.9,0,0,1,39.28,13.9Z" fill="#003cb4"/>
    <path d="M11.29,36.39l-.86,1.22A9.78,9.78,0,0,0,16,39.47a9,9,0,0,0,7.44-4l-1.23-.86A7.6,7.6,0,0,1,11.29,36.39Z" fill="#003cb4"/>
    <path d="M22.43,26.61l.86-1.22a4.16,4.16,0,0,0-6,1.18l1.23.86A2.68,2.68,0,0,1,22.43,26.61Z" fill="#003cb4"/>
    <path d="M12.43,28.61l.86-1.22a4.16,4.16,0,0,0-6,1.18l1.23.86A2.68,2.68,0,0,1,12.43,28.61Z" fill="#003cb4"/>
  </g>
</svg>
