<svg id="todesfall-pikto" xmlns="http://www.w3.org/2000/svg" width="48" height="48" viewBox="0 0 48 48">
  <title>todesfall-pikto-form</title>
  <path d="M43.75,19.75a19.75,19.75,0,1,0-25.5,18.89V48h11.5V38.64A19.79,19.79,0,0,0,43.75,19.75ZM23.25,19v2.12a3.5,3.5,0,0,1-1.34-.5c-.58-.38-2.35-1.53-.73-5L24,9.78l2.6,5.78c1.62,3.53-.15,4.68-.73,5.06a3.27,3.27,0,0,1-1.09.45V19Zm6.5,18.06V25.5h-5V22.6a5,5,0,0,0,1.91-.72c1.57-1,3.06-3.06,1.27-6.94L24,6.22l-4.21,8.72c-1.79,3.88-.3,5.92,1.27,6.94a5,5,0,0,0,2.16.76V25.5h-5V37.06a18.25,18.25,0,1,1,11.5,0Z" fill="#003cb4"/>
</svg>
