<svg id="toilette-behindertengerecht-pikto" xmlns="http://www.w3.org/2000/svg" width="48" height="48" viewBox="0 0 48 48">
  <title>toilette-behindertengerecht-pikto-form</title>
  <g>
    <path d="M41.65,40.62l-5.5-9.5a4.62,4.62,0,0,0-3.07-1.87l-3.94-.43a12.88,12.88,0,0,0-4.39-4.62v-3l7.86,4.42a3.28,3.28,0,0,0,2.14.49,2.59,2.59,0,0,0,1.89-1.24,3.11,3.11,0,0,0-1.24-4.52l-9.52-6A8.24,8.24,0,0,0,22,13.25H16.5a4.37,4.37,0,0,0-4.25,4.25v6.14A12.74,12.74,0,1,0,30.53,37.32l1,.31,4.85,6.79a3.62,3.62,0,0,0,2.95,1.64,3,3,0,0,0,1.54-.41,2.91,2.91,0,0,0,1.46-1.86A4.52,4.52,0,0,0,41.65,40.62ZM13.75,17.5a2.86,2.86,0,0,1,2.75-2.75H22a6.71,6.71,0,0,1,3.1.88l9.49,6c1.11.71,1.36,1.52.77,2.48a1.11,1.11,0,0,1-.81.53,1.84,1.84,0,0,1-1.18-.29l-8-4.51a1.51,1.51,0,0,0-1.44.07A1.29,1.29,0,0,0,23.25,21v2.39a12.62,12.62,0,0,0-9.5-.4ZM40.87,43.44a1.42,1.42,0,0,1-.74.91,1.94,1.94,0,0,1-2.52-.79l-5.14-7.19-.23-.08c-.14,0-.77-.26-1.53-.48,0-.27,0-.54,0-.81a12.7,12.7,0,0,0-.87-4.59l3,.33a3.09,3.09,0,0,1,2,1.14l5.52,9.53A3.11,3.11,0,0,1,40.87,43.44Z" fill="#003cb4"/>
    <path d="M19,11.75A5.75,5.75,0,1,0,13.25,6,5.76,5.76,0,0,0,19,11.75Zm0-10A4.25,4.25,0,1,1,14.75,6,4.21,4.21,0,0,1,19,1.75Z" fill="#003cb4"/>
  </g>
</svg>
