<svg id="toilette-behindertengerecht-pikto" xmlns="http://www.w3.org/2000/svg" width="48" height="48" viewBox="0 0 48 48">
  <title>toilette-behindertengerecht-pikto-linie</title>
  <path d="M24,31H13V17.5A3.6,3.6,0,0,1,16.5,14H22a7.45,7.45,0,0,1,3.5,1L35,21c1.7,1.09,1.64,2.45,1,3.5a2.1,2.1,0,0,1-3,.5l-8-4.5c-.35-.2-1,.1-1,.5v5.5" fill="none" stroke="#003cb4" stroke-miterlimit="10" stroke-width="1.5"/>
  <path d="M24,29l9,1a3.78,3.78,0,0,1,2.5,1.5L41,41s1.78,2.69-.5,4A2.67,2.67,0,0,1,37,44l-5-7a22.21,22.21,0,0,0-4-1" fill="none" stroke="#003cb4" stroke-miterlimit="10" stroke-width="1.5"/>
  <path d="M24,6a5,5,0,1,1-5-5A5,5,0,0,1,24,6Z" fill="none" stroke="#003cb4" stroke-miterlimit="10" stroke-width="1.5"/>
  <circle cx="18" cy="35" r="12" fill="#00bec8" stroke="#00bec8" stroke-miterlimit="10" stroke-width="1.5"/>
</svg>
