<svg id="toilette-mann-pikto" xmlns="http://www.w3.org/2000/svg" width="48" height="48" viewBox="0 0 48 48">
  <title>toilette-mann-pikto-form</title>
  <g>
    <path d="M24,11.75A5.75,5.75,0,0,0,24,.25,5.69,5.69,0,0,0,18.25,6,5.76,5.76,0,0,0,24,11.75Zm0-10A4.25,4.25,0,1,1,19.75,6,4.21,4.21,0,0,1,24,1.75Z" fill="#003cb4"/>
    <path d="M32.75,20A6.41,6.41,0,0,0,31,15.67c-1.53-1.61-3.89-2.42-7-2.42s-5.42.8-6.95,2.39A6.5,6.5,0,0,0,15.25,20V32.75h5V47h1.5V32.75h4.5V47h1.5V32.75h5Z" fill="#003cb4"/>
  </g>
</svg>
