<svg id="toilette-frau-pikto" xmlns="http://www.w3.org/2000/svg" width="48" height="48" viewBox="0 0 48 48">
  <title>toilette-frau-pikto-form</title>
  <g>
    <path d="M33.85,36.75l-.11-.84s-1.48-11.91-2-16l0-.5c-.25-2.3-.67-6.16-7.69-6.16s-7.4,3.93-7.7,6.28l0,.37c-.53,4-2,15.89-2,16l-.11.84h6.1V47h1.5V36.75h4.5V47h1.5V36.75Z" fill="#003cb4"/>
    <path d="M24,11.75A5.75,5.75,0,0,0,24,.25,5.69,5.69,0,0,0,18.25,6,5.76,5.76,0,0,0,24,11.75Zm0-10A4.25,4.25,0,1,1,19.75,6,4.21,4.21,0,0,1,24,1.75Z" fill="#003cb4"/>
  </g>
</svg>
