<svg id="traktor-pikto" xmlns="http://www.w3.org/2000/svg" width="48" height="48" viewBox="0 0 48 48">
  <title>traktor-pikto-form</title>
  <g>
    <path d="M9.31,5.25,8.18,18.75H22.89L20.64,5.25Zm.51,12,.87-10.5h8.67l1.75,10.5Z" fill="#003cb4"/>
    <path d="M47.75,26c0-2.33-6.88-4.27-13-5.54V10.31l1.78-1.78L35.47,7.47,33.25,9.69V20.16c-1.72-.33-3.33-.61-4.63-.82L24.93,2.75H28V1.25H3v1.5H5.19L3.26,27.29A13,13,0,0,0,1,30.69l1.28.59a11.13,11.13,0,0,0-1,4.72A11.24,11.24,0,0,0,23.6,37.75h9.51A7.25,7.25,0,1,0,47.25,40a7.12,7.12,0,0,0-.78-3.25h1.28ZM12.5,42.75A6.75,6.75,0,1,1,19.25,36,6.76,6.76,0,0,1,12.5,42.75ZM25,36.25V36A12.53,12.53,0,0,0,4.88,25.81L6.69,2.75H23.4l4,17.91.5.08c9.6,1.52,18.18,4,18.37,5.26v8A8.27,8.27,0,0,0,40,31.25a8.45,8.45,0,0,0-7.74,5Zm15,6.5A2.75,2.75,0,1,1,42.75,40,2.75,2.75,0,0,1,40,42.75Z" fill="#003cb4"/>
    <circle cx="12.5" cy="36" r="5.25" fill="#003cb4"/>
  </g>
</svg>
