<svg id="transport-pikto" xmlns="http://www.w3.org/2000/svg" width="48" height="48" viewBox="0 0 48 48">
  <title>transport-pikto-form</title>
  <path d="M46.25,9.5h-1.5V0H3.25V9.5H1.75A1.76,1.76,0,0,0,0,11.25v6.5A1.76,1.76,0,0,0,1.75,19.5h1.5V46A2,2,0,0,0,5,48h6a2,2,0,0,0,1.75-2V44.75h22.5V46A2,2,0,0,0,37,48h6a2,2,0,0,0,1.75-2V19.5h1.5A1.76,1.76,0,0,0,48,17.75v-6.5A1.76,1.76,0,0,0,46.25,9.5Zm-41.5-8h38.5V18H4.75Zm8,33.5a1,1,0,0,1-.15.62,4.78,4.78,0,0,1-.91.15L6,34.28a.77.77,0,0,1-.45-.78V32.25a.76.76,0,0,1,.75-.75H12a.76.76,0,0,1,.75.75Zm18,4H17.25V37.5h13.5Zm0-4H17.25V33.5h13.5Zm0-4.25H17.25v-1.5h13.5ZM42.5,33.5a.75.75,0,0,1-.44.77l-5.69,1.49h0a5.27,5.27,0,0,1-.92-.11.88.88,0,0,1-.2-.65V32.25A.76.76,0,0,1,36,31.5h5.75a.76.76,0,0,1,.75.75Z" fill="#003cb4"/>
</svg>
