<svg id="transaktion-pikto" xmlns="http://www.w3.org/2000/svg" width="48" height="48" viewBox="0 0 48 48">
  <title>transaktion-pikto-form</title>
  <g>
    <polygon points="14.53 23.53 13.47 22.47 7.94 28 13.47 33.53 14.53 32.47 10.81 28.75 25 28.75 25 27.25 10.81 27.25 14.53 23.53" fill="#003cb4"/>
    <polygon points="19.47 13.53 23.19 17.25 9 17.25 9 18.75 23.19 18.75 19.47 22.47 20.53 23.53 26.06 18 20.53 12.47 19.47 13.53" fill="#003cb4"/>
    <path d="M30,5.25a19.82,19.82,0,0,0-6.15,1,17.75,17.75,0,1,0,0,33.48,19.82,19.82,0,0,0,6.15,1A17.57,17.57,0,0,0,47.75,23,17.57,17.57,0,0,0,30,5.25ZM1.75,23a16.25,16.25,0,0,1,32.41-1.71s0,.06,0,.09c0,.53.08,1.07.08,1.62s0,1.09-.08,1.62c0,0,0,.06,0,.09A16.25,16.25,0,0,1,1.75,23Z" fill="#003cb4"/>
  </g>
</svg>
