<svg id="transaktionskonto-pikto" xmlns="http://www.w3.org/2000/svg" width="48" height="48" viewBox="0 0 48 48">
  <title>transaktionskonto-pikto-form</title>
  <g>
    <path d="M30.74,15a6.77,6.77,0,0,0-6.18,4l-.07.17a7,7,0,1,0,3.56,8.76l.25.1a6.57,6.57,0,0,0,2.44.46,6.75,6.75,0,1,0,0-13.5ZM21.5,31A5.5,5.5,0,1,1,27,25.5,5.51,5.51,0,0,1,21.5,31Z" fill="#003cb4"/>
    <path d="M38.75,0H3.5V48H38.75a5.76,5.76,0,0,0,5.75-5.75V5.75A5.76,5.76,0,0,0,38.75,0ZM43,42.25a4.26,4.26,0,0,1-4.25,4.25H8V1.5H38.75A4.26,4.26,0,0,1,43,5.75Z" fill="#003cb4"/>
  </g>
</svg>
