<svg id="transaktionskonto-pikto" xmlns="http://www.w3.org/2000/svg" width="48" height="48" viewBox="0 0 48 48">
  <title>transaktionskonto-pikto-linie</title>
  <path d="M30.74,15.75a6,6,0,1,1-2.17,11.59,6.82,6.82,0,0,0,.23-1.79,7.28,7.28,0,0,0-3.55-6.23,6,6,0,0,1,5.49-3.57" fill="#00bec8" stroke="#00bec8" stroke-miterlimit="10" stroke-width="1.5"/>
  <circle cx="21.5" cy="25.5" r="6.25" fill="none" stroke="#00bec8" stroke-miterlimit="10" stroke-width="1.5"/>
  <path d="M5,.75H39a5,5,0,0,1,5,5v36.5a5,5,0,0,1-5,5H5a0,0,0,0,1,0,0V.75A0,0,0,0,1,5,.75Z" fill="none" stroke="#003cb4" stroke-miterlimit="10" stroke-width="1.5"/>
  <rect x="4.5" y="0.75" width="3" height="46.5" fill="#003cb4" stroke="#003cb4" stroke-miterlimit="10" stroke-width="1.5"/>
</svg>
