<svg id="transport-pikto" xmlns="http://www.w3.org/2000/svg" width="48" height="48" viewBox="0 0 48 48">
  <title>transport-pikto-linie</title>
  <path d="M44,19.25H4V46c0,.55.45,1.25,1,1.25h6c.55,0,1-.7,1-1.25V44H36v2c0,.55.45,1.25,1,1.25h6c.55,0,1-.7,1-1.25ZM13.5,35a1.55,1.55,0,0,1-.5,1.25,3.76,3.76,0,0,1-1.5.25L5.75,35a1.48,1.48,0,0,1-1-1.5V32.25a1.5,1.5,0,0,1,1.5-1.5H12a1.5,1.5,0,0,1,1.5,1.5Zm18,4.75h-15v-3h15Zm0-4h-15v-3h15Zm0-4.25h-15v-3h15Zm11.75,2a1.48,1.48,0,0,1-1,1.5L36.5,36.5a3.76,3.76,0,0,1-1.5-.25A1.55,1.55,0,0,1,34.5,35V32.25a1.5,1.5,0,0,1,1.5-1.5h5.75a1.5,1.5,0,0,1,1.5,1.5Z" fill="#00bec8" stroke="#00bec8" stroke-miterlimit="10" stroke-width="1.5"/>
  <rect x="4" y="0.75" width="40" height="18" fill="none" stroke="#003cb4" stroke-miterlimit="10" stroke-width="1.5"/>
  <path d="M3.25,18.75H1.75a1,1,0,0,1-1-1v-6.5a1,1,0,0,1,1-1h1.5Z" fill="#003cb4" stroke="#003cb4" stroke-miterlimit="10" stroke-width="1.5"/>
  <path d="M44.75,18.75h1.5a1,1,0,0,0,1-1v-6.5a1,1,0,0,0-1-1h-1.5Z" fill="#003cb4" stroke="#003cb4" stroke-miterlimit="10" stroke-width="1.5"/>
</svg>
