<svg id="treuekarte-pikto" xmlns="http://www.w3.org/2000/svg" width="48" height="48" viewBox="0 0 48 48">
  <title>treuekarte-pikto-form</title>
  <g>
    <path d="M35.75,37l5.11-5.38a4.32,4.32,0,0,0,1.33-3.15,3.58,3.58,0,0,0-1.37-2.58c-1.72-1.45-3.9-.45-5.07.47-1.17-.92-3.35-1.92-5.07-.47a3.58,3.58,0,0,0-1.37,2.58,4.28,4.28,0,0,0,1.33,3.14Z" fill="#003cb4"/>
    <path d="M43.5,6.25H4.5c-2.34,0-4.25,2.24-4.25,5v25.5c0,2.76,1.91,5,4.25,5h39c2.34,0,4.25-2.24,4.25-5V11.25C47.75,8.49,45.84,6.25,43.5,6.25Zm2.75,30.5c0,1.93-1.23,3.5-2.75,3.5H4.5c-1.52,0-2.75-1.57-2.75-3.5v-15h44.5Zm0-22.5H1.75v-3c0-1.93,1.23-3.5,2.75-3.5h39c1.52,0,2.75,1.57,2.75,3.5Z" fill="#003cb4"/>
  </g>
</svg>
