<svg xmlns="http://www.w3.org/2000/svg" viewBox="0 0 24 24"><title>xyc</title><path d="M12.07,8.87a1.13,1.13,0,0,0-1,1.7c.41.63,1,1.54,1,1.54s.63-.91,1-1.54A1.14,1.14,0,0,0,12.07,8.87Z" style="fill:#003cb4"/><path d="M21.53,6.17,12.47,1.11a1,1,0,0,0-.94,0L2.47,6.17A1,1,0,0,0,2,6.94V17.06a1,1,0,0,0,.47.77l9.06,5.06a1,1,0,0,0,.94,0l9.06-5.06a1,1,0,0,0,.47-.77V6.94A1,1,0,0,0,21.53,6.17Zm-11,11.19a1,1,0,0,1-.72.4,1,1,0,0,1-.73-.41L5,11.53a2.54,2.54,0,0,1-.16-2.66A2.94,2.94,0,0,1,8.64,7.49L7.83,8.93a1.34,1.34,0,0,0-.35,0,1.12,1.12,0,0,0-1,1.69c.4.63,1,1.54,1,1.54L9.8,15.27h0l.89-1.21,1.05,1.5Zm4.55,0a1,1,0,0,1-.71.4,1,1,0,0,1-.71-.38L12.07,15,11,13.56c-.64-.93-1.42-2-1.42-2a2.56,2.56,0,0,1-.16-2.67,3,3,0,0,1,5.28,0,2.57,2.57,0,0,1-.18,2.7l-1.39,2,1.21,1.79L16.73,12h0v0h2.05Z" style="fill:#003cb4"/></svg>