<svg id="twint-pikto" xmlns="http://www.w3.org/2000/svg" width="48" height="48" viewBox="0 0 48 48">
  <title>twint-pikto</title>
  <g>
    <path d="M30,29.71c-1.26-1.66-2.69-3.62-4-5.57,2.47-3.63,4.83-7.5,4.83-9.14A5.62,5.62,0,0,0,25,9.25,5.62,5.62,0,0,0,19.25,15c0,1.64,2.36,5.51,4.83,9.14-1.35,1.95-2.79,3.92-4,5.58-2-2.84-8.16-11.93-9.38-14.09a4,4,0,0,1,.3-3.32A3.26,3.26,0,0,1,14,10.75a3.66,3.66,0,0,1,2.48.79l1.05-1.07A5.14,5.14,0,0,0,14,9.25a4.68,4.68,0,0,0-4.34,2.3,5.42,5.42,0,0,0-.31,4.82C10.82,19,19,30.92,19.38,31.42l.59.85.62-.81c.69-.9,2.51-3.28,4.41-6,1.9,2.72,3.72,5.1,4.41,6l.63.83,8.58-12.87-1.24-.84ZM20.75,15A4.11,4.11,0,0,1,25,10.75,4.11,4.11,0,0,1,29.25,15c0,1.12-1.91,4.33-4.25,7.8C22.66,19.33,20.75,16.12,20.75,15Z" fill="#003cb4"/>
    <path d="M47.74,33.85l-6-30C41.47,2.17,39.87.25,38,.25H10c-1.87,0-3.47,1.92-3.74,3.6l-6,30a4.78,4.78,0,0,0,1.07,3.88,6.12,6.12,0,0,0,4.67,2h.25V44A3.75,3.75,0,0,0,10,47.75H38A3.75,3.75,0,0,0,41.75,44V39.75H42a6.12,6.12,0,0,0,4.67-2A4.81,4.81,0,0,0,47.74,33.85Zm-2.21,2.93A4.61,4.61,0,0,1,42,38.25H6a4.61,4.61,0,0,1-3.53-1.47,3.17,3.17,0,0,1-.73-2.63l6-30C7.91,3,9,1.75,10,1.75H38c1,0,2.09,1.29,2.26,2.4l6,30A3.21,3.21,0,0,1,45.53,36.78Z" fill="#003cb4"/>
  </g>
</svg>
