<svg xmlns="http://www.w3.org/2000/svg" viewBox="0 0 24 24"><title>xyc</title><path d="M7.92,21A12.8,12.8,0,0,0,20.76,8.07c0-.2,0-.39,0-.59A9.31,9.31,0,0,0,23,5.13a8.67,8.67,0,0,1-2.59.71,4.54,4.54,0,0,0,2-2.51,8.89,8.89,0,0,1-2.86,1.1,4.49,4.49,0,0,0-6.39-.19,4.58,4.58,0,0,0-1.31,4.34,12.8,12.8,0,0,1-9.3-4.75A4.57,4.57,0,0,0,3.93,9.9a4.6,4.6,0,0,1-2.05-.57v.06A4.54,4.54,0,0,0,5.5,13.84a4.53,4.53,0,0,1-2,.08,4.51,4.51,0,0,0,4.22,3.15A8.94,8.94,0,0,1,2.07,19,9.73,9.73,0,0,1,1,19a12.78,12.78,0,0,0,6.92,2" style="fill:#003cb4"/></svg>