<svg id="us-flagge-pikto" xmlns="http://www.w3.org/2000/svg" width="48" height="48" viewBox="0 0 48 48">
  <title>us-flagge-pikto-form</title>
  <path d="M.25,8.25v31.5h47.5V8.25Zm20.8,13.82-1.55-.85L18,22.07l.35-1.71L17,19.18l1.76-.2.74-1.58L20.24,19l1.76.2-1.3,1.18Zm0-6.8-1.55-.85L18,15.27l.35-1.71L17,12.38l1.76-.2.74-1.58.74,1.58,1.76.2-1.3,1.18Zm-7,6.8-1.55-.85L11,22.07l.35-1.71L10,19.18l1.76-.2.74-1.58L13.24,19l1.76.2-1.3,1.18Zm0-6.8-1.55-.85L11,15.27l.35-1.71L10,12.38l1.76-.2.74-1.58.74,1.58,1.76.2-1.3,1.18Zm-7,6.8L5.5,21.22,4,22.07l.35-1.71L3,19.18,4.76,19,5.5,17.4,6.24,19l1.76.2L6.7,20.36Zm0-6.8L5.5,14.42,4,15.27l.35-1.71L3,12.38l1.76-.2L5.5,10.6l.74,1.58,1.76.2L6.7,13.56Zm39.2,23H1.75v-3.5h44.5Zm0-5H1.75v-3.5h44.5Zm0-5H1.75v-3.5h44.5Zm0-5H24.75v-3.5h21.5Zm0-5H24.75v-3.5h21.5Zm0-5H24.75V9.75h21.5Z" fill="#003cb4"/>
</svg>
