<svg id="us-flagge-pikto" xmlns="http://www.w3.org/2000/svg" width="48" height="48" viewBox="0 0 48 48">
  <title>us-flagge-pikto-linie</title>
  <rect x="1" y="9" width="46" height="30" fill="none" stroke="#003cb4" stroke-miterlimit="10" stroke-width="1.5"/>
  <line x1="24" y1="24" x2="47" y2="24" fill="none" stroke="#003cb4" stroke-miterlimit="10" stroke-width="1.5"/>
  <line x1="24" y1="19" x2="47" y2="19" fill="none" stroke="#003cb4" stroke-miterlimit="10" stroke-width="1.5"/>
  <line x1="24" y1="14" x2="47" y2="14" fill="none" stroke="#003cb4" stroke-miterlimit="10" stroke-width="1.5"/>
  <line x1="1" y1="29" x2="47" y2="29" fill="none" stroke="#003cb4" stroke-miterlimit="10" stroke-width="1.5"/>
  <line x1="1" y1="34" x2="47" y2="34" fill="none" stroke="#003cb4" stroke-miterlimit="10" stroke-width="1.5"/>
  <path d="M.25,8.25v16.5h24.5V8.25Zm6.8,13.82L5.5,21.22,4,22.07l.35-1.71L3,19.18,4.76,19,5.5,17.4,6.24,19l1.76.2L6.7,20.36ZM6.7,13.56l.35,1.71L5.5,14.42,4,15.27l.35-1.71L3,12.38l1.76-.2L5.5,10.6l.74,1.58,1.76.2Zm7.35,8.51-1.55-.85L11,22.07l.35-1.71L10,19.18l1.76-.2.74-1.58L13.24,19l1.76.2-1.3,1.18Zm-.35-8.51.35,1.71-1.55-.85L11,15.27l.35-1.71L10,12.38l1.76-.2.74-1.58.74,1.58,1.76.2Zm7.35,8.51-1.55-.85L18,22.07l.35-1.71L17,19.18l1.76-.2.74-1.58L20.24,19l1.76.2-1.3,1.18Zm-.35-8.51.35,1.71-1.55-.85L18,15.27l.35-1.71L17,12.38l1.76-.2.74-1.58.74,1.58,1.76.2Z" fill="#00bec8"/>
</svg>
