<svg id="verlauf-pikto" xmlns="http://www.w3.org/2000/svg" width="48" height="48" viewBox="0 0 48 48">
  <title>verlauf-pikto</title>
  <g>
    <rect x="12" y="4.25" width="10" height="1.5" fill="#003cb4"/>
    <path d="M36.89.11H8.11V13.89H36.89Zm-1.78,12H9.89V1.89H35.11Z" fill="#003cb4"/>
    <path d="M8.11,47.89H36.89V34.11H8.11Zm1.78-12H35.11V46.11H9.89Z" fill="#003cb4"/>
    <path d="M5.75,7a2.75,2.75,0,1,0-3.5,2.63V21.37a2.73,2.73,0,0,0,0,5.26V38.37a2.75,2.75,0,1,0,1.5,0V26.63a2.73,2.73,0,0,0,0-5.26V9.63A2.75,2.75,0,0,0,5.75,7ZM4.25,41A1.25,1.25,0,1,1,3,39.75,1.25,1.25,0,0,1,4.25,41Zm0-17A1.25,1.25,0,1,1,3,22.75,1.25,1.25,0,0,1,4.25,24ZM3,8.25A1.25,1.25,0,1,1,4.25,7,1.25,1.25,0,0,1,3,8.25Z" fill="#003cb4"/>
    <rect x="12" y="8.25" width="17" height="1.5" fill="#003cb4"/>
    <path d="M8.16,17.16V30.84H47.84V17.16ZM12,21.25H22v1.5H12Zm17,5.5H12v-1.5H29Z" fill="#003cb4"/>
    <rect x="12" y="38.25" width="10" height="1.5" fill="#003cb4"/>
    <rect x="12" y="42.25" width="17" height="1.5" fill="#003cb4"/>
  </g>
</svg>
