<svg id="vermoegen-pikto" xmlns="http://www.w3.org/2000/svg" width="48" height="48" viewBox="0 0 48 48">
  <title>vermoegen-pikto-form</title>
  <path d="M39,30.25a8.57,8.57,0,0,0-4.92,1.51,25.91,25.91,0,0,0-3.42-10.62,76.23,76.23,0,0,0-8.3-11.79L25.83,0H8.45l3.2,9.34a77.2,77.2,0,0,0-8.31,11.8C1.06,25.37,0,29.09,0,32.51a14.36,14.36,0,0,0,.53,4,15.55,15.55,0,0,0,7.61,9.2,19.25,19.25,0,0,0,9,2.18,19.11,19.11,0,0,0,6.28-1A9.21,9.21,0,0,0,33.75,46,8.11,8.11,0,0,0,39,48a9.12,9.12,0,0,0,9-9A8.89,8.89,0,0,0,39,30.25ZM10.55,1.5H23.67L21,8.75H13ZM8.86,44.34A14.08,14.08,0,0,1,2,36a13,13,0,0,1-.47-3.55c0-3.16,1-6.64,3.16-10.63a76.06,76.06,0,0,1,8.19-11.61h8.31a75.23,75.23,0,0,1,8.18,11.61,26.19,26.19,0,0,1,3.13,8.8A9.15,9.15,0,0,0,28,29.5a9.24,9.24,0,0,0-6.08,16.2A18.12,18.12,0,0,1,8.86,44.34Zm11.39-5.59A7.75,7.75,0,1,1,28,46.5,7.76,7.76,0,0,1,20.25,38.75Z" fill="#003cb4"/>
</svg>
