<?xml version="1.0" encoding="utf-8"?>
<!-- Generator: Adobe Illustrator 23.1.1, SVG Export Plug-In . SVG Version: 6.00 Build 0)  -->
<svg version="1.1" id="vermoegen-pikto" xmlns="http://www.w3.org/2000/svg" xmlns:xlink="http://www.w3.org/1999/xlink" x="0px"
	 y="0px" viewBox="0 0 48 48" enable-background="new 0 0 48 48" xml:space="preserve">
<title>vermoegen-pikto-linie</title>
<path fill="none" stroke="#003CB4" stroke-width="1.5" stroke-miterlimit="10" d="M33.35,32.16C33.06,28.4,31.92,24.75,30,21.5
	c-2.44-4.27-5.28-8.29-8.5-12l3.25-8.75H9.5l3,8.75c-3.2,3.72-6.05,7.74-8.5,12c-2.2,4.08-3.28,7.67-3.25,11
	c-0.01,1.27,0.16,2.53,0.5,3.75C2.41,40.01,5.02,43.16,8.5,45c4.65,2.39,10.08,2.76,15,1"/>
<line fill="none" stroke="#003CB4" stroke-width="1.5" stroke-miterlimit="10" x1="12.5" y1="9.5" x2="21.5" y2="9.5"/>
<path fill="#00BEC8" stroke="#00BEC8" stroke-width="1.5" stroke-miterlimit="10" d="M38.75,30.75c-1.82-0.02-3.59,0.6-5,1.75
	c1.61,1.68,2.51,3.92,2.5,6.25c0.05,2.32-0.96,4.53-2.75,6c1.39,1.4,3.27,2.21,5.25,2.25c4.54-0.04,8.21-3.71,8.25-8.25
	c-0.06-4.48-3.74-8.06-8.22-8C38.77,30.75,38.76,30.75,38.75,30.75z"/>
<path fill="none" stroke="#003CB4" stroke-width="1.5" stroke-miterlimit="10" d="M27.5,47c-4.69,0-8.5-3.81-8.5-8.5
	s3.81-8.5,8.5-8.5s8.5,3.81,8.5,8.5C35.99,43.19,32.19,46.99,27.5,47z"/>
</svg>
