<?xml version="1.0" encoding="utf-8"?>
<!-- Generator: Adobe Illustrator 23.1.1, SVG Export Plug-In . SVG Version: 6.00 Build 0)  -->
<svg version="1.1" id="vernetzung-pikto" xmlns="http://www.w3.org/2000/svg" xmlns:xlink="http://www.w3.org/1999/xlink" x="0px"
	 y="0px" viewBox="0 0 48 48" enable-background="new 0 0 48 48" xml:space="preserve">
<title>vernetzung-pikto-linie</title>
<path fill="none" stroke="#003CB4" stroke-width="1.5" stroke-miterlimit="10" d="M24,4.5c11.74,0,21.25,9.51,21.25,21.25
	c0,0.65,0.06,1.37,0,2"/>
<path fill="none" stroke="#003CB4" stroke-width="1.5" stroke-miterlimit="10" d="M41.5,38c-6.49,9.61-19.55,12.14-29.16,5.65
	c-0.64-0.43-1.26-0.9-1.84-1.4"/>
<path fill="none" stroke="#003CB4" stroke-width="1.5" stroke-miterlimit="10" d="M4.75,34.5C3.59,31.73,2.99,28.75,3,25.75
	C2.94,17.48,7.73,9.94,15.25,6.5"/>
<path fill="#00BEC8" stroke="#00BEC8" stroke-width="1.5" stroke-miterlimit="10" d="M27.25,5C27.2,7.33,25.33,9.2,23,9.25
	C20.72,9.18,18.93,7.28,19,5c-0.05-2.16,1.66-3.95,3.82-4c0.06,0,0.12,0,0.18,0C25.28,0.93,27.18,2.72,27.25,5z"/>
<path fill="#00BEC8" stroke="#00BEC8" stroke-width="1.5" stroke-miterlimit="10" d="M9.25,35c0.01,2.3-1.82,4.19-4.12,4.25
	C2.83,39.19,0.99,37.3,1,35c-0.05-2.16,1.66-3.95,3.82-4c0.06,0,0.12,0,0.18,0C7.28,30.93,9.18,32.72,9.25,35z"/>
<path fill="none" stroke="#003CB4" stroke-width="1.5" stroke-miterlimit="10" d="M33,38.5c0,0,0-8-9-8s-9,8-9,8H33z"/>
<path fill="#003CB4" stroke="#003CB4" stroke-width="1.5" stroke-miterlimit="10" d="M24,13.5c-3.38,0.06-6.17,2.64-6.5,6
	c1.42,0.63,2.95,0.97,4.5,1c2.15-0.09,4.23-0.78,6-2c0.48,1.02,1.4,1.76,2.5,2C30.63,16.78,27.72,13.65,24,13.5z"/>
<circle fill="none" stroke="#003CB4" stroke-width="1.5" stroke-miterlimit="3" cx="24" cy="20.5" r="7"/>
<path fill="#00BEC8" stroke="#00BEC8" stroke-width="1.5" stroke-miterlimit="10" d="M47,35c-0.05,2.33-1.92,4.2-4.25,4.25
	c-2.28-0.07-4.07-1.97-4-4.25c-0.05-2.16,1.66-3.95,3.82-4c0.06,0,0.12,0,0.18,0C45.03,30.93,46.93,32.72,47,35z"/>
</svg>
