<svg id="verpflegung-pikto" xmlns="http://www.w3.org/2000/svg" width="48" height="48" viewBox="0 0 48 48">
  <title>verpflegung-pikto-form</title>
  <g>
    <path d="M14.82,11.11a8.55,8.55,0,0,0,4.95,1.56,8.86,8.86,0,0,0,3.53-.73l.4-.18.05-.43a8.23,8.23,0,0,0-3.82-7.44A8.32,8.32,0,0,0,11.7,2.81L11.3,3l-.05.43A8.49,8.49,0,0,0,14.82,11.11Zm4.25-6a6.9,6.9,0,0,1,3.21,5.62,7.22,7.22,0,0,1-6.6-.84,7.05,7.05,0,0,1-3-5.86A6.91,6.91,0,0,1,19.07,5.11Z" fill="#003cb4"/>
    <path d="M25.3,9.77l.4.17a9,9,0,0,0,3.52.72,8.57,8.57,0,0,0,5-1.55,8.06,8.06,0,0,0,3.57-7.44l0-.44-.4-.17a8.78,8.78,0,0,0-8.48.83,8.06,8.06,0,0,0-3.57,7.44Z" fill="#003cb4"/>
    <path d="M43.39,24.24c-.78-3.53-3.16-7.95-10-9h0c-5.29-.76-7.85,1.21-8.91,2.48-1.18-1.24-4-3.24-9.32-2.48-6.33,1-9.94,5.83-9.88,13.25s4.24,15.91,9.13,18.43a6.48,6.48,0,0,0,3,.77,5.64,5.64,0,0,0,3.32-1.1c2.67-1.87,4.47-1.87,7.14,0,2.16,1.52,4.75,1.42,7.29-.27C40.43,42.78,45.21,32.35,43.39,24.24ZM34.27,45.09c-2,1.37-3.92,1.47-5.59.3-3.19-2.25-5.67-2.25-8.86,0a4.32,4.32,0,0,1-4.75.22C10.69,43.35,6.8,35.36,6.75,28.49c0-3.11.77-10.51,8.61-11.75a15.35,15.35,0,0,1,2.05-.15c4.72,0,6.37,2.66,6.44,2.78l.72,1.24.61-1.3c.07-.14,1.72-3.46,8-2.57,4.77.72,7.81,3.43,8.79,7.82C43.59,32,39.1,41.87,34.27,45.09Z" fill="#003cb4"/>
  </g>
</svg>
