<svg id="vertrag-pikto" xmlns="http://www.w3.org/2000/svg" width="48" height="48" viewBox="0 0 48 48">
  <title>vertrag-pikto-form</title>
  <g>
    <path d="M31.25,0h-26V48h37.5V11.25Zm10,46.5H6.75V1.5h23V12.75h11.5Z" fill="#003cb4"/>
    <path d="M26.13,35.26a2.62,2.62,0,0,0-2.28,1.1c-.79.77-1.35,1.26-2.35,1a9.64,9.64,0,0,1,.63-1.24c.5-.89.9-1.59.71-2.2a1,1,0,0,0-.5-.6c-.94-.47-1.74.14-2.55.9l.32-.45C23,29.66,24.69,27,24.25,25.41a1.69,1.69,0,0,0-.93-1.09c-1.24-.58-4.68-1.34-9.87,4.17-2.64,2.81-3.59,6.31-3.16,8.32a2.06,2.06,0,0,0,1.17,1.63c.47.2.9.35,1.29.48-.95.63-1.68,1-2,.87a.55.55,0,0,1,0-.27.75.75,0,0,0-.73-.77.76.76,0,0,0-.77.73,1.54,1.54,0,0,0,1,1.69,1.7,1.7,0,0,0,.51.08c1.05,0,2.53-.81,4.05-2,1.55,0,2.55-.8,3.87-2,.25-.23.51-.47.81-.72s.71-.65,1-.94c.11-.12.25-.25.39-.38l-.08.14c-.55,1-1.07,1.89-.78,2.64a1.13,1.13,0,0,0,.72.68c2.1.72,3.33-.49,4.14-1.28.38-.38.74-.73,1-.69a11,11,0,0,1,2.86.92,5.16,5.16,0,0,0,3.4.58,46.55,46.55,0,0,1,5.39-.49.75.75,0,0,0,0-1.5,48.3,48.3,0,0,0-5.61.51,3.68,3.68,0,0,1-2.53-.47A12.31,12.31,0,0,0,26.13,35.26Zm-7.25-2.33a24.36,24.36,0,0,1-4.54,4.81,9.11,9.11,0,0,1-2.3-.68.83.83,0,0,1-.29-.56c-.29-1.36.39-4.42,2.8-7,3.18-3.38,5.48-4.09,6.85-4.09a3,3,0,0,1,1.28.26.18.18,0,0,1,.12.12C23.08,26.85,20.65,30.36,18.88,32.93Z" fill="#003cb4"/>
  </g>
</svg>
