<svg id="vertrag-pikto" xmlns="http://www.w3.org/2000/svg" width="48" height="48" viewBox="0 0 48 48">
  <title>vertrag-pikto-linie</title>
  <polygon points="42 47.25 6 47.25 6 0.75 30.5 0.75 30.5 12 42 12 42 47.25" fill="none" stroke="#003cb4" stroke-width="1.5"/>
  <polygon points="31.25 0 42.75 11.25 31.25 11.25 31.25 0" fill="#00bec8"/>
  <path d="M10,39.5c-.1,3.2,6.59-1.94,9.49-6.14S24.66,25.78,23,25s-4.81-.45-9,4c-3.28,3.49-3.74,8.13-2.25,8.75,4.14,1.72,4.84.31,7.25-1.75,1.37-1.17,2.2-2.4,3-2s-2.22,3.58-1,4c2.8,1,3.51-2.26,5-2,3.21.56,3.7,1.9,6,1.5a48.18,48.18,0,0,1,5.5-.5" fill="none" stroke="#003cb4" stroke-linecap="round" stroke-miterlimit="10" stroke-width="1.5"/>
</svg>
