<svg id="video-pikto" xmlns="http://www.w3.org/2000/svg" width="48" height="48" viewBox="0 0 48 48">
  <title>video-pikto-form</title>
  <g>
    <path d="M39.71,23.68V14.15H26.47a5.8,5.8,0,1,0-7.66-7.58,7.29,7.29,0,1,0-9.89,7.58H0V48H39.71V36.45l8.29,3V20.64ZM24.13,4.55a4.3,4.3,0,1,1-4.28,4.29A4.28,4.28,0,0,1,24.13,4.55Zm-2.35,9.6H14.2a7.37,7.37,0,0,0,4.23-4.39A5.81,5.81,0,0,0,21.78,14.15Zm-16-6.82a5.78,5.78,0,1,1,5.78,5.81A5.8,5.8,0,0,1,5.78,7.33ZM38.2,46.48H1.51V15.66H38.2Zm8.29-9.16-6.78-2.48V25.29l6.78-2.48Z" fill="#003cb4"/>
    <polygon points="14.25 22.72 14.25 39.28 29.04 31 14.25 22.72" fill="#003cb4"/>
  </g>
</svg>
