<svg id="virus-pikto" xmlns="http://www.w3.org/2000/svg" width="48" height="48" viewBox="0 0 48 48">
  <title>virus-pikto</title>
  <path d="M13,15h0A11,11,0,0,1,24,4h0A11,11,0,0,1,35,15h0V31A11,11,0,0,1,24,42h0A11,11,0,0,1,13,31Z" fill="none" stroke="#003cb4" stroke-miterlimit="10" stroke-width="1.5"/>
  <line x1="34" y1="11" x2="39" y2="9" fill="none" stroke="#003cb4" stroke-miterlimit="10" stroke-width="1.5"/>
  <line x1="14" y1="11" x2="9" y2="9" fill="none" stroke="#003cb4" stroke-miterlimit="10" stroke-width="1.5"/>
  <line x1="35" y1="30" x2="40" y2="30" fill="none" stroke="#003cb4" stroke-miterlimit="10" stroke-width="1.5"/>
  <line x1="35" y1="23" x2="40" y2="23" fill="none" stroke="#003cb4" stroke-miterlimit="10" stroke-width="1.5"/>
  <line x1="8" y1="23" x2="13" y2="23" fill="none" stroke="#003cb4" stroke-miterlimit="10" stroke-width="1.5"/>
  <line x1="8" y1="30" x2="13" y2="30" fill="none" stroke="#003cb4" stroke-miterlimit="10" stroke-width="1.5"/>
  <line x1="29" y1="41" x2="32" y2="45" fill="none" stroke="#003cb4" stroke-miterlimit="10" stroke-width="1.5"/>
  <line x1="19" y1="41" x2="16" y2="45" fill="none" stroke="#003cb4" stroke-miterlimit="10" stroke-width="1.5"/>
  <line x1="29" y1="5" x2="32" y2="1" fill="none" stroke="#003cb4" stroke-miterlimit="10" stroke-width="1.5"/>
  <line x1="19" y1="5" x2="16" y2="1" fill="none" stroke="#003cb4" stroke-miterlimit="10" stroke-width="1.5"/>
  <circle cx="22" cy="15" r="4" fill="#00bec8" stroke="#00bec8" stroke-miterlimit="10" stroke-width="1.5"/>
  <circle cx="29" cy="24" r="3" fill="#00bec8" stroke="#00bec8" stroke-miterlimit="10" stroke-width="1.5"/>
  <circle cx="21" cy="32" r="2" fill="#00bec8" stroke="#00bec8" stroke-miterlimit="10" stroke-width="1.5"/>
</svg>
