<svg id="virus-pikto" xmlns="http://www.w3.org/2000/svg" width="48" height="48" viewBox="0 0 48 48">
  <title>virus-pikto</title>
  <g>
    <path d="M40,23.75v-1.5H35.75V15a11.69,11.69,0,0,0-.59-3.66L39.28,9.7l-.56-1.4L34.6,10a11.83,11.83,0,0,0-4.6-5l2.6-3.47L31.4.55,28.65,4.21a11.74,11.74,0,0,0-9.3,0L16.6.55l-1.2.9L18,4.92a11.83,11.83,0,0,0-4.6,5L9.28,8.3,8.72,9.7l4.12,1.64A11.69,11.69,0,0,0,12.25,15v7.25H8v1.5h4.25v5.5H8v1.5h4.25V31A11.73,11.73,0,0,0,18,41.08l-2.6,3.47,1.2.9,2.75-3.66a11.74,11.74,0,0,0,9.3,0l2.75,3.66,1.2-.9L30,41.08A11.73,11.73,0,0,0,35.75,31v-.25H40v-1.5H35.75v-5.5ZM34.25,31a10.25,10.25,0,0,1-20.5,0V15a10.25,10.25,0,0,1,20.5,0Z" fill="#003cb4"/>
    <circle cx="22" cy="15" r="4.75" fill="#003cb4"/>
    <circle cx="29" cy="24" r="3.75" fill="#003cb4"/>
    <circle cx="21" cy="32" r="2.75" fill="#003cb4"/>
  </g>
</svg>
