<svg id="viszeral-pikto" xmlns="http://www.w3.org/2000/svg" width="48" height="48" viewBox="0 0 48 48">
  <title>viszeral-pikto-form</title>
  <g>
    <path d="M47.59,23.54C47.14,23,36.38,9.25,24,9.25S.86,23,.41,23.54L.05,24l.36.46C.86,25,11.62,38.75,24,38.75S47.14,25,47.59,24.46L48,24ZM2,24a48.26,48.26,0,0,1,10.84-9.58,14.69,14.69,0,0,0,0,19.16A48.63,48.63,0,0,1,2,24ZM24,37.25A13.25,13.25,0,1,1,37.25,24,13.26,13.26,0,0,1,24,37.25Zm11.19-3.67a14.69,14.69,0,0,0,0-19.16A48.63,48.63,0,0,1,46,24,48.26,48.26,0,0,1,35.19,33.58Z" fill="#003cb4"/>
    <path d="M24.47,19.22l-.47.47-.47-.47a4.29,4.29,0,1,0-6.06,6.06L24,31.81l6.53-6.53a4.29,4.29,0,0,0-6.06-6.06Z" fill="#003cb4"/>
  </g>
</svg>
