<svg id="vorsorgekonto-pikto" xmlns="http://www.w3.org/2000/svg" width="48" height="48" viewBox="0 0 48 48">
  <title>vorsorgekonto-pikto-linie</title>
  <path d="M5,.75H39a5,5,0,0,1,5,5v36.5a5,5,0,0,1-5,5H5a0,0,0,0,1,0,0V.75A0,0,0,0,1,5,.75Z" fill="none" stroke="#003cb4" stroke-miterlimit="10" stroke-width="1.5"/>
  <rect x="4.5" y="0.75" width="3" height="46.5" fill="#003cb4" stroke="#003cb4" stroke-miterlimit="10" stroke-width="1.5"/>
  <path d="M30.5,20A7.67,7.67,0,0,0,24,16.25a7.75,7.75,0,0,0,0,15.5A7.67,7.67,0,0,0,30.5,28" fill="none" stroke="#00bec8" stroke-miterlimit="10" stroke-width="1.5"/>
  <path d="M31,17h0" fill="none" stroke="#003cb4" stroke-miterlimit="10" stroke-width="1.5"/>
  <circle cx="24" cy="24" r="3" fill="#00bec8" stroke="#00bec8" stroke-miterlimit="10" stroke-width="1.5"/>
  <line x1="26" y1="24" x2="35" y2="24" fill="#00bec8" stroke="#00bec8" stroke-miterlimit="10" stroke-width="3"/>
</svg>
