<svg id="vorsorgesitutation-pikto" xmlns="http://www.w3.org/2000/svg" width="48" height="48" viewBox="0 0 48 48">
  <title>vorsorgesitutation-pikto-linie</title>
  <polyline points="20 13 47 13 47 47 13 47 13 20" fill="none" stroke="#003cb4" stroke-miterlimit="10" stroke-width="1.5"/>
  <path d="M38,23h0" fill="none" stroke="#003cb4" stroke-miterlimit="10" stroke-width="1.5"/>
  <path d="M36,25l2-2a10.28,10.28,0,0,0-7-3,10,10,0,0,0,0,20,9.65,9.65,0,0,0,7-3l-2-2" fill="none" stroke="#003cb4" stroke-miterlimit="10" stroke-width="1.5"/>
  <line x1="31" y1="37" x2="31" y2="40" fill="none" stroke="#003cb4" stroke-miterlimit="10" stroke-width="1.5"/>
  <line x1="31" y1="20" x2="31" y2="23" fill="none" stroke="#003cb4" stroke-miterlimit="10" stroke-width="1.5"/>
  <line x1="21" y1="30" x2="24" y2="30" fill="none" stroke="#003cb4" stroke-miterlimit="10" stroke-width="1.5"/>
  <line x1="26" y1="35" x2="24" y2="37" fill="none" stroke="#003cb4" stroke-miterlimit="10" stroke-width="1.5"/>
  <line x1="23.96" y1="23" x2="26" y2="25" fill="none" stroke="#003cb4" stroke-miterlimit="10" stroke-width="1.5"/>
  <rect x="1" y="3" width="19" height="17" fill="none" stroke="#003cb4" stroke-miterlimit="10" stroke-width="1.5"/>
  <g>
    <line x1="6" x2="6" y2="3" fill="none" stroke="#003cb4" stroke-miterlimit="10" stroke-width="1.5"/>
    <line x1="15" x2="15" y2="3" fill="none" stroke="#003cb4" stroke-miterlimit="10" stroke-width="1.5"/>
  </g>
  <line x1="1" y1="7" x2="20" y2="7" fill="none" stroke="#003cb4" stroke-miterlimit="10" stroke-width="1.5"/>
  <polyline points="9 11 11 11 11 16" fill="none" stroke="#003cb4" stroke-miterlimit="10" stroke-width="1.5"/>
  <line x1="31" y1="30" x2="41" y2="30" fill="none" stroke="#00bec8" stroke-miterlimit="10" stroke-width="2"/>
  <circle cx="31" cy="30" r="3" fill="#00bec8" stroke="#00bec8" stroke-miterlimit="10" stroke-width="1.5"/>
</svg>
