<svg id="vorsorgesitutation-pikto" xmlns="http://www.w3.org/2000/svg" width="48" height="48" viewBox="0 0 48 48">
  <title>vorsorgesitutation-pikto-form</title>
  <g>
    <polygon points="8.75 11.75 10 11.75 10 16 11.5 16 11.5 10.25 8.75 10.25 8.75 11.75" fill="#003cb4"/>
    <path d="M20.5,12.5V2.25h-5V0H14V2.25H6.5V0H5V2.25H0v18.5H12.5V48H48V12.5ZM1.5,3.75H19v2.5H1.5Zm0,15.5V7.75H19v11.5Zm45,27.25H14V20.75h6.5V14h26Z" fill="#003cb4"/>
    <path d="M31.25,41a10.49,10.49,0,0,0,7.54-3.23l.51-.53-2.52-2.52-1.06,1.06,1.46,1.45A8.8,8.8,0,0,1,32,39.47V37.25H30.5v2.21a9.18,9.18,0,0,1-5.23-2.17l1.51-1.51-1.06-1.06-1.51,1.51A9.18,9.18,0,0,1,22,31h2.21V29.5H22a9.22,9.22,0,0,1,2.15-5.22l1.53,1.51,1.06-1.08-1.53-1.49A9.21,9.21,0,0,1,30.5,21v2.21H32v-2.2a9.53,9.53,0,0,1,5.17,2.22l-1.45,1.45,1.06,1.06,2.52-2.53-.52-.53a11,11,0,0,0-7.53-3.22,10.75,10.75,0,0,0,0,21.5Z" fill="#003cb4"/>
    <path d="M31.25,26.5a3.75,3.75,0,1,0,3.6,4.75h6.4v-2h-6.4A3.75,3.75,0,0,0,31.25,26.5Z" fill="#003cb4"/>
  </g>
</svg>
