<svg id="vorsorgekonto-pikto" xmlns="http://www.w3.org/2000/svg" width="48" height="48" viewBox="0 0 48 48">
  <title>vorsorgekonto-pikto-form</title>
  <g>
    <path d="M24,31a7,7,0,0,1,0-14,6.89,6.89,0,0,1,5.86,3.39l1.28-.78A8.39,8.39,0,0,0,24,15.5a8.5,8.5,0,0,0,0,17,8.39,8.39,0,0,0,7.14-4.11l-1.28-.78A6.89,6.89,0,0,1,24,31Z" fill="#003cb4"/>
    <path d="M24,20.25a3.75,3.75,0,1,0,3.43,5.25H35v-3H27.43A3.76,3.76,0,0,0,24,20.25Z" fill="#003cb4"/>
    <path d="M38.75,0H3.5V48H38.75a5.76,5.76,0,0,0,5.75-5.75V5.75A5.76,5.76,0,0,0,38.75,0ZM43,42.25a4.26,4.26,0,0,1-4.25,4.25H8V1.5H38.75A4.26,4.26,0,0,1,43,5.75Z" fill="#003cb4"/>
  </g>
</svg>
