<svg id="vorsorge-pikto" xmlns="http://www.w3.org/2000/svg" width="48" height="48" viewBox="0 0 48 48">
  <title>vorsorge-pikto-form</title>
  <g>
    <path d="M23.75,18.25a5.76,5.76,0,0,0,0,11.5,5.75,5.75,0,0,0,5.17-3.42l0-.08H40.25v-4.5H28.94A5.82,5.82,0,0,0,23.75,18.25Z" fill="#003cb4"/>
    <path d="M1.25,1.25v45.5h45.5V1.25Zm44,44H2.75V2.75h42.5Z" fill="#003cb4"/>
    <path d="M23.75,39.1A15.26,15.26,0,0,0,36.9,31.63l.39-.67-3.93-2.12-.72,1.32,2.55,1.37a13.6,13.6,0,0,1-3.94,3.84L29.4,32.13l-1.3.74L30,36.12a13.73,13.73,0,0,1-5.45,1.43V34H23v3.56a13.42,13.42,0,0,1-5.43-1.48l1.83-3.21-1.3-.74-1.82,3.18a13.53,13.53,0,0,1-3.87-4l3-1.7-.74-1.3-3,1.69a13.63,13.63,0,0,1-1.38-5.29H13.5v-1.5H10.29A13.63,13.63,0,0,1,11.67,18l3,1.69.74-1.3-3-1.7a13.62,13.62,0,0,1,3.82-3.93l1.89,2.94,1.26-.82L17.52,12A13.36,13.36,0,0,1,23,10.44v3.31h1.5v-3.3a13.51,13.51,0,0,1,5.42,1.47l-1.81,2.94,1.28.78,1.82-3a13.69,13.69,0,0,1,4,4l-2.56,1.38.72,1.32,3.92-2.11-.38-.67A15.05,15.05,0,1,0,23.75,39.1Z" fill="#003cb4"/>
  </g>
</svg>
