<svg id="vorsorge-vorschau-pikto" xmlns="http://www.w3.org/2000/svg" width="48" height="48" viewBox="0 0 48 48">
  <title>vorsorge-vorschau-pikto-form</title>
  <g>
    <path d="M13.5,4.25A4.25,4.25,0,1,0,17.75,8.5,4.26,4.26,0,0,0,13.5,4.25Zm0,7A2.75,2.75,0,1,1,16.25,8.5,2.75,2.75,0,0,1,13.5,11.25Z" fill="#003cb4"/>
    <path d="M23.18,12.31a30.27,30.27,0,0,0,3.36-3.54l.38-.48-.38-.47c-4.39-5.41-9-8-13.77-7.81C5.35.37.48,7.57.28,7.87L0,8.29l.28.42C.48,9,5.2,16,12.43,16.54V48H48V12.31ZM12.85,15.07C7.16,14.8,3,9.79,1.83,8.29,3,6.8,7.16,1.79,12.85,1.52,17,1.32,21,3.6,25,8.29,21,13,17,15.26,12.85,15.07ZM46.5,46.49H13.93V16.56a13.88,13.88,0,0,0,7.36-2.74H46.5Z" fill="#003cb4"/>
    <path d="M31.25,41a10.49,10.49,0,0,0,7.54-3.23l.51-.53-2.52-2.52-1.06,1.06,1.46,1.45A8.8,8.8,0,0,1,32,39.47V37.25H30.5v2.21a9.18,9.18,0,0,1-5.23-2.17l1.51-1.51-1.06-1.06-1.51,1.51A9.18,9.18,0,0,1,22,31h2.21V29.5H22a9.22,9.22,0,0,1,2.15-5.22l1.53,1.51,1.06-1.08-1.53-1.49A9.21,9.21,0,0,1,30.5,21v2.21H32v-2.2a9.53,9.53,0,0,1,5.17,2.22l-1.45,1.45,1.06,1.06,2.52-2.53-.52-.53a11,11,0,0,0-7.53-3.22,10.75,10.75,0,0,0,0,21.5Z" fill="#003cb4"/>
    <path d="M31.25,26.5a3.75,3.75,0,1,0,3.6,4.75h6.4v-2h-6.4A3.75,3.75,0,0,0,31.25,26.5Z" fill="#003cb4"/>
  </g>
</svg>
