<svg id="vorsorge-vorschau-pikto" xmlns="http://www.w3.org/2000/svg" width="48" height="48" viewBox="0 0 48 48">
  <title>vorsorge-vorschau-pikto-linie</title>
  <path d="M26,8.5h0C12.25-8.38,1,8.5,1,8.5S12.25,25.38,26,8.5Z" fill="none" stroke="#003cb4" stroke-miterlimit="10" stroke-width="1.5"/>
  <circle cx="13.5" cy="8.5" r="3.5" fill="none" stroke="#003cb4" stroke-miterlimit="10" stroke-width="1.5"/>
  <polyline points="21.75 13 47 13 47 47 13 47 13 16" fill="none" stroke="#003cb4" stroke-miterlimit="10" stroke-width="1.5"/>
  <path d="M38,23h0" fill="none" stroke="#003cb4" stroke-miterlimit="10" stroke-width="1.5"/>
  <path d="M36,25l2-2a10.28,10.28,0,0,0-7-3,10,10,0,0,0,0,20,9.65,9.65,0,0,0,7-3l-2-2" fill="none" stroke="#003cb4" stroke-miterlimit="10" stroke-width="1.5"/>
  <line x1="31" y1="37" x2="31" y2="40" fill="none" stroke="#003cb4" stroke-miterlimit="10" stroke-width="1.5"/>
  <line x1="31" y1="20" x2="31" y2="23" fill="none" stroke="#003cb4" stroke-miterlimit="10" stroke-width="1.5"/>
  <line x1="21" y1="30" x2="24" y2="30" fill="none" stroke="#003cb4" stroke-miterlimit="10" stroke-width="1.5"/>
  <line x1="26" y1="35" x2="24" y2="37" fill="none" stroke="#003cb4" stroke-miterlimit="10" stroke-width="1.5"/>
  <line x1="23.96" y1="23" x2="26" y2="25" fill="none" stroke="#003cb4" stroke-miterlimit="10" stroke-width="1.5"/>
  <circle cx="31" cy="30" r="3" fill="#00bec8" stroke="#00bec8" stroke-miterlimit="10" stroke-width="1.5"/>
  <line x1="41" y1="30" x2="31" y2="30" fill="#00bec8" stroke="#00bec8" stroke-miterlimit="10" stroke-width="2"/>
</svg>
