<svg id="vorsorge-pikto" xmlns="http://www.w3.org/2000/svg" width="48" height="48" viewBox="0 0 48 48">
  <title>vorsorge-pikto-linie</title>
  <path d="M23.75,19a5,5,0,0,0,0,10,5,5,0,0,0,4.5-3l.25-.5h11v-3h-11l-.25-.44A5.06,5.06,0,0,0,23.75,19Z" fill="#00bec8" stroke="#00bec8" stroke-miterlimit="10" stroke-width="1.5"/>
  <path d="M2,46H46V2H2Z" fill="none" stroke="#003cb4" stroke-miterlimit="10" stroke-width="1.5"/>
  <path d="M33,18.75,36.25,17a14.3,14.3,0,1,0-12.5,21.35,14.51,14.51,0,0,0,12.5-7.1L33,29.5" fill="none" stroke="#003cb4" stroke-miterlimit="10" stroke-width="1.5"/>
  <line x1="23.75" y1="38" x2="23.75" y2="34" fill="none" stroke="#003cb4" stroke-miterlimit="10" stroke-width="1.5"/>
  <line x1="23.75" y1="13.75" x2="23.75" y2="10" fill="none" stroke="#003cb4" stroke-miterlimit="10" stroke-width="1.5"/>
  <line x1="9.75" y1="24" x2="13.5" y2="24" fill="none" stroke="#003cb4" stroke-miterlimit="10" stroke-width="1.5"/>
  <line x1="30.75" y1="36" x2="28.75" y2="32.5" fill="none" stroke="#003cb4" stroke-miterlimit="10" stroke-width="1.5"/>
  <line x1="18.75" y1="15.25" x2="16.5" y2="11.75" fill="none" stroke="#003cb4" stroke-miterlimit="10" stroke-width="1.5"/>
  <line x1="11.5" y1="31" x2="15" y2="29" fill="none" stroke="#003cb4" stroke-miterlimit="10" stroke-width="1.5"/>
  <line x1="11.5" y1="17" x2="15" y2="19" fill="none" stroke="#003cb4" stroke-miterlimit="10" stroke-width="1.5"/>
  <line x1="30.75" y1="12" x2="28.75" y2="15.25" fill="none" stroke="#003cb4" stroke-miterlimit="10" stroke-width="1.5"/>
  <line x1="18.75" y1="32.5" x2="16.75" y2="36" fill="none" stroke="#003cb4" stroke-miterlimit="10" stroke-width="1.5"/>
</svg>
