<svg id="vr-pikto" xmlns="http://www.w3.org/2000/svg" width="48" height="48" viewBox="0 0 48 48">
  <title>vr-pikto-linie</title>
  <path d="M44.75,14A23,23,0,0,0,24,1,23.42,23.42,0,0,0,3,14l6.75-4H39Z" fill="#00bec8" stroke="#00bec8" stroke-miterlimit="10" stroke-width="1.5"/>
  <path d="M19,33a5,5,0,0,1,10,0h9a5,5,0,0,0,5-5V15.75A4.82,4.82,0,0,0,38,11H10a4.82,4.82,0,0,0-5,4.75V28a5,5,0,0,0,5,5Z" fill="none" stroke="#003cb4" stroke-miterlimit="10" stroke-width="1.5"/>
  <path d="M33,38a16,16,0,0,1-9,3,15,15,0,0,1-9-3" fill="none" stroke="#003cb4" stroke-miterlimit="10" stroke-width="1.5"/>
  <polygon points="5 30 1 28.75 1 15.25 5 14 5 30" fill="none" stroke="#003cb4" stroke-miterlimit="10" stroke-width="1.5"/>
  <polygon points="43 30 47 28.75 47 15.25 43 14 43 30" fill="none" stroke="#003cb4" stroke-miterlimit="10" stroke-width="1.5"/>
  <path d="M46.5,29a23.06,23.06,0,0,1-45,0" fill="none" stroke="#003cb4" stroke-miterlimit="10" stroke-width="1.5"/>
</svg>
