<svg id="vr-pikto" xmlns="http://www.w3.org/2000/svg" width="48" height="48" viewBox="0 0 48 48">
  <title>vr-pikto-form</title>
  <g>
    <path d="M24,40.25a14.44,14.44,0,0,1-8.65-2.85l-.9,1.2A16.14,16.14,0,0,0,24,41.75a16.87,16.87,0,0,0,9.53-3.14l-.87-1.22A15.44,15.44,0,0,1,24,40.25Z" fill="#003cb4"/>
    <path d="M45.84,14.28l-.41-.86a24,24,0,0,0-43.11,0l-.45.95L0,15v14.6l.61.19a24.11,24.11,0,0,0,46.78,0l.61-.19V15ZM5.56,16a4.11,4.11,0,0,1,4.29-4h28.3a4.11,4.11,0,0,1,4.29,4V28.25a4.27,4.27,0,0,1-4.29,4.25H29.76a5.82,5.82,0,0,0-11.52,0H9.85a4.27,4.27,0,0,1-4.29-4.25Zm-4,.05L4,15.27v14l-2.52-.78ZM24,46.5A22.62,22.62,0,0,1,2.33,30.27L4.77,31a5.82,5.82,0,0,0,5.08,3h9.86v-.75a4.29,4.29,0,0,1,8.58,0V34h9.86a5.82,5.82,0,0,0,5.08-3l2.44-.76A22.62,22.62,0,0,1,24,46.5Zm22.48-18L44,29.23v-14l2.52.78Z" fill="#003cb4"/>
  </g>
</svg>
