<svg id="waage-unausgeglichen-pikto" xmlns="http://www.w3.org/2000/svg" width="48" height="48" viewBox="0 0 48 48">
  <title>waage-unausgeglichen-pikto-form</title>
  <path d="M40.39,10.94,24.74,6V.5H23.26v5L7.74.58S.5,18.55.5,20.61v1A7.74,7.74,0,0,0,8.17,29.4a7.74,7.74,0,0,0,7.67-7.79v-1c0-1.81-4.51-13.24-6.39-17.91L23.26,7.09V46H14.11V47.5H33.89V46H24.74V7.56L38.84,12c-1.64,4.07-6.68,16.72-6.68,18.63v1a7.67,7.67,0,1,0,15.34,0v-1C47.5,28.6,40.39,10.94,40.39,10.94ZM14.21,19.85H2.12C2.81,17.22,5.84,9.31,8.17,3.5,10.5,9.31,13.53,17.22,14.21,19.85Zm25.62-6.3c2.33,5.81,5.36,13.72,6.05,16.36H33.79C34.47,27.27,37.5,19.36,39.83,13.55Z" fill="#003cb4"/>
</svg>
