<svg id="waage-ausgeglichen-pikto" xmlns="http://www.w3.org/2000/svg" width="48" height="48" viewBox="0 0 48 48">
  <title>waage-ausgeglichen-pikto-form</title>
  <path d="M39.83,3V3H24.74V.5H23.26V3H8.17V3S.5,22.07.5,24.13v1a7.74,7.74,0,0,0,7.67,7.79,7.74,7.74,0,0,0,7.67-7.79v-1c0-2.06-7.07-19.61-7.07-19.61H23.26V46H14.11V47.5H33.89V46H24.74V4.52H39.23s-7.07,17.55-7.07,19.61v1a7.67,7.67,0,1,0,15.34,0v-1C47.5,22.07,39.83,3,39.83,3ZM14.21,23.37H2.12C2.81,20.74,5.84,12.83,8.17,7,10.5,12.83,13.53,20.74,14.21,23.37ZM39.83,7c2.33,5.81,5.36,13.72,6.05,16.35H33.79C34.47,20.74,37.5,12.83,39.83,7Z" fill="#003cb4"/>
</svg>
