<?xml version="1.0" encoding="utf-8"?>
<!-- Generator: Adobe Illustrator 23.1.1, SVG Export Plug-In . SVG Version: 6.00 Build 0)  -->
<svg version="1.1" id="waehrung-pikto" xmlns="http://www.w3.org/2000/svg" xmlns:xlink="http://www.w3.org/1999/xlink" x="0px"
	 y="0px" viewBox="0 0 48 48" enable-background="new 0 0 48 48" xml:space="preserve">
<title>waehrung-pikto-linie</title>
<g>
	<path fill="none" stroke="#003CB4" stroke-width="1.5" stroke-miterlimit="10" d="M27.07,11.57c2.1-1.45,4.59-2.22,7.13-2.21
		C41.27,9.36,47,15.09,47,22.15s-5.73,12.79-12.79,12.79c-1.43,0-2.84-0.24-4.18-0.73"/>
	<path fill="#00BEC8" d="M14.12,0.5C6.6,0.49,0.51,6.57,0.5,14.08c-0.01,4.94,2.67,9.5,6.99,11.9l0.5,0.29l0.39-0.42
		c3.79-4.08,9.89-5.04,14.75-2.32l0.51,0.29l0.39-0.42C29.17,17.9,28.89,9.3,23.4,4.17C20.88,1.81,17.56,0.5,14.12,0.5z
		 M17.64,13.22v1.48h-2.6v1.44h2.6v1.48h-2.6v2.13h-1.48v-2.13h-2.6v-1.48h2.6V14.7h-2.6v-1.48h1.97L9.9,8.64h1.77l2.63,3.94
		l2.59-3.94h1.76l-2.95,4.59H17.64z"/>
	<g>
		<line fill="none" stroke="#003CB4" stroke-width="1.5" stroke-miterlimit="10" x1="17.23" y1="41.83" x2="17.23" y2="26.58"/>
		<path fill="none" stroke="#003CB4" stroke-width="1.5" stroke-miterlimit="10" d="M17.23,34.26c-1.63,0-2.95-1.32-2.95-2.95
			s1.32-2.95,2.95-2.95s2.95,1.32,2.95,2.95"/>
		<path fill="none" stroke="#003CB4" stroke-width="1.5" stroke-miterlimit="10" d="M17.23,34.21c1.63,0,2.95,1.32,2.95,2.95
			c0,1.63-1.32,2.95-2.95,2.95s-2.95-1.32-2.95-2.95"/>
	</g>
	<g>
		<path fill="none" stroke="#003CB4" stroke-width="1.5" stroke-miterlimit="10" d="M39.13,16.98c-0.77-0.36-1.61-0.52-2.46-0.49
			c-3.12,0-5.66,2.53-5.66,5.66s2.53,5.66,5.66,5.66c0.85,0.03,1.69-0.14,2.46-0.49"/>
		<line fill="none" stroke="#003CB4" stroke-width="1.5" stroke-miterlimit="10" x1="29.29" y1="20.67" x2="36.18" y2="20.67"/>
		<line fill="none" stroke="#003CB4" stroke-width="1.5" stroke-miterlimit="10" x1="29.29" y1="23.63" x2="35.93" y2="23.63"/>
	</g>
	<circle fill="none" stroke="#003CB4" stroke-width="1.5" stroke-miterlimit="10" cx="17.23" cy="34.21" r="12.79"/>
</g>
</svg>
