<svg id="waehrung-pikto" xmlns="http://www.w3.org/2000/svg" width="48" height="48" viewBox="0 0 48 48">
  <title>waehrung-pikto-form</title>
  <g>
    <path d="M34.25,8.25a13.37,13.37,0,0,0-7.08,2A13.82,13.82,0,1,0,6.41,25.49,13.74,13.74,0,1,0,30.7,35.26a13.34,13.34,0,0,0,3.55.49,13.75,13.75,0,0,0,0-27.5Zm-22.9,0,2.67,4,2.63-4h1.79l-3,4.66h2v1.5H14.77v1.46h2.64v1.5H14.77v2.16h-1.5V17.39H10.63v-1.5h2.64V14.43H10.63v-1.5h2L9.55,8.27ZM17,46.5A12.25,12.25,0,1,1,29.25,34.25,12.27,12.27,0,0,1,17,46.5ZM34.25,34.25a11.87,11.87,0,0,1-3.53-.55,13.75,13.75,0,0,0-6.31-11,13.73,13.73,0,0,0,3.24-8.85,13.3,13.3,0,0,0-.16-2,11.92,11.92,0,0,1,6.76-2.07,12.25,12.25,0,0,1,0,24.5Z" fill="#003cb4"/>
    <path d="M19.25,31.25h1.5a3.74,3.74,0,0,0-3-3.67V26.5h-1.5v1.08a3.74,3.74,0,0,0-3,3.67,3.78,3.78,0,0,0,3,3.72v4.39a2.24,2.24,0,0,1-1.5-2.11h-1.5a3.74,3.74,0,0,0,3,3.67V42h1.5V40.92a3.74,3.74,0,0,0,0-7.34V29.14A2.24,2.24,0,0,1,19.25,31.25Zm-3,2.15a2.32,2.32,0,0,1-1.5-2.15,2.24,2.24,0,0,1,1.5-2.11Zm3,3.85a2.24,2.24,0,0,1-1.5,2.11V35.14A2.24,2.24,0,0,1,19.25,37.25Z" fill="#003cb4"/>
    <path d="M36.75,17a4.64,4.64,0,0,1,2.16.42l.68-1.34a6.09,6.09,0,0,0-2.84-.58,6.5,6.5,0,0,0-6.09,4.25H29.25v1.5H30.3a5.65,5.65,0,0,0,0,1.5H29.25v1.5h1.41a6.5,6.5,0,0,0,6.09,4.25,6.05,6.05,0,0,0,2.83-.58l-.66-1.34a4.74,4.74,0,0,1-2.17.42,5,5,0,0,1-4.44-2.75H36v-1.5H31.83a4.65,4.65,0,0,1-.08-.75,4.65,4.65,0,0,1,.08-.75h4.42v-1.5H32.31A5,5,0,0,1,36.75,17Z" fill="#003cb4"/>
  </g>
</svg>
