<svg id="waermeenergie-pikto" xmlns="http://www.w3.org/2000/svg" width="48" height="48" viewBox="0 0 48 48">
  <title>waermeenergie-pikto-form</title>
  <g>
    <rect x="21" y="12.25" width="5" height="1.5" fill="#003cb4"/>
    <rect y="12.25" width="5" height="1.5" fill="#003cb4"/>
    <rect x="18.03" y="4.75" width="4.95" height="1.5" transform="translate(2.12 16.11) rotate(-45)" fill="#003cb4"/>
    <rect x="3.03" y="19.75" width="4.95" height="1.5" transform="translate(-12.88 9.89) rotate(-45)" fill="#003cb4"/>
    <rect x="12.25" width="1.5" height="5" fill="#003cb4"/>
    <rect x="12.25" y="21" width="1.5" height="5" fill="#003cb4"/>
    <rect x="4.75" y="3.03" width="1.5" height="4.95" transform="translate(-2.28 5.5) rotate(-45)" fill="#003cb4"/>
    <rect x="19.75" y="17.99" width="1.5" height="4.78" transform="translate(-8.38 21.53) rotate(-47.12)" fill="#003cb4"/>
    <path d="M44.25,30.88V5.5a5.76,5.76,0,0,0-11.5,0V30.88A10.11,10.11,0,0,0,29,38.5,9.58,9.58,0,0,0,38.49,48h0A9.52,9.52,0,0,0,48,38.5,10.11,10.11,0,0,0,44.25,30.88ZM34.25,5.5a4.26,4.26,0,0,1,8.5,0v5h-8.5Z" fill="#003cb4"/>
    <path d="M13,6.75A6.25,6.25,0,1,0,19.25,13,6.25,6.25,0,0,0,13,6.75Zm0,11A4.75,4.75,0,1,1,17.75,13,4.75,4.75,0,0,1,13,17.75Z" fill="#003cb4"/>
  </g>
</svg>
