<svg id="waermeenergie-pikto" xmlns="http://www.w3.org/2000/svg" width="48" height="48" viewBox="0 0 48 48">
  <title>waermeenergie-pikto-linie</title>
  <path d="M38.5,47.25a8.82,8.82,0,0,0,8.75-8.75,9.38,9.38,0,0,0-3.75-7.25v-20h-10v20a9.38,9.38,0,0,0-3.75,7.25,8.84,8.84,0,0,0,8.75,8.75Z" fill="#00bec8" stroke="#00bec8" stroke-miterlimit="10" stroke-width="1.5"/>
  <line x1="21" y1="13" x2="26" y2="13" fill="none" stroke="#003cb4" stroke-miterlimit="10" stroke-width="1.5"/>
  <line y1="13" x2="5" y2="13" fill="none" stroke="#003cb4" stroke-miterlimit="10" stroke-width="1.5"/>
  <line x1="18.75" y1="7.25" x2="22.25" y2="3.75" fill="none" stroke="#003cb4" stroke-miterlimit="10" stroke-width="1.5"/>
  <line x1="3.75" y1="22.25" x2="7.25" y2="18.75" fill="none" stroke="#003cb4" stroke-miterlimit="10" stroke-width="1.5"/>
  <line x1="13" y1="5" x2="13" fill="none" stroke="#003cb4" stroke-miterlimit="10" stroke-width="1.5"/>
  <line x1="13" y1="26" x2="13" y2="21" fill="none" stroke="#003cb4" stroke-miterlimit="10" stroke-width="1.5"/>
  <line x1="7.25" y1="7.25" x2="3.75" y2="3.75" fill="none" stroke="#003cb4" stroke-miterlimit="10" stroke-width="1.5"/>
  <line x1="22.25" y1="22" x2="18.75" y2="18.75" fill="none" stroke="#003cb4" stroke-miterlimit="10" stroke-width="1.5"/>
  <path d="M38.5,47.25a8.82,8.82,0,0,0,8.75-8.75,9.38,9.38,0,0,0-3.75-7.25V5.5a4.9,4.9,0,0,0-5-4.75h0a4.91,4.91,0,0,0-5,4.75V31.25a9.38,9.38,0,0,0-3.75,7.25,8.84,8.84,0,0,0,8.75,8.75Z" fill="none" stroke="#003cb4" stroke-miterlimit="10" stroke-width="1.5"/>
  <path d="M13,18.5A5.5,5.5,0,1,1,18.5,13,5.51,5.51,0,0,1,13,18.5Z" fill="none" stroke="#003cb4" stroke-miterlimit="10" stroke-width="1.5"/>
</svg>
