<svg id="wartung-pikto" xmlns="http://www.w3.org/2000/svg" width="48" height="48" viewBox="0 0 48 48">
  <title>wartung-pikto-linie</title>
  <polygon points="11 9.5 9.5 5.25 3.25 2.25 1.75 3.75 5.25 9.75 9.5 11 16 18.49 18.5 16.25 11 9.5" fill="#00bec8" stroke="#00bec8" stroke-miterlimit="10" stroke-width="1.5"/>
  <path d="M24.25,29.5,39.5,44.75s2.59,3.1,5.5.25a3.62,3.62,0,0,0-.25-5.25L29.5,24.25" fill="#00bec8" stroke="#00bec8" stroke-miterlimit="10" stroke-width="1.5"/>
  <polyline points="24 18.75 20 14.75 14.5 20 18.75 24" fill="#00bec8" stroke="#00bec8" stroke-miterlimit="10" stroke-width="1.5"/>
  <path d="M29,14c-1.11-3-.44-7.57,2-10,2.6-2.59,6.82-2.4,10-1L36,8l4,4,5-5c1.42,3.15,1.6,7.41-1,10a9.07,9.07,0,0,1-9,2L9,45a4.54,4.54,0,0,1-6,0,4.52,4.52,0,0,1,0-6Z" fill="none" stroke="#003cb4" stroke-miterlimit="10" stroke-width="1.5"/>
</svg>
