<svg id="wartung-pikto" xmlns="http://www.w3.org/2000/svg" width="48" height="48" viewBox="0 0 48 48">
  <title>wartung-pikto-form</title>
  <path d="M30.89,24.29l4.54-4.57a9.67,9.67,0,0,0,9.32-2.32c2.89-2.89,2.67-7.56,1.16-10.91l-.45-1-5.24,5.26L37.28,7.81l5.25-5.28-1-.44C38.43.72,33.74.2,30.69,3.25,28,5.92,27.42,10.5,28.35,13.63l-4.1,4-4-4.06-1.57,1.51L11.84,8.88,10.3,4.49l-7-3.38L1,3.41l3.94,6.8,4.33,1.28,5.93,6.87-1.59,1.52,4.18,4L2.66,38.46a5.33,5.33,0,0,0,0,7.11A5,5,0,0,0,6.2,46.93a5,5,0,0,0,3.53-1.36L24.58,30.63,39.15,45.27A5.09,5.09,0,0,0,42.45,47h.19a4.4,4.4,0,0,0,3.11-1.43A4.1,4.1,0,0,0,47,42.66a4.89,4.89,0,0,0-1.48-3.44ZM8.67,44.5a3.8,3.8,0,0,1-4.95,0,3.82,3.82,0,0,1,0-5L30.09,14.05l-.17-.47c-1-2.62-.53-6.91,1.82-9.26a6.69,6.69,0,0,1,4.83-1.8,10.48,10.48,0,0,1,3.3.55L35.16,7.81l5.06,5.09L45,8.15c.91,2.73.85,6.08-1.25,8.18a8.36,8.36,0,0,1-8.26,1.83L35,18Z" fill="#003cb4"/>
</svg>
