<svg id="wasserschutz-pikto" xmlns="http://www.w3.org/2000/svg" width="48" height="48" viewBox="0 0 48 48">
  <title>wasserschutz-pikto-linie</title>
  <path d="M15.51,38.25h12a3.69,3.69,0,0,0,3.73-3.5,3.69,3.69,0,0,0-3.73-3.5h-18l-8.76,2v14h29l14.75-8c2-1,3.22-2.94,2.5-5a4.06,4.06,0,0,0-5.5-2L29,38" fill="none" stroke="#003cb4" stroke-miterlimit="10" stroke-width="1.5"/>
  <path d="M32.25,16.25c1.14,2.66,2.5,9-3.75,9-6.5,0-5.63-6.37-4.5-9L28.5,6.5Z" fill="#00bec8" stroke="#00bec8" stroke-miterlimit="10" stroke-width="1.5"/>
  <path d="M24.25,12c1.17,2.77,2.44,9.5-4,9.5-7.89,0-5.91-6.77-4.75-9.5L20.25,2Z" fill="none" stroke="#003cb4" stroke-miterlimit="10" stroke-width="1.5"/>
</svg>
