<svg id="wasserschutz-pikto" xmlns="http://www.w3.org/2000/svg" width="48" height="48" viewBox="0 0 48 48">
  <title>wasserschutz-pikto-form</title>
  <g>
    <path d="M47.75,34a4.36,4.36,0,0,0-2.52-2.53,5,5,0,0,0-4,.1l-9.36,4.31A3.86,3.86,0,0,0,32,34.75a4.44,4.44,0,0,0-4.48-4.25h-18L0,32.65V48H30l14.9-8.08C47.4,38.67,48.55,36.29,47.75,34Zm-3.57,4.59L29.58,46.5H1.5V33.85L9.6,32h18a3,3,0,0,1,3,2.75,3,3,0,0,1-3,2.75h-12V39h12a4.48,4.48,0,0,0,1.79-.37l0,0,12.51-5.76a3.49,3.49,0,0,1,2.8-.06,2.85,2.85,0,0,1,1.66,1.64C47,36.4,45.6,37.88,44.18,38.59Z" fill="#003cb4"/>
    <path d="M20.25,22.12a7.39,7.39,0,0,0,2.41-.37,5.43,5.43,0,0,0,.75,1.81c1,1.54,2.72,2.31,5.09,2.31,2.16,0,3.72-.7,4.63-2.07,1.44-2.19.8-5.65-.18-8L28.56,4.45,25.09,12c-.05-.13-.1-.26-.15-.37L20.31,0l-5.5,11.58c-.83,2-2,5.64-.31,8.16C15.54,21.32,17.48,22.12,20.25,22.12Zm-4.07-9.93,4-8.45,3.36,8.41v0A12.34,12.34,0,0,1,24.15,14l-.84,1.81a11.15,11.15,0,0,0-.83,4.37,5.48,5.48,0,0,1-2.23.42c-2.24,0-3.75-.57-4.5-1.7C14.42,16.9,15.61,13.52,16.18,12.19Z" fill="#003cb4"/>
  </g>
</svg>
