<svg id="wasser-pikto" xmlns="http://www.w3.org/2000/svg" width="48" height="48" viewBox="0 0 48 48">
  <title>wasser-pikto-form</title>
  <path d="M33.26,10.86,32.61,9.8,32,10.87c-.18.3-1.88,3.18-3.93,6.93-4-8-8.69-16.13-9-16.71L18.39,0l-.65,1.07C17.13,2.06,3,25.37,3.13,32.51,3.33,41.48,9.74,48,18.38,48a15.49,15.49,0,0,0,7.49-1.88A12.7,12.7,0,0,0,32.63,48,12,12,0,0,0,44.88,35.75C44.88,29.79,33.74,11.63,33.26,10.86ZM18.38,46.5c-7.79,0-13.57-5.9-13.75-14C4.49,26.6,15.53,7.69,18.36,2.94c2.56,4.45,6,10.73,8.82,16.47-3.16,5.91-6.73,13.24-6.8,16.32a11.82,11.82,0,0,0,3.3,8.65c.25.26.53.5.81.74A14,14,0,0,1,18.38,46.5Z" fill="#003cb4"/>
</svg>
