<svg id="wein-pikto" xmlns="http://www.w3.org/2000/svg" width="48" height="48" viewBox="0 0 48 48">
  <title>wein-pikto-form</title>
  <g>
    <path d="M43.75,25l-1.1-7.75H27.35l-1.09,7.64V25a8.76,8.76,0,0,0,8,8.71V46.25H29v1.5H41v-1.5H35.75V33.71A8.76,8.76,0,0,0,43.75,25Z" fill="#003cb4"/>
    <path d="M15.75,13.69V.25h-5.5V13.67a9,9,0,0,0-6,8.33V47.75h17.5V22A8.74,8.74,0,0,0,15.75,13.69Zm4.5,32.56H5.75V22a7.44,7.44,0,0,1,5.4-7l.6-.13V1.75h2.5V14.83l.56.15a7.24,7.24,0,0,1,5.44,7Z" fill="#003cb4"/>
  </g>
</svg>
