<svg id="weiteres-konto-eroeffnen-pikto" xmlns="http://www.w3.org/2000/svg" width="48" height="48" viewBox="0 0 48 48">
  <title>weiteres-konto-eroeffnen-pikto-form</title>
  <g>
    <path d="M30.75,30V6A5.76,5.76,0,0,0,25,.25H.25v35.5H25A5.76,5.76,0,0,0,30.75,30ZM25,34.25H3.75V1.75H25A4.26,4.26,0,0,1,29.25,6V30A4.26,4.26,0,0,1,25,34.25Z" fill="#003cb4"/>
    <path d="M16,23.25a5.25,5.25,0,0,1,0-10.5,4.9,4.9,0,0,1,4.35,2.63l1.3-.76A6.44,6.44,0,0,0,16,11.25a6.75,6.75,0,0,0,0,13.5,6.44,6.44,0,0,0,5.65-3.37l-1.3-.76A4.9,4.9,0,0,1,16,23.25Z" fill="#003cb4"/>
    <path d="M16,15.25A2.75,2.75,0,1,0,18.56,19H23V17H18.56A2.77,2.77,0,0,0,16,15.25Z" fill="#003cb4"/>
    <polygon points="38.75 37.25 38.75 29 37.25 29 37.25 37.25 29 37.25 29 38.75 37.25 38.75 37.25 47 38.75 47 38.75 38.75 47 38.75 47 37.25 38.75 37.25" fill="#003cb4"/>
  </g>
</svg>
