<svg id="weiterempfehlen-2-pikto" xmlns="http://www.w3.org/2000/svg" width="48" height="48" viewBox="0 0 48 48">
  <title>weiterempfehlen-2-pikto-form</title>
  <g>
    <path d="M37,.25H11A10.79,10.79,0,0,0,.25,11.06V26a10.75,10.75,0,0,0,10,10.72v9l10-8.92H37A10.76,10.76,0,0,0,47.75,26V11A10.76,10.76,0,0,0,37,.25ZM46.25,26A9.26,9.26,0,0,1,37,35.25H19.71l-8,7.08V35.25H11A9.26,9.26,0,0,1,1.75,26V11.06A9.29,9.29,0,0,1,11,1.75H37A9.26,9.26,0,0,1,46.25,11Z" fill="#003cb4"/>
    <polygon points="27.52 14.31 24 6.1 20.48 14.31 10.94 15.46 17.92 21.28 15.88 30.61 24 25.39 32.19 30.65 29.84 21.27 36.81 15.47 27.52 14.31" fill="#003cb4"/>
  </g>
</svg>
