<svg id="weiterempfehlen-1-pikto" xmlns="http://www.w3.org/2000/svg" width="48" height="48" viewBox="0 0 48 48">
  <title>weiterempfehlen-1-pikto-form</title>
  <g>
    <path d="M37,.25H11A10.79,10.79,0,0,0,.25,11.06V26a10.75,10.75,0,0,0,10,10.72v9l10-8.92H37A10.76,10.76,0,0,0,47.75,26V11A10.76,10.76,0,0,0,37,.25ZM46.25,26A9.26,9.26,0,0,1,37,35.25H19.71l-8,7.08V35.25H11A9.26,9.26,0,0,1,1.75,26V11.06A9.29,9.29,0,0,1,11,1.75H37A9.26,9.26,0,0,1,46.25,11Z" fill="#003cb4"/>
    <path d="M36.5,16.75a2.5,2.5,0,0,0-2.5-2.5H24.22c1-2.07,2.73-5.63,2.78-6.72a2.59,2.59,0,0,0-.7-1.95,2.77,2.77,0,0,0-2.05-.83,2.71,2.71,0,0,0-2.41,1.64l-4.64,8.8H12.25V29.75H32.5a2.5,2.5,0,0,0,2-4,2.49,2.49,0,0,0,1-2,2.53,2.53,0,0,0-.5-1.5,2.49,2.49,0,0,0,1-2,2.53,2.53,0,0,0-.5-1.5A2.49,2.49,0,0,0,36.5,16.75Zm-2.5,1H33v1.5h.5a1,1,0,0,1,0,2h-1v1.5H33a1,1,0,0,1,0,2H32v1.5h.5a1,1,0,0,1,0,2H18.75V15.19l4.43-8.12a1.24,1.24,0,0,1,2-.46,1.12,1.12,0,0,1,.28.86c0,.69-1.63,4.2-3.17,7.19l-.56,1.09H34a1,1,0,0,1,0,2Z" fill="#003cb4"/>
  </g>
</svg>
