<svg xmlns="http://www.w3.org/2000/svg" viewBox="0 0 24 24"><title>xyc</title><path d="M19.79,4.2A10.93,10.93,0,0,0,2.55,17.35L1,23l5.81-1.52A11,11,0,0,0,12,22.81h0a10.94,10.94,0,0,0,11-10.9A10.81,10.81,0,0,0,19.79,4.2ZM12.05,21h0a9.17,9.17,0,0,1-4.63-1.26l-.33-.2-3.45.9.92-3.34-.22-.35A9.09,9.09,0,0,1,18.49,5.5a9,9,0,0,1,2.66,6.41A9.09,9.09,0,0,1,12.05,21Zm5-6.79c-.27-.13-1.62-.79-1.87-.88s-.43-.14-.62.13a13.32,13.32,0,0,1-.86,1.07c-.16.18-.32.21-.6.07a7.61,7.61,0,0,1-2.2-1.35,8.3,8.3,0,0,1-1.52-1.89.39.39,0,0,1,.12-.55c.12-.13.27-.32.41-.48a1.64,1.64,0,0,0,.27-.46.46.46,0,0,0,0-.47c-.07-.14-.61-1.48-.84-2s-.45-.46-.62-.46H8.17a1,1,0,0,0-.73.34,3,3,0,0,0-1,2.27A5.26,5.26,0,0,0,7.6,12.3a12.15,12.15,0,0,0,4.67,4.11,15.66,15.66,0,0,0,1.56.57,3.77,3.77,0,0,0,1.73.11A2.82,2.82,0,0,0,17.4,15.8a2.25,2.25,0,0,0,.16-1.3C17.5,14.39,17.31,14.32,17,14.18Z" style="fill:#003cb4"/></svg>