<?xml version="1.0" encoding="utf-8"?>
<!-- Generator: Adobe Illustrator 23.1.1, SVG Export Plug-In . SVG Version: 6.00 Build 0)  -->
<svg version="1.1" id="windrad-pikto" xmlns="http://www.w3.org/2000/svg" xmlns:xlink="http://www.w3.org/1999/xlink" x="0px"
	 y="0px" viewBox="0 0 48 48" enable-background="new 0 0 48 48" xml:space="preserve">
<title>windrad-pikto-linie</title>
<path fill="#00BEC8" stroke="#00BEC8" stroke-width="1.5" stroke-miterlimit="10" d="M15.75,20.75l4,1l-1,4
	C18.48,25.94,13,30,8.75,30c-0.45,0-3,0-4-2.25L15.75,20.75z"/>
<path fill="#00BEC8" stroke="#00BEC8" stroke-width="1.5" stroke-miterlimit="10" d="M27,14l-3.25,3L21,14
	c0-0.33-0.54-7.17,1.75-10.75C23.74,1.88,25.31,1.05,27,1V14z"/>
<path fill="#00BEC8" stroke="#00BEC8" stroke-width="1.5" stroke-miterlimit="10" d="M29.25,25.75l-1-4l4-1
	c0.29,0.15,6.35,3.2,8.25,7c0.2,0.4,1.3,2.89-0.25,4.75L29.25,25.75z"/>
<circle fill="none" stroke="#003CB4" stroke-width="1.5" stroke-miterlimit="10" cx="24" cy="21" r="3"/>
<line fill="none" stroke="#003CB4" stroke-width="1.5" stroke-miterlimit="10" x1="23" y1="23.75" x2="20" y2="42.01"/>
<line fill="none" stroke="#003CB4" stroke-width="1.5" stroke-miterlimit="10" x1="25" y1="23.75" x2="28" y2="42.01"/>
<rect x="16" y="42.25" fill="none" stroke="#003CB4" stroke-width="1.5" stroke-miterlimit="10" width="16" height="5"/>
</svg>
