<svg id="wohnung-pikto" xmlns="http://www.w3.org/2000/svg" width="48" height="48" viewBox="0 0 48 48">
  <title>wohnung-pikto-form</title>
  <g>
    <path d="M33.75,15.38l-5.25,3V7.94L14.25,0,0,7.94V48H48V23.57ZM19.5,23.57V46.5H1.5V8.83L14.25,1.72,27,8.83V19.26Zm27,22.93H21V24.43l12.75-7.31L46.5,24.43Z" fill="#003cb4"/>
    <polygon points="4 15.49 8.5 15.5 8.5 11 4 11 4 15.49" fill="#003cb4"/>
    <rect x="11" y="11" width="4.5" height="4.5" fill="#003cb4"/>
    <polygon points="4 22.49 8.5 22.5 8.5 18 4 18 4 22.49" fill="#003cb4"/>
    <polygon points="24 29.49 28.5 29.5 28.5 25 24 25 24 29.49" fill="#003cb4"/>
    <polygon points="31 29.49 35.5 29.5 35.5 25 31 25 31 29.49" fill="#003cb4"/>
    <polygon points="24 36.49 28.5 36.5 28.5 32 24 32 24 36.49" fill="#003cb4"/>
    <polygon points="31 36.49 35.5 36.5 35.5 32 31 32 31 36.49" fill="#003cb4"/>
  </g>
</svg>
