<svg id="zahnrad-pikto" xmlns="http://www.w3.org/2000/svg" width="48" height="48" viewBox="0 0 48 48">
  <title>zahnrad-pikto-linie</title>
  <path d="M22,15.25A6.88,6.88,0,0,1,15.25,22a6.66,6.66,0,0,1-6.5-6.75,6.45,6.45,0,0,1,6.5-6.5A6.66,6.66,0,0,1,22,15.25Z" fill="none" stroke="#003cb4" stroke-miterlimit="10" stroke-width="1.5"/>
  <path d="M27.25,17,30,19.5l-1.25,3L25,22.25l-2.75,2.5.5,3.75L19.5,30,17,27H14l-2.5,3L8.25,28.5l.5-3.75L6,22.25l-3.75.25L1,19.5,3.75,17V14L1,11.5l1.25-3L6,8.75l2.75-2.5L8.25,2.5,11.5,1,14,4h3l2.5-3,3.25,1.5-.5,3.75L25,8.75l3.75-.25,1.25,3L27.25,14Z" fill="none" stroke="#003cb4" stroke-miterlimit="10" stroke-width="1.5"/>
  <path d="M44.5,34l-1-2.75,1.5-2.5L43.25,27l-2.5,1.25L38,27l-.75-2.75H35l-1,2.5L31.75,28l-3-1.5L27,28.25l1.25,2.5L27,33.5l-2.75.75V36.5l2.75,1,1,2.74L26.5,42.5l1.75,2,2.5-1.25L33.5,44.5l.75,2.75h2.5l.75-2.75,2.75-1,2.5,1.5,1.75-1.75-1.25-2.5L44.5,38l2.75-.5V35Zm-8.75,6.75a5,5,0,1,1,5-5A5,5,0,0,1,35.75,40.75Z" fill="#00bec8" stroke="#00bec8" stroke-miterlimit="10" stroke-width="1.5"/>
</svg>
