<svg id="zahnrad-pikto" xmlns="http://www.w3.org/2000/svg" width="48" height="48" viewBox="0 0 48 48">
  <title>zahnrad-pikto-form</title>
  <g>
    <path d="M15.15,7.92A7.17,7.17,0,0,0,7.9,15.17a7.38,7.38,0,0,0,7.25,7.5,7.6,7.6,0,0,0,7.5-7.5A7.39,7.39,0,0,0,15.15,7.92Zm0,13.25a5.89,5.89,0,0,1-5.75-6,5.69,5.69,0,0,1,5.75-5.75,5.89,5.89,0,0,1,6,5.75A6.16,6.16,0,0,1,15.15,21.17Z" fill="#003cb4"/>
    <path d="M25.16,22.94l4,.27,1.66-4L27.9,16.59V14.25l2.89-2.63-1.66-4-4,.26-2.22-2L23.46,2,19.19,0,16.54,3.17H14.25L11.6,0,7.33,2l.52,3.91-2.22,2-4-.26L0,11.62l2.9,2.63v2.34L0,19.22l1.66,4,4-.27,2.22,2-.52,3.91,4.27,2,2.65-3.17h2.29l2.65,3.17,4.27-2L22.94,25ZM19.6,29l-2.35-2.83H13.54L11.19,29,9,28l.48-3.59-3.28-3-3.53.24-.84-2L4.4,17.25V13.59L1.79,11.22l.84-2,3.53.23,3.28-3L9,2.87l2.23-1,2.35,2.83h3.71L19.6,1.84l2.23,1-.48,3.59,3.28,3,3.53-.23.84,2-2.6,2.37v3.66L29,19.62l-.84,2-3.53-.24-3.28,3L21.83,28Z" fill="#003cb4"/>
    <path d="M48,38.13V34.47l-2.91-1-.76-2.09,1.61-2.7L43.4,26.09l-2.67,1.33-2.1-1-.81-3H34.49L33.4,26.22l-1.67.93L28.6,25.59,26.09,28.1l1.33,2.67-1,2.1-3,.81V37l2.91,1.07.76,2.06-1.61,2.41,2.51,2.87,2.7-1.35,2.1,1,.81,3h3.64l.8-2.93,2.05-.74,2.7,1.61,2.54-2.54-1.33-2.67L45,38.67ZM35.75,40A4.25,4.25,0,1,1,40,35.75,4.26,4.26,0,0,1,35.75,40Z" fill="#003cb4"/>
  </g>
</svg>
