<svg id="zeit-uhr-pikto" xmlns="http://www.w3.org/2000/svg" width="48" height="48" viewBox="0 0 48 48">
  <title>zeit-uhr-pikto-form</title>
  <g>
    <path d="M24,0A24,24,0,1,0,48,24,24,24,0,0,0,24,0ZM43.83,34.62l-2.94-1.76-.78,1.28,3,1.78a22.6,22.6,0,0,1-7.15,7.15l-1.78-3-1.28.78,1.76,2.94a22.39,22.39,0,0,1-9.87,2.65V43h-1.5v3.48a22.39,22.39,0,0,1-9.87-2.65l1.76-2.94-1.28-.78-1.78,3a22.6,22.6,0,0,1-7.15-7.15l3-1.78-.78-1.28L4.17,34.62a22.39,22.39,0,0,1-2.65-9.87H5v-1.5H1.52a22.39,22.39,0,0,1,2.65-9.87l2.94,1.76.78-1.28-3-1.78a22.6,22.6,0,0,1,7.15-7.15l1.78,3,1.28-.78L13.38,4.17a22.39,22.39,0,0,1,9.87-2.65V5h1.5V1.52a22.39,22.39,0,0,1,9.87,2.65L32.86,7.11l1.28.78,1.78-3a22.6,22.6,0,0,1,7.15,7.15l-3,1.78.78,1.28,2.94-1.76a22.39,22.39,0,0,1,2.65,9.87H43v1.5h3.48A22.39,22.39,0,0,1,43.83,34.62Z" fill="#003cb4"/>
    <polygon points="23.46 20.64 17.89 16.92 15.11 21.08 24.54 27.36 34.97 14.04 31.03 10.96 23.46 20.64" fill="#003cb4"/>
  </g>
</svg>
