<?xml version="1.0" encoding="utf-8"?>
<!-- Generator: Adobe Illustrator 23.1.1, SVG Export Plug-In . SVG Version: 6.00 Build 0)  -->
<svg version="1.1" id="ziel-pikto" xmlns="http://www.w3.org/2000/svg" xmlns:xlink="http://www.w3.org/1999/xlink" x="0px" y="0px"
	 viewBox="0 0 48 48" enable-background="new 0 0 48 48" xml:space="preserve">
<title>ziel-pikto-linie</title>
<path fill="#00BEC8" stroke="#00BEC8" stroke-width="1.5" stroke-miterlimit="10" d="M21,13.5c-7.46,0-13.5,6.04-13.5,13.5
	S13.54,40.5,21,40.5S34.5,34.46,34.5,27C34.49,19.55,28.45,13.51,21,13.5z M21,35.75c-4.83,0-8.75-3.92-8.75-8.75
	s3.92-8.75,8.75-8.75s8.75,3.92,8.75,8.75c0.01,4.83-3.9,8.74-8.73,8.75C21.01,35.75,21.01,35.75,21,35.75z"/>
<circle fill="none" stroke="#003CB4" stroke-width="1.5" stroke-miterlimit="10" cx="21" cy="27" r="20"/>
<line fill="none" stroke="#003CB4" stroke-width="1.5" stroke-miterlimit="10" x1="38.75" y1="9.25" x2="21" y2="27"/>
<polygon fill="#003CB4" stroke="#003CB4" stroke-width="1.5" stroke-miterlimit="10" points="38.25,9.75 41.75,10.25 46,6.25 
	42.25,5.75 41.75,2 37.75,6 "/>
<path fill="#003CB4" stroke="#003CB4" stroke-width="1.5" stroke-miterlimit="10" d="M21,24.5c-1.38,0-2.5,1.12-2.5,2.5
	s1.12,2.5,2.5,2.5s2.5-1.12,2.5-2.5S22.38,24.5,21,24.5z"/>
</svg>
