<svg id="ziel-pikto" xmlns="http://www.w3.org/2000/svg" width="48" height="48" viewBox="0 0 48 48">
  <title>ziel-pikto-form</title>
  <path d="M42.25,10.79l5.66-5.33-4.74-.63L42.54.15,37.21,5.48l.5,3.75-2.85,2.85a20.83,20.83,0,1,0,1.06,1.06l2.85-2.84ZM40,27.25a19.32,19.32,0,1,1-6.2-14.11l-3.53,3.53a14.29,14.29,0,1,0,1.06,1.06l3.53-3.53A19.14,19.14,0,0,1,40,27.25Zm-11.25,0a8,8,0,1,1-2.9-6.16l-3.4,3.4a3.31,3.31,0,0,0-1.7-.49A3.25,3.25,0,1,0,24,27.25a3.31,3.31,0,0,0-.49-1.7l3.4-3.4A8,8,0,0,1,28.75,27.25Z" fill="#003cb4"/>
</svg>
