<svg xmlns="http://www.w3.org/2000/svg" viewBox="0 0 24 24"><title>xyc</title><path d="M19.5,15.25a1.75,1.75,0,0,0-3.5,0v-.5a1.75,1.75,0,0,0-3.5,0v-6a1.75,1.75,0,0,0-3.5,0V17H9L6,14a2,2,0,0,0-2.55-.4A1.71,1.71,0,0,0,3,16l6,7H23V15.75a1.75,1.75,0,0,0-3.5,0Z" style="fill:none;stroke:#003cb4;stroke-miterlimit:10;stroke-width:1.5px"/><line x1="1" y1="10" x2="10" y2="1" style="fill:none;stroke:#003cb4;stroke-miterlimit:10;stroke-width:1.5px"/><polyline points="1 6 1 10 5 10" style="fill:none;stroke:#003cb4;stroke-miterlimit:10;stroke-width:1.5px"/><polyline points="10 5 10 1 6 1" style="fill:none;stroke:#003cb4;stroke-miterlimit:10;stroke-width:1.5px"/></svg>