<svg id="zwei-neutrale-personen-pikto" xmlns="http://www.w3.org/2000/svg" width="48" height="48" viewBox="0 0 48 48">
  <title>zwei-neutrale-personen-pikto-linie</title>
  <path d="M29,46s0-12-14-12S1,46,1,46Z" fill="none" stroke="#003cb4" stroke-miterlimit="10" stroke-width="1.5"/>
  <g>
    <circle cx="15" cy="19" r="11" fill="none" stroke="#00bec8" stroke-miterlimit="10" stroke-width="1.5"/>
    <path d="M25.5,16A10.73,10.73,0,0,0,15,8,10.73,10.73,0,0,0,4.5,16,23.77,23.77,0,0,0,25.5,16Z" fill="#00bec8" stroke="#00bec8" stroke-miterlimit="10" stroke-width="1.5"/>
  </g>
  <path d="M27,40H47s0-12-14-12c-7.78,0-11.24,3.71-12.77,7" fill="none" stroke="#003cb4" stroke-miterlimit="10" stroke-width="1.5"/>
  <g>
    <path d="M22,13a11,11,0,1,1,3.75,8.25" fill="none" stroke="#00bec8" stroke-miterlimit="10" stroke-width="1.5"/>
    <path d="M43.5,10a10.89,10.89,0,0,0-21,0A23.77,23.77,0,0,0,43.5,10Z" fill="#00bec8" stroke="#00bec8" stroke-miterlimit="10" stroke-width="1.5"/>
  </g>
</svg>
