<svg id="zwei-neutrale-personen-pikto" xmlns="http://www.w3.org/2000/svg" width="48" height="48" viewBox="0 0 48 48">
  <title>zwei-neutrale-personen-pikto-form</title>
  <g>
    <path d="M47.75,40c0-.13-.17-12.75-14.75-12.75-7.58,0-11.24,3.41-13,6.59a19.89,19.89,0,0,0-5-.59C.42,33.25.25,45.87.25,46v.75h29.5V46a14,14,0,0,0-1.3-5.25h19.3Zm-46,5.25c.26-2.54,2-10.5,13.21-10.5s12.94,8,13.2,10.5Zm25.85-6a12,12,0,0,0-6.19-5c1.63-2.73,4.92-5.55,11.55-5.55,11.22,0,12.94,8,13.2,10.5Z" fill="#003cb4"/>
    <path d="M15,30.75a11.77,11.77,0,0,0,11.2-8.2A11.72,11.72,0,1,0,21.78,9.42,11.74,11.74,0,1,0,15,30.75ZM33,13.2a25.29,25.29,0,0,0,10-2.19,10,10,0,0,1,.2,2,10.22,10.22,0,0,1-16.68,8A11.4,11.4,0,0,0,26.75,19,11.7,11.7,0,0,0,24,11.43,24.91,24.91,0,0,0,33,13.2ZM4.94,17A25.34,25.34,0,0,0,15,19.2,25.29,25.29,0,0,0,25.05,17a10,10,0,0,1,.2,2,10.25,10.25,0,0,1-20.5,0A10.58,10.58,0,0,1,4.94,17Z" fill="#003cb4"/>
  </g>
</svg>
